<svg xmlns="http://www.w3.org/2000/svg" width="32" height="36" viewBox="0 0 32 36" fill="none"><path d="M30.069 5.31596H27.4665C26.7793 5.31596 26.2217 5.87364 26.2217 6.56083V7.34857H22.6668C22.5145 7.34857 22.3697 7.41562 22.2722 7.53294L18.4187 12.1393C17.8199 11.705 17.1114 11.417 16.3419 11.3272V5.09072H17.1282C17.8153 5.09072 18.373 4.53304 18.373 3.84585V1.24487C18.373 0.557682 17.8138 0 17.1282 0H14.5257C13.84 0 13.2808 0.557682 13.2808 1.24487V3.84737C13.2808 4.53304 13.84 5.09224 14.5257 5.09224H15.3134V11.3287C14.4297 11.4308 13.6251 11.7949 12.9791 12.342L12.8602 12.2292C12.8404 12.2018 12.8176 12.1744 12.7932 12.15L7.70862 7.3213C7.90366 7.02418 8.01793 6.67067 8.01793 6.28976C8.01793 5.2521 7.17378 4.40951 6.13768 4.40951C5.10002 4.40951 4.25743 5.25366 4.25743 6.28976C4.25743 7.32586 5.10006 8.17001 6.13768 8.17001C6.41957 8.17001 6.6862 8.10754 6.92695 7.99631L11.5376 12.3756C11.5574 12.4015 11.5772 12.4259 11.6016 12.4488L12.2735 13.0872C11.8241 13.6936 11.5269 14.4174 11.434 15.2021L5.09224 15.2036V14.4174C5.09224 13.7302 4.53456 13.1725 3.84737 13.1725H1.24487C0.559204 13.1725 0 13.7302 0 14.4174V17.0199C0 17.7056 0.557683 18.2648 1.24487 18.2648H3.84737C4.53456 18.2648 5.09224 17.7071 5.09224 17.0199V16.2322H11.434C11.5163 16.93 11.7662 17.5883 12.144 18.1581L7.71167 24.352H5.21433C4.99035 23.5643 4.26506 22.9853 3.4057 22.9853C2.36803 22.9853 1.52544 23.8294 1.52544 24.8655C1.52544 25.9032 2.36959 26.7458 3.4057 26.7458C4.26354 26.7458 4.99035 26.1668 5.21433 25.379H7.97528C8.14137 25.379 8.29679 25.2998 8.3943 25.1642L12.8329 18.9656C13.2351 19.3389 13.709 19.6391 14.2347 19.8417V24.4235L13.9605 23.8445C13.61 23.1055 12.7811 22.723 11.9903 22.9348C11.1142 23.1695 10.5793 24.0471 10.7744 24.9339L11.7358 29.3191C11.8394 29.7945 12.0299 30.2425 12.2981 30.6493L14.5577 34.0746H13.4866C13.2032 34.0746 12.9731 34.3047 12.9731 34.5896C12.9731 34.873 13.2032 35.1031 13.4866 35.1031L25.3166 35.1046C25.6 35.1046 25.8301 34.8745 25.8301 34.5911C25.8301 34.3062 25.6 34.0761 25.3166 34.0761H23.9879V32.1577L24.8138 30.6645C25.0896 30.1648 25.2359 29.5994 25.2359 29.0281V28.3729C25.2359 28.3713 25.2374 28.3698 25.2374 28.3668V24.28C25.2374 23.3262 24.4618 22.5506 23.508 22.5506H23.4455C23.127 22.5506 22.8284 22.6374 22.5724 22.7883C22.292 22.2108 21.6993 21.8101 21.0152 21.8101H20.9527C20.6601 21.8101 20.3859 21.8832 20.1436 22.0112C19.8983 21.353 19.2644 20.8821 18.5224 20.8821H18.4599C18.21 20.8821 17.9739 20.9355 17.759 21.0315V19.7059C18.9155 19.232 19.5935 18.0405 19.5935 18.0405C20.0248 17.3441 20.2518 16.5396 20.2518 15.7183C20.2518 14.6182 19.8465 13.6095 19.1791 12.8355L22.9091 8.37543H26.2232V9.16165C26.2232 9.84884 26.7824 10.4065 27.4681 10.4065H30.0706C30.7578 10.4065 31.3154 9.84884 31.3154 9.16165V6.55915C31.3124 5.87501 30.7547 5.31596 30.069 5.31596ZM6.13749 7.14289C5.66819 7.14289 5.28573 6.76044 5.28573 6.29113C5.28573 5.82183 5.66818 5.43938 6.13749 5.43938C6.6083 5.43938 6.98924 5.82183 6.98924 6.29113C6.98924 6.75891 6.60679 7.14289 6.13749 7.14289ZM4.06524 17.0195C4.06524 17.1383 3.96925 17.2358 3.84887 17.2358H1.24637C1.12752 17.2358 1.03 17.1398 1.03 17.0195V14.4169C1.03 14.2981 1.12599 14.2006 1.24637 14.2006H3.84887C3.96772 14.2006 4.06524 14.2966 4.06524 14.4169V17.0195ZM3.40548 25.7184C2.93466 25.7184 2.55372 25.3359 2.55372 24.8666C2.55372 24.3958 2.93617 24.0149 3.40548 24.0149C3.87478 24.0149 4.25723 24.3973 4.25723 24.8666C4.25723 25.3359 3.87478 25.7184 3.40548 25.7184ZM14.5256 4.06173C14.4067 4.06173 14.3092 3.96574 14.3092 3.84536V1.24438C14.3092 1.12553 14.4052 1.02801 14.5256 1.02801H17.1281C17.2469 1.02801 17.3445 1.124 17.3445 1.24438V3.84688C17.3445 3.96574 17.2485 4.06325 17.1281 4.06325L14.5256 4.06173ZM18.4567 21.9105H18.5192C18.9062 21.9105 19.2201 22.2244 19.2201 22.6114V26.6674C19.2201 26.9508 19.4502 27.1809 19.7336 27.1809C20.0185 27.1809 20.2486 26.9508 20.2486 26.6674V23.5392C20.2486 23.1537 20.5625 22.8383 20.9495 22.8383H21.012C21.3975 22.8383 21.7129 23.1522 21.7129 23.5392V26.6674C21.7129 26.9508 21.943 27.1809 22.2279 27.1809C22.5113 27.1809 22.7414 26.9508 22.7414 26.6674V24.2797C22.7414 23.8927 23.0553 23.5788 23.4423 23.5788H23.5048C23.8918 23.5788 24.2057 23.8927 24.2057 24.2797V29.0292C24.2057 29.4269 24.1036 29.82 23.9116 30.1674L23.0218 31.7765C22.9791 31.8527 22.9578 31.938 22.9578 32.0264V34.0788H15.7887L13.1557 30.0853C12.9577 29.7836 12.8175 29.4529 12.7413 29.101L11.7798 24.7158C11.7037 24.3669 11.9139 24.0225 12.2583 23.9311C12.5691 23.8473 12.8937 23.9981 13.0308 24.2876L14.2346 26.8246V28.0466C14.2346 28.33 14.4646 28.5601 14.7496 28.5601C15.033 28.5601 15.2631 28.33 15.2631 28.0466L15.2615 18.8223C15.2615 18.4352 15.5754 18.1214 15.9624 18.1214H16.0249C16.4119 18.1214 16.7258 18.4352 16.7258 18.8223V26.6677C16.7258 26.9511 16.9559 27.1812 17.2393 27.1812C17.5243 27.1812 17.7543 26.9511 17.7543 26.6677L17.7558 22.6118C17.7558 22.2263 18.0697 21.9105 18.4567 21.9105ZM19.2216 15.7182C19.2216 16.349 19.0464 16.9661 18.7157 17.4994C18.702 17.5222 18.6898 17.5451 18.6807 17.5695C18.4521 17.9946 18.0087 18.3557 17.7344 18.5523C17.6049 17.7249 16.8888 17.091 16.0248 17.091H15.9624C15.0436 17.091 14.2893 17.8118 14.236 18.7168C13.148 18.1363 12.4319 16.9859 12.4319 15.7182V15.7167C12.4319 13.8455 13.9541 12.3234 15.8252 12.3234H15.8267H15.8283C17.6994 12.3249 19.2216 13.8471 19.2216 15.7182ZM30.2836 9.1615C30.2836 9.28035 30.1876 9.37787 30.0672 9.37787H27.4647C27.3458 9.37787 27.2483 9.28188 27.2483 9.1615V6.559C27.2483 6.44015 27.3443 6.34263 27.4647 6.34263H30.0672C30.1861 6.34263 30.2836 6.43862 30.2836 6.559V9.1615ZM26.7364 16.2803C25.6987 16.2803 24.8561 17.1244 24.8561 18.1605C24.8561 19.1966 25.7003 20.0408 26.7364 20.0408C27.7725 20.0408 28.6166 19.1981 28.6166 18.1605C28.6166 17.1244 27.7725 16.2803 26.7364 16.2803ZM26.7364 19.0123C26.2655 19.0123 25.8846 18.6298 25.8846 18.1605C25.8846 17.6897 26.2671 17.3088 26.7364 17.3088C27.2057 17.3088 27.5881 17.6912 27.5881 18.1605C27.5881 18.6313 27.2057 19.0123 26.7364 19.0123Z" fill="#73160B"></path></svg>