<svg xmlns="http://www.w3.org/2000/svg" width="64" height="64" viewBox="0 0 64 64" fill="none"><path d="M54.6427 28.0974L33.593 17.0513C33.1355 16.814 32.6276 16.6902 32.1123 16.6902C31.5969 16.6902 31.0891 16.814 30.6316 17.0513L9.5996 28.0974C9.24472 28.2757 8.94617 28.5489 8.73707 28.8866C8.52798 29.2243 8.41651 29.6133 8.41504 30.0105C8.41808 30.4081 8.53013 30.7972 8.73899 31.1356C8.94785 31.474 9.24552 31.7485 9.5996 31.9295L17.169 35.8978V40.0734C17.169 43.2658 27.6346 43.6271 32.136 43.6271C36.6373 43.6271 47.1029 43.2835 47.1029 40.0734V35.8978L53.5707 32.504V46.1265C53.5913 46.4116 53.7192 46.6783 53.9285 46.873C54.1378 47.0677 54.4131 47.1759 54.699 47.1759C54.9848 47.1759 55.2601 47.0677 55.4694 46.873C55.6788 46.6783 55.8066 46.4116 55.8273 46.1265V30.0105C55.8251 29.6134 55.7134 29.2247 55.5044 28.8871C55.2953 28.5496 54.9972 28.2763 54.6427 28.0974ZM32.1063 41.3527C25.7334 41.3527 21.6644 40.6479 20.0297 40.0734C21.6644 39.4811 25.7334 38.7881 32.1063 38.7881C38.4793 38.7881 42.5483 39.4929 44.183 40.0734C42.5483 40.6479 38.4793 41.3527 32.1063 41.3527ZM44.8167 37.9471C41.4881 36.7151 35.2988 36.5315 32.1063 36.5315C28.9139 36.5315 22.7246 36.7092 19.396 37.9471V30.3007C20.3081 29.7084 24.614 28.7311 32.1063 28.7311C39.5987 28.7311 43.9046 29.7084 44.8167 30.3007V37.9471ZM47.0733 33.3509V30.0105C47.0733 26.8181 36.6077 26.4568 32.1063 26.4568C27.605 26.4568 17.1394 26.8003 17.1394 30.0105V33.3509L10.7842 30.0105L31.674 19.0532C31.8085 18.9801 31.9592 18.9419 32.1123 18.9419C32.2654 18.9419 32.416 18.9801 32.5506 19.0532L53.4285 30.0105L47.0733 33.3509Z" fill="#64C4B6"></path></svg>