<svg xmlns="http://www.w3.org/2000/svg" width="39" height="25" viewBox="0 0 39 25" fill="none"><path d="M37.4857 16.9744V9.48987L37.7456 9.39343C38.3578 9.16701 38.7562 8.60095 38.7562 7.94684C38.7562 7.29273 38.3578 6.72667 37.7456 6.50024L20.5333 0.2107C19.7659 -0.0702332 18.9902 -0.0702332 18.2229 0.2107L1.01052 6.50444C0.398338 6.73086 0 7.29692 0 7.95103C0 8.60514 0.398338 9.1712 1.01052 9.39763L6.1973 11.2929V17.4231C6.1973 18.4713 6.65014 19.4064 7.47198 20.0605C11.1451 22.9663 15.2626 24.4171 19.376 24.4171C23.4893 24.4171 27.6111 22.9663 31.28 20.0605C32.1018 19.4106 32.5547 18.4713 32.5547 17.4231V11.2929L36.2236 9.95111V16.9744C35.3514 17.247 34.7141 18.0478 34.7141 19.008V21.4148C34.7141 22.2618 35.4059 22.9537 36.2529 22.9537H37.4479C38.2949 22.9537 38.9868 22.2618 38.9868 21.4148V19.008C38.9952 18.0478 38.3578 17.2428 37.4857 16.9744ZM1.25791 7.95103C1.25791 7.82524 1.325 7.7288 1.4424 7.68687L18.6548 1.38894C19.1454 1.20864 19.6066 1.20864 20.0972 1.38894L37.3096 7.68268C37.427 7.72461 37.4941 7.82105 37.4941 7.94684C37.4941 8.07263 37.427 8.16907 37.3096 8.211L36.7603 8.41227L19.4137 7.31788C19.0657 7.29692 18.768 7.56108 18.747 7.90491C18.7261 8.25293 18.9902 8.55064 19.3341 8.5716L33.821 9.48568L20.1014 14.5089C19.6108 14.6892 19.1496 14.6892 18.659 14.5089L1.4424 8.21519C1.325 8.16907 1.25791 8.07263 1.25791 7.95103ZM31.301 17.4231C31.301 18.0982 31.0326 18.6558 30.5043 19.0709C23.6445 24.5009 15.1159 24.5009 8.25607 19.0709C7.72775 18.6516 7.4594 18.0982 7.4594 17.4231V11.7499L18.2271 15.6872C18.6087 15.8255 18.9944 15.8968 19.3802 15.8968C19.7659 15.8968 20.1517 15.8255 20.5333 15.6872L31.301 11.7499V17.4231ZM37.7373 21.4107C37.7373 21.5658 37.6115 21.6916 37.4563 21.6916H36.2613C36.1062 21.6916 35.9804 21.5658 35.9804 21.4107V19.0039C35.9804 18.5175 36.3745 18.1233 36.8609 18.1233C37.3473 18.1233 37.7415 18.5175 37.7415 19.0039V21.4107H37.7373Z" fill="#E37A16"></path></svg>