<svg xmlns="http://www.w3.org/2000/svg" width="64" height="64" viewBox="0 0 64 64" fill="none"><path d="M31.9988 29.0436C30.4595 29.0418 29.2121 27.7944 29.2121 26.2551C29.2121 25.852 29.5385 25.5256 29.9416 25.5256C30.3428 25.5256 30.6711 25.852 30.6711 26.2551C30.6693 26.7931 30.9939 27.2764 31.4899 27.4825C31.986 27.6886 32.5569 27.5755 32.938 27.1961C33.3174 26.815 33.4323 26.2441 33.2262 25.7481C33.0201 25.252 32.5368 24.9274 31.9988 24.9274C30.8717 24.9274 29.854 24.2489 29.4236 23.2057C28.9914 22.1644 29.2303 20.9661 30.0273 20.1692C30.8243 19.3722 32.0243 19.1332 33.0657 19.5637C34.1071 19.9959 34.7855 21.0118 34.7855 22.1406C34.7855 22.5419 34.4591 22.8701 34.056 22.8701C33.6548 22.8701 33.3265 22.5419 33.3265 22.1406C33.3265 21.6026 33.0037 21.1175 32.5077 20.9114C32.0116 20.7072 31.4389 20.8202 31.0596 21.1996C30.6802 21.5807 30.5653 22.1516 30.7714 22.6477C30.9775 23.1456 31.4608 23.4684 31.9988 23.4684C33.5381 23.4684 34.7855 24.7158 34.7855 26.2551C34.7855 27.7962 33.5381 29.0436 31.9988 29.0436Z" fill="#795402"></path><path d="M31.999 20.8111C31.596 20.8111 31.2695 20.4846 31.2695 20.0816V18.2688C31.2695 17.8657 31.596 17.5392 31.999 17.5392C32.4021 17.5392 32.7285 17.8657 32.7285 18.2688V20.0816C32.7285 20.2749 32.6519 20.4609 32.5152 20.5977C32.3784 20.7345 32.1924 20.8111 31.999 20.8111Z" fill="#795402"></path><path d="M31.999 30.8584C31.596 30.8584 31.2695 30.5301 31.2695 30.1289V28.3143C31.2695 27.9112 31.596 27.5848 31.999 27.5848C32.4021 27.5848 32.7285 27.9112 32.7285 28.3143V30.1289C32.7285 30.5301 32.4021 30.8584 31.999 30.8584Z" fill="#795402"></path><path d="M31.9994 36.9531C24.9672 36.9531 19.2441 31.2301 19.2441 24.1978C19.2441 17.1656 24.9672 11.4426 31.9994 11.4426C39.0316 11.4426 44.7547 17.1656 44.7547 24.1978C44.7547 31.2301 39.0316 36.9531 31.9994 36.9531ZM31.9994 12.9011C29.003 12.9011 26.1288 14.0902 24.0115 16.2094C21.8923 18.3286 20.7014 21.2009 20.7014 24.1973C20.7014 27.1938 21.8923 30.0679 24.0097 32.1871C26.1289 34.3045 29.003 35.4954 31.9995 35.4954C34.9959 35.4954 37.8682 34.3045 39.9874 32.1853C42.1066 30.0679 43.2957 27.1938 43.2957 24.1974C43.292 21.2027 42.1011 18.3305 39.9837 16.2127C37.8663 14.0953 34.9936 12.9044 31.999 12.9007L31.9994 12.9011Z" fill="#795402"></path><path d="M32.0004 33.4991C29.5329 33.4991 27.1673 32.5197 25.4239 30.7744C23.6786 29.0309 22.6992 26.6655 22.6992 24.1979C22.6992 21.7303 23.6786 19.3647 25.4239 17.6214C27.1674 15.876 29.5329 14.8967 32.0004 14.8967C34.468 14.8967 36.8336 15.8761 38.577 17.6214C40.3223 19.3649 41.3017 21.7303 41.3017 24.1979C41.298 26.6636 40.3186 29.0273 38.5733 30.7707C36.8297 32.516 34.4661 33.4954 32.0004 33.4991ZM32.0004 16.3556C29.9214 16.3556 27.9261 17.1817 26.4543 18.6517C24.9844 20.1235 24.1582 22.1187 24.1582 24.1978C24.1582 26.2769 24.9843 28.2722 26.4543 29.744C27.9261 31.2139 29.9213 32.0401 32.0004 32.0401C34.0796 32.0401 36.0747 31.2139 37.5466 29.744C39.0165 28.2722 39.8427 26.277 39.8427 24.1978C39.8409 22.1188 39.0129 20.1253 37.5429 18.6555C36.073 17.1855 34.0795 16.3574 32.0004 16.3556Z" fill="#795402"></path><path d="M32.9214 51.97C28.683 51.97 24.1197 50.407 21.8329 49.5006C21.3314 49.2999 19.2614 49.1157 17.9519 49.0446H17.9537C17.5507 49.0246 17.2407 48.6817 17.2607 48.2787C17.2826 47.8756 17.6254 47.5656 18.0285 47.5856C18.5956 47.6148 21.4681 47.7808 22.3727 48.14C23.8025 48.7054 26.6585 49.7303 29.6841 50.2246C33.2277 50.8009 35.9688 50.5073 37.8289 49.3492C38.2228 49.1084 48.9851 43.5934 51.1426 42.4883L51.1499 42.4865C52.1164 42.0141 52.5177 40.8469 52.0435 39.8785C51.5712 38.9119 50.404 38.5125 49.4374 38.9849L49.3808 39.014L49.3699 39.0213L39.2371 44.186C38.8778 44.3684 38.4383 44.2243 38.2559 43.865C38.0735 43.5076 38.2158 43.068 38.5751 42.8838L48.7041 37.7224L48.7953 37.675L48.7935 37.6768C50.4841 36.847 52.5267 37.5455 53.3547 39.2361C54.1845 40.9249 53.486 42.9675 51.7954 43.7955C46.7036 46.4072 39.0037 50.3608 38.5914 50.6018C36.9793 51.5993 34.9879 51.97 32.9214 51.97Z" fill="#795402"></path><path d="M36.5844 45.7385H36.5297L29.5685 45.6218H29.5648C29.1636 45.6145 28.8426 45.2826 28.8481 44.8795C28.8554 44.4765 29.1873 44.1555 29.5903 44.1628L36.5516 44.2795H36.5826V44.2813C37.5838 44.2777 38.4008 43.4788 38.4246 42.4776V42.2533V42.2551C38.4391 41.2393 37.6312 40.404 36.6172 40.3839L31.2154 40.2927C30.6062 40.2818 26.1086 39.8879 24.573 39.1328H24.5712C23.0903 38.4015 21.4616 38.0185 19.8076 38.013H17.9893C17.588 38.013 17.2598 37.6848 17.2598 37.2835C17.2598 36.8805 17.588 36.554 17.9893 36.554H19.813C21.6897 36.5595 23.539 36.9935 25.2223 37.8234C26.3622 38.3851 30.4472 38.8192 31.2442 38.8338L36.6461 38.925H36.6479C38.4625 38.9614 39.9088 40.4551 39.8869 42.2716V42.4995C39.8504 44.2978 38.3823 45.7367 36.5822 45.7386L36.5844 45.7385Z" fill="#795402"></path><path d="M17.9895 52.5573H11.0264C10.6233 52.5573 10.2969 52.2309 10.2969 51.8278V33.7725C10.2969 33.3694 10.6233 33.043 11.0264 33.043H17.9895C18.1846 33.043 18.3688 33.1196 18.5056 33.2563C18.6424 33.3931 18.719 33.5792 18.719 33.7725V51.8278C18.719 52.0211 18.6424 52.2072 18.5056 52.344C18.3688 52.4808 18.1846 52.5573 17.9895 52.5573ZM11.7557 51.0983H17.2598V34.502H11.7557V51.0983Z" fill="#795402"></path><path d="M14.5088 41.4469C14.1058 41.4469 13.7793 41.1205 13.7793 40.7174V36.6449C13.7793 36.2419 14.1058 35.9154 14.5088 35.9154C14.9119 35.9154 15.2383 36.2419 15.2383 36.6449V40.7174C15.2383 40.9107 15.1617 41.0967 15.0249 41.2335C14.8881 41.3703 14.7021 41.4469 14.5088 41.4469Z" fill="#795402"></path></svg>