<svg xmlns="http://www.w3.org/2000/svg" width="64" height="64" viewBox="0 0 64 64" fill="none"><path d="M21.0431 13.9724C18.1998 13.9724 15.8691 16.3089 15.8691 19.1612C15.8691 22.0136 18.1998 24.3501 21.0431 24.3501C23.8865 24.3501 26.2172 22.0136 26.2172 19.1612C26.2172 16.3089 23.8865 13.9724 21.0431 13.9724ZM21.0431 15.87C22.8626 15.87 24.3195 17.336 24.3195 19.1612C24.3195 20.9864 22.8626 22.4376 21.0431 22.4376C19.2237 22.4376 17.7667 20.9864 17.7667 19.1612C17.7667 17.336 19.2237 15.87 21.0431 15.87ZM42.955 18.4793C40.1116 18.4793 37.7809 20.8158 37.7809 23.6681C37.7809 26.5205 40.1116 28.857 42.955 28.857C45.7983 28.857 48.129 26.5205 48.129 23.6681C48.129 20.8158 45.7983 18.4793 42.955 18.4793ZM42.955 20.3917C44.7744 20.3917 46.2314 21.8429 46.2314 23.6681C46.2314 25.4933 44.7744 26.9593 42.955 26.9593C41.1356 26.9593 39.6786 25.4933 39.6786 23.6681C39.6786 21.8429 41.1356 20.3917 42.955 20.3917ZM21.0431 26.6777C15.5734 26.6777 11.125 31.0422 11.125 36.4475V44.557C11.125 44.8086 11.225 45.05 11.4029 45.2279C11.5809 45.4058 11.8222 45.5058 12.0738 45.5058H41.932C42.0578 45.5076 42.1826 45.4844 42.2993 45.4375C42.4159 45.3906 42.5221 45.321 42.6117 45.2327C42.7012 45.1444 42.7723 45.0392 42.8208 44.9232C42.8694 44.8072 42.8944 44.6827 42.8944 44.557C42.8944 44.4313 42.8694 44.3068 42.8208 44.1908C42.7723 44.0748 42.7012 43.9696 42.6117 43.8813C42.5221 43.793 42.4159 43.7234 42.2993 43.6765C42.1826 43.6296 42.0578 43.6064 41.932 43.6082H13.0226V36.4475C13.0226 32.0778 16.5737 28.5753 21.0431 28.5753C25.5126 28.5753 29.0636 32.0778 29.0636 36.4475V41.162C29.0619 41.2877 29.0851 41.4126 29.132 41.5292C29.1789 41.6459 29.2485 41.7521 29.3368 41.8416C29.425 41.9312 29.5302 42.0023 29.6462 42.0508C29.7622 42.0993 29.8867 42.1243 30.0125 42.1243C30.1382 42.1243 30.2627 42.0993 30.3787 42.0508C30.4947 42.0023 30.5999 41.9312 30.6882 41.8416C30.7765 41.7521 30.8461 41.6459 30.893 41.5292C30.9398 41.4126 30.9631 41.2877 30.9613 41.162V36.4475C30.9613 31.0422 26.5128 26.6777 21.0431 26.6777ZM42.955 31.1846C37.4853 31.1846 33.0368 35.5491 33.0368 40.9544C33.0351 41.0802 33.0583 41.205 33.1052 41.3217C33.1521 41.4384 33.2217 41.5445 33.3099 41.6341C33.3982 41.7236 33.5034 41.7947 33.6194 41.8432C33.7354 41.8918 33.8599 41.9168 33.9857 41.9168C34.1114 41.9168 34.2359 41.8918 34.3519 41.8432C34.4679 41.7947 34.5731 41.7236 34.6614 41.6341C34.7496 41.5445 34.8193 41.4384 34.8661 41.3217C34.913 41.205 34.9363 41.0802 34.9345 40.9544C34.9345 36.5847 38.4855 33.0822 42.955 33.0822C47.4244 33.0822 50.9755 36.5847 50.9755 40.9544V48.1299H33.9857C33.8599 48.1281 33.7351 48.1514 33.6184 48.1982C33.5018 48.2451 33.3956 48.3147 33.306 48.403C33.2165 48.4913 33.1454 48.5965 33.0969 48.7125C33.0483 48.8285 33.0233 48.953 33.0233 49.0787C33.0233 49.2045 33.0483 49.329 33.0969 49.445C33.1454 49.561 33.2165 49.6661 33.306 49.7544C33.3956 49.8427 33.5018 49.9123 33.6184 49.9592C33.7351 50.0061 33.8599 50.0293 33.9857 50.0275H51.9243C52.1759 50.0275 52.4173 49.9275 52.5952 49.7496C52.7731 49.5717 52.8731 49.3304 52.8731 49.0787V40.9544C52.8731 35.5491 48.4247 31.1846 42.955 31.1846Z" fill="#CB029C"></path></svg>