<svg xmlns="http://www.w3.org/2000/svg" width="64" height="64" viewBox="0 0 64 64" fill="none"><path d="M27.1664 38.4549H46.1266C46.7732 38.4549 47.3006 37.9276 47.3006 37.281V21.3977C47.3006 20.7511 46.7732 20.2237 46.1266 20.2237H39.4291V16.6009C39.4291 15.9543 38.9017 15.4269 38.2551 15.4269H19.0472V13.7531C19.0472 13.1065 18.5198 12.5791 17.8732 12.5791C17.2266 12.5791 16.6992 13.1065 16.6992 13.7531V50.2472C16.6992 50.8938 17.2266 51.4212 17.8732 51.4212C18.5198 51.4212 19.0472 50.8938 19.0472 50.2472V33.6578H25.99V37.2806C25.99 37.9272 26.5174 38.4546 27.164 38.4546L27.1664 38.4549ZM44.9573 22.5717V36.107H28.345V33.6581H38.2598C38.9064 33.6581 39.4338 33.1308 39.4338 32.4842V22.5694H44.9575L44.9573 22.5717ZM19.0472 17.7749H37.0788V21.3793V21.3977V21.416V31.312H27.1869H27.164H27.1411H19.0471L19.0472 17.7749Z" fill="#64C4B6"></path></svg>