<svg xmlns="http://www.w3.org/2000/svg" width="64" height="64" viewBox="0 0 64 64" fill="none"><path d="M44.3088 25.1699C44.2997 25.1479 44.2905 25.1259 44.2777 25.1058C44.2722 25.0984 44.2648 25.0966 44.2593 25.0893H44.2612C42.6233 22.1745 39.9998 19.9377 36.8617 18.7816C33.7252 17.6256 30.2773 17.6256 27.1406 18.7816C24.0023 19.9376 21.3808 22.1746 19.743 25.0893C19.7375 25.0966 19.7302 25.0984 19.7247 25.1058C19.7118 25.1259 19.7008 25.1479 19.6917 25.1717C18.5265 27.2584 17.9146 29.6089 17.9164 32C17.9164 32.4085 17.9439 32.8116 17.9769 33.2109H17.9787C17.9769 33.2366 17.9787 33.2641 17.9824 33.2897C18.4129 37.9943 21.1738 42.1699 25.3364 44.4065C29.4989 46.6432 34.504 46.6435 38.6664 44.4065C42.8289 42.1696 45.5899 37.9943 46.0204 33.2897C46.0241 33.2641 46.0259 33.2366 46.0241 33.2109C46.0589 32.8115 46.0864 32.4085 46.0864 32C46.0882 29.6091 45.4763 27.2588 44.3093 25.1703L44.3088 25.1699ZM44.6679 32.9122C42.4878 34.9128 39.8662 36.3675 37.0156 37.1571C37.2556 35.4478 37.3765 33.7257 37.3747 31.9999C37.3747 31.1443 37.3454 30.2833 37.2867 29.4295C39.4962 28.8286 41.5866 27.8521 43.4645 26.5404C44.2852 28.2442 44.7121 30.1092 44.714 32C44.714 32.3078 44.6899 32.6099 44.6679 32.9122ZM32.001 44.7124C30.7882 44.7124 29.4875 42.4645 28.707 38.9361C30.889 39.3007 33.1131 39.3007 35.2951 38.9361C34.5147 42.4646 33.2138 44.7124 32.001 44.7124ZM32.001 37.8387C30.8047 37.8387 29.6102 37.7251 28.434 37.4979C28.1409 35.6805 27.9962 33.8411 27.9998 31.9997C27.9998 31.223 28.0291 30.4736 28.0731 29.7426C30.6654 30.2703 33.3368 30.2703 35.9289 29.7426C35.9748 30.4736 36.0022 31.2229 36.0022 31.9997C36.0059 33.841 35.8612 35.6804 35.568 37.4979C34.3919 37.7251 33.1974 37.8387 32.001 37.8387ZM32.001 19.2871C33.5583 19.2871 35.2657 22.9897 35.8172 28.3666C33.3018 28.8997 30.7003 28.8997 28.1851 28.3666C28.7365 22.9895 30.4438 19.2871 32.001 19.2871ZM42.8027 25.3293C41.0898 26.544 39.1825 27.46 37.1639 28.0371C36.7919 24.5763 35.9327 21.4016 34.6264 19.564L34.6246 19.5622C38.0231 20.2895 40.9782 22.3726 42.8031 25.3296L42.8027 25.3293ZM29.3774 19.562C28.0693 21.4014 27.2101 24.5761 26.84 28.035L26.8382 28.0369C24.8193 27.4598 22.9121 26.5437 21.1993 25.3291C23.024 22.3722 25.979 20.2892 29.3778 19.5617L29.3774 19.562ZM20.5376 26.5403C22.4155 27.8521 24.5058 28.8285 26.7154 29.4295C26.6567 30.2832 26.6274 31.1443 26.6274 31.9999C26.6256 33.7257 26.7465 35.4478 26.9865 37.157C24.1358 36.3674 21.5141 34.9128 19.3342 32.9122C19.3122 32.6099 19.2884 32.3076 19.2884 31.9998C19.2902 30.1092 19.7168 28.2443 20.5376 26.5403ZM19.6564 34.9843C21.8951 36.7265 24.4801 37.9742 27.2374 38.6429C27.5543 40.6985 28.2817 42.6697 29.3772 44.4375C27.0304 43.9355 24.874 42.7831 23.1554 41.1104C21.4351 39.4378 20.2225 37.3144 19.6564 34.9843ZM34.6242 44.4376C35.7198 42.6696 36.4471 40.6983 36.7641 38.643C39.5213 37.9743 42.1065 36.7267 44.3451 34.9844C43.779 37.3148 42.5661 39.4381 40.8459 41.1105C39.1274 42.7832 36.9713 43.9355 34.6242 44.4376ZM13.2972 32.6191C13.3118 32.6264 13.3283 32.6319 13.3448 32.6374H13.343C13.495 32.7015 13.6672 32.7015 13.8193 32.6374C13.8413 32.6301 13.8632 32.6191 13.8834 32.6081C13.9072 32.5989 13.9292 32.5898 13.9512 32.5788C13.9713 32.566 13.9842 32.544 14.0025 32.5293V32.5275C14.0391 32.5 14.0739 32.467 14.1032 32.4322C14.1582 32.3644 14.2003 32.2893 14.226 32.2069C14.2407 32.1629 14.2498 32.1171 14.2535 32.0695C14.2608 32.0475 14.2645 32.0237 14.2681 31.9999C14.2626 27.7458 15.7906 23.6328 18.5716 20.4159C21.3527 17.197 25.2001 15.0866 29.408 14.4745C29.7836 15.5866 30.8278 16.3359 32.0022 16.334C33.1765 16.334 34.2208 15.5829 34.5945 14.469C38.0571 14.9856 41.2905 16.5136 43.8883 18.8623C46.4862 21.2091 48.3347 24.2704 49.1993 27.6636C49.2909 28.0319 49.6647 28.2554 50.0311 28.1619C50.3993 28.0703 50.6228 27.6966 50.5294 27.3302C49.5932 23.6588 47.5908 20.3481 44.7747 17.8145C41.957 15.2827 38.4539 13.6412 34.7037 13.0987C34.4729 11.7869 33.3352 10.8306 32.0033 10.8288C30.6714 10.8251 29.53 11.7796 29.2955 13.0896C25.1093 13.6831 21.2361 15.6507 18.2903 18.6848C15.3445 21.7188 13.4886 25.6448 13.0196 29.8495L11.2792 27.127C11.0759 26.8083 10.6508 26.7148 10.3321 26.9182C10.0133 27.1234 9.91984 27.5484 10.1232 27.8672L13.0032 32.3704C13.0252 32.4033 13.0526 32.4345 13.0801 32.462C13.0893 32.4711 13.0948 32.4821 13.1039 32.4913C13.1607 32.5444 13.2248 32.5884 13.2963 32.6195L13.2972 32.6191ZM32.0006 12.2009C32.5594 12.2009 33.0632 12.5362 33.2776 13.0528C33.4901 13.5695 33.3728 14.1631 32.9771 14.5588C32.5814 14.9527 31.9878 15.0718 31.4712 14.8574C30.9564 14.643 30.6193 14.1393 30.6193 13.5804C30.6211 12.8183 31.2385 12.2009 32.0006 12.2009ZM53.8774 36.1329L50.9974 31.6297C50.9846 31.6095 50.9626 31.5967 50.9479 31.5784C50.8362 31.4355 50.6695 31.3439 50.4899 31.3274C50.4661 31.3219 50.4423 31.3164 50.4203 31.3146C50.4002 31.3146 50.3855 31.3237 50.3653 31.3256C50.2737 31.3347 50.1858 31.3604 50.1034 31.4007C50.0869 31.4098 50.0667 31.4098 50.0502 31.4208C50.0282 31.4336 50.0173 31.4556 49.9989 31.4703V31.4721C49.9623 31.4996 49.9293 31.5326 49.8982 31.5674C49.8432 31.6352 49.8029 31.7103 49.7754 31.7927C49.7608 31.8367 49.7516 31.8843 49.7479 31.9301C49.7424 31.9539 49.7369 31.9759 49.7333 31.9997C49.7406 36.2611 48.2072 40.3813 45.417 43.6039C42.6268 46.8246 38.7684 48.9294 34.5492 49.5326C34.1754 48.4187 33.1349 47.6675 31.9587 47.6657C30.7843 47.6639 29.7401 48.4113 29.3645 49.5234C25.9093 48.9994 22.6868 47.4678 20.0979 45.1228C17.5074 42.7778 15.6662 39.7217 14.8014 36.3365C14.7098 35.9682 14.3361 35.7447 13.9697 35.8381C13.6015 35.9297 13.378 36.3035 13.4714 36.6699C14.4057 40.3321 16.4027 43.6369 19.2092 46.1672C22.0177 48.6991 25.5098 50.3425 29.2487 50.8939C29.4759 52.2056 30.6117 53.1656 31.9437 53.1711C33.2756 53.1766 34.4188 52.2258 34.657 50.9159C38.856 50.3351 42.7398 48.3711 45.695 45.3356C48.6519 42.2981 50.5117 38.3629 50.9807 34.1527L52.7211 36.8733C52.8182 37.0272 52.974 37.1353 53.1517 37.1737C53.3294 37.214 53.5162 37.1811 53.6701 37.0821C53.8222 36.985 53.9303 36.8293 53.9706 36.6516C54.0091 36.4739 53.9763 36.2868 53.8774 36.1329ZM31.9551 51.7986C31.3964 51.7986 30.8925 51.4633 30.6782 50.9467C30.4656 50.43 30.5829 49.8365 30.9786 49.4408C31.3743 49.0469 31.9679 48.9278 32.4846 49.1421C32.9994 49.3565 33.3365 49.8603 33.3365 50.4191C33.3346 51.1812 32.7173 51.7986 31.9551 51.7986Z" fill="#03331F"></path></svg>