<svg xmlns="http://www.w3.org/2000/svg" width="64" height="64" viewBox="0 0 64 64" fill="none"><path d="M31.9982 10.6485C20.2128 10.6485 10.6494 20.217 10.6494 32.001C10.6494 43.7864 20.2128 53.3535 31.9982 53.3535C39.3679 53.3535 45.8712 49.6111 49.7104 43.9251L49.7086 43.927C49.7414 43.8886 49.7688 43.8467 49.7907 43.8011C49.7925 43.7992 49.7925 43.7992 49.7943 43.7974C52.0405 40.4163 53.3507 36.3618 53.3507 32.0008C53.3507 27.9372 52.2121 24.1364 50.2377 20.9011C50.2341 20.892 50.2323 20.8847 50.2286 20.8774C50.2213 20.8682 50.214 20.8591 50.2067 20.85C46.4497 14.7317 39.6965 10.6462 31.9984 10.6462L31.9982 10.6485ZM31.9982 11.9823C38.9704 11.9823 45.1032 15.5387 48.687 20.938L46.4061 22.1404C45.7711 22.4762 45.054 22.6294 44.3369 22.5783L42.317 22.4305C41.7021 22.3868 41.1437 22.0674 40.7916 21.562L40.288 20.8394C39.6858 19.9763 38.6676 19.4928 37.6185 19.5731V19.5713L35.0566 19.7701C34.0348 19.8486 33.0878 20.3431 32.44 21.1387L31.7758 21.9579C31.1244 22.7571 30.8525 23.7991 31.0313 24.8154L31.44 27.1455C31.6225 28.182 32.3396 29.0469 33.3212 29.4209L38.6455 31.45C39.39 31.7328 40.1946 31.8113 40.9792 31.6763L41.669 31.5577C42.0613 31.4901 42.4609 31.6361 42.7127 31.9463L43.4079 32.8094C43.7729 33.2583 44.0283 33.782 44.1579 34.3458L45.4589 39.9952L45.4607 39.997C45.4845 40.101 45.5337 40.1977 45.6031 40.278L48.3583 43.5478C44.7345 48.6754 38.7604 52.02 31.9984 52.02C20.9351 52.02 11.98 43.0644 11.98 32.0016C11.98 30.9888 12.0548 29.9962 12.2008 29.0255L15.7589 31.2589C16.5381 31.7479 17.5544 31.6731 18.2514 31.0709L18.5762 30.7954C19.2678 30.1988 19.5232 29.2335 19.2222 28.3722L18.2806 25.6918C18.2131 25.4965 18.3263 25.3323 18.5324 25.3323H19.6455C20.6089 25.3323 21.5541 25.0914 22.3989 24.628L28.5864 21.2304C29.2561 20.8637 29.7505 20.2451 29.9622 19.5116L30.7103 16.9041C31.0935 15.5721 30.0662 14.2109 28.6813 14.2109H28.1831C27.7361 14.2109 27.3018 14.0649 26.946 13.793L25.8402 12.95C27.7799 12.3242 29.8509 11.9848 32.0006 11.9848L31.9982 11.9823ZM24.3547 13.4932L26.1319 14.8544C26.7195 15.3033 27.4403 15.5442 28.1811 15.5442H28.6792C29.212 15.5442 29.5751 16.0222 29.4273 16.535L28.6792 19.1406C28.5661 19.5329 28.2978 19.865 27.9402 20.0621L21.7584 23.456C21.1106 23.8118 20.3825 23.998 19.6436 23.998H18.5305C17.4448 23.998 16.6584 25.111 17.0178 26.1347L17.9594 28.8151C18.0816 29.1618 17.9813 29.5414 17.7021 29.7804L17.3773 30.0614C17.12 30.284 16.7533 30.3114 16.465 30.1307L12.4598 27.6163C13.8903 21.2028 18.3973 15.9528 24.3531 13.4934L24.3547 13.4932ZM37.8302 20.898C38.3702 20.8925 38.883 21.1553 39.195 21.6023L39.6986 22.3249C40.2807 23.1588 41.2113 23.6843 42.2258 23.7591L44.2439 23.9069C45.2092 23.9762 46.1745 23.7737 47.0321 23.3212L49.3914 22.0731C51.0628 24.998 52.0171 28.3867 52.0171 31.9994C52.0171 35.8002 50.9607 39.3546 49.1232 42.3801L46.7256 39.541L45.4592 34.043C45.2859 33.2839 44.9374 32.5759 44.4447 31.9683L43.7495 31.1107C43.1966 30.4283 42.3153 30.0962 41.4486 30.244L40.7533 30.3626C40.2041 30.4556 39.6385 30.3972 39.1184 30.2002L33.7942 28.1766C33.2486 27.9686 32.8545 27.4905 32.7541 26.9158L32.3454 24.5856C32.2341 23.9506 32.4019 23.3029 32.8089 22.8029L33.4731 21.9855C33.8891 21.4745 34.5003 21.1534 35.1591 21.1023L37.7209 20.9053C37.7574 20.9034 37.7939 20.8998 37.8286 20.8998L37.8302 20.898ZM23.605 30.0269C23.2218 30.0214 22.835 30.1455 22.5175 30.4137L21.1471 31.5614C20.379 32.2074 19.7823 33.0303 19.4027 33.9591L19.1947 34.4627C18.7787 35.4845 19.1126 36.6669 20.0031 37.3201L22.4062 39.0828L23.7309 44.9946C23.8549 45.5457 24.0921 46.0639 24.4261 46.5201L26.1121 48.821C26.4843 49.3301 27.0372 49.6768 27.6576 49.7917L27.9094 49.841C28.6502 49.9778 29.3856 49.4888 29.5443 48.7517L30.0425 46.4507C30.1154 46.1095 30.2797 45.7975 30.5187 45.5457L34.3414 41.4967L34.3432 41.4985C34.4491 41.3872 34.5148 41.2412 34.5257 41.0861L34.7574 37.5353C34.8176 36.6065 34.5622 35.6795 34.033 34.915L33.1791 33.687C32.6262 32.886 31.7139 32.4061 30.7413 32.4061H26.6485C26.0865 32.4061 25.5829 32.0758 25.3621 31.5594L25.1359 31.0375C24.9187 30.5285 24.479 30.1945 23.9845 30.0778C23.8604 30.0486 23.7327 30.0321 23.605 30.0303L23.605 30.0269ZM23.6013 31.3425C23.7291 31.3407 23.8495 31.4191 23.9097 31.5615L24.136 32.0833C24.5648 33.0869 25.5574 33.7365 26.6485 33.7365H30.7413C31.2777 33.7365 31.7759 34.0011 32.0806 34.4408L32.9327 35.6725C33.2922 36.1907 33.4619 36.8111 33.4218 37.4406L33.2101 40.7543L29.5498 44.6263C29.1429 45.0569 28.8619 45.5897 28.736 46.1681L28.2379 48.4691C28.2287 48.5147 28.1995 48.5329 28.1539 48.5238L27.8985 48.48C27.612 48.4271 27.3565 48.2665 27.185 48.0311L25.5045 45.7302C25.2782 45.4218 25.1213 45.0678 25.0374 44.6956L23.6524 38.5427L23.6543 38.5482C23.6178 38.3931 23.5265 38.2544 23.397 38.1596L20.7914 36.2473C20.3899 35.9517 20.2439 35.4298 20.4319 34.9681L20.6399 34.4645C20.9373 33.7365 21.4063 33.0887 22.0084 32.5833L23.3733 31.4356C23.4445 31.3754 23.5247 31.3462 23.6014 31.3444L23.6013 31.3425Z" fill="#64C4B6"></path></svg>