<svg xmlns="http://www.w3.org/2000/svg" width="64" height="64" viewBox="0 0 64 64" fill="none"><path d="M32.0003 10.8892C31.8251 10.8892 31.6569 10.9593 31.5342 11.0819C31.4098 11.2063 31.3415 11.3745 31.3415 11.548V15.0421C31.3415 15.4066 31.6358 15.7028 32.0003 15.7028C32.3648 15.7028 32.6592 15.4066 32.661 15.0421V11.548C32.661 11.3746 32.5909 11.2063 32.4665 11.0819C32.3438 10.9593 32.1756 10.8892 32.0003 10.8892ZM18.5095 16.4669C18.485 16.4652 18.4587 16.4652 18.4324 16.4669C18.2957 16.4879 18.1678 16.5528 18.0697 16.6509C17.8121 16.9085 17.8121 17.3273 18.0697 17.5849L20.5404 20.0556C20.6631 20.1783 20.8313 20.2484 21.0065 20.2484C21.1817 20.2484 21.3482 20.1783 21.4726 20.0556C21.5971 19.9312 21.6654 19.763 21.6654 19.5877C21.6654 19.4142 21.5971 19.246 21.4726 19.1216L19.0019 16.6509C18.8722 16.5212 18.6935 16.4528 18.5095 16.4599L18.5095 16.4669ZM45.4387 16.4669C45.4142 16.4652 45.3879 16.4652 45.3616 16.4669C45.2249 16.4879 45.097 16.5528 44.9989 16.6509L42.5281 19.1216C42.4037 19.2461 42.3354 19.4143 42.3354 19.5878C42.3354 19.763 42.4037 19.9312 42.5281 20.0556C42.6526 20.1783 42.819 20.2484 42.9943 20.2484C43.1695 20.2484 43.3377 20.1783 43.4604 20.0556L45.9311 17.5849C46.1887 17.3273 46.1887 16.9085 45.9311 16.6509C45.8015 16.5213 45.6227 16.4529 45.4387 16.4599L45.4387 16.4669ZM32.0003 16.8857C24.4394 16.8857 18.2955 23.0291 18.2955 30.5905V30.5923C18.2955 34.2546 19.7622 37.7015 22.2662 40.228C23.6839 41.6579 25.1926 44.1601 25.1926 45.9879V49.6554C25.1926 51.5567 26.7468 53.111 28.6481 53.111H35.354C37.2553 53.111 38.8096 51.5567 38.8096 49.6554V45.9896C38.8096 44.162 40.3183 41.6597 41.7359 40.2297C44.2399 37.7029 45.7031 34.2563 45.7066 30.5923H45.7049V30.5905C45.7049 23.0295 39.5617 16.8857 32.0003 16.8857ZM32.0003 18.2052C38.8485 18.2052 44.3854 23.7426 44.3854 30.5903C44.3854 33.9021 43.0589 37.0159 40.7967 39.2992C39.7734 40.3313 38.7115 41.7577 38.0754 43.2979L25.9249 43.2997C25.2888 41.7577 24.2252 40.3313 23.2019 39.2992C20.9396 37.016 19.6166 33.9022 19.6131 30.5921C19.6131 23.7439 25.1505 18.2088 31.9982 18.2088L32.0003 18.2052ZM30.7895 21.6957L30.7913 21.6975C30.4811 21.6975 30.2147 21.9113 30.1464 22.2127L29.8275 23.6425C29.4122 23.7722 29.0074 23.9387 28.6219 24.1419L27.3865 23.3569C27.1272 23.1905 26.7855 23.229 26.5665 23.4463L24.8562 25.1565C24.6389 25.3756 24.6004 25.7155 24.7669 25.9766L25.5519 27.212C25.3504 27.5992 25.1822 28.0022 25.0525 28.4175L23.6226 28.7365H23.6244C23.323 28.8031 23.1075 29.0712 23.1075 29.3796V31.7995C23.1075 32.1079 23.3212 32.376 23.6226 32.4426L25.0507 32.7615C25.1804 33.1785 25.3486 33.5816 25.5502 33.9688L24.7651 35.2024H24.7669C24.6004 35.4635 24.639 35.8053 24.8562 36.0243L26.5665 37.7345C26.7855 37.9518 27.1272 37.9886 27.3865 37.8239L28.6219 37.0388C29.0092 37.2404 29.4122 37.4086 29.8292 37.5382L30.1464 38.9664C30.213 39.2695 30.4811 39.4833 30.7913 39.4833H33.2094C33.5178 39.4833 33.7859 39.2695 33.8525 38.9664L34.1714 37.5382C34.5885 37.4086 34.9915 37.2404 35.3788 37.0388L36.6141 37.8239C36.8735 37.9886 37.2152 37.9518 37.4342 37.7345L39.1444 36.0243C39.3617 35.8052 39.4003 35.4635 39.2338 35.2024L38.4488 33.9688C38.6503 33.5816 38.8185 33.1785 38.9482 32.7615L40.3763 32.4426H40.3781C40.6795 32.376 40.8932 32.1079 40.8932 31.7995V29.3796C40.8932 29.0712 40.6795 28.803 40.3781 28.7365L38.9535 28.4193C38.8238 28.0023 38.6556 27.5957 38.4523 27.2085L39.2356 25.9766H39.2338C39.4003 25.7155 39.3617 25.3756 39.1444 25.1565L37.4342 23.4463C37.2152 23.229 36.8735 23.1905 36.6141 23.3569L35.3823 24.1402C34.995 23.9352 34.5902 23.7687 34.1714 23.639L33.8543 22.2144L33.8525 22.2127C33.7859 21.9113 33.5178 21.6975 33.2094 21.6975L30.7895 21.6957ZM31.3187 23.0152H32.6803L32.9676 24.3067L32.9694 24.3084C33.0237 24.552 33.2112 24.743 33.453 24.8043C34.0207 24.9463 34.564 25.1723 35.0669 25.472H35.0651C35.2772 25.6034 35.5453 25.6034 35.7573 25.472L36.8735 24.7623L37.8355 25.7243L37.1259 26.8405L37.1276 26.8423C36.9962 27.0543 36.9962 27.3224 37.1276 27.5344C37.429 28.0356 37.6533 28.5806 37.7953 29.1483C37.8566 29.3902 38.0493 29.5776 38.2929 29.632L39.5844 29.9193V31.2809L38.2894 31.57C38.0459 31.6243 37.8531 31.8101 37.7918 32.0519C37.6498 32.6179 37.4255 33.1611 37.1259 33.6622C36.9945 33.8743 36.9945 34.1424 37.1259 34.3544L37.8373 35.4741L36.8753 36.4361L35.7556 35.7247C35.5435 35.595 35.2754 35.595 35.0634 35.7247C34.5622 36.0244 34.019 36.2487 33.4531 36.3906V36.3924C33.2112 36.4537 33.0237 36.6447 32.9694 36.8883L32.6803 38.1832H31.3188L31.0296 36.8883H31.0314C30.9771 36.6447 30.7896 36.4519 30.5478 36.3906C29.9818 36.2487 29.4385 36.0244 28.9374 35.7247C28.7254 35.595 28.4573 35.595 28.2452 35.7247L27.1255 36.4361L26.1635 35.4741L26.8749 34.3544C27.0064 34.1424 27.0064 33.8743 26.8749 33.6622C26.5753 33.1611 26.351 32.6196 26.209 32.0519C26.1477 31.8101 25.955 31.6243 25.7114 31.57L24.4164 31.2809V29.9193L25.7131 29.6302C25.9567 29.5759 26.1477 29.3884 26.209 29.1466C26.351 28.5806 26.5753 28.0391 26.8749 27.538V27.5362C27.0064 27.3242 27.0064 27.0579 26.8749 26.8441L26.1635 25.7243L27.1255 24.7623L28.2452 25.4738C28.4573 25.6052 28.7254 25.6052 28.9374 25.4738C29.4386 25.1741 29.98 24.9498 30.546 24.8079H30.5478C30.7896 24.7483 30.9753 24.5555 31.0296 24.312L31.3187 23.0152ZM32.0003 26.7248C29.8748 26.7248 28.1365 28.4631 28.1365 30.5887C28.1365 31.6138 28.543 32.5968 29.2685 33.3205C29.9922 34.0442 30.977 34.4524 32.0003 34.4524C33.0254 34.4524 34.0084 34.0459 34.7321 33.3205C35.4558 32.5968 35.8641 31.612 35.8641 30.5887C35.8641 29.5635 35.4575 28.5805 34.7321 27.8568C34.0084 27.1331 33.0237 26.7248 32.0003 26.7248ZM32.0003 28.0443C32.675 28.0443 33.3216 28.3124 33.7999 28.7891C34.2766 29.2657 34.5447 29.914 34.5447 30.5887C34.5447 31.2633 34.2766 31.9099 33.7999 32.3883C33.3233 32.8649 32.675 33.133 32.0003 33.133C31.3257 33.133 30.6791 32.8649 30.2007 32.3883C29.7241 31.9116 29.456 31.265 29.456 30.5887C29.456 29.1763 30.588 28.0443 32.0003 28.0443ZM12.9582 29.9298V29.9315C12.783 29.9315 12.6165 29.9999 12.4921 30.1243C12.3677 30.2487 12.2993 30.4152 12.2993 30.5904C12.2993 30.7657 12.3677 30.9339 12.4921 31.0583C12.6165 31.1809 12.783 31.251 12.9582 31.251H16.4523C16.6275 31.251 16.7957 31.1809 16.9184 31.0583C17.0428 30.9339 17.1112 30.7657 17.1112 30.5904C17.1112 30.4152 17.0428 30.2487 16.9184 30.1243C16.7958 29.9999 16.6275 29.9315 16.4523 29.9315L12.9582 29.9298ZM47.5484 29.9298V29.9315C47.3732 29.9315 47.205 29.9999 47.0823 30.1243C46.9579 30.2487 46.8895 30.4152 46.8895 30.5904C46.8895 30.7657 46.9579 30.9339 47.0823 31.0583C47.205 31.1809 47.3732 31.251 47.5484 31.251H51.0425C51.2178 31.251 51.3842 31.1809 51.5087 31.0583C51.6331 30.9339 51.7014 30.7657 51.7014 30.5904C51.7014 30.4152 51.6331 30.2487 51.5087 30.1243C51.3842 29.9999 51.2178 29.9315 51.0425 29.9315L47.5484 29.9298ZM26.3508 44.6175H37.6499C37.5482 45.073 37.4886 45.5322 37.4886 45.9878V47.1618H26.5103V45.9878C26.5103 45.5322 26.4525 45.0748 26.3491 44.6192L26.3508 44.6175ZM26.512 48.4795H37.4903V49.6536C37.4903 50.8416 36.5423 51.7896 35.3543 51.7896H28.6483C27.4603 51.7896 26.5123 50.8416 26.5123 49.6536L26.512 48.4795Z" fill="#64C4B6"></path></svg>