<svg xmlns="http://www.w3.org/2000/svg" width="64" height="64" viewBox="0 0 64 64" fill="none"><path d="M49.9624 33.2139C49.3736 33.2144 48.7963 33.3776 48.2944 33.6855C47.7925 33.9934 47.3854 34.4341 47.1182 34.9588L34.3169 31.5442C34.4756 30.4014 34.2565 29.2381 33.6931 28.2313L40.4822 23.255C41.0713 23.7796 41.8338 24.0676 42.6226 24.0634C43.4114 24.0592 44.1708 23.7632 44.7543 23.2323C45.3378 22.7015 45.7041 21.9734 45.7826 21.1885C45.8612 20.4036 45.6464 19.6174 45.1796 18.9814C44.7129 18.3455 44.0272 17.9049 43.2549 17.7445C42.4825 17.5841 41.6781 17.7153 40.9968 18.1128C40.3154 18.5103 39.8053 19.1459 39.5648 19.8972C39.3243 20.6485 39.3705 21.4622 39.6943 22.1815L32.9043 27.1582C32.4117 26.636 31.8187 26.2188 31.1608 25.9317C30.5028 25.6446 29.7936 25.4936 29.0758 25.4877L28.0703 16.9105C28.8174 16.6574 29.4444 16.1365 29.8303 15.4485C30.2161 14.7605 30.3337 13.954 30.1602 13.1845C29.9867 12.4149 29.5345 11.7369 28.8907 11.281C28.247 10.8251 27.4572 10.6237 26.6737 10.7155C25.8902 10.8074 25.1685 11.186 24.6476 11.7785C24.1268 12.3709 23.8437 13.1352 23.8529 13.924C23.8621 14.7128 24.163 15.4702 24.6976 16.0503C25.2321 16.6304 25.9625 16.9921 26.748 17.0656L27.753 25.6423C26.9536 25.8412 26.2108 26.2218 25.5824 26.7545C24.9539 27.2872 24.4568 27.9576 24.1295 28.7136L18.9723 27.2226C19.1666 26.2114 18.9734 25.1642 18.4311 24.2889C17.8888 23.4137 17.0371 22.7744 16.0452 22.4982C15.0533 22.222 13.9937 22.3291 13.0771 22.7981C12.1605 23.2671 11.4538 24.0638 11.0976 25.0298C10.7413 25.9959 10.7614 27.0606 11.154 28.0125C11.5466 28.9643 12.283 29.7337 13.2167 30.1676C14.1504 30.6016 15.2132 30.6685 16.194 30.3549C17.1747 30.0413 18.0016 29.3703 18.5104 28.4752L23.7591 29.9925C23.5589 31.2608 23.8228 32.5588 24.5023 33.6483C25.1819 34.7377 26.2316 35.5455 27.4588 35.9235L25.5271 46.9246C24.7391 46.9535 23.9896 47.2732 23.4233 47.8219C22.8569 48.3707 22.5138 49.1097 22.4599 49.8964C22.4061 50.6831 22.6454 51.462 23.1317 52.0827C23.618 52.7035 24.3169 53.1223 25.0936 53.2584C25.8704 53.3945 26.67 53.2382 27.3384 52.8197C28.0067 52.4012 28.4965 51.7501 28.7133 50.9919C28.9302 50.2337 28.8586 49.4221 28.5125 48.7135C28.1665 48.005 27.5703 47.4496 26.8391 47.1544L28.7707 36.1529C28.8569 36.1574 28.9435 36.1597 29.0305 36.1597C29.8364 36.1613 30.632 35.9793 31.357 35.6274L33.0933 38.2994C32.4724 38.9003 32.0976 39.711 32.0419 40.5733C31.9862 41.4355 32.2537 42.2877 32.7922 42.9634C33.3306 43.6392 34.1015 44.0903 34.9544 44.2286C35.8073 44.3669 36.6812 44.1826 37.4056 43.7116C38.1301 43.2406 38.6531 42.5167 38.8728 41.6811C39.0925 40.8454 38.9931 39.9578 38.5939 39.1915C38.1948 38.4251 37.5245 37.8349 36.7138 37.5358C35.9031 37.2368 35.0101 37.2504 34.209 37.5741L32.4722 34.8994C33.132 34.3417 33.6471 33.6328 33.9737 32.8331L46.7736 36.2476C46.7709 36.3011 46.7695 36.355 46.7695 36.409C46.7695 37.0406 46.9567 37.6581 47.3075 38.1833C47.6584 38.7085 48.1571 39.1178 48.7406 39.3596C49.3241 39.6013 49.9662 39.6646 50.5857 39.5414C51.2052 39.4182 51.7742 39.1141 52.2208 38.6674C52.6675 38.2208 52.9716 37.6518 53.0948 37.0323C53.218 36.4128 53.1547 35.7707 52.913 35.1872C52.6712 34.6037 52.2619 34.105 51.7367 33.7541C51.2115 33.4033 50.594 33.216 49.9624 33.2161V33.2139ZM42.6061 19.0118C42.9743 19.0118 43.3341 19.1209 43.6402 19.3255C43.9463 19.53 44.1849 19.8207 44.3258 20.1608C44.4667 20.501 44.5036 20.8752 44.4317 21.2363C44.3599 21.5974 44.1826 21.929 43.9223 22.1894C43.662 22.4497 43.3303 22.627 42.9692 22.6988C42.6082 22.7706 42.2339 22.7338 41.8938 22.5929C41.5537 22.452 41.2629 22.2134 41.0584 21.9073C40.8539 21.6012 40.7447 21.2413 40.7447 20.8732C40.7452 20.3796 40.9415 19.9065 41.2904 19.5575C41.6394 19.2085 42.1126 19.0122 42.6061 19.0118ZM14.9526 29.2177C14.4065 29.2177 13.8726 29.0558 13.4185 28.7523C12.9644 28.4489 12.6105 28.0176 12.4015 27.513C12.1925 27.0085 12.1378 26.4532 12.2444 25.9176C12.351 25.3819 12.614 24.8899 13.0002 24.5038C13.3865 24.1176 13.8785 23.8547 14.4142 23.7482C14.9498 23.6417 15.5051 23.6964 16.0096 23.9055C16.5142 24.1146 16.9454 24.4685 17.2487 24.9227C17.5521 25.3768 17.714 25.9108 17.7139 26.4569C17.7127 27.1889 17.4213 27.8906 16.9036 28.4081C16.3859 28.9256 15.6846 29.2168 14.9526 29.2177ZM27.505 50.1165C27.505 50.4847 27.3959 50.8445 27.1913 51.1506C26.9868 51.4568 26.6961 51.6953 26.356 51.8362C26.0158 51.9771 25.6416 52.014 25.2805 51.9421C24.9194 51.8703 24.5877 51.693 24.3274 51.4327C24.0671 51.1724 23.8898 50.8407 23.818 50.4797C23.7462 50.1186 23.783 49.7443 23.9239 49.4042C24.0648 49.0641 24.3034 48.7733 24.6095 48.5688C24.9156 48.3643 25.2755 48.2551 25.6436 48.2551C26.1368 48.2557 26.6095 48.4518 26.9584 48.8004C27.3072 49.1489 27.5036 49.6216 27.5046 50.1147L27.505 50.1165ZM37.6661 40.7995C37.6661 41.2253 37.5399 41.6414 37.3033 41.9954C37.0668 42.3494 36.7306 42.6253 36.3373 42.7882C35.9439 42.9511 35.5111 42.9937 35.0936 42.9106C34.676 42.8275 34.2925 42.6225 33.9915 42.3214C33.6905 42.0203 33.4855 41.6368 33.4025 41.2192C33.3195 40.8016 33.3622 40.3688 33.5252 39.9755C33.6882 39.5822 33.9641 39.2461 34.3182 39.0096C34.6722 38.7732 35.0884 38.647 35.5141 38.6471C36.0847 38.6478 36.6317 38.8748 37.0352 39.2784C37.4386 39.6819 37.6655 40.2289 37.6661 40.7995ZM25.1844 13.8868C25.1844 13.5186 25.2936 13.1588 25.4981 12.8527C25.7026 12.5466 25.9933 12.308 26.3335 12.1671C26.6736 12.0262 27.0479 11.9893 27.4089 12.0612C27.77 12.133 28.1017 12.3103 28.362 12.5706C28.6223 12.8309 28.7996 13.1626 28.8714 13.5237C28.9432 13.8847 28.9064 14.259 28.7655 14.5991C28.6246 14.9392 28.386 15.23 28.0799 15.4345C27.7738 15.639 27.4139 15.7482 27.0458 15.7482C26.5523 15.7477 26.0791 15.5514 25.7301 15.2025C25.3811 14.8535 25.1849 14.3803 25.1844 13.8868ZM29.0305 34.8282C28.2384 34.8283 27.464 34.5935 26.8053 34.1535C26.1466 33.7135 25.6332 33.088 25.3299 32.3562C25.0267 31.6244 24.9472 30.8192 25.1017 30.0422C25.2561 29.2653 25.6374 28.5516 26.1974 27.9913C26.7575 27.4311 27.4711 27.0495 28.2479 26.8949C29.0248 26.7402 29.8301 26.8193 30.562 27.1223C31.2939 27.4253 31.9196 27.9385 32.3598 28.5971C32.8 29.2556 33.0351 30.0299 33.0353 30.8221C33.0344 31.8841 32.6123 32.9024 31.8615 33.6534C31.1106 34.4045 30.0925 34.827 29.0305 34.8282ZM49.9624 38.2681C49.5942 38.2681 49.2344 38.1589 48.9282 37.9544C48.6221 37.7499 48.3836 37.4592 48.2427 37.119C48.1018 36.7789 48.0649 36.4047 48.1368 36.0436C48.2086 35.6825 48.3859 35.3508 48.6462 35.0905C48.9065 34.8302 49.2382 34.6529 49.5993 34.5811C49.9603 34.5093 50.3346 34.5461 50.6747 34.687C51.0148 34.8279 51.3055 35.0665 51.5101 35.3726C51.7146 35.6787 51.8238 36.0386 51.8238 36.4067C51.8232 36.9002 51.6269 37.3733 51.2779 37.7223C50.929 38.0712 50.4559 38.2675 49.9624 38.2681Z" fill="#0E1A38"></path></svg>