<svg xmlns="http://www.w3.org/2000/svg" width="37" height="33" viewBox="0 0 37 33" fill="none"><path d="M36.1317 15.1904C34.7897 12.7998 33.2332 10.7812 31.6324 9.34921L31.6338 9.34778C30.5165 8.35204 28.98 7.97294 27.5279 8.33633V8.3349C26.0558 8.69971 24.8598 9.7684 24.3333 11.1904C24.246 11.4251 24.1788 11.6654 24.1302 11.9115C23.03 12.1161 21.9871 12.5524 21.07 13.1933C19.648 14.1948 18.5378 15.6683 17.7682 17.5769C17.6823 15.7314 17.4534 13.9517 16.8983 12.2836C17.4391 11.7156 17.884 11.0633 18.2145 10.3523C19.2103 8.24495 19.113 5.78414 17.9542 3.76286C16.8254 1.73564 14.7767 0.388022 12.4679 0.1548C8.45644 -0.270113 4.39336 0.180551 0.393279 1.49674C0.23877 1.54682 0.112878 1.66127 0.0470684 1.81148C-0.0173094 1.96027 -0.015881 2.13051 0.052791 2.27785C1.94981 6.41235 4.12429 9.78872 6.51767 12.3081V12.3095C7.84244 13.7258 9.69796 14.5299 11.6377 14.527C12.0368 14.527 12.436 14.4941 12.8294 14.4297C13.9596 14.2437 15.0297 13.7931 15.951 13.1135C16.7379 15.8002 16.6921 18.836 16.6406 22.0721C16.6349 22.3697 16.632 22.673 16.6263 22.9792C16.6063 23.3325 16.5948 23.6945 16.5905 24.0579C14.3015 24.2896 12.1784 25.1008 10.5102 26.3984C8.6504 27.8461 7.55025 29.7403 7.37141 31.7832H5.44008H5.44151C5.12534 31.7832 4.86926 32.0393 4.86926 32.3554C4.86926 32.6716 5.12534 32.9277 5.44151 32.9277H20.4889C20.805 32.9277 21.0611 32.6716 21.0611 32.3554C21.0611 32.0393 20.805 31.7832 20.4889 31.7832H8.52599C8.92083 28.0637 13.0066 25.1308 17.968 25.1308C22.9295 25.1308 27.0182 28.0636 27.4101 31.7832H24.3772C24.0624 31.7832 23.8049 32.0393 23.8049 32.3554C23.8049 32.6716 24.0624 32.9277 24.3772 32.9277H30.4974C30.8136 32.9277 31.0697 32.6716 31.0697 32.3554C31.0697 32.0393 30.8136 31.7832 30.4974 31.7832H28.5661C28.3873 29.7403 27.29 27.849 25.4273 26.3984C23.4302 24.8447 20.7779 23.9892 17.971 23.9892H17.765C17.765 23.6702 17.7679 23.3526 17.775 23.0364C18.0182 18.9491 19.4288 15.7401 21.7293 14.1265V14.1279C22.4303 13.6357 23.22 13.2824 24.0541 13.0864C24.1099 13.8961 24.3817 14.6758 24.8409 15.3454C25.6607 16.57 27.0284 17.3153 28.5005 17.3425C28.6579 17.3468 28.8138 17.3482 28.9697 17.3482C31.4132 17.3482 33.7279 16.8933 35.8569 15.9949H35.8597C36.0099 15.9319 36.1258 15.8074 36.1788 15.6544C36.2317 15.4999 36.216 15.3296 36.1358 15.188L36.1317 15.1904ZM12.6465 13.2962C10.6937 13.6324 8.70208 12.9657 7.34736 11.5208C5.15277 9.21033 3.14694 6.14035 1.36591 2.38748C5.014 1.27444 8.70208 0.90677 12.3473 1.29162V1.29305C14.2886 1.50192 16.0097 2.63785 16.9681 4.33885C17.9267 6.04129 18.0039 8.10124 17.177 9.87092C16.9753 10.3015 16.7249 10.7079 16.4288 11.0812H16.4273C15.9481 10.0097 15.3057 9.0197 14.5246 8.14417V4.80079C14.5246 4.64915 14.4645 4.50322 14.3572 4.39591C14.2499 4.28861 14.104 4.22853 13.9524 4.22853C13.6362 4.22853 13.3801 4.48461 13.3801 4.80078V7.01826C12.207 6.0011 10.7291 5.08117 8.86948 4.27717C8.72928 4.21136 8.56905 4.20564 8.42457 4.26143C8.28008 4.31579 8.1642 4.42738 8.10411 4.56901C8.04259 4.71065 8.04116 4.87088 8.09982 5.01392C8.15848 5.15555 8.27149 5.26857 8.41456 5.32723C8.98681 5.57473 9.51757 5.83367 10.014 6.10263L8.42027 6.76645C8.16848 6.87088 8.02543 7.13983 8.07835 7.40737C8.13272 7.6749 8.36877 7.86803 8.64061 7.86803V7.86659C8.71643 7.86659 8.79082 7.85229 8.86092 7.82225L11.2358 6.83512C13.4533 8.30008 14.7723 10.034 15.5592 11.9724L15.5578 11.9738C14.7223 12.6662 13.718 13.1226 12.6465 13.2957V13.2962ZM28.5263 16.2004C26.7223 16.1532 25.2645 14.714 25.193 12.9099C26.6765 12.7883 28.3432 13.0587 30.1844 13.724L30.1859 13.7254C30.3304 13.7898 30.4963 13.7927 30.6437 13.7297C30.7896 13.6682 30.9041 13.548 30.9584 13.3978C31.0128 13.2476 31.0028 13.0816 30.9298 12.94C30.8554 12.7984 30.7267 12.6939 30.5736 12.6524C28.698 11.9743 26.9412 11.6825 25.3517 11.7697C25.3703 11.7111 25.3889 11.6524 25.4118 11.5938L25.4104 11.5923C25.914 10.2433 27.2015 9.34625 28.6422 9.34197C29.4662 9.34197 30.2602 9.64812 30.8696 10.2004C32.2502 11.435 33.6035 13.1489 34.8038 15.182C32.8581 15.9116 30.7466 16.2549 28.5246 16.2006L28.5263 16.2004Z" fill="#CB029C"></path></svg>