<svg xmlns="http://www.w3.org/2000/svg" width="64" height="64" viewBox="0 0 64 64" fill="none"><path fill-rule="evenodd" clip-rule="evenodd" d="M48.2897 15.4958C46.5439 14.4842 43.2002 14.2559 39.4293 15.2971C31.6789 17.4371 26.177 23.6878 23.3541 31.1852L32.6005 40.4315C40.0995 37.6083 46.3485 32.108 48.4885 24.3564C49.5298 20.5855 49.3014 17.2415 48.2897 15.4958ZM22.6297 33.3154L30.4701 41.1558C29.2482 41.5286 28.0378 41.8275 26.8553 42.0657L21.7196 36.93C21.9577 35.7475 22.2568 34.5357 22.6297 33.3154ZM17.3166 38.8354C18.256 37.8959 19.6832 39.3232 18.7438 40.2626L16.2145 42.7918C15.2751 43.7312 13.8479 42.304 14.7874 41.3646L17.3166 38.8354ZM23.5231 45.0419C24.4626 44.1025 25.8898 45.5297 24.9503 46.4691L22.4211 48.9983C21.4817 49.9378 20.0545 48.5105 20.9939 47.5711L23.5231 45.0419ZM20.4207 41.9395L17.8915 44.4688C16.9521 45.4082 18.3793 46.8354 19.3187 45.8959L21.8479 43.3667C22.7857 42.4273 21.3585 41.0001 20.4207 41.9395ZM41.5332 22.2528C44.9887 25.7099 42.5318 31.6471 37.6425 31.6471C32.7532 31.6471 30.2944 25.7101 33.7518 22.2528C35.9 20.1046 39.3835 20.1046 41.5332 22.2528ZM41.1276 26.1435C41.1276 28.0683 39.5673 29.6286 37.6425 29.6286C34.545 29.6286 32.9915 25.8676 35.1789 23.6802C37.3649 21.4926 41.1276 23.046 41.1276 26.1435ZM25.9668 22.2856C23.3982 25.6278 21.6342 29.4478 20.5078 33.3945L15.4049 32.8871L20.1399 23.634C21.1992 21.5646 23.9929 22.1443 25.9668 22.2856ZM20.0004 35.3651L13.7412 34.7427V34.741C13.0482 34.6721 12.6195 33.9215 12.9447 33.2843L18.3512 22.719C19.3514 20.7646 21.5045 19.9467 23.6033 20.0962L27.5713 20.3786C30.9578 16.6998 34.9487 14.4466 38.8938 13.3577C43.3496 12.1276 47.4224 12.5332 49.5461 13.8997C49.6709 13.9752 49.7826 14.0803 49.868 14.2101C51.2492 16.3254 51.6663 20.4166 50.4296 24.8918C49.3408 28.8368 47.0874 32.8277 43.4087 36.2143L43.6912 40.1822C43.8406 42.2812 43.0227 44.4342 41.0683 45.4344L30.5014 50.8425C29.8641 51.1677 29.1119 50.7391 29.0446 50.046H29.043L28.4205 43.7852C27.867 43.9133 27.3168 44.0283 26.7748 44.1301C26.4398 44.2172 26.067 44.1301 25.8042 43.8673L19.9164 37.9795L19.918 37.9778C19.6914 37.7512 19.5764 37.4194 19.6404 37.0811C19.7455 36.5161 19.8657 35.9432 20.0004 35.3651ZM30.3933 43.2779C34.3398 42.1512 38.1601 40.3873 41.5022 37.8188C41.6434 39.7946 42.2215 42.5866 40.1538 43.6457L30.9007 48.3808L30.3933 43.2779Z" fill="#64C4B6"></path></svg>