<svg xmlns="http://www.w3.org/2000/svg" width="64" height="64" viewBox="0 0 64 64" fill="none"><path d="M34.672 47.0253H17.0294C17.5503 39.2122 24.0544 33.0019 32.0009 33.0019C32.8423 33.0019 33.6837 33.0687 34.5118 33.2156C35.0594 33.3091 35.5802 32.9351 35.6604 32.3875C35.7538 31.8399 35.3799 31.3191 34.8323 31.2389C33.8974 31.0787 32.9492 30.9985 32.0009 30.9985C22.612 30.9985 14.9727 38.6379 14.9727 48.027C14.9727 48.5745 15.4267 49.0286 15.9743 49.0286H34.672C35.2196 49.0286 35.6737 48.5745 35.6737 48.027C35.6737 47.4794 35.2196 47.0253 34.672 47.0253Z" fill="#64C4B6"></path><path d="M32.0007 30.3306C36.2344 30.3306 39.6801 26.8849 39.6801 22.6512C39.6801 18.4174 36.2344 14.9717 32.0007 14.9717C27.767 14.9717 24.3213 18.4174 24.3213 22.6512C24.3213 26.8849 27.767 30.3306 32.0007 30.3306ZM32.0007 16.975C35.1259 16.975 37.6768 19.5259 37.6768 22.6512C37.6768 25.7764 35.1259 28.3273 32.0007 28.3273C28.8755 28.3273 26.3246 25.7764 26.3246 22.6512C26.3246 19.5259 28.8755 16.975 32.0007 16.975Z" fill="#64C4B6"></path><path d="M46.3586 40.0136C46.3586 36.5144 43.5139 33.6697 40.0148 33.6697C36.5156 33.6697 33.6709 36.5144 33.6709 40.0136C33.6709 43.5128 36.5156 46.3575 40.0148 46.3575C43.5139 46.3575 46.3586 43.5128 46.3586 40.0136ZM40.0148 44.3542C37.6241 44.3542 35.6742 42.4043 35.6742 40.0136C35.6742 37.6229 37.6241 35.673 40.0148 35.673C42.4054 35.673 44.3553 37.6229 44.3553 40.0136C44.3553 42.4043 42.4054 44.3542 40.0148 44.3542Z" fill="#64C4B6"></path><path d="M48.7362 47.319L46.0651 44.6479C45.6777 44.2606 45.0367 44.2606 44.6494 44.6479C44.2621 45.0352 44.2621 45.6763 44.6494 46.0636L47.3205 48.7347C47.5208 48.9351 47.7746 49.0286 48.0283 49.0286C48.2821 49.0286 48.5358 48.9351 48.7362 48.7347C49.1235 48.3474 49.1235 47.7063 48.7362 47.319Z" fill="#64C4B6"></path></svg>