<svg xmlns="http://www.w3.org/2000/svg" width="64" height="64" viewBox="0 0 64 64" fill="none"><path fill-rule="evenodd" clip-rule="evenodd" d="M32.0011 17.0522C40.8503 17.0522 44.1061 28.7352 36.5697 33.3366C42.3338 35.2711 46.3551 40.698 46.3551 46.9478H44.3321C44.3321 35.9976 31.0318 30.4801 23.2837 38.2282C21.0529 40.459 19.672 43.5418 19.672 46.9478H17.6491C17.6491 40.7001 21.6682 35.2711 27.4344 33.3366C22.588 30.3793 21.7626 23.6561 25.7922 19.6248C27.3809 18.034 29.5769 17.0522 32.0011 17.0522ZM7.5983 44.5502H9.62123C9.62123 38.9631 14.1508 34.4334 19.738 34.4334C21.1661 34.4334 22.5656 34.0198 23.7591 33.2583L22.6767 31.5585C19.0979 33.8407 14.27 31.2971 14.27 26.9384C14.27 23.0222 18.248 20.4231 21.8042 21.8718L22.5636 19.9991C21.6725 19.6369 20.7115 19.4475 19.7422 19.4475C12.385 19.4475 9.44632 29.0274 15.5522 33.1536C10.8416 34.8843 7.5983 39.3867 7.5983 44.5502ZM54.3814 44.5502H56.4043C56.4043 39.3868 53.161 34.8839 48.4544 33.1532C50.4733 31.7889 51.7574 29.4963 51.7574 26.9403C51.7574 21.5877 46.3226 18.0132 41.4431 19.9988L42.2025 21.8715C45.7545 20.4248 49.7367 23.0199 49.7367 26.9382C49.7367 31.2969 44.9088 33.8407 41.3279 31.5582L40.2455 33.2581C41.4391 34.0175 42.8364 34.4332 44.2667 34.4332C49.8521 34.4332 54.3814 38.963 54.3814 44.5502ZM36.78 21.0546C32.5324 16.807 25.2413 19.8322 25.2413 25.8331C25.2413 31.8363 32.5327 34.8593 36.78 30.6116C39.4203 27.9733 39.4203 23.6929 36.78 21.0546Z" fill="#64C4B6"></path></svg>