<svg width="177" height="177" viewBox="0 0 177 177" fill="none" xmlns="http://www.w3.org/2000/svg">
<circle cx="88.5" cy="88.5" r="88.5" fill="white"/>
<circle cx="88.5" cy="88.5" r="83.5" fill="url(#paint0_linear_38_7)"/>
<path d="M54.2374 127H52.2601L55.2729 118.273H57.6507L60.6593 127H58.682L56.4959 120.267H56.4277L54.2374 127ZM54.1138 123.57H58.7843V125.01H54.1138V123.57ZM68.0865 121.094C68.0268 120.886 67.943 120.703 67.8351 120.544C67.7271 120.382 67.595 120.246 67.4387 120.135C67.2853 120.021 67.1092 119.935 66.9103 119.875C66.7143 119.815 66.497 119.786 66.2583 119.786C65.8123 119.786 65.4203 119.896 65.0822 120.118C64.747 120.339 64.4856 120.662 64.2981 121.085C64.1106 121.506 64.0169 122.02 64.0169 122.628C64.0169 123.236 64.1092 123.753 64.2939 124.179C64.4785 124.605 64.7399 124.93 65.0779 125.155C65.416 125.376 65.8152 125.487 66.2754 125.487C66.693 125.487 67.0495 125.413 67.345 125.266C67.6433 125.115 67.8706 124.903 68.0268 124.631C68.1859 124.358 68.2654 124.036 68.2654 123.663L68.6404 123.719H66.3904V122.33H70.0424V123.429C70.0424 124.196 69.8805 124.855 69.5566 125.406C69.2328 125.955 68.7868 126.378 68.2186 126.676C67.6504 126.972 66.9998 127.119 66.2669 127.119C65.4487 127.119 64.7299 126.939 64.1106 126.578C63.4913 126.214 63.0083 125.699 62.6618 125.031C62.318 124.361 62.1461 123.565 62.1461 122.645C62.1461 121.937 62.2484 121.307 62.4529 120.753C62.6603 120.196 62.9501 119.724 63.3223 119.338C63.6944 118.952 64.1277 118.658 64.622 118.456C65.1163 118.254 65.6518 118.153 66.2285 118.153C66.7228 118.153 67.1831 118.226 67.6092 118.371C68.0353 118.513 68.4132 118.714 68.7427 118.976C69.0751 119.237 69.3464 119.548 69.5566 119.909C69.7669 120.267 69.9018 120.662 69.9615 121.094H68.0865ZM72.4284 127V118.273H75.8716C76.5307 118.273 77.0932 118.391 77.5591 118.626C78.0279 118.859 78.3844 119.19 78.6287 119.619C78.8759 120.045 78.9995 120.547 78.9995 121.124C78.9995 121.703 78.8745 122.202 78.6245 122.619C78.3745 123.034 78.0123 123.352 77.5378 123.574C77.0662 123.795 76.4952 123.906 75.8248 123.906H73.5194V122.423H75.5265C75.8787 122.423 76.1713 122.375 76.4043 122.278C76.6373 122.182 76.8105 122.037 76.9242 121.844C77.0407 121.651 77.0989 121.411 77.0989 121.124C77.0989 120.834 77.0407 120.589 76.9242 120.391C76.8105 120.192 76.6358 120.041 76.4 119.939C76.1671 119.834 75.873 119.781 75.5179 119.781H74.2736V127H72.4284ZM77.1415 123.028L79.3105 127H77.2736L75.1515 123.028H77.1415ZM83.1486 118.273V127H81.3034V118.273H83.1486ZM89.1117 119.794V118.273H96.2793V119.794H93.6074V127H91.7836V119.794H89.1117ZM98.4597 127V118.273H104.34V119.794H100.305V121.874H104.038V123.395H100.305V125.479H104.357V127H98.4597ZM114.508 121.328H112.641C112.607 121.087 112.537 120.872 112.432 120.685C112.327 120.494 112.192 120.332 112.028 120.199C111.863 120.065 111.672 119.963 111.456 119.892C111.243 119.821 111.012 119.786 110.762 119.786C110.31 119.786 109.917 119.898 109.581 120.122C109.246 120.344 108.986 120.668 108.802 121.094C108.617 121.517 108.525 122.031 108.525 122.636C108.525 123.259 108.617 123.781 108.802 124.205C108.989 124.628 109.251 124.947 109.586 125.163C109.921 125.379 110.309 125.487 110.749 125.487C110.996 125.487 111.225 125.455 111.435 125.389C111.648 125.324 111.837 125.229 112.002 125.104C112.167 124.976 112.303 124.821 112.411 124.639C112.522 124.457 112.599 124.25 112.641 124.017L114.508 124.026C114.459 124.426 114.339 124.812 114.145 125.185C113.955 125.554 113.698 125.885 113.374 126.178C113.053 126.467 112.67 126.697 112.224 126.868C111.78 127.036 111.279 127.119 110.719 127.119C109.941 127.119 109.245 126.943 108.631 126.591C108.02 126.239 107.537 125.729 107.182 125.061C106.83 124.393 106.654 123.585 106.654 122.636C106.654 121.685 106.833 120.875 107.191 120.207C107.549 119.54 108.035 119.031 108.648 118.682C109.262 118.33 109.952 118.153 110.719 118.153C111.225 118.153 111.694 118.224 112.126 118.366C112.56 118.509 112.945 118.716 113.28 118.989C113.616 119.259 113.888 119.589 114.099 119.982C114.312 120.374 114.448 120.822 114.508 121.328ZM116.831 127V118.273H118.676V121.874H122.422V118.273H124.263V127H122.422V123.395H118.676V127H116.831Z" fill="white"/>
<circle cx="89" cy="66" r="35" fill="white" fill-opacity="0.1"/>
<circle cx="89" cy="66" r="34.5" stroke="white" stroke-opacity="0.4"/>
<path d="M108.605 73.8514C99.1346 81.0072 98.881 81.8342 96.6174 82.5075C93.9052 83.3082 91.268 83.6497 90.268 83.6497C88.7257 83.6497 87.2148 83.1775 85.9512 82.2917C83.8773 80.9112 83.5947 80.4561 82.6552 80.2772C82.5556 79.912 82.6595 80.2221 78.3923 71.3289L80.6676 69.9169C83.3612 68.2487 86.9495 68.9366 88.8291 71.4863C89.1574 71.927 89.6745 72.1878 90.2276 72.1563L95.8439 71.918C97.3067 71.8736 98.4031 72.9251 98.6094 74.1529L103.111 70.7803C104.792 69.5072 107.077 69.618 108.632 70.8658C109.578 71.6256 109.591 73.0858 108.605 73.8514Z" fill="white"/>
<path d="M80.5723 82.4307L75.0002 85.0805C74.253 85.4402 73.3558 85.1261 72.9961 84.3788L68.8059 75.6736C68.4462 74.9265 68.7604 74.0292 69.5076 73.6696L75.0797 71.0198C75.8268 70.6601 76.7241 70.9742 77.0837 71.7215L81.2739 80.4267C81.6335 81.1738 81.3194 82.071 80.5723 82.4307Z" fill="white"/>
<path d="M94.8548 64.9704C95.9115 65.4695 99.4774 67.2727 102.126 69.8313L99.1131 72.0886C97.74 70.3723 95.8643 70.5865 95.7856 70.5687L90.1378 70.8116C90.0568 70.8116 89.9714 70.7621 89.913 70.6857C89.3149 69.8763 88.5595 69.2018 87.7051 68.7071C89.94 66.8905 92.4221 65.591 93.4833 65.0739C93.6829 63.477 93.6358 61.8307 93.1865 60.2579C84.7352 60.4293 80.5728 55.991 80.5554 47.9641C80.5554 47.3075 81.0725 46.7815 81.7291 46.7725C89.8831 46.6663 94.1896 50.8908 94.2073 59.0619C94.5955 53.765 97.5549 50.9174 103.434 50.9004C103.929 50.8959 104.329 51.2916 104.334 51.7818C104.402 57.7555 101.421 61.166 95.0796 61.1843C94.9942 61.3686 94.9177 61.562 94.8503 61.7553C94.9718 62.7266 94.9807 63.7968 94.8548 64.9704Z" fill="white"/>
<defs>
<linearGradient id="paint0_linear_38_7" x1="89" y1="5" x2="89" y2="184" gradientUnits="userSpaceOnUse">
<stop stop-color="#0EAF65"/>
<stop offset="1" stop-color="#098BB5"/>
</linearGradient>
</defs>
</svg>
