<svg width="160" height="160" viewBox="0 0 160 160" fill="none" xmlns="http://www.w3.org/2000/svg">
<rect width="160" height="160" fill="url(#paint0_linear_40_98)"/>
<path d="M111.19 92.4909C96.1231 103.875 95.7196 105.191 92.1184 106.262C87.8035 107.536 83.608 108.079 82.0172 108.079C79.5635 108.079 77.1598 107.328 75.1495 105.919C71.8501 103.722 71.4006 102.998 69.9058 102.714C69.7474 102.133 69.9127 102.626 63.124 88.4778L66.7438 86.2315C71.029 83.5775 76.7377 84.6719 79.728 88.7282C80.2502 89.4293 81.0729 89.8443 81.9528 89.7941L90.8879 89.415C93.2151 89.3444 94.9593 91.0172 95.2875 92.9705L102.448 87.6051C105.123 85.5796 108.759 85.7558 111.233 87.741C112.737 88.9499 112.759 91.2728 111.19 92.4909Z" fill="white"/>
<path d="M66.5919 106.14L57.7272 110.355C56.5386 110.928 55.1111 110.428 54.5389 109.239L47.8726 95.3899C47.3005 94.2013 47.8003 92.7738 48.9889 92.2017L57.8537 87.9861C59.0423 87.4139 60.4698 87.9136 61.0419 89.1024L67.7081 102.952C68.2802 104.14 67.7805 105.568 66.5919 106.14Z" fill="white"/>
<path d="M89.314 78.3621C90.9951 79.1562 96.6681 82.0248 100.882 86.0953L96.0885 89.6865C93.904 86.956 90.92 87.2968 90.7948 87.2685L81.8096 87.6549C81.6808 87.6549 81.5449 87.5761 81.452 87.4546C80.5005 86.167 79.2987 85.0939 77.9394 84.3069C81.4949 81.4168 85.4437 79.3494 87.132 78.5267C87.4496 75.9862 87.3746 73.3671 86.6599 70.865C73.2145 71.1376 66.5926 64.0766 66.5649 51.3066C66.5649 50.262 67.3876 49.4252 68.4321 49.4108C81.4044 49.242 88.2556 55.9628 88.2838 68.9621C88.9014 60.5354 93.6096 56.005 102.963 55.978C103.75 55.9709 104.387 56.6003 104.394 57.3802C104.503 66.8839 99.7609 72.3097 89.6716 72.3387C89.5357 72.6319 89.4141 72.9396 89.3067 73.2472C89.5001 74.7924 89.5143 76.4949 89.314 78.3621Z" fill="white"/>
<defs>
<linearGradient id="paint0_linear_40_98" x1="80" y1="0" x2="80" y2="160" gradientUnits="userSpaceOnUse">
<stop stop-color="#E6BA09"/>
<stop offset="1" stop-color="#01896E"/>
</linearGradient>
</defs>
</svg>
