<svg width="100" height="100" viewBox="0 0 100 100" fill="none" xmlns="http://www.w3.org/2000/svg">
<circle cx="50" cy="50" r="50" fill="white"/>
<g clip-path="url(#clip0_44_60)">
<path d="M38.5192 28.0922C38.5192 24.733 35.7862 22 32.427 22C24.3448 22.3347 24.3471 33.851 32.427 34.1844C35.7863 34.1844 38.5192 31.4514 38.5192 28.0922Z" fill="#27A22E"/>
<path d="M42.8542 46.4854V44.6115C42.2798 30.775 22.5693 30.7858 22 44.6114V46.4853C22 47.3914 22.7346 48.126 23.6406 48.126H41.2136C42.1196 48.1261 42.8542 47.3915 42.8542 46.4854Z" fill="#27A22E"/>
<path d="M73.6652 28.0922C73.6652 24.733 70.9322 22 67.573 22C59.4908 22.3347 59.4931 33.851 67.573 34.1844C70.9322 34.1844 73.6652 31.4514 73.6652 28.0922Z" fill="#27A22E"/>
<path d="M67.573 34.1843C61.8235 34.1843 57.146 38.862 57.146 44.6114V46.4853C57.146 47.3914 57.8806 48.1259 58.7866 48.1259H76.3595C77.2655 48.1259 78.0001 47.3914 78.0001 46.4853V44.6114C78.0001 38.862 73.3226 34.1843 67.573 34.1843Z" fill="#27A22E"/>
<path d="M32.3103 51.7573C32.3103 51.6403 32.3125 51.5238 32.3147 51.4073H29.0334C28.9028 58.4402 32.312 64.794 37.5913 68.6632C38.063 67.662 38.6523 66.727 39.3413 65.8755C35.0705 62.6462 32.3103 57.5244 32.3103 51.7573Z" fill="#27A22E"/>
<path d="M42.7596 35.6129C47.1232 33.5693 52.8763 33.5693 57.24 35.6129C58.0181 34.7205 58.9095 33.9295 59.8918 33.2625C54.0845 29.9923 45.9152 29.9925 40.1079 33.2625C41.0901 33.9295 41.9815 34.7206 42.7596 35.6129Z" fill="#27A22E"/>
<path d="M67.6854 51.4073C67.8128 57.2686 65.0166 62.5928 60.6587 65.8755C61.3478 66.7268 61.937 67.662 62.4087 68.6632C67.6878 64.7943 71.0973 58.4399 70.9666 51.4073H67.6854Z" fill="#27A22E"/>
<path d="M56.0924 57.9661C56.0924 54.6069 53.3594 51.8739 50.0002 51.8739C41.9181 52.2086 41.9203 63.7249 50.0002 64.0583C53.3594 64.0583 56.0924 61.3254 56.0924 57.9661Z" fill="#27A22E"/>
<path d="M49.9998 64.0583C44.2503 64.0583 39.5728 68.736 39.5728 74.4854V76.3594C39.5728 77.2655 40.3073 78.0001 41.2134 78.0001H58.7863C59.6924 78.0001 60.427 77.2655 60.427 76.3594V74.4855C60.4268 68.736 55.7493 64.0583 49.9998 64.0583Z" fill="#27A22E"/>
</g>
<defs>
<clipPath id="clip0_44_60">
<rect width="56" height="56" fill="white" transform="translate(22 22)"/>
</clipPath>
</defs>
</svg>
