<svg width="100" height="100" viewBox="0 0 100 100" fill="none" xmlns="http://www.w3.org/2000/svg">
<circle cx="50" cy="50" r="50" fill="white"/>
<g clip-path="url(#clip0_44_43)">
<path d="M55.2506 69.0118C53.9674 67.7286 51.8868 67.7286 50.6034 69.0118C51.8866 67.7286 51.8866 65.648 50.6034 64.3646C49.32 63.0811 47.2395 63.0811 45.956 64.3646C47.2394 63.0811 47.2394 61.0007 45.956 59.7172C44.6728 58.434 42.5923 58.434 41.3088 59.7172C42.5922 58.434 42.5922 56.3535 41.3088 55.07C40.0254 53.7866 37.945 53.7866 36.6614 55.07L34.3379 57.3935C33.0547 58.6769 33.0547 60.7574 34.3379 62.0409C35.6213 63.3241 37.7017 63.3241 38.9852 62.0409C37.7018 63.3241 37.7018 65.4046 38.9852 66.6881C40.2685 67.9715 42.3492 67.9715 43.6325 66.6881C42.3493 67.9715 42.3493 70.0519 43.6325 71.3355C44.9159 72.6186 46.9963 72.6186 48.2798 71.3355C46.9964 72.6186 46.9964 74.6992 48.2798 75.9827C49.563 77.2661 51.6435 77.2661 52.927 75.9827L55.2506 73.6591C56.534 72.3756 56.534 70.2952 55.2506 69.0118Z" fill="#5417D3"/>
<path d="M72.7888 28.3484C65.7305 21.2901 54.1761 21.2901 47.1179 28.3484L37.8234 37.6429C36.54 38.9261 36.54 41.0065 37.8234 42.29C39.1068 43.5734 41.1872 43.5734 42.4707 42.29L57.5743 31.8339L75.6698 49.9293C79.5125 43.0491 78.637 34.1966 72.7888 28.3484Z" fill="#5417D3"/>
<path d="M73.2584 52.1655C72.5964 51.5034 57.7425 36.6495 57.1894 36.0964L44.5435 44.851C41.9667 47.1734 37.98 47.094 35.4997 44.6138C32.9366 42.0509 32.9366 37.8823 35.4997 35.3193L44.7941 26.0248C45.1114 25.7075 45.4501 25.4254 45.7819 25.1323C39.5138 23.0793 32.2046 24.3138 27.2215 29.2967C20.1633 36.355 20.3087 48.0118 27.3669 55.0699L30.3368 58.0398C30.6229 56.9532 31.1639 55.9201 32.0142 55.07L34.3378 52.7465C36.9009 50.1834 41.0693 50.1834 43.6323 52.7465C44.4824 53.5966 45.0236 54.6298 45.3096 55.7162C46.3962 56.0022 47.4294 56.5433 48.2796 57.3936C49.1298 58.2438 49.6707 59.277 49.957 60.3636C51.0435 60.6496 52.0767 61.1907 52.9267 62.0409C53.7768 62.8911 54.3181 63.9243 54.6041 65.0107C55.6906 65.2967 56.7238 65.8378 57.5741 66.6881L58.155 67.269C59.1172 68.2315 60.6779 68.2315 61.6404 67.269C62.6027 66.3067 62.6027 64.746 61.6404 63.7837L50.6032 52.7465L52.9267 50.4227L63.964 61.4599C64.9263 62.4224 66.4869 62.4224 67.4494 61.4599C68.4117 60.4977 68.4117 58.937 67.4494 57.9745L56.4122 46.9375L58.7357 44.6137L69.773 55.6509C70.7353 56.6134 72.2959 56.6134 73.2584 55.6509C74.2207 54.6886 74.2207 53.128 73.2584 52.1655Z" fill="#5417D3"/>
</g>
<defs>
<clipPath id="clip0_44_43">
<rect width="56" height="56" fill="white" transform="translate(22 22)"/>
</clipPath>
</defs>
</svg>
