<svg width="177" height="177" viewBox="0 0 177 177" fill="none" xmlns="http://www.w3.org/2000/svg">
<circle cx="88.5" cy="88.5" r="88.5" fill="white"/>
<circle cx="88.5" cy="88.5" r="83.5" fill="url(#paint0_linear_38_48)"/>
<path d="M55.2839 127V118.273H61.1646V119.794H57.1291V121.874H60.862V123.395H57.1291V125.479H61.1816V127H55.2839ZM66.7253 127H63.6316V118.273H66.7509C67.6287 118.273 68.3844 118.447 69.0179 118.797C69.6515 119.143 70.1387 119.642 70.4796 120.293C70.8233 120.943 70.9952 121.722 70.9952 122.628C70.9952 123.537 70.8233 124.318 70.4796 124.972C70.1387 125.625 69.6486 126.126 69.0094 126.476C68.373 126.825 67.6117 127 66.7253 127ZM65.4767 125.419H66.6486C67.1941 125.419 67.6529 125.322 68.025 125.129C68.4 124.933 68.6813 124.631 68.8688 124.222C69.0591 123.81 69.1543 123.278 69.1543 122.628C69.1543 121.983 69.0591 121.456 68.8688 121.047C68.6813 120.638 68.4015 120.337 68.0293 120.143C67.6571 119.95 67.1983 119.854 66.6529 119.854H65.4767V125.419ZM78.7527 118.273H80.5978V123.94C80.5978 124.577 80.4458 125.134 80.1419 125.611C79.8407 126.088 79.4189 126.46 78.8762 126.727C78.3336 126.991 77.7015 127.124 76.9799 127.124C76.2555 127.124 75.622 126.991 75.0794 126.727C74.5368 126.46 74.1149 126.088 73.8137 125.611C73.5126 125.134 73.362 124.577 73.362 123.94V118.273H75.2072V123.783C75.2072 124.115 75.2797 124.411 75.4245 124.669C75.5723 124.928 75.7797 125.131 76.0467 125.278C76.3137 125.426 76.6248 125.5 76.9799 125.5C77.3379 125.5 77.649 125.426 77.9132 125.278C78.1802 125.131 78.3862 124.928 78.5311 124.669C78.6788 124.411 78.7527 124.115 78.7527 123.783V118.273ZM86.5609 119.794V118.273H93.7285V119.794H91.0566V127H89.2328V119.794H86.5609ZM95.9089 127V118.273H101.79V119.794H97.7541V121.874H101.487V123.395H97.7541V125.479H101.807V127H95.9089ZM111.957 121.328H110.09C110.056 121.087 109.987 120.872 109.882 120.685C109.776 120.494 109.642 120.332 109.477 120.199C109.312 120.065 109.122 119.963 108.906 119.892C108.693 119.821 108.461 119.786 108.211 119.786C107.759 119.786 107.366 119.898 107.031 120.122C106.695 120.344 106.436 120.668 106.251 121.094C106.066 121.517 105.974 122.031 105.974 122.636C105.974 123.259 106.066 123.781 106.251 124.205C106.438 124.628 106.7 124.947 107.035 125.163C107.37 125.379 107.758 125.487 108.198 125.487C108.445 125.487 108.674 125.455 108.884 125.389C109.097 125.324 109.286 125.229 109.451 125.104C109.616 124.976 109.752 124.821 109.86 124.639C109.971 124.457 110.048 124.25 110.09 124.017L111.957 124.026C111.909 124.426 111.788 124.812 111.595 125.185C111.404 125.554 111.147 125.885 110.823 126.178C110.502 126.467 110.119 126.697 109.673 126.868C109.23 127.036 108.728 127.119 108.169 127.119C107.39 127.119 106.694 126.943 106.08 126.591C105.47 126.239 104.987 125.729 104.632 125.061C104.279 124.393 104.103 123.585 104.103 122.636C104.103 121.685 104.282 120.875 104.64 120.207C104.998 119.54 105.484 119.031 106.097 118.682C106.711 118.33 107.401 118.153 108.169 118.153C108.674 118.153 109.143 118.224 109.575 118.366C110.009 118.509 110.394 118.716 110.73 118.989C111.065 119.259 111.338 119.589 111.548 119.982C111.761 120.374 111.897 120.822 111.957 121.328ZM114.28 127V118.273H116.125V121.874H119.871V118.273H121.712V127H119.871V123.395H116.125V127H114.28Z" fill="white"/>
<circle cx="89" cy="66" r="35" fill="white" fill-opacity="0.1"/>
<circle cx="89" cy="66" r="34.5" stroke="white" stroke-opacity="0.4"/>
<path d="M109.711 77.6016H68.2891C67.5772 77.6016 67 78.1787 67 78.8906C67 81.0264 68.7314 82.7578 70.8672 82.7578H107.133C109.269 82.7578 111 81.0264 111 78.8906C111 78.1787 110.423 77.6016 109.711 77.6016Z" fill="white"/>
<path d="M79.9766 55.4874V65.7823C81.3731 65.649 82.8115 65.7012 84.156 66.0391C85.4412 66.36 86.7076 66.958 87.7109 67.5195V57.6501C86.8826 57.0974 85.1807 56.0615 83.5315 55.6485C82.2135 55.3187 80.8578 55.3816 79.9766 55.4874Z" fill="white"/>
<path d="M94.4685 55.6485C92.8106 56.0639 91.1149 57.0974 90.2891 57.6488V67.5194C91.2924 66.9579 92.5588 66.36 93.844 66.0389C95.3899 65.6487 96.9219 65.6752 98.0234 65.7821V55.486C97.1447 55.3829 95.7928 55.3187 94.4685 55.6485Z" fill="white"/>
<path d="M108.422 50.5312C108.422 49.8187 107.845 49.2422 107.133 49.2422H70.8672C70.1547 49.2422 69.5781 49.8187 69.5781 50.5312V75.0234H108.422V50.5312ZM100.602 67.2891C100.602 68.1116 99.8279 68.7405 99.0028 68.5404C98.9801 68.5341 96.6827 67.989 94.4684 68.5391C92.1697 69.1144 89.7968 70.8806 89.7728 70.8982C89.5365 71.0768 89.2561 71.1562 88.9999 71.1562C88.7327 71.1562 88.4582 71.0719 88.227 70.8995C88.2031 70.8819 85.8176 69.1107 83.5315 68.5391C81.3247 67.9877 79.021 68.5328 78.9996 68.5391C78.1849 68.7415 77.3984 68.126 77.3984 67.2891V54.3984C77.3984 53.8068 77.8013 53.2919 78.3753 53.1484C78.4949 53.1181 81.3009 52.4308 84.156 53.1484C86.1034 53.6346 87.9849 54.7467 89 55.4134C90.0151 54.7467 91.8966 53.6346 93.844 53.1484C96.7003 52.4283 99.5064 53.1181 99.6247 53.1484C100.199 53.2919 100.602 53.8068 100.602 54.3984V67.2891Z" fill="white"/>
<defs>
<linearGradient id="paint0_linear_38_48" x1="89" y1="5" x2="89" y2="184" gradientUnits="userSpaceOnUse">
<stop stop-color="#110EAF"/>
<stop offset="1" stop-color="#B509AE"/>
</linearGradient>
</defs>
</svg>
