<svg width="160" height="160" viewBox="0 0 160 160" fill="none" xmlns="http://www.w3.org/2000/svg">
<rect width="160" height="160" fill="url(#paint0_linear_40_98)"/>
<path d="M112.949 98.457H47.0508C45.9182 98.457 45 99.3752 45 100.508C45 103.906 47.7545 106.66 51.1523 106.66H108.848C112.246 106.66 115 103.906 115 100.508C115 99.3752 114.082 98.457 112.949 98.457Z" fill="white"/>
<path d="M65.6445 63.2754V79.6536C67.8663 79.4416 70.1546 79.5247 72.2936 80.0621C74.3383 80.5728 76.353 81.5241 77.9492 82.4174V66.716C76.6314 65.8368 73.9238 64.1887 71.3002 63.5317C69.2033 63.007 67.0464 63.1071 65.6445 63.2754Z" fill="white"/>
<path d="M88.6998 63.5316C86.0622 64.1925 83.3646 65.8367 82.0508 66.7139V82.4171C83.647 81.524 85.6617 80.5727 87.7064 80.0619C90.1657 79.441 92.603 79.4832 94.3555 79.6534V63.2731C92.9575 63.109 90.8067 63.0069 88.6998 63.5316Z" fill="white"/>
<path d="M110.898 55.3906C110.898 54.2571 109.981 53.3398 108.848 53.3398H51.1523C50.0188 53.3398 49.1016 54.2571 49.1016 55.3906V94.3555H110.898V55.3906ZM98.457 82.0508C98.457 83.3593 97.2262 84.36 95.9135 84.0415C95.8774 84.0316 92.2225 83.1644 88.6997 84.0395C85.0427 84.9547 81.2677 87.7645 81.2295 87.7926C80.8535 88.0767 80.4074 88.2031 79.9999 88.2031C79.5748 88.2031 79.138 88.069 78.7702 87.7946C78.7322 87.7666 74.937 84.9488 71.3 84.0395C67.7892 83.1623 64.1244 84.0295 64.0903 84.0395C62.7942 84.3615 61.543 83.3823 61.543 82.0508V61.543C61.543 60.6017 62.1839 59.7826 63.0971 59.5543C63.2874 59.5061 67.7514 58.4127 72.2936 59.5543C75.3918 60.3278 78.3851 62.097 80 63.1576C81.6149 62.097 84.6082 60.3278 87.7064 59.5543C92.2505 58.4087 96.7147 59.5061 96.9029 59.5543C97.8162 59.7826 98.457 60.6017 98.457 61.543V82.0508Z" fill="white"/>
<defs>
<linearGradient id="paint0_linear_40_98" x1="80" y1="0" x2="80" y2="160" gradientUnits="userSpaceOnUse">
<stop stop-color="#140EB0"/>
<stop offset="1" stop-color="#A70AAE"/>
</linearGradient>
</defs>
</svg>
