<svg width="177" height="177" viewBox="0 0 177 177" fill="none" xmlns="http://www.w3.org/2000/svg">
<circle cx="88.5" cy="88.5" r="88.5" fill="white"/>
<circle cx="88.5" cy="88.5" r="83.5" fill="url(#paint0_linear_38_70)"/>
<path d="M58.0964 127V118.273H63.8748V119.794H59.9416V121.874H63.4913V123.395H59.9416V127H58.0964ZM67.9611 118.273V127H66.1159V118.273H67.9611ZM77.7789 118.273V127H76.1852L72.3883 121.507H72.3244V127H70.4792V118.273H72.0985L75.8656 123.761H75.9423V118.273H77.7789ZM83.7484 119.794V118.273H90.916V119.794H88.2441V127H86.4203V119.794H83.7484ZM93.0964 127V118.273H98.9771V119.794H94.9416V121.874H98.6745V123.395H94.9416V125.479H98.9941V127H93.0964ZM109.144 121.328H107.278C107.244 121.087 107.174 120.872 107.069 120.685C106.964 120.494 106.829 120.332 106.664 120.199C106.499 120.065 106.309 119.963 106.093 119.892C105.88 119.821 105.649 119.786 105.399 119.786C104.947 119.786 104.553 119.898 104.218 120.122C103.883 120.344 103.623 120.668 103.438 121.094C103.254 121.517 103.161 122.031 103.161 122.636C103.161 123.259 103.254 123.781 103.438 124.205C103.626 124.628 103.887 124.947 104.222 125.163C104.558 125.379 104.945 125.487 105.386 125.487C105.633 125.487 105.862 125.455 106.072 125.389C106.285 125.324 106.474 125.229 106.639 125.104C106.803 124.976 106.94 124.821 107.048 124.639C107.159 124.457 107.235 124.25 107.278 124.017L109.144 124.026C109.096 124.426 108.975 124.812 108.782 125.185C108.592 125.554 108.335 125.885 108.011 126.178C107.69 126.467 107.306 126.697 106.86 126.868C106.417 127.036 105.916 127.119 105.356 127.119C104.578 127.119 103.882 126.943 103.268 126.591C102.657 126.239 102.174 125.729 101.819 125.061C101.467 124.393 101.291 123.585 101.291 122.636C101.291 121.685 101.47 120.875 101.828 120.207C102.186 119.54 102.671 119.031 103.285 118.682C103.899 118.33 104.589 118.153 105.356 118.153C105.862 118.153 106.33 118.224 106.762 118.366C107.197 118.509 107.582 118.716 107.917 118.989C108.252 119.259 108.525 119.589 108.735 119.982C108.948 120.374 109.085 120.822 109.144 121.328ZM111.468 127V118.273H113.313V121.874H117.058V118.273H118.899V127H117.058V123.395H113.313V127H111.468Z" fill="white"/>
<circle cx="89" cy="66" r="35" fill="white" fill-opacity="0.1"/>
<circle cx="89" cy="66" r="34.5" stroke="white" stroke-opacity="0.4"/>
<g clip-path="url(#clip0_38_70)">
<path d="M104 76.0001C103.136 75.9994 102.287 76.2241 101.536 76.6519L97.3334 73.5001V69.7307C99.4898 68.0042 101.057 65.6505 101.818 62.9949C102.579 60.3393 102.496 57.513 101.581 54.9065C100.666 52.2999 98.9641 50.0419 96.7104 48.4445C94.4567 46.847 91.7625 45.989 89.0001 45.989C86.2376 45.989 83.5434 46.847 81.2897 48.4445C79.036 50.0419 77.3341 52.2999 76.4192 54.9065C75.5043 57.513 75.4216 60.3393 76.1825 62.9949C76.9434 65.6505 78.5103 68.0042 80.6667 69.7307V73.5001L76.4642 76.6519C75.4377 76.07 74.2386 75.8696 73.0786 76.0861C71.9187 76.3027 70.8726 76.9222 70.1251 77.8353C69.3777 78.7483 68.977 79.8962 68.9939 81.0761C69.0108 82.2559 69.4441 83.3919 70.2174 84.2832C70.9906 85.1745 72.054 85.7639 73.2197 85.9471C74.3854 86.1304 75.5783 85.8958 76.5877 85.2847C77.5972 84.6736 78.3582 83.7255 78.7363 82.6077C79.1144 81.4899 79.0852 80.2745 78.654 79.1761L83.3334 75.6667C83.5404 75.5115 83.7084 75.3102 83.8241 75.0787C83.9398 74.8473 84.0001 74.5921 84.0001 74.3334V71.6903C85.0685 72.124 86.1892 72.416 87.3334 72.5588V76.2867C86.2214 76.6799 85.2841 77.4535 84.6874 78.4709C84.0906 79.4882 83.8726 80.6838 84.0721 81.8463C84.2715 83.0088 84.8755 84.0633 85.7773 84.8236C86.6791 85.5838 87.8206 86.0008 89.0001 86.0008C90.1796 86.0008 91.3211 85.5838 92.2228 84.8236C93.1246 84.0633 93.7286 83.0088 93.9281 81.8463C94.1275 80.6838 93.9096 79.4882 93.3128 78.4709C92.716 77.4535 91.7788 76.6799 90.6667 76.2867V72.5588C91.811 72.416 92.9316 72.124 94.0001 71.6903V74.3334C94.0001 74.5921 94.0603 74.8473 94.176 75.0787C94.2917 75.3102 94.4597 75.5115 94.6667 75.6667L99.3461 79.1761C98.9563 80.1711 98.8955 81.2648 99.1727 82.2968C99.4498 83.3289 100.05 84.245 100.886 84.9108C101.722 85.5767 102.749 85.9572 103.817 85.9967C104.885 86.0361 105.937 85.7324 106.82 85.13C107.703 84.5276 108.369 83.6583 108.722 82.6495C109.074 81.6407 109.094 80.5455 108.779 79.5245C108.464 78.5035 107.829 77.6104 106.969 76.9761C106.109 76.3418 105.069 75.9997 104 76.0001ZM74.0001 82.6667C73.6704 82.6667 73.3482 82.569 73.0741 82.3858C72.8 82.2027 72.5864 81.9424 72.4603 81.6379C72.3341 81.3333 72.3011 80.9982 72.3654 80.6749C72.4297 80.3516 72.5885 80.0546 72.8216 79.8215C73.0546 79.5885 73.3516 79.4297 73.6749 79.3654C73.9982 79.3011 74.3333 79.3341 74.6379 79.4603C74.9424 79.5864 75.2027 79.8 75.3859 80.0741C75.569 80.3482 75.6667 80.6704 75.6667 81.0001C75.6662 81.4419 75.4905 81.8656 75.178 82.178C74.8656 82.4905 74.4419 82.6662 74.0001 82.6667ZM89.0001 82.6667C88.6704 82.6667 88.3482 82.569 88.0741 82.3858C87.8 82.2027 87.5864 81.9424 87.4603 81.6379C87.3341 81.3333 87.3011 80.9982 87.3654 80.6749C87.4297 80.3516 87.5885 80.0546 87.8216 79.8215C88.0546 79.5885 88.3516 79.4297 88.6749 79.3654C88.9982 79.3011 89.3333 79.3341 89.6379 79.4603C89.9424 79.5864 90.2027 79.8 90.3859 80.0741C90.569 80.3482 90.6667 80.6704 90.6667 81.0001C90.6662 81.4419 90.4905 81.8656 90.178 82.178C89.8656 82.4905 89.4419 82.6662 89.0001 82.6667ZM90.6667 65.9167V67.6667H87.3334V66.0001H84.0001V62.6667H89.8334C90.0544 62.6667 90.2664 62.5789 90.4227 62.4226C90.5789 62.2664 90.6667 62.0544 90.6667 61.8334C90.6667 61.6124 90.5789 61.4004 90.4227 61.2441C90.2664 61.0879 90.0544 61.0001 89.8334 61.0001H88.1667C87.1334 61.0011 86.1366 60.6182 85.3698 59.9256C84.603 59.233 84.1208 58.2802 84.017 57.2521C83.9131 56.2241 84.195 55.1941 84.8078 54.3622C85.4207 53.5302 86.3208 52.9557 87.3334 52.7501V51.0001H90.6667V52.6667H94.0001V56.0001H88.1667C87.9457 56.0001 87.7338 56.0879 87.5775 56.2441C87.4212 56.4004 87.3334 56.6124 87.3334 56.8334C87.3334 57.0544 87.4212 57.2664 87.5775 57.4226C87.7338 57.5789 87.9457 57.6667 88.1667 57.6667H89.8334C90.8667 57.6657 91.8635 58.0486 92.6303 58.7412C93.3972 59.4338 93.8793 60.3866 93.9832 61.4146C94.087 62.4427 93.8052 63.4727 93.1923 64.3046C92.5795 65.1366 91.6794 65.7111 90.6667 65.9167ZM104 82.6667C103.67 82.6667 103.348 82.569 103.074 82.3858C102.8 82.2027 102.586 81.9424 102.46 81.6379C102.334 81.3333 102.301 80.9982 102.365 80.6749C102.43 80.3516 102.588 80.0546 102.822 79.8215C103.055 79.5885 103.352 79.4297 103.675 79.3654C103.998 79.3011 104.333 79.3341 104.638 79.4603C104.942 79.5864 105.203 79.8 105.386 80.0741C105.569 80.3482 105.667 80.6704 105.667 81.0001C105.666 81.4419 105.49 81.8656 105.178 82.178C104.866 82.4905 104.442 82.6662 104 82.6667Z" fill="white"/>
</g>
<defs>
<linearGradient id="paint0_linear_38_70" x1="89" y1="5" x2="89" y2="184" gradientUnits="userSpaceOnUse">
<stop stop-color="#FBA90A"/>
<stop offset="1" stop-color="#EB3E07"/>
</linearGradient>
<clipPath id="clip0_38_70">
<rect width="40" height="40" fill="white" transform="translate(69 46)"/>
</clipPath>
</defs>
</svg>
