<svg width="160" height="160" viewBox="0 0 160 160" fill="none" xmlns="http://www.w3.org/2000/svg">
<rect width="160" height="160" fill="url(#paint0_linear_40_98)"/>
<g clip-path="url(#clip0_40_98)">
<path d="M104 96C102.617 95.9989 101.258 96.3584 100.057 97.043L93.3332 92V85.969C96.7835 83.2065 99.2906 79.4406 100.508 75.1917C101.725 70.9428 101.593 66.4207 100.129 62.2502C98.6654 58.0798 95.9424 54.467 92.3365 51.911C88.7306 49.3551 84.4198 47.9823 79.9999 47.9823C75.58 47.9823 71.2693 49.3551 67.6633 51.911C64.0574 54.467 61.3344 58.0798 59.8706 62.2502C58.4067 66.4207 58.2744 70.9428 59.4918 75.1917C60.7092 79.4406 63.2163 83.2065 66.6666 85.969V92L59.9426 97.043C58.3002 96.1119 56.3815 95.7912 54.5256 96.1377C52.6697 96.4841 50.9959 97.4754 49.8 98.9363C48.6041 100.397 47.9631 102.234 47.9901 104.122C48.0171 106.009 48.7104 107.827 49.9476 109.253C51.1848 110.679 52.8863 111.622 54.7513 111.915C56.6164 112.208 58.5251 111.833 60.1402 110.855C61.7553 109.878 62.9729 108.361 63.5778 106.572C64.1828 104.784 64.1362 102.839 63.4462 101.082L70.9332 95.4666C71.2644 95.2182 71.5332 94.8961 71.7184 94.5259C71.9035 94.1556 71.9999 93.7473 71.9999 93.3333V89.1043C73.7094 89.7982 75.5024 90.2654 77.3332 90.494V96.4586C75.554 97.0877 74.0544 98.3255 73.0996 99.9532C72.1447 101.581 71.796 103.494 72.1151 105.354C72.4342 107.214 73.4006 108.901 74.8435 110.118C76.2863 111.334 78.1127 112.001 79.9999 112.001C81.8871 112.001 83.7135 111.334 85.1563 110.118C86.5992 108.901 87.5656 107.214 87.8847 105.354C88.2038 103.494 87.8551 101.581 86.9003 99.9532C85.9454 98.3255 84.4458 97.0877 82.6666 96.4586V90.494C84.4974 90.2654 86.2904 89.7982 87.9999 89.1043V93.3333C87.9999 93.7473 88.0963 94.1556 88.2814 94.5259C88.4666 94.8961 88.7354 95.2182 89.0666 95.4666L96.5536 101.082C95.9299 102.674 95.8326 104.424 96.276 106.075C96.7195 107.726 97.6803 109.192 99.0176 110.257C100.355 111.323 101.998 111.931 103.707 111.995C105.416 112.058 107.1 111.572 108.512 110.608C109.924 109.644 110.99 108.253 111.554 106.639C112.118 105.025 112.151 103.273 111.646 101.639C111.141 100.005 110.127 98.5764 108.751 97.5616C107.375 96.5467 105.71 95.9994 104 96ZM55.9999 106.667C55.4725 106.667 54.9569 106.51 54.5184 106.217C54.0799 105.924 53.7381 105.508 53.5362 105.02C53.3344 104.533 53.2816 103.997 53.3845 103.48C53.4874 102.962 53.7414 102.487 54.1143 102.114C54.4872 101.741 54.9624 101.487 55.4797 101.385C55.997 101.282 56.5331 101.334 57.0204 101.536C57.5077 101.738 57.9242 102.08 58.2172 102.518C58.5102 102.957 58.6666 103.473 58.6666 104C58.6658 104.707 58.3846 105.385 57.8847 105.885C57.3847 106.385 56.7069 106.666 55.9999 106.667ZM79.9999 106.667C79.4725 106.667 78.9569 106.51 78.5184 106.217C78.0799 105.924 77.7381 105.508 77.5362 105.02C77.3344 104.533 77.2816 103.997 77.3845 103.48C77.4874 102.962 77.7414 102.487 78.1143 102.114C78.4872 101.741 78.9624 101.487 79.4797 101.385C79.997 101.282 80.5331 101.334 81.0204 101.536C81.5077 101.738 81.9241 102.08 82.2172 102.518C82.5102 102.957 82.6666 103.473 82.6666 104C82.6658 104.707 82.3846 105.385 81.8847 105.885C81.3847 106.385 80.7069 106.666 79.9999 106.667ZM82.6666 79.8666V82.6666H77.3332V80H71.9999V74.6666H81.3332C81.6869 74.6666 82.026 74.5262 82.2761 74.2761C82.5261 74.0261 82.6666 73.6869 82.6666 73.3333C82.6666 72.9797 82.5261 72.6405 82.2761 72.3905C82.026 72.1404 81.6869 72 81.3332 72H78.6666C77.0133 72.0016 75.4184 71.3889 74.1915 70.2808C72.9645 69.1727 72.1931 67.6482 72.027 66.0033C71.8608 64.3584 72.3118 62.7104 73.2923 61.3793C74.2729 60.0482 75.713 59.129 77.3332 58.8V56H82.6666V58.6666H87.9999V64H78.6666C78.313 64 77.9738 64.1404 77.7238 64.3905C77.4737 64.6405 77.3332 64.9797 77.3332 65.3333C77.3332 65.6869 77.4737 66.0261 77.7238 66.2761C77.9738 66.5262 78.313 66.6666 78.6666 66.6666H81.3332C82.9865 66.665 84.5814 67.2777 85.8084 68.3858C87.0353 69.4939 87.8067 71.0184 87.9729 72.6633C88.139 74.3082 87.688 75.9562 86.7075 77.2873C85.727 78.6184 84.2868 79.5376 82.6666 79.8666ZM104 106.667C103.472 106.667 102.957 106.51 102.518 106.217C102.08 105.924 101.738 105.508 101.536 105.02C101.334 104.533 101.282 103.997 101.384 103.48C101.487 102.962 101.741 102.487 102.114 102.114C102.487 101.741 102.962 101.487 103.48 101.385C103.997 101.282 104.533 101.334 105.02 101.536C105.508 101.738 105.924 102.08 106.217 102.518C106.51 102.957 106.667 103.473 106.667 104C106.666 104.707 106.385 105.385 105.885 105.885C105.385 106.385 104.707 106.666 104 106.667Z" fill="white"/>
</g>
<defs>
<linearGradient id="paint0_linear_40_98" x1="80" y1="0" x2="80" y2="160" gradientUnits="userSpaceOnUse">
<stop stop-color="#FBA90B"/>
<stop offset="1" stop-color="#ED4808"/>
</linearGradient>
<clipPath id="clip0_40_98">
<rect width="64" height="64" fill="white" transform="translate(48 48)"/>
</clipPath>
</defs>
</svg>
