<svg width="160" height="160" viewBox="0 0 160 160" fill="none" xmlns="http://www.w3.org/2000/svg">
<rect width="160" height="160" fill="url(#paint0_linear_40_98)"/>
<path d="M47.0645 90.2539C49.7318 96.6195 54.8273 101.844 61.4062 104.586V108.711C61.4062 109.843 62.325 110.762 63.457 110.762H96.543C97.675 110.762 98.5938 109.843 98.5938 108.711V104.586C105.173 101.844 110.268 96.6195 112.936 90.2539H47.0645ZM112.949 77.9492H47.0508C45.9188 77.9492 45 78.868 45 80C45 82.1027 45.2488 84.1645 45.7246 86.1523H114.275C114.751 84.1645 115 82.1027 115 80C115 78.868 114.081 77.9492 112.949 77.9492Z" fill="white"/>
<path d="M66.2452 69.1455C65.4443 68.3446 65.4443 67.0462 66.2452 66.2453C67.7105 64.7798 67.7107 62.408 66.2452 60.9424C63.1839 57.8811 63.1839 52.9003 66.2452 49.8391C67.0459 49.0382 68.3445 49.0382 69.1454 49.8391C69.9463 50.64 69.9463 51.9384 69.1454 52.7393C67.68 54.2048 67.6799 56.5766 69.1454 58.0422C72.2067 61.1035 72.2067 66.0843 69.1454 69.1455C68.3446 69.9463 67.0459 69.9464 66.2452 69.1455Z" fill="white"/>
<path d="M78.5499 69.1455C77.749 68.3446 77.749 67.0462 78.5499 66.2453C80.0152 64.7798 80.0153 62.408 78.5499 60.9424C75.4886 57.8811 75.4886 52.9003 78.5499 49.8391C79.3506 49.0382 80.6492 49.0382 81.4501 49.8391C82.251 50.64 82.251 51.9384 81.4501 52.7393C79.9847 54.2048 79.9846 56.5766 81.4501 58.0422C84.5113 61.1035 84.5113 66.0843 81.4501 69.1455C80.6493 69.9463 79.3506 69.9464 78.5499 69.1455Z" fill="white"/>
<path d="M90.8545 69.1455C90.0536 68.3446 90.0536 67.0462 90.8545 66.2453C92.3198 64.78 92.32 62.408 90.8545 60.9424C87.7933 57.8811 87.7933 52.9003 90.8545 49.8391C91.6553 49.0382 92.9539 49.0382 93.7548 49.8391C94.5557 50.64 94.5557 51.9384 93.7548 52.7393C92.2895 54.2046 92.2893 56.5766 93.7548 58.0422C96.816 61.1035 96.816 66.0843 93.7548 69.1455C92.954 69.9463 91.6553 69.9464 90.8545 69.1455Z" fill="white"/>
<defs>
<linearGradient id="paint0_linear_40_98" x1="80" y1="0" x2="80" y2="160" gradientUnits="userSpaceOnUse">
<stop stop-color="#0F25E7"/>
<stop offset="1" stop-color="#16E3F0"/>
</linearGradient>
</defs>
</svg>
