<svg width="177" height="177" viewBox="0 0 177 177" fill="none" xmlns="http://www.w3.org/2000/svg">
<circle cx="88.5" cy="88.5" r="88.5" fill="white"/>
<circle cx="88.5" cy="88.5" r="83.5" fill="url(#paint0_linear_39_88)"/>
<path d="M49.9382 127V118.273H55.7166V119.794H51.7834V121.874H55.3331V123.395H51.7834V127H49.9382ZM65.9776 122.636C65.9776 123.588 65.7972 124.398 65.4364 125.065C65.0785 125.733 64.5898 126.243 63.9705 126.595C63.354 126.945 62.6609 127.119 61.891 127.119C61.1154 127.119 60.4194 126.943 59.8029 126.591C59.1864 126.239 58.6992 125.729 58.3413 125.061C57.9833 124.393 57.8043 123.585 57.8043 122.636C57.8043 121.685 57.9833 120.875 58.3413 120.207C58.6992 119.54 59.1864 119.031 59.8029 118.682C60.4194 118.33 61.1154 118.153 61.891 118.153C62.6609 118.153 63.354 118.33 63.9705 118.682C64.5898 119.031 65.0785 119.54 65.4364 120.207C65.7972 120.875 65.9776 121.685 65.9776 122.636ZM64.1069 122.636C64.1069 122.02 64.0146 121.5 63.8299 121.077C63.6481 120.653 63.391 120.332 63.0586 120.114C62.7262 119.895 62.337 119.786 61.891 119.786C61.445 119.786 61.0558 119.895 60.7234 120.114C60.391 120.332 60.1325 120.653 59.9478 121.077C59.766 121.5 59.6751 122.02 59.6751 122.636C59.6751 123.253 59.766 123.773 59.9478 124.196C60.1325 124.619 60.391 124.94 60.7234 125.159C61.0558 125.378 61.445 125.487 61.891 125.487C62.337 125.487 62.7262 125.378 63.0586 125.159C63.391 124.94 63.6481 124.619 63.8299 124.196C64.0146 123.773 64.1069 123.253 64.1069 122.636ZM76.3643 122.636C76.3643 123.588 76.1839 124.398 75.8232 125.065C75.4652 125.733 74.9766 126.243 74.3572 126.595C73.7408 126.945 73.0476 127.119 72.2777 127.119C71.5021 127.119 70.8061 126.943 70.1896 126.591C69.5732 126.239 69.0859 125.729 68.728 125.061C68.37 124.393 68.1911 123.585 68.1911 122.636C68.1911 121.685 68.37 120.875 68.728 120.207C69.0859 119.54 69.5732 119.031 70.1896 118.682C70.8061 118.33 71.5021 118.153 72.2777 118.153C73.0476 118.153 73.7408 118.33 74.3572 118.682C74.9766 119.031 75.4652 119.54 75.8232 120.207C76.1839 120.875 76.3643 121.685 76.3643 122.636ZM74.4936 122.636C74.4936 122.02 74.4013 121.5 74.2166 121.077C74.0348 120.653 73.7777 120.332 73.4453 120.114C73.1129 119.895 72.7237 119.786 72.2777 119.786C71.8317 119.786 71.4425 119.895 71.1101 120.114C70.7777 120.332 70.5192 120.653 70.3345 121.077C70.1527 121.5 70.0618 122.02 70.0618 122.636C70.0618 123.253 70.1527 123.773 70.3345 124.196C70.5192 124.619 70.7777 124.94 71.1101 125.159C71.4425 125.378 71.8317 125.487 72.2777 125.487C72.7237 125.487 73.1129 125.378 73.4453 125.159C73.7777 124.94 74.0348 124.619 74.2166 124.196C74.4013 123.773 74.4936 123.253 74.4936 122.636ZM81.8249 127H78.7312V118.273H81.8505C82.7283 118.273 83.484 118.447 84.1175 118.797C84.7511 119.143 85.2383 119.642 85.5792 120.293C85.9229 120.943 86.0948 121.722 86.0948 122.628C86.0948 123.537 85.9229 124.318 85.5792 124.972C85.2383 125.625 84.7482 126.126 84.109 126.476C83.4727 126.825 82.7113 127 81.8249 127ZM80.5763 125.419H81.7482C82.2937 125.419 82.7525 125.322 83.1246 125.129C83.4996 124.933 83.7809 124.631 83.9684 124.222C84.1587 123.81 84.2539 123.278 84.2539 122.628C84.2539 121.983 84.1587 121.456 83.9684 121.047C83.7809 120.638 83.5011 120.337 83.1289 120.143C82.7567 119.95 82.2979 119.854 81.7525 119.854H80.5763V125.419ZM91.9066 119.794V118.273H99.0742V119.794H96.4023V127H94.5785V119.794H91.9066ZM101.255 127V118.273H107.135V119.794H103.1V121.874H106.833V123.395H103.1V125.479H107.152V127H101.255ZM117.303 121.328H115.436C115.402 121.087 115.332 120.872 115.227 120.685C115.122 120.494 114.987 120.332 114.822 120.199C114.658 120.065 114.467 119.963 114.251 119.892C114.038 119.821 113.807 119.786 113.557 119.786C113.105 119.786 112.712 119.898 112.376 120.122C112.041 120.344 111.781 120.668 111.597 121.094C111.412 121.517 111.32 122.031 111.32 122.636C111.32 123.259 111.412 123.781 111.597 124.205C111.784 124.628 112.045 124.947 112.381 125.163C112.716 125.379 113.104 125.487 113.544 125.487C113.791 125.487 114.02 125.455 114.23 125.389C114.443 125.324 114.632 125.229 114.797 125.104C114.962 124.976 115.098 124.821 115.206 124.639C115.317 124.457 115.393 124.25 115.436 124.017L117.303 124.026C117.254 124.426 117.134 124.812 116.94 125.185C116.75 125.554 116.493 125.885 116.169 126.178C115.848 126.467 115.464 126.697 115.018 126.868C114.575 127.036 114.074 127.119 113.514 127.119C112.736 127.119 112.04 126.943 111.426 126.591C110.815 126.239 110.332 125.729 109.977 125.061C109.625 124.393 109.449 123.585 109.449 122.636C109.449 121.685 109.628 120.875 109.986 120.207C110.344 119.54 110.83 119.031 111.443 118.682C112.057 118.33 112.747 118.153 113.514 118.153C114.02 118.153 114.489 118.224 114.92 118.366C115.355 118.509 115.74 118.716 116.075 118.989C116.411 119.259 116.683 119.589 116.893 119.982C117.107 120.374 117.243 120.822 117.303 121.328ZM119.626 127V118.273H121.471V121.874H125.217V118.273H127.058V127H125.217V123.395H121.471V127H119.626Z" fill="white"/>
<circle cx="89" cy="66" r="35" fill="white" fill-opacity="0.1"/>
<circle cx="89" cy="66" r="34.5" stroke="white" stroke-opacity="0.4"/>
<path d="M68.2977 72.4453C69.9743 76.4466 73.1772 79.7302 77.3125 81.4541V84.0469C77.3125 84.7584 77.89 85.3359 78.6016 85.3359H99.3984C100.11 85.3359 100.688 84.7584 100.688 84.0469V81.4541C104.823 79.7302 108.026 76.4466 109.702 72.4453H68.2977ZM109.711 64.7109H68.2891C67.5775 64.7109 67 65.2884 67 66C67 67.3217 67.1564 68.6177 67.4555 69.8672H110.545C110.844 68.6177 111 67.3217 111 66C111 65.2884 110.422 64.7109 109.711 64.7109Z" fill="white"/>
<path d="M80.3541 59.1771C79.8506 58.6737 79.8506 57.8576 80.3541 57.3541C81.2751 56.433 81.2752 54.9421 80.3541 54.0209C78.4298 52.0966 78.4298 48.9659 80.3541 47.0416C80.8574 46.5382 81.6736 46.5382 82.1771 47.0416C82.6805 47.5451 82.6805 48.3612 82.1771 48.8646C81.256 49.7858 81.2559 51.2766 82.1771 52.1979C84.1013 54.1221 84.1013 57.2529 82.1771 59.1771C81.6737 59.6805 80.8574 59.6805 80.3541 59.1771Z" fill="white"/>
<path d="M88.0884 59.1771C87.585 58.6737 87.585 57.8576 88.0884 57.3541C89.0095 56.433 89.0096 54.9421 88.0884 54.0209C86.1642 52.0966 86.1642 48.9659 88.0884 47.0416C88.5918 46.5382 89.408 46.5382 89.9114 47.0416C90.4148 47.5451 90.4148 48.3612 89.9114 48.8646C88.9903 49.7858 88.9903 51.2766 89.9114 52.1979C91.8357 54.1221 91.8357 57.2529 89.9114 59.1771C89.4081 59.6805 88.5918 59.6805 88.0884 59.1771Z" fill="white"/>
<path d="M95.8228 59.1771C95.3194 58.6737 95.3194 57.8576 95.8228 57.3541C96.7438 56.4331 96.744 54.9421 95.8228 54.0209C93.8986 52.0966 93.8986 48.9659 95.8228 47.0416C96.3261 46.5382 97.1424 46.5382 97.6458 47.0416C98.1492 47.5451 98.1492 48.3612 97.6458 48.8646C96.7248 49.7857 96.7246 51.2766 97.6458 52.1979C99.57 54.1221 99.57 57.2529 97.6458 59.1771C97.1425 59.6805 96.3261 59.6805 95.8228 59.1771Z" fill="white"/>
<defs>
<linearGradient id="paint0_linear_39_88" x1="89" y1="5" x2="89" y2="184" gradientUnits="userSpaceOnUse">
<stop stop-color="#12CDF5"/>
<stop offset="1" stop-color="#056DCC"/>
</linearGradient>
</defs>
</svg>
