<svg xmlns="http://www.w3.org/2000/svg" version="1.1" xmlns:xlink="http://www.w3.org/1999/xlink" width="512" height="512" x="0" y="0" viewBox="0 0 64 64" style="enable-background:new 0 0 512 512" xml:space="preserve" class=""><g><circle cx="32" cy="32" r="4" fill="#ffffff" opacity="1" data-original="#000000" class=""></circle><path d="M50 36h-5l-1-.29V34l-3 .86-3 .85-1 .29H27l-1-.29-3-.85-3-.86v1.71L19 36H9l-7-2v3l6 3v8h1L7 62h4l2-10h2l2 10h4l-2-14h1v-8l3-1.5 3 1.5v8h1l-2 14h4l2-10h2l2 10h4l-2-14h1v-8l3-1.5 3 1.5v8h1l-2 14h4l2-10h2l2 10h4l-2-14h1v-8l6-3v-3l-7 2z" fill="#ffffff" opacity="1" data-original="#000000" class=""></path><circle cx="50" cy="32" r="4" fill="#ffffff" opacity="1" data-original="#000000" class=""></circle><circle cx="14" cy="32" r="4" fill="#ffffff" opacity="1" data-original="#000000" class=""></circle><path d="M33.236 4.633 32 2l-1.236 2.633L28 5.056l2 2.05L29.528 10 32 8.633 34.472 10 34 7.106l2-2.05zM8.236 15.633 7 13l-1.236 2.633L3 16.056l2 2.05L4.528 21 7 19.633 9.472 21 9 18.106l2-2.05zM55 18.106 54.528 21 57 19.633 59.472 21 59 18.106l2-2.05-2.764-.423L57 13l-1.236 2.633-2.764.423zM43 19v-2a7.009 7.009 0 0 0-7 7h2a5.006 5.006 0 0 1 5-5zM21 17v2a5.006 5.006 0 0 1 5 5h2a7.009 7.009 0 0 0-7-7zM46 10h2v2h-2zM46 14h2v2h-2zM48 12h2v2h-2zM44 12h2v2h-2zM16 10h2v2h-2zM7 3h2v2H7zM55 3h2v2h-2zM16 14h2v2h-2zM18 12h2v2h-2zM14 12h2v2h-2z" fill="#ffffff" opacity="1" data-original="#000000" class=""></path></g></svg>