<svg width="200" height="200" viewBox="0 0 200 200" fill="none" xmlns="http://www.w3.org/2000/svg">
<circle cx="100" cy="100" r="100" fill="white"/>
<circle cx="100" cy="100" r="95" fill="url(#paint0_linear_35_40)"/>
<path d="M49.8034 137V128.273H53.2466C53.9057 128.273 54.4682 128.391 54.9341 128.626C55.4029 128.859 55.7594 129.19 56.0037 129.619C56.2509 130.045 56.3745 130.547 56.3745 131.124C56.3745 131.703 56.2495 132.202 55.9995 132.619C55.7495 133.034 55.3873 133.352 54.9128 133.574C54.4412 133.795 53.8702 133.906 53.1998 133.906H50.8944V132.423H52.9015C53.2537 132.423 53.5463 132.375 53.7793 132.278C54.0123 132.182 54.1855 132.037 54.2992 131.844C54.4157 131.651 54.4739 131.411 54.4739 131.124C54.4739 130.834 54.4157 130.589 54.2992 130.391C54.1855 130.192 54.0108 130.041 53.775 129.939C53.5421 129.834 53.248 129.781 52.8929 129.781H51.6486V137H49.8034ZM54.5165 133.028L56.6855 137H54.6486L52.5265 133.028H54.5165ZM58.6784 137V128.273H64.5591V129.794H60.5236V131.874H64.2566V133.395H60.5236V135.479H64.5762V137H58.6784ZM72.813 131.094C72.7534 130.886 72.6696 130.703 72.5616 130.544C72.4537 130.382 72.3216 130.246 72.1653 130.135C72.0119 130.021 71.8358 129.935 71.6369 129.875C71.4409 129.815 71.2235 129.786 70.9849 129.786C70.5389 129.786 70.1468 129.896 69.8088 130.118C69.4735 130.339 69.2122 130.662 69.0247 131.085C68.8372 131.506 68.7434 132.02 68.7434 132.628C68.7434 133.236 68.8358 133.753 69.0204 134.179C69.2051 134.605 69.4664 134.93 69.8045 135.155C70.1426 135.376 70.5417 135.487 71.002 135.487C71.4196 135.487 71.7761 135.413 72.0716 135.266C72.3699 135.115 72.5971 134.903 72.7534 134.631C72.9125 134.358 72.992 134.036 72.992 133.663L73.367 133.719H71.117V132.33H74.769V133.429C74.769 134.196 74.6071 134.855 74.2832 135.406C73.9593 135.955 73.5133 136.378 72.9451 136.676C72.377 136.972 71.7264 137.119 70.9934 137.119C70.1752 137.119 69.4565 136.939 68.8372 136.578C68.2179 136.214 67.7349 135.699 67.3883 135.031C67.0446 134.361 66.8727 133.565 66.8727 132.645C66.8727 131.937 66.975 131.307 67.1795 130.753C67.3869 130.196 67.6767 129.724 68.0488 129.338C68.421 128.952 68.8542 128.658 69.3485 128.456C69.8429 128.254 70.3784 128.153 70.9551 128.153C71.4494 128.153 71.9096 128.226 72.3358 128.371C72.7619 128.513 73.1397 128.714 73.4693 128.976C73.8017 129.237 74.073 129.548 74.2832 129.909C74.4934 130.267 74.6284 130.662 74.688 131.094H72.813ZM79.0002 128.273V137H77.155V128.273H79.0002ZM86.2527 130.783C86.2186 130.439 86.0723 130.172 85.8137 129.982C85.5552 129.791 85.2044 129.696 84.7612 129.696C84.46 129.696 84.2058 129.739 83.9984 129.824C83.791 129.906 83.6319 130.021 83.5211 130.169C83.4132 130.317 83.3592 130.484 83.3592 130.672C83.3535 130.828 83.3862 130.964 83.4572 131.081C83.5311 131.197 83.6319 131.298 83.7598 131.384C83.8876 131.466 84.0353 131.538 84.2029 131.601C84.3706 131.661 84.5495 131.712 84.7399 131.754L85.524 131.942C85.9047 132.027 86.2541 132.141 86.5723 132.283C86.8904 132.425 87.166 132.599 87.399 132.807C87.6319 133.014 87.8123 133.259 87.9402 133.54C88.0708 133.821 88.1376 134.143 88.1404 134.507C88.1376 135.041 88.0012 135.504 87.7314 135.896C87.4643 136.286 87.0779 136.588 86.5723 136.804C86.0694 137.017 85.4629 137.124 84.7527 137.124C84.0481 137.124 83.4345 137.016 82.9118 136.8C82.3919 136.584 81.9856 136.264 81.693 135.841C81.4032 135.415 81.2512 134.888 81.237 134.26H83.0225C83.0424 134.553 83.1262 134.797 83.274 134.993C83.4245 135.186 83.6248 135.332 83.8748 135.432C84.1277 135.528 84.4132 135.577 84.7314 135.577C85.0439 135.577 85.3152 135.531 85.5453 135.44C85.7782 135.349 85.9586 135.223 86.0865 135.061C86.2143 134.899 86.2782 134.713 86.2782 134.503C86.2782 134.307 86.22 134.142 86.1035 134.009C85.9899 133.875 85.8223 133.761 85.6007 133.668C85.3819 133.574 85.1135 133.489 84.7953 133.412L83.845 133.173C83.1092 132.994 82.5282 132.714 82.1021 132.334C81.676 131.953 81.4643 131.44 81.4672 130.795C81.4643 130.267 81.6049 129.805 81.889 129.411C82.176 129.016 82.5694 128.707 83.0694 128.486C83.5694 128.264 84.1376 128.153 84.774 128.153C85.4217 128.153 85.987 128.264 86.47 128.486C86.9558 128.707 87.3336 129.016 87.6035 129.411C87.8734 129.805 88.0126 130.263 88.0211 130.783H86.2527ZM90.0492 129.794V128.273H97.2168V129.794H94.5449V137H92.7211V129.794H90.0492ZM99.3972 137V128.273H105.278V129.794H101.242V131.874H104.975V133.395H101.242V135.479H105.295V137H99.3972ZM107.745 137V128.273H111.188C111.847 128.273 112.41 128.391 112.876 128.626C113.344 128.859 113.701 129.19 113.945 129.619C114.192 130.045 114.316 130.547 114.316 131.124C114.316 131.703 114.191 132.202 113.941 132.619C113.691 133.034 113.329 133.352 112.854 133.574C112.383 133.795 111.812 133.906 111.141 133.906H108.836V132.423H110.843C111.195 132.423 111.488 132.375 111.721 132.278C111.954 132.182 112.127 132.037 112.241 131.844C112.357 131.651 112.415 131.411 112.415 131.124C112.415 130.834 112.357 130.589 112.241 130.391C112.127 130.192 111.952 130.041 111.716 129.939C111.483 129.834 111.189 129.781 110.834 129.781H109.59V137H107.745ZM112.458 133.028L114.627 137H112.59L110.468 133.028H112.458ZM127.697 128.273V137H126.103L122.306 131.507H122.242V137H120.397V128.273H122.017L125.784 133.761H125.86V128.273H127.697ZM138.241 132.636C138.241 133.588 138.061 134.398 137.7 135.065C137.342 135.733 136.854 136.243 136.234 136.595C135.618 136.945 134.925 137.119 134.155 137.119C133.379 137.119 132.683 136.943 132.067 136.591C131.45 136.239 130.963 135.729 130.605 135.061C130.247 134.393 130.068 133.585 130.068 132.636C130.068 131.685 130.247 130.875 130.605 130.207C130.963 129.54 131.45 129.031 132.067 128.682C132.683 128.33 133.379 128.153 134.155 128.153C134.925 128.153 135.618 128.33 136.234 128.682C136.854 129.031 137.342 129.54 137.7 130.207C138.061 130.875 138.241 131.685 138.241 132.636ZM136.371 132.636C136.371 132.02 136.278 131.5 136.094 131.077C135.912 130.653 135.655 130.332 135.322 130.114C134.99 129.895 134.601 129.786 134.155 129.786C133.709 129.786 133.319 129.895 132.987 130.114C132.655 130.332 132.396 130.653 132.211 131.077C132.03 131.5 131.939 132.02 131.939 132.636C131.939 133.253 132.03 133.773 132.211 134.196C132.396 134.619 132.655 134.94 132.987 135.159C133.319 135.378 133.709 135.487 134.155 135.487C134.601 135.487 134.99 135.378 135.322 135.159C135.655 134.94 135.912 134.619 136.094 134.196C136.278 133.773 136.371 133.253 136.371 132.636ZM142.244 137L139.747 128.273H141.763L143.208 134.337H143.28L144.874 128.273H146.6L148.189 134.349H148.266L149.71 128.273H151.726L149.229 137H147.431L145.769 131.294H145.7L144.043 137H142.244Z" fill="white"/>
<path d="M46.9355 95.5653C46.8901 95.1619 46.7026 94.8494 46.373 94.6278C46.0435 94.4034 45.6287 94.2912 45.1287 94.2912C44.7708 94.2912 44.4611 94.348 44.1998 94.4616C43.9384 94.5724 43.7353 94.7259 43.5904 94.9219C43.4483 95.1151 43.3773 95.3352 43.3773 95.5824C43.3773 95.7898 43.4256 95.9687 43.5222 96.1193C43.6216 96.2699 43.7509 96.3963 43.91 96.4986C44.0719 96.598 44.2452 96.6818 44.4299 96.75C44.6145 96.8153 44.7921 96.8693 44.9625 96.9119L45.8148 97.1335C46.0932 97.2017 46.3787 97.294 46.6713 97.4105C46.964 97.527 47.2353 97.6804 47.4853 97.8707C47.7353 98.0611 47.937 98.2969 48.0904 98.5781C48.2466 98.8594 48.3248 99.196 48.3248 99.5881C48.3248 100.082 48.1969 100.521 47.9412 100.905C47.6884 101.288 47.3205 101.591 46.8375 101.812C46.3574 102.034 45.7765 102.145 45.0946 102.145C44.4412 102.145 43.8759 102.041 43.3986 101.834C42.9213 101.626 42.5478 101.332 42.2779 100.952C42.008 100.568 41.8588 100.114 41.8304 99.5881H43.1515C43.177 99.9034 43.2793 100.166 43.4583 100.376C43.6401 100.584 43.8716 100.739 44.1529 100.841C44.437 100.94 44.748 100.99 45.0861 100.99C45.4583 100.99 45.7892 100.932 46.079 100.815C46.3716 100.696 46.6017 100.531 46.7694 100.321C46.937 100.108 47.0208 99.8594 47.0208 99.5753C47.0208 99.3168 46.9469 99.1051 46.7992 98.9403C46.6543 98.7756 46.4569 98.6392 46.2069 98.5312C45.9597 98.4233 45.6799 98.3281 45.3674 98.2457L44.3361 97.9645C43.6373 97.7741 43.0833 97.4943 42.6742 97.125C42.2679 96.7557 42.0648 96.267 42.0648 95.6591C42.0648 95.1562 42.2012 94.7173 42.4739 94.3423C42.7466 93.9673 43.1159 93.6761 43.5819 93.4688C44.0478 93.2585 44.5733 93.1534 45.1586 93.1534C45.7495 93.1534 46.2708 93.2571 46.7225 93.4645C47.177 93.6719 47.535 93.9574 47.7963 94.321C48.0577 94.6818 48.1941 95.0966 48.2054 95.5653H46.9355ZM50.8983 102V93.2727H56.3699V94.4062H52.215V97.0653H56.0843V98.1946H52.215V100.866H56.421V102H50.8983ZM59.1287 102V93.2727H62.2395C62.9185 93.2727 63.481 93.3963 63.927 93.6435C64.373 93.8906 64.7069 94.2287 64.9284 94.6577C65.15 95.0838 65.2608 95.5639 65.2608 96.098C65.2608 96.6349 65.1486 97.1179 64.9242 97.5469C64.7026 97.973 64.3674 98.3111 63.9185 98.5611C63.4725 98.8082 62.9114 98.9318 62.2353 98.9318H60.0961V97.8153H62.1159C62.5449 97.8153 62.8929 97.7415 63.16 97.5938C63.427 97.4432 63.623 97.2386 63.748 96.9801C63.873 96.7216 63.9355 96.4276 63.9355 96.098C63.9355 95.7685 63.873 95.4759 63.748 95.2202C63.623 94.9645 63.4256 94.7642 63.1557 94.6193C62.8887 94.4744 62.5364 94.402 62.0989 94.402H60.4455V102H59.1287ZM67.3741 94.4062V93.2727H74.1284V94.4062H71.4054V102H70.0929V94.4062H67.3741ZM76.6209 102V93.2727H82.0925V94.4062H77.9377V97.0653H81.807V98.1946H77.9377V100.866H82.1436V102H76.6209ZM84.8514 93.2727H86.4494L89.2278 100.057H89.3301L92.1085 93.2727H93.7065V102H92.4537V95.6847H92.3727L89.7988 101.987H88.7591L86.1852 95.6804H86.1042V102H84.8514V93.2727ZM96.6209 102V93.2727H99.8169C100.436 93.2727 100.949 93.375 101.355 93.5795C101.762 93.7812 102.066 94.0554 102.267 94.402C102.469 94.7457 102.57 95.1335 102.57 95.5653C102.57 95.929 102.503 96.2358 102.369 96.4858C102.236 96.733 102.057 96.9318 101.833 97.0824C101.611 97.2301 101.367 97.3381 101.1 97.4062V97.4915C101.389 97.5057 101.672 97.5994 101.948 97.7727C102.226 97.9432 102.456 98.1861 102.638 98.5014C102.82 98.8168 102.911 99.2003 102.911 99.652C102.911 100.098 102.806 100.499 102.595 100.854C102.388 101.206 102.067 101.486 101.632 101.693C101.198 101.898 100.642 102 99.9661 102H96.6209ZM97.9377 100.871H99.8382C100.469 100.871 100.921 100.749 101.193 100.504C101.466 100.26 101.602 99.9545 101.602 99.5881C101.602 99.3125 101.533 99.0597 101.394 98.8295C101.254 98.5994 101.056 98.4162 100.797 98.2798C100.541 98.1435 100.237 98.0753 99.8851 98.0753H97.9377V100.871ZM97.9377 97.0483H99.7019C99.9973 97.0483 100.263 96.9915 100.499 96.8778C100.737 96.7642 100.926 96.6051 101.066 96.4006C101.208 96.1932 101.279 95.9489 101.279 95.6676C101.279 95.3068 101.152 95.0043 100.899 94.7599C100.646 94.5156 100.259 94.3935 99.736 94.3935H97.9377V97.0483ZM105.472 102V93.2727H110.944V94.4062H106.789V97.0653H110.659V98.1946H106.789V100.866H110.995V102H105.472ZM113.703 102V93.2727H116.814C117.49 93.2727 118.051 93.3892 118.497 93.6222C118.946 93.8551 119.281 94.1776 119.503 94.5895C119.724 94.9986 119.835 95.4716 119.835 96.0085C119.835 96.5426 119.723 97.0128 119.498 97.419C119.277 97.8224 118.942 98.1364 118.493 98.3608C118.047 98.5852 117.486 98.6974 116.809 98.6974H114.453V97.5639H116.69C117.116 97.5639 117.463 97.5028 117.73 97.3807C118 97.2585 118.197 97.081 118.322 96.848C118.447 96.6151 118.51 96.3352 118.51 96.0085C118.51 95.679 118.446 95.3935 118.318 95.152C118.193 94.9105 117.996 94.7259 117.726 94.598C117.459 94.4673 117.108 94.402 116.673 94.402H115.02V102H113.703ZM118.011 98.0625L120.167 102H118.667L116.554 98.0625H118.011ZM126.494 102V101.045L129.447 97.9858C129.762 97.6534 130.022 97.3622 130.227 97.1122C130.434 96.8594 130.589 96.6193 130.691 96.392C130.794 96.1648 130.845 95.9233 130.845 95.6676C130.845 95.3778 130.776 95.1278 130.64 94.9176C130.504 94.7045 130.318 94.5412 130.082 94.4276C129.846 94.3111 129.58 94.2528 129.285 94.2528C128.972 94.2528 128.7 94.3168 128.467 94.4446C128.234 94.5724 128.055 94.7528 127.93 94.9858C127.805 95.2187 127.742 95.4915 127.742 95.804H126.485C126.485 95.2727 126.607 94.8082 126.852 94.4105C127.096 94.0128 127.431 93.7045 127.857 93.4858C128.284 93.2642 128.768 93.1534 129.311 93.1534C129.859 93.1534 130.342 93.2628 130.759 93.4815C131.18 93.6974 131.508 93.9929 131.744 94.3679C131.98 94.7401 132.097 95.1605 132.097 95.6293C132.097 95.9531 132.036 96.2699 131.914 96.5795C131.795 96.8892 131.586 97.2344 131.288 97.6151C130.99 97.9929 130.575 98.4517 130.044 98.9915L128.309 100.807V100.871H132.238V102H126.494ZM137.892 102.145C137.218 102.142 136.643 101.964 136.166 101.612C135.688 101.26 135.323 100.747 135.07 100.074C134.818 99.4006 134.691 98.5895 134.691 97.6406C134.691 96.6946 134.818 95.8864 135.07 95.2159C135.326 94.5455 135.693 94.0341 136.17 93.6818C136.65 93.3295 137.224 93.1534 137.892 93.1534C138.559 93.1534 139.132 93.331 139.609 93.6861C140.086 94.0384 140.451 94.5497 140.704 95.2202C140.96 95.8878 141.088 96.6946 141.088 97.6406C141.088 98.5923 140.961 99.4048 140.708 100.078C140.455 100.749 140.09 101.261 139.613 101.616C139.136 101.969 138.562 102.145 137.892 102.145ZM137.892 101.007C138.482 101.007 138.944 100.719 139.276 100.142C139.612 99.5653 139.779 98.7315 139.779 97.6406C139.779 96.9162 139.703 96.304 139.549 95.804C139.399 95.3011 139.181 94.9205 138.897 94.6619C138.616 94.4006 138.281 94.2699 137.892 94.2699C137.303 94.2699 136.842 94.5597 136.507 95.1392C136.171 95.7187 136.002 96.5526 135.999 97.6406C135.999 98.3679 136.075 98.983 136.225 99.4858C136.379 99.9858 136.596 100.365 136.877 100.624C137.159 100.879 137.497 101.007 137.892 101.007ZM143.599 102V101.045L146.552 97.9858C146.868 97.6534 147.128 97.3622 147.332 97.1122C147.54 96.8594 147.694 96.6193 147.797 96.392C147.899 96.1648 147.95 95.9233 147.95 95.6676C147.95 95.3778 147.882 95.1278 147.746 94.9176C147.609 94.7045 147.423 94.5412 147.187 94.4276C146.952 94.3111 146.686 94.2528 146.39 94.2528C146.078 94.2528 145.805 94.3168 145.572 94.4446C145.339 94.5724 145.16 94.7528 145.035 94.9858C144.91 95.2187 144.848 95.4915 144.848 95.804H143.591C143.591 95.2727 143.713 94.8082 143.957 94.4105C144.202 94.0128 144.537 93.7045 144.963 93.4858C145.389 93.2642 145.873 93.1534 146.416 93.1534C146.964 93.1534 147.447 93.2628 147.865 93.4815C148.285 93.6974 148.613 93.9929 148.849 94.3679C149.085 94.7401 149.203 95.1605 149.203 95.6293C149.203 95.9531 149.142 96.2699 149.02 96.5795C148.9 96.8892 148.692 97.2344 148.393 97.6151C148.095 97.9929 147.68 98.4517 147.149 98.9915L145.415 100.807V100.871H149.344V102H143.599ZM151.588 100.295V99.2301L155.359 93.2727H156.199V94.8409H155.666L152.969 99.1108V99.179H158.138V100.295H151.588ZM155.726 102V99.9716L155.734 99.4858V93.2727H156.983V102H155.726Z" fill="white"/>
<path d="M27.6704 77V75.6157L28.7983 75.3887V67.9546L27.6704 67.7275V66.3359H32.2554V67.7275L31.1348 67.9546V75.3887L32.2554 75.6157V77H27.6704ZM39.4775 77.1538C38.6523 77.1538 37.9102 77.0684 37.251 76.8975C36.5918 76.7266 35.9399 76.4189 35.2954 75.9746V73.3013H37.1045L37.3315 74.7734C37.5171 74.9541 37.8052 75.103 38.1958 75.2202C38.5864 75.3374 39.0137 75.396 39.4775 75.396C39.834 75.396 40.1343 75.3496 40.3784 75.2568C40.6226 75.1592 40.8081 75.0225 40.9351 74.8467C41.062 74.666 41.1255 74.4536 41.1255 74.2095C41.1255 73.9751 41.0669 73.7676 40.9497 73.5869C40.8374 73.4014 40.6494 73.2305 40.3857 73.0742C40.1221 72.918 39.7656 72.7642 39.3164 72.6128C38.4375 72.3442 37.7124 72.061 37.1411 71.7632C36.5747 71.4604 36.1499 71.104 35.8667 70.6938C35.5884 70.2788 35.4492 69.771 35.4492 69.1704C35.4492 68.5894 35.6128 68.0791 35.9399 67.6396C36.272 67.1953 36.7261 66.8462 37.3022 66.5923C37.8784 66.3384 38.5425 66.2065 39.2944 66.1968C40.1392 66.1772 40.8862 66.2676 41.5356 66.4678C42.1851 66.668 42.7515 66.9561 43.2349 67.332V69.8149H41.4917L41.1987 68.3721C41.0229 68.2695 40.7788 68.1792 40.4663 68.1011C40.1587 68.0229 39.8169 67.9839 39.4409 67.9839C39.1187 67.9839 38.833 68.0303 38.584 68.123C38.3398 68.2109 38.1445 68.3452 37.998 68.5259C37.8564 68.7017 37.7856 68.9189 37.7856 69.1777C37.7856 69.3877 37.8467 69.5757 37.9688 69.7417C38.0908 69.9077 38.3008 70.0688 38.5986 70.2251C38.8965 70.3765 39.3091 70.5449 39.8364 70.7305C41.0278 71.0723 41.9312 71.5117 42.5464 72.0488C43.1665 72.5859 43.4766 73.3013 43.4766 74.1948C43.4766 74.8149 43.3081 75.3472 42.9712 75.7915C42.6392 76.231 42.1729 76.5679 41.5723 76.8022C40.9717 77.0366 40.2734 77.1538 39.4775 77.1538ZM46.2017 77V75.6157L47.3296 75.3887V67.9546L46.2017 67.7275V66.3359H54.8296V69.3608H53.0498L52.9766 68.1377H49.6733V70.855H53.3501V72.6494H49.6733V75.3887L50.7939 75.6157V77H46.2017ZM63.1509 77V75.6157L64.2788 75.3887V67.9546L63.1509 67.7275V66.3359H64.2788H67.9336C69.2324 66.3359 70.2432 66.5825 70.9658 67.0757C71.6934 67.564 72.0571 68.2939 72.0571 69.2656C72.0571 69.7637 71.9302 70.2104 71.6763 70.606C71.4272 70.9966 71.0537 71.292 70.5557 71.4922C70.9854 71.585 71.3369 71.7461 71.6104 71.9756C71.8887 72.2051 72.0938 72.4834 72.2256 72.8105C72.3623 73.1328 72.4307 73.4844 72.4307 73.8652C72.4307 74.8955 72.0889 75.6768 71.4053 76.209C70.7217 76.7363 69.7402 77 68.4609 77H63.1509ZM66.6226 75.2129H68.4609C68.998 75.2129 69.4058 75.1006 69.6841 74.876C69.9624 74.6465 70.1016 74.3096 70.1016 73.8652C70.1016 73.5332 70.0479 73.2573 69.9404 73.0376C69.8379 72.813 69.6768 72.6445 69.457 72.5322C69.2373 72.4199 68.9517 72.3638 68.6001 72.3638H66.6226V75.2129ZM66.6226 70.7817H67.9189C68.5098 70.7817 68.9565 70.6743 69.2593 70.4595C69.562 70.2446 69.7134 69.9248 69.7134 69.5C69.7134 69.0264 69.5645 68.6797 69.2666 68.46C68.9736 68.2402 68.5293 68.1304 67.9336 68.1304H66.6226V70.7817ZM75.0532 77V75.6157L76.1812 75.3887V67.9546L75.0532 67.7275V66.3359H83.4468V69.3096H81.667L81.5864 68.1377H78.5249V70.584H82.0332V72.3931H78.5249V75.1982H81.7402L81.8208 73.9824H83.5859V77H75.0532ZM86.6333 77V75.6157L87.7466 75.3887V67.9546L86.6333 67.7275V66.3359H87.7466H90.1343L94.6021 73.4624L94.646 73.4551V67.9546L93.2617 67.7275V66.3359H96.7334H97.854V67.7275L96.7334 67.9546V77H94.4409L89.8779 69.9834H89.834V75.3887L91.2256 75.6157V77H86.6333ZM105.42 77.1538C104.336 77.1538 103.416 76.9365 102.659 76.502C101.907 76.0674 101.331 75.4644 100.931 74.6929C100.535 73.9165 100.337 73.0205 100.337 72.0049V71.5801C100.337 70.5156 100.533 69.5806 100.923 68.7749C101.319 67.9644 101.885 67.3296 102.623 66.8706C103.365 66.4116 104.249 66.1821 105.274 66.1821C106.021 66.1821 106.744 66.2896 107.442 66.5044C108.145 66.7192 108.76 67.0513 109.288 67.5005V69.9248H107.588L107.244 68.5332C107.063 68.3672 106.817 68.2305 106.504 68.123C106.192 68.0156 105.835 67.9619 105.435 67.9619C104.844 67.9619 104.341 68.1157 103.926 68.4233C103.516 68.7261 103.201 69.1484 102.981 69.6904C102.767 70.2275 102.659 70.8525 102.659 71.5654V72.0049C102.659 72.6885 102.769 73.2842 102.989 73.792C103.208 74.2949 103.528 74.6855 103.948 74.9639C104.368 75.2422 104.886 75.3813 105.501 75.3813C105.843 75.3813 106.167 75.3472 106.475 75.2788C106.788 75.2104 107.039 75.1299 107.229 75.0371V73.4331L105.86 73.3013V71.6753H109.573V76.0405C109.056 76.3921 108.448 76.6655 107.75 76.8608C107.056 77.0562 106.28 77.1538 105.42 77.1538ZM112.416 77V75.6157L113.177 75.5059L116.466 66.3359H118.934L122.215 75.5059L122.97 75.6157V77H119.176V75.6157L119.894 75.4839L119.491 74.1655H115.895L115.506 75.4839L116.224 75.6157V77H112.416ZM116.422 72.481H118.963L117.821 69.0239L117.711 68.6797H117.667L117.55 69.0532L116.422 72.481ZM125.563 77V75.6157L126.691 75.3887V67.9546L125.563 67.7275V66.3359H126.691H129.035H130.346V67.7275L129.035 67.9546V75.2056H131.818L131.898 73.6748H133.686V77H125.563ZM141.127 77.1538C140.249 77.1538 139.477 77.0073 138.813 76.7144C138.154 76.4214 137.644 75.9941 137.282 75.4326C136.921 74.8662 136.74 74.1777 136.74 73.3672V67.9546L135.62 67.7275V66.3359H140.205V67.7275L139.084 67.9546V73.3672C139.084 73.8164 139.165 74.1899 139.326 74.4878C139.487 74.7856 139.719 75.0078 140.021 75.1543C140.329 75.3008 140.695 75.374 141.12 75.374C141.56 75.374 141.933 75.3008 142.241 75.1543C142.548 75.0078 142.78 74.7856 142.937 74.4878C143.098 74.1899 143.178 73.8164 143.178 73.3672V67.9546L142.065 67.7275V66.3359H146.65V67.7275L145.522 67.9546V73.3672C145.522 74.168 145.336 74.8516 144.965 75.418C144.599 75.9844 144.086 76.4165 143.427 76.7144C142.773 77.0073 142.006 77.1538 141.127 77.1538ZM149.207 77V75.6157L150.334 75.3887V67.9546L149.207 67.7275V66.3286H154.355C155.186 66.3286 155.901 66.4604 156.501 66.7241C157.107 66.9829 157.571 67.3564 157.893 67.8447C158.22 68.3281 158.384 68.9043 158.384 69.5732C158.384 70.1982 158.22 70.7695 157.893 71.2871C157.571 71.7998 157.122 72.2075 156.545 72.5103C155.974 72.813 155.317 72.9644 154.575 72.9644L152.678 72.9497V75.3887L153.799 75.6157V77H149.207ZM156.018 77L154.392 72.6055L156.472 71.9976L157.9 75.3887L158.86 75.6157V77H156.018ZM152.678 71.1479H154.348C154.91 71.1479 155.334 71.0259 155.623 70.7817C155.911 70.5327 156.055 70.1738 156.055 69.7051C156.055 69.2266 155.908 68.8457 155.615 68.5625C155.327 68.2744 154.907 68.1304 154.355 68.1304H152.678V71.1479ZM166.954 77.1538C166.075 77.1538 165.303 77.0073 164.639 76.7144C163.98 76.4214 163.47 75.9941 163.108 75.4326C162.747 74.8662 162.566 74.1777 162.566 73.3672V67.9546L161.446 67.7275V66.3359H166.031V67.7275L164.91 67.9546V73.3672C164.91 73.8164 164.991 74.1899 165.152 74.4878C165.313 74.7856 165.545 75.0078 165.848 75.1543C166.155 75.3008 166.521 75.374 166.946 75.374C167.386 75.374 167.759 75.3008 168.067 75.1543C168.375 75.0078 168.606 74.7856 168.763 74.4878C168.924 74.1899 169.004 73.8164 169.004 73.3672V67.9546L167.891 67.7275V66.3359H172.476V67.7275L171.348 67.9546V73.3672C171.348 74.168 171.163 74.8516 170.792 75.418C170.425 75.9844 169.913 76.4165 169.253 76.7144C168.599 77.0073 167.833 77.1538 166.954 77.1538Z" fill="white"/>
<defs>
<linearGradient id="paint0_linear_35_40" x1="100" y1="5" x2="100" y2="195" gradientUnits="userSpaceOnUse">
<stop stop-color="#0BABF0"/>
<stop offset="1" stop-color="#C836FC"/>
</linearGradient>
</defs>
</svg>
