<svg id="Layer_1" data-name="Layer 1" xmlns="http://www.w3.org/2000/svg" viewBox="0 0 1000 1000"><defs><style>.cls-1{fill:#0f0f0f;}.cls-2{fill:#fefefe;}.cls-3{fill:#fdfdfd;}.cls-4{fill:#fbfbfb;}.cls-5{fill:#fafafa;}.cls-6{fill:#f8f8f8;}.cls-7{fill:#fcfcfc;}.cls-8{fill:#f5f5f5;}.cls-9{fill:#f4f4f4;}.cls-10{fill:#f7f7f7;}.cls-11{fill:#0e0e0e;}.cls-12{fill:#f3f3f3;}.cls-13{fill:#070707;}.cls-14{fill:#030303;}.cls-15{fill:#ff742f;}</style></defs><title>ISFwwArtboard 3</title><path d="M790.73,707.19c9.34,0,18.67.14,28,.06,3.67,0,7.16.47,7.26,4.84.12,4.7-3.48,5.23-7.36,5.23q-132.24-.06-264.48,0h-354c-1.33,0-2.67,0-4,0-3.17-.06-5.19-1.77-5.25-4.84-.07-3.32,2-5.13,5.43-5.14,8.5,0,17-.15,25.5.05,3.26.08,4.6-.5,4.59-4.24q-.19-72.49,0-145c0-2.38,0-4.08-3.16-4.27-2.11-.13-3.47-1.92-3.74-4.13s.58-4.29,2.64-4.88c2.82-.8,2.37-2.6,2.29-4.59-.35-7.89,2.53-14.28,8.93-19,2.81-2.09,5.44-4.41,8.27-6.47,4.19-3.06,8.33-5.81,7.24-12.28-.48-2.9,2.09-5,5.18-4.79s5.06,2.3,4.58,5.41c-.75,4.72,1.48,7.29,5.14,9.62,4.07,2.58,7.79,5.71,11.71,8.54a20.75,20.75,0,0,1,9,18.48c-.08,2.4-.31,4.37,2.69,5.36,1.84.6,2.48,2.64,2.24,4.61-.27,2.21-1.61,4-3.72,4.15-3.09.2-3.25,1.78-3.19,4.22.13,6.16.15,12.33,0,18.49-.06,2.59.76,3.46,3.4,3.45q32.75-.15,65.49,0c2.35,0,3.22-.68,3.17-3.12q-.21-9.75,0-19.5c.05-2.25-.4-3.26-2.94-3.31a4.52,4.52,0,0,1-4.6-4.43c-.22-2.6,1-4.72,3.64-5.23,2.13-.41,2.11-1.5,2-3.15-.7-9.15,3.05-16.1,10.51-21.29,2.73-1.9,5.15-4.24,7.89-6.13,3.85-2.66,6.86-5.44,6-10.88-.47-3,1.65-5.21,4.77-5.25,3.38-.05,5.49,2.21,5,5.48-.71,5,2,7.55,5.67,9.95s7,5.15,10.53,7.61c6.9,4.79,10,11.43,9.59,19.7-.09,2.07,0,3.4,2.13,4.83,3.61,2.4,2.88,7.23-1.37,8.47-4.51,1.32-2.42,4.44-2.49,6.77-.05,1.75,1.68,1.16,2.63.51,6.46-4.43,12.85-9,19.33-13.34,1.6-1.08,1.33-2.53,1.34-4,0-3.67-.19-7.35.11-11,.58-7.08,4-12.17,11-14.44,2.12-.44,3.19-1.72,2.61-3.85-1.88-6.84,3.34-12,4.27-18.28.4-2.69,3.46-2.29,5.65-.8,2,4.64.78,9.53,1,14.3.29,5.63.69,6.13,6.48,6.21,6.83.09,7.36-.33,7.6-6.08a28.46,28.46,0,0,1,.36-5c.63-2.84,2.1-5,5.19-5.29s5,1.44,6.32,4,1.09,5.19,1.08,7.84c0,3.15,1.43,4.61,4.56,4.46.67,0,1.33,0,2,0,9.05-.06,9.67.78,9.63-8.54,0-4.74,2.69-7.78,6.06-7.8,3.64,0,6.65,3.14,6.61,7.9-.08,9.19.72,8.42,9.22,8.43,6.76,0,6.76,0,7-7a20.31,20.31,0,0,1,.26-3.48c.73-3.53,2.91-5.77,6.51-5.73s5.19,2.61,5.86,5.8a26.56,26.56,0,0,1,.31,6c-.06,3.2,1.55,4.29,4.6,4.47,8.79.52,9.58,0,9.39-8.73-.11-4.76,1-9.64-.94-14.28-1.82-1.74-4.1-1.11-6.19-1.11-26.53-.05-53.07-.12-79.6.07-4.06,0-8.08-2.31-12.13-.17a8.37,8.37,0,0,1-1.65.28c-2.55-.3-4.47-1.48-4.78-4.19s1.21-4.46,3.35-5.64c4.06-2.26,6.36,1.25,9.66,3.42.17-5,3.72-4.49,6.92-4.51,4.47,0,9,0,13.43,0,1.58,0,3.38.51,4.55-1.18,1-2.43.54-5,.55-7.44.05-8.91,4.09-15.61,11.29-20.56,4.75-3.26,7.2-3.29,11.89-.15a24.47,24.47,0,0,1,11.51,21c.15,7.34.17,7.34,7.6,7.35,9,0,18-.15,27,.06,4.57.11,7-1.93,8.58-6,5.48-13.95,1.38-27.9-11.75-36.78-11.45-7.74-23.46-14.64-35.21-21.92-2.06-1.28-4.33-1.49-6.69-1.69-11.27-1-21.64.62-31,8-6.36,5.05-13.7,8.88-20.76,12.94-17.68,10.18-22.89,27.66-13.08,44.59a6.46,6.46,0,0,1,.82,2.35,54.38,54.38,0,0,1-.84,8.64c-.29,1.61-1,3.51-3,1.13-2.37-.39-3.68-2.16-4.95-3.91-8.64-11.93-11-25.07-5.75-38.78a45.37,45.37,0,0,0,2.93-17.92,53.47,53.47,0,0,1,.12-7.49,4.93,4.93,0,0,1,9.83.37c.06,1.79,0,3.59,0,6.24l13.1-8.06c8.36-5.16,16.62-10.49,25.12-15.41,3.21-1.85,4.28-4,4.07-7.59-.3-5-.17-10-.06-15,.23-10.09,6.84-16.52,16.79-16.44,9.64.07,16.1,6.51,16.32,16.42.12,5.66.08,11.33,0,17a4.55,4.55,0,0,0,2.33,4.51c13,8,26,16,39.07,24.09,1.37-1.4.73-3,.71-4.33,0-3.51,1.21-6.2,4.89-6.24,4,0,5.25,2.85,5.18,6.5-.07,3.84.08,7.67-.05,11.5a19.21,19.21,0,0,0,1.8,8.63c6.34,14.43,5.75,29-4.35,40.93-5.13,6.08-5.24,11.72-5.32,18.28,0,1.34.09,2.68,0,4-.45,5.11-.27,9.11,6,11.53,5.32,2.07,8.16,7.85,7.31,13.69-1.44,9.93,2.13,16.4,11.07,20.57,3.13,1.46,5.78,3.92,8.67,5.89.93.64,2,1.87,3.07,1.14,1.8-1.25.57-3.37.83-5.09.22-1.4-.39-2.14-1.94-2.18a7.09,7.09,0,0,1-2.88-.61c-3.56-1.76-4.07-7-.46-8.37s3.44-3.38,3.37-6.23a20.24,20.24,0,0,1,8-17c3.25-2.61,6.44-5.3,9.83-7.71,4.06-2.87,7.45-5.73,6.58-11.59-.45-3,1.92-5,5-5s5.22,2.17,4.76,5.23c-.8,5.22,2,7.85,5.83,10.33s7.27,5.29,10.93,7.91c6.5,4.66,9.4,11.08,9.12,18.94-.08,2.26,0,3.75,2.25,5.3,3.36,2.31,2.64,6.86-1.31,8.24-2.47.86-2.9,2-2.86,4.19.11,6.33.13,12.67,0,19-.06,2.39.72,3.17,3.12,3.16q33-.11,66,0c2.13,0,2.94-.71,2.91-2.89q-.12-10,0-20c0-2-.45-3-2.72-3.06a4.67,4.67,0,0,1-4.93-4.65,4.41,4.41,0,0,1,3.84-5.06c2.4-.36,1.88-1.85,1.78-3.26-.61-9,3-15.8,10.24-20.92,3-2.11,5.67-4.67,8.69-6.74,3.63-2.49,6.06-5.22,5.42-10.14a4.68,4.68,0,0,1,5-5.59c3.38,0,5.36,2.31,4.86,5.62-.67,4.54,1.47,7,5,9.29,4.19,2.72,8.1,5.85,12.13,8.81,6.11,4.48,8.93,10.59,8.79,18.09,0,2.47-.56,4.8,2.6,6.15,1.78.76,1.93,3,1.39,4.91-.83,2.9-3.25,3.53-5.85,3.8-1.37,1.6-.65,3.5-.65,5.24,0,32.22-.28,64.43.17,96.64.09,6.09-3.32,8.53-7,11.39-2.07,1.61-2.41-.58-2.82-1.9-.71-2.31.54-5.08-1.67-7-4.86-1.8-9.88-.61-14.81-.82-4.48-.2-9-.1-13.45,0-2.1,0-4.25.28-4.24,3,.06,8.61-1,17.24.67,25.78a14.1,14.1,0,0,1,4.78,7.35c.94,3.46-.51,5.06-3.75,5.51a40.23,40.23,0,0,1-5.49.15H648.06a33.6,33.6,0,0,0-4.49.07c-3.47.49-4,1.94-2,5.36a17.87,17.87,0,0,0,5.95.55H772.78a21,21,0,0,0,5.43-.41c2.55-3.27,2.37-4.65-1.14-5.53-2.48-.62-4.67-1.13-4.1-4.33s-.12-7.09,4.75-7.44c4.1-.29,5.6-3,6.22-6.57.06-.33,0-.66.12-1,.4-1.86.09-4.5,2.88-4.43,3.34.08,3,2.83,3,5.18,0,7.31-.06,14.61,0,21.92C790,704.43,789.21,706.05,790.73,707.19Z"/><path class="cls-1" d="M790.73,707.19c-2.05-1.25-1.19-3.29-1.21-5-.1-7.16-.08-14.32,0-21.48,0-2.07-.47-4-2.73-3.9s-1.19,2.38-1.25,3.7c-.28,6-2.2,8.12-8.21,8.9-4.59.59-1.41,4.83-3.16,7-1.12,1.35.69,1.64,1.87,1.82,6,.89,7,3,4.32,9-1.21-6.18-5.57-6.45-10.81-6.43q-59.58.23-119.16,0c-5.3,0-9.53.43-10.82,6.48-3-7.06-1.8-9.07,5.38-9.07H745.34a25.1,25.1,0,0,0,4-.16c1.26-.2,2.46-1.14,1.58-2.41-1.84-2.65-2.09-6.83-6.45-7.25,1.57-1.56,3.6-1.44,5.58-1.53,5.83-.27,5.81-.27,6-6.33.06-2.12-.26-4.35,1.35-6.13.3-.19.73-.35.88-.16,2.82,3.49,2,13.29-1.37,16.08s1.36,2.78,1.4,4.51c-.36-4.59,1.09-8.21,4.84-10.83,2.16-1.52,1.81-3.58,1.21-5.8-.73-2.68-.3-4.68,3.28-3.87,1.94,2.49,1.32,5.44,1.35,8.21,0,3.32,1.75,4.28,4.74,4.27s5.23-.64,5.25-4.33c0-6.5,0-13,0-19.49,0-2.32-.23-4.72,1.47-6.67,2.26,3.34.34,7.13,1.29,10.87,1-1.14,1.75-3,2.86-3.2,5.93-1.26,4.87-5.7,4.87-9.75q0-47.16,0-94.31c0-1.87-.9-4,1.13-5.55Q790.7,630.76,790.73,707.19Z"/><path class="cls-1" d="M457.47,495.29c-2.51.09-5.84-.87-4.16,3.92a4.09,4.09,0,0,1-1.24,3.59c-4.16,3.14-3.6,7.51-3.52,11.79.05,2.26-.24,4.08-3.19,3.65a3.57,3.57,0,0,0,2.34-3.71c-.21-7.75-.16-15.5-.2-23.25,2.1.82,2.08-.54,2-1.93a21.15,21.15,0,0,1,1-8.09c1.39-1.48,3.26-1.51,5.06-1.53,10.58-.11,21.16-.09,31.74,0,1.83,0,3.66.13,5.13,1.44-1.86,2.17-4.34,1-6.52,1.1-6.12.16-12.24.06-18.42.06-.33,1.93,2.43,4-.26,5.36-2.23,1.08-3.05-1.41-4.3-2.51-2-1.74-3.65-4.1-6.76-2-3.9,2.64-3.41,5.39,1.53,8.39A2.68,2.68,0,0,1,457.47,495.29Z"/><path class="cls-2" d="M492.42,481.16l-41.93.1c-11.22-17.08-7.14-35.58,10.25-46.4,10.31-6.42,20.74-12.65,30.93-19.26,3.94-2.56,8-3.25,12.56-3.63A39.86,39.86,0,0,1,532.56,420c8.15,6,17.25,10.67,25.76,16.2A31.12,31.12,0,0,1,568.63,478c-1.39,2.44-2.94,3.5-5.88,3.45-11-.19-22-.3-33,0-4.33.13-5.91-.87-5.42-5.4,1.08-9.94-2.55-17.84-10.92-23.58-3.53-2.42-6.61-2.39-10,.08-7.11,5.1-11.27,11.62-10.92,20.64C492.6,475.83,492.45,478.5,492.42,481.16Z"/><path class="cls-2" d="M317.94,646.09c-10.31,0-20.62-.12-30.92.07-3.33.06-4.69-.62-4.55-4.31.29-8,.21-16,0-23.94-.07-2.91.52-4.06,3.77-4,21.61.14,43.23.1,64.84,0,2.44,0,3.53.44,3.48,3.23q-.27,12.71,0,25.44c.06,2.93-1,3.6-3.72,3.57C339.89,646,328.91,646.08,317.94,646.09Z"/><path class="cls-2" d="M699,613.94c10.48,0,21,.14,31.43-.08,3.39-.07,4.17,1,4.09,4.24-.21,8.14-.19,16.29,0,24.43.06,2.9-.93,3.62-3.7,3.61q-32.43-.15-64.85,0c-3,0-3.57-1.07-3.53-3.76.15-8.31.18-16.63,0-24.94-.06-2.9.89-3.61,3.66-3.57C677,614,688,613.94,699,613.94Z"/><path class="cls-3" d="M457.47,495.29l.22-3.72,0,0a7.09,7.09,0,0,1,5.11-1.3c30.5,1.23,61,.13,91.52.57,1.65,0,3.64-1,5,.88,0,7.16-.23,14.32,0,21.48.09,3.19-1,4.26-4,3.8a10.55,10.55,0,0,0-1.49,0c-3.48-.09-7.83,1.06-10.22-.6-2.66-1.85-.84-6.48-1-9.88-.14-3.6-1.59-6-5.24-5.88-3.36.1-4.68,2.51-4.85,5.81s1.66,8.05-.91,9.91c-2.33,1.68-6.71.6-10.18.62-8,.06-8,0-8-8.19,0-1,0-2,0-3-.13-3.16-1.85-5.14-4.93-5.18s-4.92,1.88-5,5c-.11,2.83-.13,5.67,0,8.5.09,2.17-.75,2.93-2.9,2.88-4.49-.11-9-.13-13.49,0-2.32.07-2.82-1-2.74-3,.1-2.66.07-5.33,0-8-.1-3.34-1.86-5.51-5.22-5.4-3.06.09-4.77,2.09-4.78,5.29a8.34,8.34,0,0,1,0,1c-.41,3.23,1.55,8.44-.88,9.32-4.27,1.56-9.46.72-14.26.64-2,0-1.41-1.92-1.44-3.14C457.62,507.6,457.55,501.44,457.47,495.29Z"/><path class="cls-2" d="M699,656.09c10.32,0,20.64.13,31-.07,3.31-.07,4.67.57,4.54,4.27-.29,8.14-.2,16.31,0,24.46.06,2.84-.39,4.21-3.72,4.1q-11.73-.36-23.47,0c-3.26.1-4-1.16-3.76-4.07a68.55,68.55,0,0,0,0-8.48c-.13-3.11-1.81-5.06-5-5s-4.73,2-5,5.1c0,.33,0,.67,0,1-.4,3.72,1.79,8.84-1,10.84-2.56,1.83-7.37.54-11.2.57-5.16,0-10.32-.17-15.47.07-3.07.14-3.49-1.21-3.45-3.8.13-8.48.17-17,0-25.46-.06-2.92.93-3.58,3.68-3.55C677,656.17,688,656.09,699,656.09Z"/><path class="cls-2" d="M318.67,656.09c10.65,0,21.3.1,31.95-.06,2.92,0,4.07.52,4,3.77-.25,8.48-.21,17,0,25.46.06,2.91-.92,3.63-3.68,3.57-8-.16-16-.18-24,0-2.95.07-3.73-1-3.54-3.73a82.7,82.7,0,0,0,0-8.48c-.1-3.31-1.73-5.47-5.19-5.37-3.19.08-4.73,2.14-4.79,5.25a70.54,70.54,0,0,0,0,8.48c.31,3.24-1.06,3.9-4,3.83-7.65-.17-15.31-.18-23,0-2.94.06-4.11-.58-4-3.82.23-8.48.22-17,0-25.46-.07-3,1-3.6,3.7-3.56,10.82.13,21.64,0,32.46,0Z"/><path class="cls-4" d="M508.52,699.44q57.71,0,115.4,0c2.64,0,5.52-1.05,5.54,3.82,0,4.65-2.5,4-5.33,4q-115.89,0-231.79,0c-2.6,0-5.52,1.11-5.54-3.78,0-5.11,3-4,5.83-4Z"/><path class="cls-3" d="M508.25,541.14c-19.3,0-38.61.07-57.91-.12-2.11,0-6,2.37-6.13-3-.16-7.06,1.32-10.22,5.91-10.89a29.27,29.27,0,0,1,4-.1H562.93c8.28,0,11.21,3.73,9.89,12.05-.5,3.09-2.65,2-4.17,2-17,.07-33.95,0-50.92,0Z"/><path class="cls-5" d="M606.47,683.29c.6,5-1.81,5.62-6.33,5.61-60.28-.16-120.55-.06-180.83-.07-8.46,0-8.46-.09-8.68-8.13.88-1.58,2.38-.81,3.59-.86,5.95-.28,11.88.07,17.86-1s12.36.91,18.59.78c1.48,0,3,.13,4.48.13,43.44,0,86.87.12,130.31-.14,5.69,0,11.45.28,17.17-.52C605.18,678.79,607.94,679.37,606.47,683.29Z"/><path class="cls-2" d="M236.4,579.3c0-7,.11-14-.05-20.95-.07-2.83.41-4.15,3.73-4.07,9.64.24,19.3.19,28.94,0,2.94,0,3.57,1,3.55,3.72q-.18,21.19,0,42.41c0,3-1,3.6-3.74,3.56-9.64-.13-19.29-.16-28.93,0-3,.06-3.62-1-3.56-3.75C236.51,593.28,236.41,586.29,236.4,579.3Z"/><path class="cls-2" d="M744.44,578.82c0-6.82.12-13.64-.05-20.45-.07-2.82.36-4.16,3.71-4.08,9.64.23,19.29.19,28.93,0,2.93,0,3.59,1,3.57,3.71q-.17,21.21,0,42.41c0,2.94-1,3.62-3.73,3.58-9.64-.14-19.29-.17-28.93,0-2.94.06-3.63-1-3.57-3.73C744.55,593.12,744.44,586,744.44,578.82Z"/><path class="cls-3" d="M364.55,578.77c0-7,.09-14,0-21-.05-2.5.56-3.52,3.3-3.48,9.82.14,19.64.05,29.46,0,2,0,3.89-.06,3.41,2.75-.31,1.79,1.42,4.57-2.41,4.79s-5,2.63-5,6.15q.12,8,0,16c0,3.1,1.19,5.54,4.29,5.7,3.31.18,3.12,1.95,3.15,4.25.1,10,.14,10-9.72,10-7.32,0-14.66-.24-22,.1-3.93.19-4.74-1.19-4.59-4.8C364.75,592.43,364.55,585.59,364.55,578.77Z"/><path class="cls-3" d="M652.4,579.58c0,7-.1,14,.05,21,0,2.59-.73,3.47-3.38,3.44q-14.73-.19-29.46,0c-2.64,0-3.62-.81-3.37-3.41a34.7,34.7,0,0,0,0-5.49c-.2-3-.16-5.37,3.94-5.64,2.36-.15,3.46-2.36,3.47-4.8,0-5.83,0-11.66,0-17.49,0-3.15-1.65-5.14-4.79-5.28-4.16-.18-2.29-3.2-2.59-5.13-.4-2.58,1.5-2.39,3.21-2.39,9.82,0,19.64.12,29.46-.06,3.06-.06,3.55,1.17,3.5,3.81C652.3,565.26,652.4,572.43,652.4,579.58Z"/><path class="cls-2" d="M431.75,560.68c4.07-2.82,8.17-5.59,12.18-8.5,1.5-1.1,3.1-1,4.75-1q59.91,0,119.82,0a8,8,0,0,1,5.13,1.37c3.81,2.83,7.74,5.51,11.8,8.38-1.79,1.41-3.48.83-5,.83-18.8,0-37.61-.06-56.41.11a9.61,9.61,0,0,1-8.11-3.55c-6.43-7.2-8.71-7.18-15,.06a9,9,0,0,1-7.62,3.48c-18.8-.15-37.61-.07-56.42-.07H432Z"/><path class="cls-3" d="M639.55,707.26c-.52-8.34-.52-8.34,7.52-8.34q62.83,0,125.66,0c8,0,8,.06,7.61,8.3Z"/><path class="cls-3" d="M306.47,707.32c-21.82,0-43.65-.09-65.47.1-3.69,0-4.71-.83-4.77-4.61-.06-4,1.8-4,4.8-4q65.71.13,131.43,0c3.36,0,4.58.67,4.59,4.32s-1.31,4.27-4.61,4.25c-22-.14-44-.07-66-.07Z"/><path class="cls-1" d="M606.47,683.29c.12-3.32-2.17-2.93-4.35-2.93q-34.9,0-69.82,0-57.12,0-114.22,0c-2.48,0-5,.22-7.45.34,3.09-3,6.9-.94,10.35-1.35s7,.37,9.92-3c2.76-3.19,6.4-2,9.24.68,1.06,1,1.67,2.46,4,2-3.56-4.11-6.23-8.65-12.48-7.68-2.28.35-3.32-.81-3.3-3.17.06-8.83.1-17.65,0-26.47-.05-3.11,1.6-3.5,4.09-3.48,8,.07,16-.06,24,.07,3.44,0,6.6-.1,8.88-3.22.74-1,1.89-2.26,3.29-.85s.56,2.57-.86,3.58c-1.19.85-2.56,1.81-1.93,3.64a1.22,1.22,0,0,0,1.65.69c1.74-.76,4.23-.47,4.77-3a18.8,18.8,0,0,0,.15-4q0-19.47,0-39c0-7.66,1.67-8.73,9.2-5.95l-.63.65c-4.81.75-6.12,3.53-6.06,8.31q.38,31.13,0,62.24c-.07,4.8,1.28,7.55,6.08,8.28l.63.66c-1.7,1.59-3.8.75-5.72.94-2.55.26-3.39-.91-3.57-3.47-.35-5,1.52-10.31-1.48-15.08,4.69-8.28-2.37-5.73-5.91-6.4a9.37,9.37,0,0,0-1.5-.06c-1.54-4.7-4.88-5.86-9.56-5.55-5.78.37-11.61.19-17.42,0-3.69-.09-5.56,1.16-5.47,5.12.13,6,.11,12,0,17.93-.07,3.69,1.64,5,5.14,4.93q10.46-.1,20.91,0c2.13,0,4.35-.25,6.24,1.13-1.44,2.56-3.86,1.13-5.84,1.35-1.82.21-3.25.09-4.3,2.33-2.71,5.78-2.91,5.69,3.56,5.69q64.1,0,128.2,0c2.1,0,4.4.63,6.18-1.14,2.37-2.36,4.66-4.61,6.17.72.07.26,1.2.36,1.81.28,1-.12.77-.89.6-1.54-.65-2.56-1.32-5.12-2-7.68a8.81,8.81,0,0,1,8.64.06,8.05,8.05,0,0,1,.65,2.39c-.3,5.81,3,7.4,8,7.16.83-2.27-1.17-2-2.11-2.61-5.79-3.83-5.85-9.87-.13-13.72.69-.47,2.07-1,2-1.31-1.33-6.49,5.19-6.16,7.85-9.12,1.44-1.6,3.91-2.28,4.3.06.64,3.88,2.92,1.92,5.73,2.63l-8.16-9.11a12.82,12.82,0,0,1,13,0c.72,3.37,4,1.26,5.72,2.71.83.72,3.12-.37,2.69,1.86-.25,1.31-1.54,2-2.92,2.36-1.59.44-3.19-1-5,.19.86,2.35,2.87,1.55,4.45,1.8,3.3.52,6.88-1.27,9.95,1.15-1.95,1.68-4.35,1.42-6.65,1.44-7.47.06-14.94.1-22.41,0-3.77-.06-5.43,1.38-5.34,5.26.16,6.3.11,12.62,0,18.92,0,3.39,1.39,4.77,4.76,4.73q11.7-.12,23.4,0c3.42,0,4.75-1.51,4.73-4.81,0-6.31,0-12.62,0-18.93,0-2.3-.23-4.69,1.45-6.65,1.21.74,1.1,1.95,1.1,3.1,0,8.64-.09,17.28,0,25.92,0,3-1,4.12-4,4.08-10.14-.13-20.27-.09-30.41,0-2.4,0-3.84-.59-3.71-3.32.13-2.39-.6-2.92-2.9-1.57C610.4,685.77,608.45,683.92,606.47,683.29Z"/><path class="cls-2" d="M382.91,656.09c5,0,10,.08,15,0,2.1,0,2.91.51,2.89,2.76-.11,9.14-.09,18.28,0,27.42,0,2-.7,2.58-2.61,2.57q-15.45-.09-30.91,0c-2.33,0-2.71-1.08-2.69-3.06.06-9,.09-18,0-26.92,0-2.28.88-2.81,2.93-2.77C372.6,656.16,377.76,656.09,382.91,656.09Z"/><path class="cls-3" d="M637.48,646.32a65.77,65.77,0,0,0-13,0c-8.19-.63-8.19-.63-8.2-9.19,0-6.5.1-13,0-19.49-.05-2.6.38-3.84,3.44-3.78,9.83.19,19.66.15,29.49,0,2.71,0,3.34,1,3.3,3.48-.13,8.49-.16,17,0,25.49,0,2.77-1,3.36-3.51,3.29C645.13,646,641.3,646.24,637.48,646.32Z"/><path class="cls-2" d="M762.49,646.09c-5,0-10-.12-15,0-2.45.08-3.13-.81-3.1-3.17.11-8.66.12-17.32,0-26,0-2.44.77-3.11,3.13-3.08q15,.17,30,0c2.39,0,3.14.71,3.1,3.11q-.18,13,0,26c0,2.36-.68,3.23-3.11,3.16C772.48,646,767.48,646.09,762.49,646.09Z"/><path class="cls-2" d="M254,646.09c-4.83,0-9.67-.11-14.49,0-2.42.08-3.16-.77-3.13-3.15q.16-13,0-26c0-2.39.68-3.14,3.09-3.12q15,.18,30,0c2.34,0,3.18.61,3.14,3.07-.14,8.66-.17,17.32,0,26,.06,2.9-1.25,3.23-3.6,3.17C264,646,259,646.09,254,646.09Z"/><path class="cls-3" d="M382.64,646.09c-5,0-10-.1-15,0-2.4.08-3.17-.75-3.14-3.14q.17-13,0-26c0-2.45.81-3.13,3.16-3.11q15,.17,30,0c2.38,0,3.15.66,3.12,3.08q-.19,13,0,26c0,2.35-.67,3.25-3.12,3.17C392.64,646,387.64,646.09,382.64,646.09Z"/><path class="cls-2" d="M525.48,639.27c0,9-.12,17.93.06,26.89.07,3.1-.56,4.34-4,4.25-9.95-.27-19.91-.15-29.87-.19-1.49-4.5-.58-9.13-.59-13.68,0-5.74-.67-11.52.43-17.24v0A236.57,236.57,0,0,1,525.48,639.27Z"/><path class="cls-2" d="M570.81,670.33c-4.49,0-9-.18-13.46.06-2.94.15-3.62-1-3.57-3.71q.21-12.21,0-24.42c0-2.59.77-3.48,3.39-3.45,9.14.13,18.28.11,27.41,0,2.23,0,3.28.41,3.24,3-.15,8.47-.18,17,0,25.42.07,2.89-1.2,3.21-3.56,3.14C579.78,670.23,575.29,670.33,570.81,670.33Z"/><path class="cls-3" d="M463.28,669.91c-10.45.82-20.92.15-31.38.4-2.41.06-2.65-1.11-2.63-3,.05-8.48.11-17,0-25.43,0-2.58,1-3,3.24-3,8.47.09,17,.31,25.42-.09,4.51-.21,6.09,1.2,5.33,5.53a7.08,7.08,0,0,0,.23,2Q463.37,658.1,463.28,669.91Z"/><path class="cls-3" d="M318.61,604c-10.65,0-21.3-.12-31.94.07-3.24.05-4.23-.84-4.21-4.18.07-9.9-.09-9.9,9.84-9.9,19.3,0,38.6.09,57.9-.08,3.46,0,4.47.84,4.41,4.36-.17,9.72,0,9.72-9.55,9.72Z"/><path class="cls-3" d="M698.37,603.94c-10.48,0-21-.12-31.44.07-3.29.06-4.65-.55-4.59-4.27.14-9.8-.05-9.8,9.87-9.8,19.3,0,38.6.09,57.9-.08,3.54,0,4.43,1,4.38,4.46-.15,9.62,0,9.62-9.66,9.62Z"/><path class="cls-3" d="M236.4,671.79c0-4.16.17-8.32-.05-12.47-.15-2.71.87-3.32,3.4-3.29q14.72.19,29.43,0c2.56,0,3.44.65,3.39,3.32q-.24,13.21,0,26.43c0,2.51-.92,2.94-3.18,3-9.81.39-9.8.47-9.91-9.28a26.35,26.35,0,0,0-.14-4c-.44-2.58-2-4.23-4.69-4.32a4.54,4.54,0,0,0-5.06,4.42,73.56,73.56,0,0,0-.07,10c.1,2.29-.52,3.17-3,3.29-10.1.47-10.1.57-10.1-9.64Z"/><path class="cls-3" d="M780.46,656.29c0,9.59-.1,19.18.14,28.76.09,3.22-1,3.77-3.94,3.75-9.06,0-9,.08-9.18-8.87,0-1.91.66-4-.77-5.72-2.75-1.85-5.57-1.5-8.41-.29-1.83,3.78-.64,7.8-.79,11.7-.09,2.37-.74,3.29-3.15,3.11-3.29-.23-6.6-.26-9.91-.37,0-9.63.06-19.25-.06-28.88,0-2.45.47-3.51,3.23-3.45C758.57,656.24,769.52,656.22,780.46,656.29Z"/><path class="cls-6" d="M448,571.77h40.47c2.3,0,4.56-.58,4.27,3.38-.24,3.31-.4,5-4.52,4.92-26.81-.21-53.62-.16-80.43,0-3.33,0-4.52-.65-4.61-4.29-.1-4.12,1.93-4,4.86-4C421.33,571.83,434.65,571.77,448,571.77Z"/><path class="cls-6" d="M568.48,580c-13.32,0-26.64-.16-40,.1-3.89.07-4.06-1.58-4.24-4.68-.21-3.45,1.27-3.66,4-3.65,27.14.08,54.27.12,81.41,0,3.54,0,3.9,1.31,4.06,4.31.18,3.57-1.3,4-4.34,4C595.78,579.89,582.13,580,568.48,580Z"/><path class="cls-7" d="M254,544.14c-5.16,0-10.33-.14-15.48.06-2.81.1-3.89-1.05-4.06-3.68-.26-4.23.71-7.93,4.19-10.66,4.44-3.51,9-6.9,13.28-10.56,1.72-1.46,2.81-1,4.28.15,4.65,3.51,9.35,6.94,14,10.39a10.66,10.66,0,0,1,4,6.18c1.57,6.11,0,8.11-6.23,8.12Z"/><path class="cls-3" d="M382.27,544.14c-5.15,0-10.32-.21-15.46.07-3.22.17-4-1.42-4.2-4.07-.24-3.86.77-7.32,3.8-9.84,4.47-3.71,9.16-7.18,13.63-10.9,1.61-1.34,2.73-1.17,4.3,0,4.61,3.54,9.34,6.93,14,10.38a10.78,10.78,0,0,1,3.76,5.17c2.26,6.31.2,9.23-6.39,9.2-4.49,0-9,0-13.47,0Z"/><path class="cls-3" d="M634.39,544.13c-5.32,0-10.65-.18-16,.07-3.18.15-4-1.3-4.17-4.07-.21-4.28,1-7.83,4.49-10.53,4.2-3.27,8.46-6.47,12.5-9.92,1.93-1.65,3.25-1.4,5.11.05,4.32,3.38,8.81,6.55,13.24,9.77A11.22,11.22,0,0,1,654,536c1.6,6,0,8.16-6.11,8.16Z"/><path class="cls-7" d="M762.23,544.15c-5.32,0-10.65-.12-16,.06-2.61.08-3.58-1-3.8-3.4-.41-4.45.75-8.23,4.36-11.07,4.3-3.41,8.72-6.68,12.89-10.25,1.86-1.59,3-1.09,4.68.15,4.37,3.32,8.82,6.53,13.28,9.74a11.34,11.34,0,0,1,4.33,5.93c2,6.47.36,8.83-6.29,8.83Z"/><path class="cls-8" d="M419.21,629.75c0,12.14-.15,24.28.09,36.4.07,3.72-1.31,4.24-4.57,4.33-3.46.09-4.11-1.15-4.09-4.28q.17-36.16,0-72.31c0-3.52,1.25-4.1,4.32-4.07s4.45.42,4.37,4C419.06,605.81,419.21,617.79,419.21,629.75Z"/><path class="cls-9" d="M606.31,670a21.13,21.13,0,0,1-8.64-.06c0-24.93.18-49.86,0-74.79,0-4,.85-5.48,5.11-5.35,3.61.11,3.48,1.9,3.47,4.41q-.07,26.93,0,53.85C606.26,655.34,606.29,662.65,606.31,670Z"/><path class="cls-3" d="M543.77,629.79c0,12.15-.1,24.3.07,36.45,0,3.17-.72,4.19-4.07,4.23-3.61,0-4.36-1.12-4.34-4.53q.23-35.94,0-71.9c0-3.24.79-4.32,4.12-4.21,3,.1,4.38.44,4.31,4C543.62,605.82,543.77,617.8,543.77,629.79Z"/><path class="cls-10" d="M446.2,628.89c-4.31,0-8.63,0-12.94,0a8.78,8.78,0,0,1-3-.18c-1.41-.52-1.7-13.93-.31-14.61a5.82,5.82,0,0,1,2.45-.17c9.13,0,18.26.07,27.39,0,2.56,0,3.35.76,3.45,3.38.42,11.65.51,11.64-11.1,11.64Z"/><path class="cls-10" d="M571.53,613.91h11.94c.83,0,1.94-.33,2.45.07,3.9,3.12,1.13,7.45,1.81,11.18.3,1.67.57,3.76-2.41,3.75-9.62-.07-19.34.79-28.83-.31-6-.7-1.51-6.8-2.57-10.3-.52-1.73-1-4.52,2.68-4.42C561.57,614,566.55,613.91,571.53,613.91Z"/><path class="cls-5" d="M491.52,614.3l31.82-.36c.16,0,.4-.07.49,0,3.58,3.72.85,8.29,1.62,12.41.47,2.48-1.35,2.5-3.13,2.52-8.62.08-17.24.2-25.85.3-4.17,1.29-6.27.06-6.33-4.27C490.09,621.36,491,617.83,491.52,614.3Z"/><path class="cls-4" d="M508.56,604c-4.65,0-9.31-.1-14,0-2.38.06-3-.79-3.16-3.16-.52-10.9-.61-10.9,10.28-10.9,6.81,0,13.63.1,20.44,0,2.59-.06,3.32.73,3.39,3.35.29,10.71.39,10.7-10,10.71Z"/><path class="cls-7" d="M446,589.93c4.65,0,9.3.13,13.94,0,2.67-.1,3.28.93,3.36,3.46.34,10.6.42,10.6-10.12,10.6-6.81,0-13.62-.09-20.43,0-2.45,0-3.43-.53-3.54-3.27-.43-10.79-.55-10.79,10.31-10.79Z"/><path class="cls-7" d="M570.27,604c-4.14,0-8.3-.14-12.44,0-2.86.14-4.07-.51-4.1-3.76-.1-10.31-.25-10.31,9.94-10.31,7,0,14,.06,20.92,0,2.19,0,3.14.37,3.27,2.94.54,11.12.65,11.12-10.61,11.12Z"/><path class="cls-10" d="M502,391.21c0-2.49,0-5,0-7.47.11-4.19,2.22-6.46,6.51-6.45s6.41,2.31,6.48,6.49c.07,5-.08,10,.07,14.94.08,2.54-.68,3.38-3.35,3.46C502,402.47,502,402.58,502,391.21Z"/><path class="cls-11" d="M491.52,614.3c0,3.14.32,6.32-.09,9.4-.56,4.16,1.21,5.63,5,5.49-1.73,7.83-6.37,8.56-13.17,3.91-.75,3.41-.78,3.5,1.89,4.15,1.17.28,2.49.31,2.84,1.59a2.59,2.59,0,0,1-2,3c-3.83,1.24-3.46,4.17-3.6,7.24-.31,7.08,1.11,14.22-.81,21.23l-.26-.19c-1.61-1.77-1.48-4-1.49-6.12q-.06-33.82,0-67.63c0-2.15,0-4.35,1.58-6.11l.15-.09c1.9,4.77.58,9.74.84,14.61.24,4.27,0,8.58.11,12.86.05,1.43-.84,4.39,1.24,3.92,2.25-.52,6,.09,6.64-3.72C490.64,616.64,490.14,615.2,491.52,614.3Z"/><path class="cls-5" d="M514.38,475.13c-.35,1.68,1.1,5-.68,5.64-3,1-6.52.43-9.82.47a1.14,1.14,0,0,1-1.25-1.24c.26-4.9-1.3-10,1.75-14.59s5.17-4.59,8.32.16C514.59,468.43,514.45,471.56,514.38,475.13Z"/><path class="cls-12" d="M508.23,580c-2.2-.52-6.24,1.77-5.75-3.73.33-3.64,4.09-10.86,6-10.79s5.93,7.43,6,10.85C514.51,580,514.51,580,508.23,580Z"/><path class="cls-1" d="M559.32,491.74a23,23,0,0,0-3-.36q-48.11,0-96.22,0a23,23,0,0,0-2.47.25c2.22-1.78,4.13-4.15,7.55-1.72,1.15.82,3.23.39,4.88.4q42,0,83.91.06C555.8,490.33,558.1,489.23,559.32,491.74Z"/><path class="cls-11" d="M525.48,639.27a305.88,305.88,0,0,0-34,.06c.52-.36,1-1,1.57-1q15.4-.09,30.82,0C524.41,638.3,525,638.94,525.48,639.27Z"/><path class="cls-11" d="M491.5,639.3q.08,15.47.16,30.92c-1.27-.66-1.19-1.86-1.19-3V641.93A2.82,2.82,0,0,1,491.5,639.3Z"/><path d="M758.3,673.92c3.43-3.91,5.37-3.84,8.41.29-1.9.83-2.32,1.82-1.15,3.85,1.67,2.88,1.54,5.38-2,7.33-5.23,2.85-4.74,7.36-2.65,12.41a19.57,19.57,0,0,1-8.41-8.37c6,1,6.35-2.18,6.07-6.06C758.3,680.23,758.36,677.07,758.3,673.92Z"/><path d="M766.06,688.89c2.72.4,4.19,1.67,4.36,4.19.11,1.65-1.11,2.89-2.28,2.53-1.88-.58-4.33-1.29-4.48-3.86A2.68,2.68,0,0,1,766.06,688.89Z"/><path class="cls-13" d="M318.52,635.84c-2.91-.3-5-1.69-5-4.89s1.78-5.08,4.8-5.19a4.55,4.55,0,0,1,5.11,4.81C323.46,633.7,321.63,635.37,318.52,635.84Z"/><path class="cls-13" d="M693.46,630.81c.54-3.2,2.2-5.2,5.29-5.06s4.89,2,4.74,5.18-2.08,4.89-5.13,4.82S693.76,633.61,693.46,630.81Z"/><path class="cls-14" d="M259.41,579.28a57.77,57.77,0,0,1-.05,6.45,4.6,4.6,0,0,1-4.67,4.32c-2.86.11-4.91-1.53-5.1-4.36a106.93,106.93,0,0,1,0-12.91c.15-2.84,2-4.53,4.93-4.52s4.63,1.72,4.91,4.57c.21,2.13.05,4.3.05,6.45Z"/><path class="cls-14" d="M767.51,578.71c0,2,0,4,0,6-.1,3.35-1.85,5.45-5.19,5.35-3.07-.09-4.76-2.12-4.81-5.24,0-3.64,0-7.29,0-10.93,0-3.29,1.5-5.53,5-5.57s5,2.16,5.06,5.46C767.54,575.4,767.51,577.05,767.51,578.71Z"/><path class="cls-15" d="M387.62,579.06c0,2,.06,4,0,6-.13,3.17-1.93,5-5,5s-4.87-2-5-5.07a115.2,115.2,0,0,1,.05-11.9c.2-3,2.07-4.92,5.25-4.75,2.86.16,4.53,1.86,4.66,4.79C387.7,575.08,387.62,577.07,387.62,579.06Z"/><path class="cls-15" d="M639.27,579.13a53.34,53.34,0,0,1,0,6.45c-.34,2.83-2.17,4.56-5,4.46a4.57,4.57,0,0,1-4.8-4.69c-.15-4-.11-8,0-11.93,0-3.12,1.66-5.11,4.83-5.14,3.42,0,5.05,2.07,5.15,5.38.05,1.82,0,3.65,0,5.47Z"/><path class="cls-2" d="M652.38,656.35c0,9.48-.12,19,0,28.43.05,3-.64,4.08-3.82,4-9.64-.2-19.28-.15-28.92,0-2.54,0-3.46-.61-3.41-3.29.16-8.65.14-17.29,0-25.93,0-2.47.46-3.52,3.23-3.47,11,.24,21.93.24,32.89.32Z"/><path class="cls-7" d="M481.45,590.31l-.09,79.86c-8.09.31-8.09.31-8.08-7.88q0-32.46,0-64.92C473.27,589.46,473.27,589.46,481.45,590.31Z"/><path class="cls-15" d="M387,672.77c-.27,2.94-1.85,4.87-5,4.88a4.57,4.57,0,0,1-5-5,4.71,4.71,0,0,1,5-5C385,667.62,386.77,669.52,387,672.77Z"/><path class="cls-15" d="M639.35,630.72c-.39,3.07-2,5.08-5.09,5s-5-1.87-4.9-5,1.9-5,5-5S639,627.73,639.35,630.72Z"/><path class="cls-13" d="M767.49,631c-.32,3-2,4.86-5.12,4.78s-4.94-1.93-4.83-5.09a4.65,4.65,0,0,1,5.08-4.89C765.65,625.82,767.38,627.71,767.49,631Z"/><path class="cls-13" d="M254.61,635.84c-3-.25-5-1.7-5.09-4.86s1.76-5.11,4.77-5.23,5,1.57,5.14,4.79S257.7,635.34,254.61,635.84Z"/><path class="cls-15" d="M382,625.63c3.06.45,5,2,4.91,5.2s-2,5-5,4.94a4.59,4.59,0,0,1-4.87-5.08C377.09,627.66,379,626,382,625.63Z"/><path class="cls-15" d="M634.15,667.52c3,.29,5,1.82,5.1,4.94s-1.6,5-4.77,5.16-5-1.62-5.14-4.76S631.14,668.09,634.15,667.52Z"/><path class="cls-15" d="M318.23,438.81s18.68-30.2,28.57-6c0,0,16.78-58.68,63.81-37.34,0,0-35.34-52.61-82-18C328.6,377.49,298.13,395.8,318.23,438.81Z"/></svg>