<svg id="Layer_1" data-name="Layer 1" xmlns="http://www.w3.org/2000/svg" viewBox="0 0 1000 1000"><defs><style>.cls-1{fill:#ff742f;}.cls-2{fill:none;stroke:#000;stroke-miterlimit:10;stroke-width:6px;}</style></defs><title>ISFBadrachalam</title><path class="cls-1" d="M533.56,287.73s24.52-2.49,15.37,13.2c0,0,39.4-15.58,47.54,19.34,0,0,14-41.7-24.77-52.77C571.7,267.5,548.74,258.47,533.56,287.73Z"/><path class="cls-2" d="M459.17,354.46h59.69a.71.71,0,0,0,.72-.71v-3.59a.72.72,0,0,1,.72-.72h4.53a.5.5,0,0,0,.17,0c.61-.15,4.36-1.24,5-4.2a8,8,0,0,0-4.51-9,.71.71,0,0,1,.3-1.36c2.8,0,7,1.07,10.43,6.46a.72.72,0,0,1,.12.4v51.06a.77.77,0,0,0,.11.39l2.8,4.43a.64.64,0,0,1,.12.38V414.8a.72.72,0,0,1-.72.71h0a.72.72,0,0,0-.72.72v5.42a.72.72,0,0,0,.72.72h1.11a.72.72,0,0,1,.72.72v1.78a.7.7,0,0,0,.11.38l2.89,4.68a.7.7,0,0,1,.11.37v24.82h.87v1.65a.81.81,0,0,0,.08.34l2.87,5.27a.77.77,0,0,1,.08.34v24.34a.74.74,0,0,0,.1.35l4.16,7.36a.73.73,0,0,1,.09.35v25.33a.73.73,0,0,0,.09.35L556,528a.68.68,0,0,1,.09.35v35a.72.72,0,0,0,.06.29l1.49,3.35a.73.73,0,0,1,.07.29v43.49a.71.71,0,0,0,.71.71h1.44a.73.73,0,0,1,.72.72v29a.72.72,0,0,1-.72.72H459.17"/><path class="cls-2" d="M468,354.46H408.35a.71.71,0,0,1-.72-.71v-3.59a.71.71,0,0,0-.71-.72h-4.54a.5.5,0,0,1-.17,0c-.61-.15-4.36-1.24-5-4.2a8,8,0,0,1,4.52-9,.71.71,0,0,0-.31-1.36c-2.8,0-7,1.07-10.43,6.46a.8.8,0,0,0-.11.4v51.06a.69.69,0,0,1-.12.39l-2.8,4.43a.7.7,0,0,0-.11.38V414.8a.71.71,0,0,0,.71.71h0a.72.72,0,0,1,.72.72v5.42a.72.72,0,0,1-.72.72h-1.11a.72.72,0,0,0-.72.72v1.78a.7.7,0,0,1-.11.38l-2.89,4.68a.7.7,0,0,0-.11.37v24.82h-.86v1.65a.69.69,0,0,1-.09.34l-2.87,5.27a.77.77,0,0,0-.08.34v24.34a.73.73,0,0,1-.09.35l-4.16,7.36a.74.74,0,0,0-.1.35v25.33a.73.73,0,0,1-.09.35L371.24,528a.68.68,0,0,0-.09.35v35a.72.72,0,0,1-.06.29L369.6,567a.72.72,0,0,0-.06.29v43.49a.71.71,0,0,1-.72.71h-1.44a.72.72,0,0,0-.71.72v29a.71.71,0,0,0,.71.72H468"/><rect x="442.67" y="575.39" width="40.65" height="56.14" rx="13.85"/><rect x="388.81" y="389.77" width="147.51" height="2.95" rx="1.47"/><rect x="387.43" y="422.53" width="153.13" height="6.22" rx="3.11"/><rect x="373.93" y="514.79" width="177.89" height="6.15" rx="3.08"/><rect x="379.07" y="560.7" width="167.85" height="2.95" rx="1.47"/><rect x="377.95" y="471.29" width="168.92" height="4.71" rx="2.35"/><rect class="cls-1" x="458.4" y="398.11" width="7.81" height="17.61" rx="3.88"/><rect class="cls-1" x="456.05" y="437.43" width="12.51" height="24.15" rx="5.71"/><rect class="cls-1" x="453.37" y="480.48" width="17.87" height="30.35" rx="6.31"/><path d="M380.56,557.25a1.94,1.94,0,0,1-1.94-1.94V547a1.95,1.95,0,0,1,3.89,0v8.36A1.94,1.94,0,0,1,380.56,557.25Z"/><path d="M390.25,557.25a1.94,1.94,0,0,1-1.94-1.94V547a1.94,1.94,0,1,1,3.88,0v8.36A1.94,1.94,0,0,1,390.25,557.25Z"/><path d="M399.93,557.25a1.94,1.94,0,0,1-1.94-1.94V547a1.94,1.94,0,1,1,3.88,0v8.36A1.94,1.94,0,0,1,399.93,557.25Z"/><path d="M409.61,557.25a1.94,1.94,0,0,1-1.94-1.94V547a1.95,1.95,0,0,1,3.89,0v8.36A1.94,1.94,0,0,1,409.61,557.25Z"/><path d="M419.3,557.25a1.94,1.94,0,0,1-1.94-1.94V547a1.94,1.94,0,1,1,3.88,0v8.36A1.94,1.94,0,0,1,419.3,557.25Z"/><path d="M429,557.25a1.94,1.94,0,0,1-1.94-1.94V547a1.94,1.94,0,1,1,3.88,0v8.36A1.94,1.94,0,0,1,429,557.25Z"/><path d="M438.67,557.25a1.94,1.94,0,0,1-1.95-1.94V547a1.95,1.95,0,0,1,3.89,0v8.36A1.94,1.94,0,0,1,438.67,557.25Z"/><path d="M448.35,557.25a1.94,1.94,0,0,1-1.94-1.94V547a1.94,1.94,0,1,1,3.88,0v8.36A1.94,1.94,0,0,1,448.35,557.25Z"/><path d="M458,557.25a1.94,1.94,0,0,1-1.94-1.94V547a1.94,1.94,0,0,1,3.88,0v8.36A1.94,1.94,0,0,1,458,557.25Z"/><path d="M467.72,557.25a1.94,1.94,0,0,1-2-1.94V547a1.95,1.95,0,0,1,3.89,0v8.36A1.94,1.94,0,0,1,467.72,557.25Z"/><path d="M477.4,557.25a1.94,1.94,0,0,1-1.94-1.94V547a1.94,1.94,0,1,1,3.88,0v8.36A1.94,1.94,0,0,1,477.4,557.25Z"/><path d="M487.08,557.25a1.94,1.94,0,0,1-1.94-1.94V547a1.95,1.95,0,0,1,3.89,0v8.36A1.94,1.94,0,0,1,487.08,557.25Z"/><path d="M496.77,557.25a1.94,1.94,0,0,1-1.95-1.94V547a1.95,1.95,0,0,1,3.89,0v8.36A1.94,1.94,0,0,1,496.77,557.25Z"/><path d="M506.45,557.25a1.94,1.94,0,0,1-1.94-1.94V547a1.94,1.94,0,1,1,3.88,0v8.36A1.94,1.94,0,0,1,506.45,557.25Z"/><path d="M516.13,557.25a1.94,1.94,0,0,1-1.94-1.94V547a1.95,1.95,0,0,1,3.89,0v8.36A1.94,1.94,0,0,1,516.13,557.25Z"/><path d="M525.82,557.25a1.94,1.94,0,0,1-2-1.94V547a1.95,1.95,0,0,1,3.89,0v8.36A1.94,1.94,0,0,1,525.82,557.25Z"/><path d="M535.5,557.25a1.94,1.94,0,0,1-1.94-1.94V547a1.94,1.94,0,0,1,3.88,0v8.36A1.94,1.94,0,0,1,535.5,557.25Z"/><path d="M545.18,557.25a1.94,1.94,0,0,1-1.94-1.94V547a1.95,1.95,0,0,1,3.89,0v8.36A1.94,1.94,0,0,1,545.18,557.25Z"/><path d="M399.93,383.7a1.94,1.94,0,0,1-1.94-1.95V373.4a1.94,1.94,0,1,1,3.88,0v8.35A1.94,1.94,0,0,1,399.93,383.7Z"/><path d="M409.61,383.7a1.94,1.94,0,0,1-1.94-1.95V373.4a1.95,1.95,0,0,1,3.89,0v8.35A2,2,0,0,1,409.61,383.7Z"/><path d="M419.3,383.7a1.94,1.94,0,0,1-1.94-1.95V373.4a1.94,1.94,0,1,1,3.88,0v8.35A1.94,1.94,0,0,1,419.3,383.7Z"/><path d="M429,383.7a1.94,1.94,0,0,1-1.94-1.95V373.4a1.94,1.94,0,0,1,3.88,0v8.35A1.94,1.94,0,0,1,429,383.7Z"/><path d="M438.67,383.7a2,2,0,0,1-1.95-1.95V373.4a1.95,1.95,0,0,1,3.89,0v8.35A1.94,1.94,0,0,1,438.67,383.7Z"/><path d="M487.08,383.7a1.94,1.94,0,0,1-1.94-1.95V373.4a1.95,1.95,0,0,1,3.89,0v8.35A2,2,0,0,1,487.08,383.7Z"/><path d="M478.22,383.7a1.94,1.94,0,0,1-1.94-1.95V373.4a1.94,1.94,0,1,1,3.88,0v8.35A1.94,1.94,0,0,1,478.22,383.7Z"/><path d="M468.56,383.7a1.94,1.94,0,0,1-1.94-1.95V373.4a1.94,1.94,0,1,1,3.88,0v8.35A1.94,1.94,0,0,1,468.56,383.7Z"/><path d="M459.17,383.7a1.94,1.94,0,0,1-1.94-1.95V373.4a1.94,1.94,0,1,1,3.88,0v8.35A1.94,1.94,0,0,1,459.17,383.7Z"/><path d="M449.57,383.7a1.94,1.94,0,0,1-1.94-1.95V373.4a1.94,1.94,0,1,1,3.88,0v8.35A1.94,1.94,0,0,1,449.57,383.7Z"/><path d="M496.77,383.7a2,2,0,0,1-1.95-1.95V373.4a1.95,1.95,0,0,1,3.89,0v8.35A1.94,1.94,0,0,1,496.77,383.7Z"/><path d="M506.45,383.7a1.94,1.94,0,0,1-1.94-1.95V373.4a1.94,1.94,0,1,1,3.88,0v8.35A1.94,1.94,0,0,1,506.45,383.7Z"/><path d="M516.13,383.7a1.94,1.94,0,0,1-1.94-1.95V373.4a1.95,1.95,0,0,1,3.89,0v8.35A2,2,0,0,1,516.13,383.7Z"/><path d="M525.82,383.7a2,2,0,0,1-2-1.95V373.4a1.95,1.95,0,0,1,3.89,0v8.35A1.94,1.94,0,0,1,525.82,383.7Z"/><rect x="317" y="638.96" width="285.78" height="8.35" rx="3.74"/></svg>