<svg id="Layer_1" data-name="Layer 1" xmlns="http://www.w3.org/2000/svg" viewBox="0 0 200 200"><defs><style>.cls-1{fill:#fff;}.cls-2{fill:#ff742f;}</style></defs><title>ISFwwPune</title><rect class="cls-1" width="200" height="200"/><path d="M46.63,144.27a1.09,1.09,0,0,1-1.1-1.09V117.81a1.09,1.09,0,0,1,1.1-1.09H59.9a1.09,1.09,0,1,1,0,2.18H47.72v24.28A1.09,1.09,0,0,1,46.63,144.27Z"/><path d="M59.9,144.27a1.09,1.09,0,0,1-1.09-1c0-.53,0-24.68,0-29.52a1.21,1.21,0,0,1,.16-.56c.15-.26,3.82-6.24,10.25-7,4.36-.54,8.84,1.46,13.31,5.93a1.06,1.06,0,0,1,.32.77v30.32a1.09,1.09,0,0,1-2.18,0V113.32c-3.86-3.75-7.61-5.43-11.17-5-4.7.57-7.79,4.7-8.5,5.75,0,8.13,0,28.26,0,29.05a1.1,1.1,0,0,1-1,1.15Z"/><path d="M70.81,144.79a1.09,1.09,0,0,1-1.09-1.1V107.2a1.1,1.1,0,0,1,2.19,0v36.49A1.1,1.1,0,0,1,70.81,144.79Z"/><path d="M81.75,145.52a1.09,1.09,0,0,1-1.09-1.09V100.31H77a1.09,1.09,0,0,1-1.09-1.09v-1.7a1.08,1.08,0,0,1,.41-.85l7-5.59a1.1,1.1,0,0,1,.69-.25h31.16a1.09,1.09,0,0,1,.67.23l7,5.35a1.1,1.1,0,0,1,.43.87v1.91a1.09,1.09,0,0,1-1.09,1.09h-2.87v43.41a1.09,1.09,0,1,1-2.18,0V99.19a1.09,1.09,0,0,1,1.09-1.1H121v-.27L114.74,93H84.33l-6.26,5v.09h3.68a1.09,1.09,0,0,1,1.09,1.09v45.21A1.09,1.09,0,0,1,81.75,145.52Z"/><path d="M90.66,109.8H86.19a.89.89,0,0,1-.89-.9v-4.78a.87.87,0,0,1,.12-.45c.8-1.4,1.77-2.12,2.87-2.13h0c1.77,0,3,1.9,3.1,2.11a.85.85,0,0,1,.13.47v4.78A.89.89,0,0,1,90.66,109.8ZM87.08,108h2.68v-3.62c-.31-.44-.92-1.06-1.44-1.06h0c-.48,0-.94.58-1.23,1Z"/><path d="M98.39,109.8H93.92a.9.9,0,0,1-.9-.9v-4.78a1,1,0,0,1,.12-.45c.81-1.4,1.78-2.12,2.88-2.13h0c1.77,0,3,1.9,3.1,2.11a1,1,0,0,1,.13.47v4.78A.89.89,0,0,1,98.39,109.8ZM94.81,108h2.68v-3.62c-.32-.44-.93-1.06-1.45-1.06s-.94.58-1.23,1Z"/><path d="M106.11,109.8h-4.46a.9.9,0,0,1-.9-.9v-4.78a.87.87,0,0,1,.12-.45c.81-1.4,1.78-2.12,2.88-2.13h0c1.78,0,3,1.9,3.11,2.11a1,1,0,0,1,.13.47v4.78A.9.9,0,0,1,106.11,109.8ZM102.54,108h2.68v-3.62c-.32-.44-.92-1.06-1.45-1.06h0c-.48,0-.93.58-1.22,1Z"/><path d="M113.84,109.8h-4.47a.89.89,0,0,1-.89-.9v-4.78a.87.87,0,0,1,.12-.45c.81-1.4,1.78-2.12,2.88-2.13h0c1.78,0,3,1.9,3.11,2.11a1,1,0,0,1,.13.47v4.78A.9.9,0,0,1,113.84,109.8ZM110.27,108H113v-3.62c-.32-.44-.93-1.06-1.46-1.06s-.94.58-1.22,1Z"/><path d="M107.78,144.59a.89.89,0,0,1-.89-.9v-12.6a11,11,0,0,0-3-7.65c-2.45-2.57-4.9-2.67-7.47-.31a10.8,10.8,0,0,0-3.43,8v12.59a.9.9,0,1,1-1.79,0V131.1a12.59,12.59,0,0,1,4-9.29c3.3-3,6.84-2.88,10,.39a12.78,12.78,0,0,1,3.5,8.89v12.6A.89.89,0,0,1,107.78,144.59Z"/><path d="M99.93,144.88A.89.89,0,0,1,99,144V120.53a.9.9,0,0,1,1.79,0V144A.89.89,0,0,1,99.93,144.88Z"/><path class="cls-2" d="M51.34,126.07a.9.9,0,0,1-.9-.9v-3.84a.9.9,0,0,1,1.79,0v3.84A.89.89,0,0,1,51.34,126.07Z"/><path class="cls-2" d="M55.61,126.07a.9.9,0,0,1-.9-.9v-3.84a.9.9,0,0,1,1.79,0v3.84A.89.89,0,0,1,55.61,126.07Z"/><path d="M63.82,119a.89.89,0,0,1-.9-.89v-3.84a.9.9,0,1,1,1.79,0v3.84A.89.89,0,0,1,63.82,119Z"/><path d="M67.29,119a.89.89,0,0,1-.89-.89v-3.84a.9.9,0,1,1,1.79,0v3.84A.89.89,0,0,1,67.29,119Z"/><path d="M74.52,119a.89.89,0,0,1-.9-.89v-3.84a.9.9,0,1,1,1.79,0v3.84A.89.89,0,0,1,74.52,119Z"/><path d="M78,119a.89.89,0,0,1-.89-.89v-3.84a.9.9,0,1,1,1.79,0v3.84A.89.89,0,0,1,78,119Z"/><path d="M87,117.38a.89.89,0,0,1-.89-.89v-3.85a.89.89,0,0,1,1.78,0v3.85A.89.89,0,0,1,87,117.38Z"/><path d="M90.66,117.38a.89.89,0,0,1-.9-.89v-3.85a.9.9,0,0,1,1.79,0v3.85A.89.89,0,0,1,90.66,117.38Z"/><path d="M94.53,117.38a.89.89,0,0,1-.89-.89v-3.85a.9.9,0,0,1,1.79,0v3.85A.89.89,0,0,1,94.53,117.38Z"/><path d="M98.21,117.38a.89.89,0,0,1-.89-.89v-3.85a.89.89,0,0,1,1.78,0v3.85A.89.89,0,0,1,98.21,117.38Z"/><path d="M102.09,117.38a.89.89,0,0,1-.9-.89v-3.85a.9.9,0,0,1,1.79,0v3.85A.89.89,0,0,1,102.09,117.38Z"/><path d="M105.76,117.38a.89.89,0,0,1-.89-.89v-3.85a.9.9,0,0,1,1.79,0v3.85A.89.89,0,0,1,105.76,117.38Z"/><path d="M109.64,117.38a.89.89,0,0,1-.9-.89v-3.85a.9.9,0,0,1,1.79,0v3.85A.89.89,0,0,1,109.64,117.38Z"/><path d="M113.31,117.38a.89.89,0,0,1-.89-.89v-3.85a.9.9,0,0,1,1.79,0v3.85A.89.89,0,0,1,113.31,117.38Z"/><path d="M59.9,130.07H46.63a1.1,1.1,0,1,1,0-2.19H59.9a1.1,1.1,0,0,1,0,2.19Z"/><path d="M153.37,144.27a1.09,1.09,0,0,1-1.09-1.09V118.9H140.1a1.09,1.09,0,0,1,0-2.18h13.27a1.09,1.09,0,0,1,1.1,1.09v25.37A1.09,1.09,0,0,1,153.37,144.27Z"/><path d="M140.1,144.27H140a1.1,1.1,0,0,1-1-1.15c0-.79,0-20.92,0-29.05-.71-1-3.8-5.18-8.5-5.75-3.56-.42-7.31,1.25-11.17,5v29.86a1.09,1.09,0,0,1-2.18,0V112.86a1.06,1.06,0,0,1,.32-.77c4.47-4.47,9-6.47,13.31-5.93,6.43.78,10.1,6.76,10.25,7a1.21,1.21,0,0,1,.16.56c0,4.84,0,29,0,29.52A1.09,1.09,0,0,1,140.1,144.27Z"/><path d="M129.19,144.79a1.1,1.1,0,0,1-1.1-1.1V107.2a1.1,1.1,0,0,1,2.19,0v36.49A1.09,1.09,0,0,1,129.19,144.79Z"/><path class="cls-2" d="M148.66,126.07a.89.89,0,0,1-.89-.9v-3.84a.9.9,0,0,1,1.79,0v3.84A.9.9,0,0,1,148.66,126.07Z"/><path class="cls-2" d="M144.39,126.07a.89.89,0,0,1-.89-.9v-3.84a.9.9,0,0,1,1.79,0v3.84A.9.9,0,0,1,144.39,126.07Z"/><path d="M136.18,119a.89.89,0,0,1-.89-.89v-3.84a.9.9,0,1,1,1.79,0v3.84A.89.89,0,0,1,136.18,119Z"/><path d="M132.71,119a.89.89,0,0,1-.9-.89v-3.84a.9.9,0,1,1,1.79,0v3.84A.89.89,0,0,1,132.71,119Z"/><path d="M126.11,119a.89.89,0,0,1-.89-.89v-3.84a.89.89,0,1,1,1.78,0v3.84A.89.89,0,0,1,126.11,119Z"/><path d="M122.63,119a.89.89,0,0,1-.89-.89v-3.84a.9.9,0,1,1,1.79,0v3.84A.89.89,0,0,1,122.63,119Z"/><path d="M153.37,130.07H140.1a1.1,1.1,0,0,1,0-2.19h13.27a1.1,1.1,0,1,1,0,2.19Z"/><path class="cls-2" d="M112.64,73.44s8.76-7.43,9.39,1c0,0,11-16.38,23.34-5.13,0,0-5.63-19.7-23.43-13.71C121.94,55.61,110.75,58.21,112.64,73.44Z"/></svg>