<svg id="Layer_1" data-name="Layer 1" xmlns="http://www.w3.org/2000/svg" viewBox="0 0 200 200"><defs><style>.cls-1{fill:#fff;}.cls-2{fill:#0f0f0f;}.cls-3{fill:#fefefe;}.cls-4{fill:#fdfdfd;}.cls-5{fill:#fbfbfb;}.cls-6{fill:#fafafa;}.cls-7{fill:#f8f8f8;}.cls-8{fill:#fcfcfc;}.cls-9{fill:#f5f5f5;}.cls-10{fill:#f4f4f4;}.cls-11{fill:#f7f7f7;}.cls-12{fill:#0e0e0e;}.cls-13{fill:#f3f3f3;}.cls-14{fill:#070707;}.cls-15{fill:#030303;}.cls-16{fill:#ff742f;}</style></defs><title>ISFwwBangalore</title><rect class="cls-1" width="200" height="200"/><path d="M152.72,131c1.75,0,3.49,0,5.23,0,.69,0,1.34.08,1.36.9s-.65,1-1.37,1H41.67a.88.88,0,0,1-1-.9.89.89,0,0,1,1-1c1.59,0,3.18,0,4.77,0,.61,0,.86-.1.85-.8q0-13.53,0-27.08c0-.44,0-.76-.59-.8a.9.9,0,0,1-.21-1.68c.53-.15.44-.49.43-.86a3.94,3.94,0,0,1,1.67-3.55c.52-.39,1-.83,1.54-1.21.79-.57,1.56-1.09,1.35-2.29a.82.82,0,0,1,1-.9.85.85,0,0,1,.86,1,1.65,1.65,0,0,0,1,1.8c.76.48,1.45,1.06,2.18,1.59a3.9,3.9,0,0,1,1.69,3.45c0,.45-.06.82.5,1a.75.75,0,0,1,.42.86.79.79,0,0,1-.7.77c-.58,0-.6.33-.59.79,0,1.15,0,2.3,0,3.45,0,.49.15.65.64.65q6.12,0,12.23,0c.44,0,.6-.12.59-.58,0-1.21,0-2.43,0-3.64,0-.42-.07-.61-.55-.62a.84.84,0,0,1-.85-.83.83.83,0,0,1,.67-1c.4-.08.4-.29.38-.59a4.18,4.18,0,0,1,2-4c.51-.35,1-.79,1.47-1.14a2,2,0,0,0,1.13-2,.83.83,0,0,1,.89-1,.86.86,0,0,1,.94,1c-.14.94.37,1.41,1.06,1.85s1.3,1,2,1.43A4,4,0,0,1,82.1,99.8a.85.85,0,0,0,.4.9.85.85,0,0,1-.25,1.58c-.85.25-.46.83-.47,1.27s.32.21.49.09c1.21-.83,2.4-1.67,3.61-2.49.3-.2.25-.47.25-.75,0-.68,0-1.37,0-2.05a2.85,2.85,0,0,1,2.06-2.7c.4-.08.6-.32.49-.72-.35-1.27.62-2.24.8-3.41.07-.5.65-.43,1-.15a7.29,7.29,0,0,1,.2,2.67c0,1,.13,1.15,1.21,1.16,1.27,0,1.37-.06,1.42-1.13a5.66,5.66,0,0,1,.06-.93,1.1,1.1,0,0,1,1-1,1.17,1.17,0,0,1,1.18.75,3.19,3.19,0,0,1,.21,1.47c0,.58.26.86.85.83.12,0,.25,0,.37,0,1.69,0,1.81.15,1.8-1.59,0-.89.5-1.46,1.13-1.46a1.33,1.33,0,0,1,1.24,1.48c0,1.71.13,1.57,1.72,1.57,1.26,0,1.26,0,1.3-1.31a4.62,4.62,0,0,1,.05-.65,1.19,1.19,0,0,1,1.22-1.07c.66,0,1,.49,1.09,1.08a4.68,4.68,0,0,1,.06,1.12c0,.6.29.8.86.83,1.64.1,1.79,0,1.75-1.63a6.81,6.81,0,0,0-.17-2.66c-.34-.33-.77-.21-1.16-.21-5,0-9.91,0-14.87,0-.75,0-1.51-.43-2.26,0a1.67,1.67,0,0,1-.31,0,.87.87,0,0,1-.89-.78,1,1,0,0,1,.62-1c.76-.42,1.19.23,1.81.63,0-.94.69-.83,1.29-.84.84,0,1.67,0,2.51,0,.29,0,.63.09.85-.22a3.64,3.64,0,0,0,.1-1.39,4.46,4.46,0,0,1,2.11-3.84,1.59,1.59,0,0,1,2.22,0,4.55,4.55,0,0,1,2.15,3.92c0,1.37,0,1.37,1.42,1.37,1.68,0,3.36,0,5,0a1.5,1.5,0,0,0,1.6-1.12,5.48,5.48,0,0,0-2.19-6.87c-2.14-1.45-4.38-2.73-6.58-4.1a2.82,2.82,0,0,0-1.25-.31,7.73,7.73,0,0,0-5.78,1.5A31.51,31.51,0,0,1,91.62,80c-3.3,1.9-4.27,5.16-2.44,8.32a1.21,1.21,0,0,1,.15.44,11.09,11.09,0,0,1-.15,1.62c-.06.3-.19.65-.57.21a1.53,1.53,0,0,1-.92-.73,7.33,7.33,0,0,1-1.08-7.25,8.38,8.38,0,0,0,.55-3.34,10.88,10.88,0,0,1,0-1.4.88.88,0,0,1,1-.84A.86.86,0,0,1,89,78c0,.33,0,.67,0,1.16l2.45-1.5c1.56-1,3.1-2,4.69-2.88a1.34,1.34,0,0,0,.76-1.42c0-.93,0-1.87,0-2.8a3.09,3.09,0,0,1,6.18,0c0,1,0,2.11,0,3.17a.86.86,0,0,0,.44.84l7.3,4.5c.25-.26.13-.55.13-.81,0-.65.23-1.16.91-1.16s1,.53,1,1.21,0,1.44,0,2.15a3.49,3.49,0,0,0,.34,1.61c1.18,2.7,1.07,5.41-.82,7.65a4.74,4.74,0,0,0-1,3.41c0,.25,0,.5,0,.75-.09,1,0,1.7,1.11,2.15a2.33,2.33,0,0,1,1.37,2.56,3.28,3.28,0,0,0,2.07,3.84,12.17,12.17,0,0,1,1.62,1.1c.17.12.37.35.57.21s.1-.63.15-.95-.07-.4-.36-.4a1.46,1.46,0,0,1-.54-.12c-.66-.33-.76-1.31-.08-1.56s.64-.63.63-1.16a3.78,3.78,0,0,1,1.49-3.18c.61-.48,1.2-1,1.83-1.44s1.4-1.07,1.23-2.16a.83.83,0,0,1,.94-.93.84.84,0,0,1,.89,1,1.8,1.8,0,0,0,1.09,1.93c.7.45,1.36,1,2,1.48a3.94,3.94,0,0,1,1.7,3.53.93.93,0,0,0,.42,1,.85.85,0,0,1-.24,1.54.68.68,0,0,0-.54.79c0,1.18,0,2.36,0,3.54,0,.45.14.6.59.59q6.16,0,12.32,0c.4,0,.55-.13.55-.53,0-1.25,0-2.49,0-3.74,0-.38-.08-.56-.5-.57a.86.86,0,0,1-.92-.87.81.81,0,0,1,.71-.94c.45-.07.35-.35.34-.61A4.14,4.14,0,0,1,143.75,96c.56-.39,1.06-.87,1.62-1.26a1.83,1.83,0,0,0,1-1.89.88.88,0,0,1,.93-1,.85.85,0,0,1,.91,1,1.64,1.64,0,0,0,.93,1.74c.78.51,1.51,1.09,2.26,1.64a3.88,3.88,0,0,1,1.65,3.38c0,.46-.11.9.48,1.15.33.14.36.57.26.92-.15.54-.61.66-1.09.71-.26.3-.12.65-.12,1,0,6-.06,12,0,18.05,0,1.14-.62,1.59-1.31,2.13-.39.29-.45-.11-.53-.36-.13-.43.1-1-.31-1.31a8.88,8.88,0,0,0-2.77-.16c-.83,0-1.67,0-2.51,0-.39,0-.79.06-.79.57a25.88,25.88,0,0,0,.13,4.82,2.59,2.59,0,0,1,.89,1.37c.17.64-.1.94-.7,1a8.85,8.85,0,0,1-1,0H126.08a5.87,5.87,0,0,0-.84,0c-.65.09-.75.36-.37,1a3.46,3.46,0,0,0,1.11.1h23.39a4.38,4.38,0,0,0,1-.07c.47-.61.44-.87-.22-1-.46-.11-.87-.21-.76-.81s0-1.32.88-1.39,1.05-.56,1.17-1.22c0-.06,0-.13,0-.19.07-.35,0-.84.54-.83s.56.53.56,1c0,1.37,0,2.73,0,4.1C152.59,130.43,152.44,130.73,152.72,131Z"/><path class="cls-2" d="M152.72,131c-.38-.24-.22-.62-.22-.94,0-1.33,0-2.67,0-4,0-.38-.08-.75-.51-.73s-.22.45-.23.69c-.05,1.12-.41,1.52-1.53,1.67-.86.11-.27.9-.59,1.29s.12.31.35.34c1.12.17,1.31.56.8,1.69-.22-1.15-1-1.2-2-1.2q-11.13,0-22.25,0c-1,0-1.78.08-2,1.21-.56-1.32-.34-1.7,1-1.7h18.76a4.58,4.58,0,0,0,.74,0c.23,0,.46-.21.29-.45-.34-.49-.39-1.27-1.2-1.35a1.43,1.43,0,0,1,1-.29c1.09,0,1.09,0,1.12-1.18a1.58,1.58,0,0,1,.25-1.14c.06,0,.14-.07.17,0a2.83,2.83,0,0,1-.26,3c-.6.5.25.52.26.84a2.08,2.08,0,0,1,.91-2c.4-.28.33-.67.22-1.08s0-.88.62-.73a2.36,2.36,0,0,1,.25,1.54c0,.62.32.8.88.79s1-.12,1-.81c0-1.21,0-2.42,0-3.64a1.75,1.75,0,0,1,.28-1.24c.42.62.06,1.33.24,2,.18-.21.32-.56.53-.6,1.11-.23.91-1.06.91-1.82q0-8.8,0-17.62c0-.34-.17-.75.21-1Q152.71,116.67,152.72,131Z"/><path class="cls-2" d="M90.48,91.37c-.47,0-1.1-.17-.78.73a.78.78,0,0,1-.23.67c-.78.58-.68,1.4-.66,2.2,0,.42,0,.76-.6.68a.66.66,0,0,0,.44-.69c0-1.45,0-2.9,0-4.34.4.15.39-.1.37-.36a4.05,4.05,0,0,1,.19-1.51,1.18,1.18,0,0,1,1-.29c2,0,3.95,0,5.93,0a1.3,1.3,0,0,1,1,.27c-.34.4-.81.19-1.21.2-1.15,0-2.29,0-3.45,0-.06.36.46.76,0,1s-.57-.26-.81-.46-.68-.77-1.26-.38c-.73.5-.64,1,.29,1.57A.51.51,0,0,1,90.48,91.37Z"/><path class="cls-3" d="M97,88.73l-7.83,0a5.83,5.83,0,0,1,1.92-8.67c1.92-1.2,3.87-2.36,5.77-3.6a4.75,4.75,0,0,1,2.35-.68,7.47,7.47,0,0,1,5.29,1.51c1.52,1.12,3.22,2,4.81,3a5.82,5.82,0,0,1,1.93,7.8,1.1,1.1,0,0,1-1.1.64c-2,0-4.11,0-6.16,0-.81,0-1.1-.16-1-1a4.43,4.43,0,0,0-2-4.4,1.44,1.44,0,0,0-1.87,0,4.31,4.31,0,0,0-2,3.86C97,87.73,97,88.23,97,88.73Z"/><path class="cls-3" d="M64.41,119.53c-1.92,0-3.85,0-5.77,0-.62,0-.88-.12-.85-.81.05-1.49,0-3,0-4.47,0-.54.1-.76.71-.76,4,0,8.07,0,12.11,0,.45,0,.66.08.65.6,0,1.59,0,3.17,0,4.75,0,.55-.18.68-.7.67C68.51,119.52,66.46,119.53,64.41,119.53Z"/><path class="cls-3" d="M135.58,113.53c2,0,3.91,0,5.87,0,.63,0,.78.2.76.79,0,1.52,0,3,0,4.57,0,.54-.17.68-.69.67q-6.06,0-12.11,0c-.56,0-.67-.2-.66-.7,0-1.55,0-3.1,0-4.66,0-.54.16-.67.68-.66C131.48,113.54,133.53,113.53,135.58,113.53Z"/><path class="cls-4" d="M90.48,91.37l0-.7h0a1.35,1.35,0,0,1,1-.25c5.7.23,11.39,0,17.09.11.31,0,.68-.2.94.16,0,1.34,0,2.68,0,4,0,.6-.19.8-.75.71a2.61,2.61,0,0,0-.28,0c-.65,0-1.46.2-1.91-.11s-.15-1.21-.18-1.85-.29-1.11-1-1.09-.88.46-.91,1.08.31,1.5-.17,1.85-1.25.11-1.9.12c-1.49,0-1.49,0-1.49-1.53,0-.19,0-.38,0-.56a.93.93,0,1,0-1.86,0c0,.53,0,1.06,0,1.59s-.14.55-.54.54c-.84,0-1.68,0-2.52,0-.44,0-.53-.19-.52-.56s0-1,0-1.5a.91.91,0,0,0-1-1,.88.88,0,0,0-.89,1,1.15,1.15,0,0,1,0,.19c-.07.6.29,1.58-.16,1.74a7.63,7.63,0,0,1-2.67.12c-.37,0-.26-.36-.26-.59C90.5,93.67,90.49,92.52,90.48,91.37Z"/><path class="cls-3" d="M135.59,121.4c1.93,0,3.85,0,5.78,0,.62,0,.87.1.85.8-.06,1.52,0,3,0,4.56,0,.53-.07.79-.69.77-1.46,0-2.93,0-4.39,0-.61,0-.74-.22-.7-.76a11.9,11.9,0,0,0,0-1.58.87.87,0,0,0-.93-1c-.6,0-.88.38-.93,1,0,.06,0,.12,0,.18-.07.7.34,1.65-.18,2s-1.38.1-2.09.1c-1,0-1.93,0-2.89,0-.58,0-.66-.23-.65-.71,0-1.59,0-3.17,0-4.76,0-.54.17-.67.68-.66C131.49,121.42,133.54,121.4,135.59,121.4Z"/><path class="cls-3" d="M64.55,121.4c2,0,4,0,6,0,.54,0,.76.1.74.7-.05,1.59,0,3.17,0,4.76,0,.54-.17.68-.69.67-1.49,0-3,0-4.48,0-.55,0-.69-.19-.66-.7s0-1,0-1.58-.33-1-1-1a.87.87,0,0,0-.9,1,13.87,13.87,0,0,0,0,1.58c.06.61-.2.73-.75.72q-2.14-.06-4.29,0c-.55,0-.77-.11-.75-.72,0-1.58,0-3.17,0-4.75,0-.55.18-.67.69-.67,2,0,4,0,6.06,0Z"/><path class="cls-5" d="M100,129.5h21.56c.49,0,1-.2,1,.71s-.47.76-1,.76H78.31c-.49,0-1,.21-1-.7s.56-.76,1.08-.76Z"/><path class="cls-4" d="M100,99.93c-3.61,0-7.21,0-10.82,0-.39,0-1.12.44-1.14-.56,0-1.32.24-1.91,1.1-2a4.7,4.7,0,0,1,.75,0h20.32c1.55,0,2.1.7,1.85,2.25-.09.58-.49.37-.78.37-3.17,0-6.34,0-9.51,0Z"/><path class="cls-6" d="M118.31,126.48c.11.93-.34,1-1.19,1-11.25,0-22.51,0-33.77,0-1.58,0-1.58,0-1.62-1.52.16-.3.44-.15.67-.16a28.58,28.58,0,0,0,3.33-.18,22.63,22.63,0,0,1,3.48.15c.27,0,.55,0,.83,0,8.12,0,16.23,0,24.34,0a23,23,0,0,0,3.21-.09C118.07,125.64,118.58,125.75,118.31,126.48Z"/><path class="cls-3" d="M49.18,107.06c0-1.31,0-2.61,0-3.92,0-.52.08-.77.7-.75,1.8,0,3.6,0,5.41,0,.55,0,.66.18.66.69,0,2.64,0,5.28,0,7.92,0,.56-.19.68-.7.67-1.8,0-3.6,0-5.4,0-.56,0-.68-.19-.67-.7C49.2,109.67,49.18,108.36,49.18,107.06Z"/><path class="cls-3" d="M144.08,107c0-1.28,0-2.55,0-3.82,0-.53.07-.78.69-.76,1.8,0,3.6,0,5.4,0,.55,0,.68.18.67.69q0,4,0,7.92c0,.55-.18.68-.69.67-1.8,0-3.61,0-5.41,0-.55,0-.68-.18-.66-.7C144.1,109.64,144.08,108.3,144.08,107Z"/><path class="cls-4" d="M73.12,107c0-1.31,0-2.61,0-3.92,0-.47.11-.66.62-.65,1.83,0,3.67,0,5.5,0,.37,0,.73,0,.64.51-.06.34.26.86-.45.9s-.94.49-.93,1.15c0,1,0,2,0,3,0,.58.22,1,.8,1.07s.59.36.59.79c0,1.87,0,1.87-1.81,1.87-1.37,0-2.74,0-4.11,0-.73,0-.88-.22-.86-.9C73.16,109.51,73.12,108.23,73.12,107Z"/><path class="cls-4" d="M126.89,107.11c0,1.31,0,2.61,0,3.92,0,.48-.13.65-.63.64-1.83,0-3.67,0-5.5,0-.49,0-.67-.15-.63-.64a5.79,5.79,0,0,0,0-1c0-.56,0-1,.74-1.06.44,0,.65-.44.65-.89v-3.27a.89.89,0,0,0-.9-1c-.78,0-.43-.59-.48-1s.28-.45.6-.45c1.83,0,3.67,0,5.5,0,.57,0,.66.22.65.71C126.87,104.44,126.89,105.77,126.89,107.11Z"/><path class="cls-3" d="M85.67,103.58c.76-.53,1.53-1,2.28-1.59a1.38,1.38,0,0,1,.88-.18h22.38a1.47,1.47,0,0,1,1,.26c.71.53,1.45,1,2.21,1.56-.34.27-.65.16-.94.16-3.51,0-7,0-10.54,0a1.83,1.83,0,0,1-1.51-.66c-1.2-1.35-1.63-1.35-2.81,0a1.69,1.69,0,0,1-1.42.65c-3.51,0-7,0-10.54,0h-.91Z"/><path class="cls-4" d="M124.49,131c-.1-1.56-.1-1.56,1.4-1.56h23.47c1.5,0,1.5,0,1.42,1.55Z"/><path class="cls-4" d="M62.27,131c-4.07,0-8.15,0-12.23,0-.69,0-.88-.16-.89-.86s.34-.76.9-.76q12.27,0,24.55,0c.62,0,.85.12.85.8s-.24.8-.86.8c-4.1,0-8.21,0-12.32,0Z"/><path class="cls-2" d="M118.31,126.48c0-.62-.41-.55-.82-.55H83.12c-.47,0-.93,0-1.39.07.57-.57,1.28-.18,1.93-.25s1.3.06,1.85-.57,1.2-.36,1.73.13c.2.18.31.46.75.36-.66-.77-1.16-1.61-2.33-1.43-.43.06-.62-.15-.62-.59,0-1.65,0-3.3,0-5,0-.58.3-.65.77-.65,1.49,0,3,0,4.47,0a1.74,1.74,0,0,0,1.66-.6c.14-.18.35-.42.62-.15s.1.48-.16.66-.48.34-.37.68a.23.23,0,0,0,.31.13c.33-.14.79-.09.89-.55a3.06,3.06,0,0,0,0-.74q0-3.64,0-7.28c0-1.43.31-1.63,1.71-1.11l-.11.12c-.9.14-1.15.66-1.14,1.55,0,3.88,0,7.75,0,11.63,0,.89.24,1.41,1.14,1.54l.12.13c-.32.29-.71.14-1.07.17s-.63-.17-.67-.65c-.06-.94.29-1.92-.28-2.81.88-1.55-.44-1.07-1.1-1.2a1.31,1.31,0,0,0-.28,0c-.29-.88-.91-1.09-1.78-1-1.08.07-2.17,0-3.26,0-.69,0-1,.22-1,1,0,1.12,0,2.23,0,3.35,0,.69.31.93,1,.92h3.9a1.83,1.83,0,0,1,1.17.21c-.27.48-.72.21-1.09.26s-.61,0-.8.43c-.51,1.08-.55,1.06.66,1.06h24c.39,0,.82.12,1.15-.21s.87-.86,1.15.13c0,0,.23.07.34,0s.15-.16.11-.28c-.12-.48-.24-1-.37-1.44a1.67,1.67,0,0,1,1.62,0,1.5,1.5,0,0,1,.12.45c-.06,1.08.56,1.38,1.5,1.33.15-.42-.22-.37-.4-.48a1.43,1.43,0,0,1,0-2.57c.13-.08.38-.19.37-.24-.24-1.21,1-1.15,1.47-1.7.27-.3.73-.43.8,0,.12.72.55.36,1.07.49l-1.52-1.7a2.4,2.4,0,0,1,2.43,0c.13.63.75.23,1.07.5.15.14.58-.07.5.35,0,.24-.29.37-.55.44s-.59-.18-.92,0c.16.44.53.29.83.33.61.1,1.28-.23,1.86.22a1.84,1.84,0,0,1-1.25.27h-4.18c-.71,0-1,.25-1,1,0,1.18,0,2.35,0,3.53,0,.64.26.89.89.89,1.46,0,2.92,0,4.37,0,.64,0,.89-.29.89-.9q0-1.77,0-3.54a1.81,1.81,0,0,1,.27-1.24c.23.14.21.36.21.58,0,1.61,0,3.23,0,4.84,0,.56-.18.77-.75.76-1.9,0-3.79,0-5.68,0-.45,0-.72-.11-.7-.62s-.11-.55-.54-.3S118.68,126.6,118.31,126.48Z"/><path class="cls-3" d="M76.55,121.4c.93,0,1.86,0,2.79,0,.4,0,.55.1.54.52,0,1.71,0,3.41,0,5.12,0,.37-.13.48-.49.48-1.92,0-3.85,0-5.77,0-.44,0-.51-.2-.5-.57,0-1.68,0-3.35,0-5,0-.42.17-.52.55-.51Z"/><path class="cls-4" d="M124.1,119.58a11.61,11.61,0,0,0-2.43,0c-1.53-.12-1.53-.12-1.53-1.72,0-1.21,0-2.43,0-3.64,0-.48.07-.72.64-.7,1.84,0,3.67,0,5.51,0,.5,0,.62.17.61.65,0,1.58,0,3.17,0,4.76,0,.51-.19.63-.66.61C125.53,119.52,124.81,119.56,124.1,119.58Z"/><path class="cls-3" d="M147.45,119.53c-.94,0-1.87,0-2.8,0-.46,0-.59-.15-.58-.59,0-1.62,0-3.24,0-4.85,0-.46.14-.58.58-.58,1.87,0,3.73,0,5.6,0,.45,0,.59.13.58.58,0,1.62,0,3.23,0,4.85,0,.44-.13.61-.58.59C149.32,119.51,148.38,119.53,147.45,119.53Z"/><path class="cls-3" d="M52.47,119.53c-.91,0-1.81,0-2.71,0-.45,0-.59-.14-.58-.59,0-1.61,0-3.23,0-4.85,0-.44.12-.59.57-.58,1.87,0,3.74,0,5.6,0,.44,0,.6.11.59.57q0,2.43,0,4.86c0,.54-.23.6-.67.59C54.33,119.52,53.4,119.53,52.47,119.53Z"/><path class="cls-4" d="M76.5,119.53c-.93,0-1.87,0-2.8,0-.45,0-.59-.14-.59-.59,0-1.61,0-3.23,0-4.85,0-.46.15-.59.59-.58,1.87,0,3.74,0,5.6,0,.45,0,.59.12.58.58,0,1.61,0,3.23,0,4.85,0,.44-.12.61-.58.59C78.37,119.51,77.43,119.53,76.5,119.53Z"/><path class="cls-3" d="M103.18,118.26c0,1.67,0,3.35,0,5,0,.58-.11.81-.75.8-1.86-.06-3.72,0-5.58,0a7.8,7.8,0,0,1-.11-2.55,17.29,17.29,0,0,1,.08-3.22h0A43.42,43.42,0,0,1,103.18,118.26Z"/><path class="cls-3" d="M111.65,124.06c-.84,0-1.68,0-2.52,0-.55,0-.67-.18-.67-.69q0-2.28,0-4.56c0-.49.15-.65.64-.65,1.71,0,3.41,0,5.12,0,.41,0,.61.08.6.55,0,1.59,0,3.17,0,4.75,0,.54-.22.6-.66.59C113.32,124,112.48,124.06,111.65,124.06Z"/><path class="cls-4" d="M91.56,124c-2,.16-3.91,0-5.86.08-.45,0-.49-.21-.49-.57,0-1.58,0-3.17,0-4.75,0-.48.19-.56.6-.55,1.59,0,3.17.06,4.75,0,.84,0,1.14.23,1,1a1.55,1.55,0,0,0,0,.37Z"/><path class="cls-4" d="M64.54,111.66c-2,0-4,0-6,0-.6,0-.79-.15-.78-.78,0-1.84,0-1.85,1.84-1.85,3.6,0,7.2,0,10.81,0,.65,0,.83.16.82.82,0,1.81,0,1.81-1.78,1.81Z"/><path class="cls-4" d="M135.47,111.66c-2,0-3.91,0-5.87,0-.62,0-.87-.1-.86-.79,0-1.83,0-1.84,1.85-1.84,3.6,0,7.21,0,10.81,0,.66,0,.83.19.82.83,0,1.8,0,1.8-1.81,1.8Z"/><path class="cls-4" d="M49.18,124.33c0-.77,0-1.55,0-2.32,0-.51.17-.63.64-.62,1.83,0,3.66,0,5.5,0,.47,0,.64.12.63.62,0,1.65,0,3.29,0,4.94,0,.47-.18.55-.6.56-1.83.08-1.83.09-1.85-1.73a4.54,4.54,0,0,0,0-.74.89.89,0,0,0-.88-.81.85.85,0,0,0-1,.83,14.42,14.42,0,0,0,0,1.86c0,.42-.09.59-.56.61-1.89.09-1.89.11-1.89-1.8Z"/><path class="cls-4" d="M150.81,121.44c0,1.79,0,3.58,0,5.37,0,.6-.19.7-.74.7-1.69,0-1.68,0-1.71-1.66,0-.35.12-.74-.14-1.06a1.53,1.53,0,0,0-1.57-.06,5.07,5.07,0,0,0-.15,2.19c0,.44-.14.61-.59.58-.61,0-1.23,0-1.85-.07,0-1.8,0-3.6,0-5.4,0-.45.09-.65.6-.64C146.72,121.43,148.76,121.43,150.81,121.44Z"/><path class="cls-7" d="M88.7,105.65h7.56c.43,0,.85-.11.8.63s-.08.93-.85.92c-5,0-10,0-15,0-.62,0-.84-.12-.86-.8s.36-.75.91-.75C83.73,105.66,86.21,105.65,88.7,105.65Z"/><path class="cls-7" d="M111.21,107.18c-2.49,0-5,0-7.46,0-.73,0-.76-.3-.79-.87s.23-.69.75-.69c5.06,0,10.13,0,15.2,0,.66,0,.73.24.76.8s-.24.76-.81.75C116.31,107.17,113.76,107.18,111.21,107.18Z"/><path class="cls-8" d="M52.47,100.49c-1,0-1.93,0-2.89,0-.53,0-.73-.19-.76-.69a2.16,2.16,0,0,1,.78-2c.83-.65,1.68-1.29,2.48-2,.32-.27.53-.18.8,0l2.62,1.94A1.92,1.92,0,0,1,56.24,99c.3,1.15,0,1.52-1.16,1.52Z"/><path class="cls-4" d="M76.43,100.49c-1,0-1.93,0-2.89,0-.6,0-.75-.26-.78-.76a2,2,0,0,1,.71-1.83c.83-.7,1.71-1.35,2.54-2a.55.55,0,0,1,.81,0c.86.66,1.74,1.3,2.62,1.94a2.07,2.07,0,0,1,.7,1c.42,1.18,0,1.72-1.19,1.72Z"/><path class="cls-4" d="M123.52,100.49c-1,0-2,0-3,0-.59,0-.75-.24-.78-.76a2.18,2.18,0,0,1,.84-2c.78-.62,1.58-1.21,2.33-1.86a.64.64,0,0,1,1,0c.81.63,1.64,1.22,2.47,1.83a2.1,2.1,0,0,1,.82,1.2c.3,1.13,0,1.53-1.14,1.53Z"/><path class="cls-8" d="M147.4,100.49c-1,0-2,0-3,0-.49,0-.67-.19-.71-.63a2.19,2.19,0,0,1,.81-2.07c.81-.64,1.63-1.25,2.41-1.91.35-.3.57-.21.87,0,.82.62,1.65,1.22,2.48,1.82a2.09,2.09,0,0,1,.81,1.11c.38,1.21.07,1.65-1.17,1.65Z"/><path class="cls-9" d="M83.33,116.48c0,2.27,0,4.54,0,6.8,0,.69-.25.79-.86.81s-.76-.22-.76-.8q0-6.75,0-13.51c0-.65.24-.76.81-.76s.83.08.82.76C83.3,112,83.33,114.25,83.33,116.48Z"/><path class="cls-10" d="M118.28,124a4,4,0,0,1-1.62,0c0-4.66,0-9.31,0-14,0-.75.16-1,1-1s.65.36.65.82c0,3.36,0,6.71,0,10.06C118.27,121.26,118.27,122.63,118.28,124Z"/><path class="cls-4" d="M106.6,116.49c0,2.27,0,4.54,0,6.81,0,.59-.14.78-.76.79s-.82-.21-.81-.85c0-4.48,0-8.95,0-13.43,0-.6.15-.81.77-.79s.82.09.8.75C106.57,112,106.6,114.25,106.6,116.49Z"/><path class="cls-11" d="M88.37,116.32H86a1.68,1.68,0,0,1-.55,0,4.87,4.87,0,0,1-.06-2.73,1,1,0,0,1,.46,0c1.71,0,3.41,0,5.12,0,.48,0,.62.14.64.63.08,2.17.1,2.17-2.07,2.17Z"/><path class="cls-11" d="M111.78,113.52H114c.16,0,.36-.06.46,0,.73.58.21,1.39.34,2.08,0,.32.1.71-.45.7a50.94,50.94,0,0,1-5.39,0c-1.12-.13-.28-1.27-.48-1.93-.1-.32-.19-.84.5-.82C109.92,113.54,110.85,113.52,111.78,113.52Z"/><path class="cls-6" d="M96.84,113.6l5.94-.07s.07,0,.09,0c.67.7.16,1.55.3,2.32.09.46-.25.47-.58.47l-4.83.06c-.78.24-1.17,0-1.18-.8A11,11,0,0,1,96.84,113.6Z"/><path class="cls-5" d="M100,111.66c-.87,0-1.74,0-2.61,0-.44,0-.57-.15-.59-.59-.1-2-.11-2,1.92-2,1.27,0,2.55,0,3.82,0,.48,0,.62.14.63.63.06,2,.08,2-1.87,2Z"/><path class="cls-8" d="M88.32,109c.87,0,1.74,0,2.61,0,.5,0,.61.17.63.64.06,2,.07,2-1.9,2-1.27,0-2.54,0-3.81,0-.46,0-.64-.1-.66-.61-.08-2-.1-2,1.92-2Z"/><path class="cls-8" d="M111.55,111.66c-.78,0-1.56,0-2.33,0-.53,0-.76-.09-.76-.7,0-1.93,0-1.93,1.85-1.93,1.31,0,2.61,0,3.91,0,.41,0,.59.07.61.54.1,2.08.12,2.08-2,2.08Z"/><path class="cls-11" d="M98.79,71.93c0-.47,0-.93,0-1.4a1.22,1.22,0,0,1,2.43,0c0,.93,0,1.86,0,2.79,0,.47-.13.63-.63.64C98.78,74,98.79,74.05,98.79,71.93Z"/><path class="cls-12" d="M96.84,113.6a12.76,12.76,0,0,1,0,1.75c-.11.78.23,1.05.94,1-.32,1.46-1.19,1.6-2.46.73-.14.63-.14.65.35.77.22.05.47.06.53.3a.48.48,0,0,1-.37.57c-.71.23-.65.78-.67,1.35a18.19,18.19,0,0,1-.15,4l0,0a1.55,1.55,0,0,1-.28-1.14q0-6.31,0-12.63a1.58,1.58,0,0,1,.29-1.14l0,0a8.08,8.08,0,0,1,.16,2.73c0,.79,0,1.6,0,2.4,0,.26-.16.82.23.73s1.12,0,1.24-.69C96.67,114,96.58,113.76,96.84,113.6Z"/><path class="cls-6" d="M101.11,87.6c-.07.31.2.94-.13,1.05a6.22,6.22,0,0,1-1.84.09.22.22,0,0,1-.23-.23c0-.91-.24-1.87.33-2.73s1-.85,1.55,0A2.87,2.87,0,0,1,101.11,87.6Z"/><path class="cls-13" d="M100,107.18c-.41-.09-1.17.33-1.08-.69.06-.68.77-2,1.13-2s1.1,1.39,1.11,2S101.13,107.18,100,107.18Z"/><path class="cls-2" d="M109.5,90.7a5.14,5.14,0,0,0-.55-.06H91c-.15,0-.3,0-.46,0,.42-.33.78-.77,1.41-.32.22.16.61.08.92.08h15.67C108.84,90.44,109.27,90.23,109.5,90.7Z"/><path class="cls-12" d="M103.18,118.26a56,56,0,0,0-6.35,0c.1-.07.19-.19.29-.19q2.88,0,5.76,0C103,118.08,103.08,118.2,103.18,118.26Z"/><path class="cls-12" d="M96.83,118.27l0,5.77c-.24-.12-.22-.35-.22-.56v-4.72A.54.54,0,0,1,96.83,118.27Z"/><path d="M146.67,124.73c.64-.73,1-.72,1.57.06-.36.15-.44.33-.22.71a.86.86,0,0,1-.38,1.37c-1,.54-.88,1.38-.49,2.32a3.7,3.7,0,0,1-1.58-1.56c1.13.18,1.19-.41,1.14-1.13S146.68,125.32,146.67,124.73Z"/><path d="M148.12,127.53c.5.07.78.31.81.78,0,.31-.21.54-.43.47s-.8-.24-.83-.72A.49.49,0,0,1,148.12,127.53Z"/><path class="cls-14" d="M64.52,117.62c-.54-.06-.93-.32-.94-.91a.87.87,0,0,1,.9-1,.84.84,0,0,1,1,.89A.92.92,0,0,1,64.52,117.62Z"/><path class="cls-14" d="M134.55,116.68c.11-.6.42-1,1-1a.85.85,0,0,1,.89,1,.87.87,0,0,1-1,.9A.91.91,0,0,1,134.55,116.68Z"/><path class="cls-15" d="M53.48,107.05a9.75,9.75,0,0,1,0,1.21.85.85,0,0,1-.87.8.83.83,0,0,1-1-.81,19.38,19.38,0,0,1,0-2.41.84.84,0,0,1,.92-.84.85.85,0,0,1,.92.85c0,.4,0,.8,0,1.2Z"/><path class="cls-15" d="M148.39,107c0,.37,0,.74,0,1.11,0,.63-.34,1-1,1a.88.88,0,0,1-.89-1c0-.68,0-1.36,0-2s.28-1,.93-1,.93.4.94,1C148.39,106.33,148.39,106.64,148.39,107Z"/><path class="cls-16" d="M77.43,107c0,.37,0,.74,0,1.11a.94.94,0,1,1-1.87,0c0-.75,0-1.49,0-2.23a.86.86,0,0,1,1-.88.85.85,0,0,1,.88.89C77.44,106.27,77.43,106.64,77.43,107Z"/><path class="cls-16" d="M124.43,107a9.59,9.59,0,0,1,0,1.2.85.85,0,0,1-.94.83.84.84,0,0,1-.89-.87c0-.74,0-1.49,0-2.23a.86.86,0,0,1,.9-1c.64,0,.94.39,1,1,0,.34,0,.68,0,1Z"/><path class="cls-3" d="M126.88,121.45c0,1.77,0,3.54,0,5.31,0,.55-.12.76-.71.75-1.8,0-3.61,0-5.41,0-.47,0-.64-.11-.63-.61,0-1.62,0-3.23,0-4.85,0-.46.08-.65.6-.64,2.05,0,4.1,0,6.15.06Z"/><path class="cls-8" d="M95,109.12V124c-1.51.06-1.51.06-1.51-1.47V110.43C93.43,109,93.43,109,95,109.12Z"/><path class="cls-16" d="M77.31,124.52a.89.89,0,0,1-.94.91.85.85,0,0,1-.92-.93.87.87,0,0,1,.93-.94C76.94,123.55,77.27,123.91,77.31,124.52Z"/><path class="cls-16" d="M124.45,116.66c-.07.58-.37,1-1,1a.86.86,0,0,1-.92-.94.87.87,0,0,1,.93-.93A.89.89,0,0,1,124.45,116.66Z"/><path class="cls-14" d="M148.38,116.71a.88.88,0,0,1-.95.89.85.85,0,0,1-.91-.95.87.87,0,0,1,.95-.91A.88.88,0,0,1,148.38,116.71Z"/><path class="cls-14" d="M52.58,117.62a.9.9,0,0,1-.95-.91.89.89,0,0,1,.9-1,.85.85,0,0,1,.95.9A.91.91,0,0,1,52.58,117.62Z"/><path class="cls-16" d="M76.38,115.71c.57.08.93.38.92,1a.88.88,0,0,1-.94.93.86.86,0,0,1-.91-1A.93.93,0,0,1,76.38,115.71Z"/><path class="cls-16" d="M123.48,123.54a.91.91,0,0,1,1,.92.85.85,0,0,1-.89,1,.84.84,0,0,1-1-.89C122.56,124,122.91,123.64,123.48,123.54Z"/><path class="cls-16" d="M64.47,80.82S68,75.18,69.81,79.7c0,0,3.13-11,11.91-7,0,0-6.6-9.83-15.31-3.37C66.41,69.36,60.71,72.78,64.47,80.82Z"/></svg>