<svg width="100" height="100" viewBox="0 0 100 100" fill="none" xmlns="http://www.w3.org/2000/svg">
<circle cx="50" cy="50" r="50" fill="white"/>
<g clip-path="url(#clip0_44_46)">
<path d="M26.2814 40.6471H23.6455C22.7394 40.6471 22.0049 41.3817 22.0049 42.2877C22.0049 43.1938 22.7394 43.9283 23.6455 43.9283H26.2814C28.4546 43.8483 28.4554 40.7275 26.2814 40.6471Z" fill="#F65E5E"/>
<path d="M76.3649 40.6471H73.729C72.8229 40.6471 72.0884 41.3817 72.0884 42.2877C72.0884 43.1938 72.8229 43.9283 73.729 43.9283H76.3649C78.5382 43.8483 78.5389 40.7275 76.3649 40.6471Z" fill="#F65E5E"/>
<path d="M32.0698 26.6723C33.6629 28.1524 35.8705 25.9463 34.3899 24.3522L32.5263 22.4885C31.8857 21.8479 30.8468 21.8479 30.2061 22.4885C29.5654 23.1291 29.5654 24.168 30.2061 24.8087L32.0698 26.6723Z" fill="#F65E5E"/>
<path d="M67.9407 57.9031C66.3474 56.4231 64.14 58.6292 65.6205 60.2232L67.4841 62.0869C68.1246 62.7274 69.1634 62.7278 69.8043 62.0869C70.445 61.4463 70.445 60.4074 69.8043 59.7667L67.9407 57.9031Z" fill="#F65E5E"/>
<path d="M32.0698 57.903L30.2061 59.7667C29.5654 60.4073 29.5654 61.4461 30.2061 62.0868C30.8466 62.7273 31.8854 62.7278 32.5263 62.0868L34.3899 60.2232C35.8701 58.6299 33.6637 56.4226 32.0698 57.903Z" fill="#F65E5E"/>
<path d="M67.4843 22.4886L65.6207 24.3522C64.98 24.9928 64.98 26.0317 65.6207 26.6724C66.2612 27.3129 67.2999 27.3133 67.9408 26.6724L69.8045 24.8087C71.2847 23.2155 69.0783 21.0083 67.4843 22.4886Z" fill="#F65E5E"/>
<path d="M57.7142 43.9284L54.62 47.0226C56.345 50.3591 53.7784 54.5228 50.0052 54.4724C47.1626 54.4724 44.8499 52.1598 44.8499 49.3171C44.7998 45.5441 48.9632 42.9771 52.2998 44.7024L55.8744 41.1276C56.182 40.8199 56.5994 40.647 57.0345 40.647H68.2662C65.7236 18.5331 34.2786 18.5493 31.7441 40.647H42.2964L45.3906 37.5528C43.6656 34.2164 46.2321 30.0527 50.0054 30.1031C52.848 30.1031 55.1606 32.4157 55.1606 35.2583C55.2107 39.0313 51.0473 41.5984 47.7108 39.8729L44.1361 43.4477C43.8285 43.7554 43.4112 43.9283 42.9761 43.9283H31.7453C32.1589 48.5115 34.2914 52.787 37.7415 55.8509C39.6204 57.5877 40.8392 59.9215 41.2128 62.4267C41.2168 62.4261 58.7916 62.4261 58.7978 62.4267C59.1712 59.9221 60.3901 57.588 62.2692 55.8509C65.7192 52.7871 67.8519 48.5115 68.2653 43.9283H57.7142V43.9284Z" fill="#F65E5E"/>
<path d="M41.3354 67.5818C41.3354 71.8015 44.3662 75.3247 48.3648 76.094C48.2017 78.636 51.8098 78.6345 51.6461 76.094C55.6447 75.3247 58.6754 71.8015 58.6754 67.5818V65.7078H41.3354V67.5818Z" fill="#F65E5E"/>
<path d="M51.8794 35.2586C51.8794 34.2253 51.0386 33.3845 50.0053 33.3845C47.5226 33.4788 47.5233 37.0386 50.0053 37.1326C51.0386 37.1325 51.8794 36.2918 51.8794 35.2586Z" fill="#F65E5E"/>
<path d="M48.1313 49.317C48.1313 50.3503 48.9721 51.1911 50.0054 51.1911C52.4881 51.0968 52.4874 47.537 50.0054 47.4431C48.9721 47.4431 48.1313 48.2838 48.1313 49.317Z" fill="#F65E5E"/>
</g>
<defs>
<clipPath id="clip0_44_46">
<rect width="56" height="56" fill="white" transform="translate(22 22)"/>
</clipPath>
</defs>
</svg>
