<svg width="200" height="200" viewBox="0 0 200 200" fill="none" xmlns="http://www.w3.org/2000/svg">
<circle cx="100" cy="100" r="100" fill="white"/>
<circle cx="100" cy="100" r="95" fill="url(#paint0_linear_35_9)"/>
<path d="M49.8034 137V128.273H53.2466C53.9057 128.273 54.4682 128.391 54.9341 128.626C55.4029 128.859 55.7594 129.19 56.0037 129.619C56.2509 130.045 56.3745 130.547 56.3745 131.124C56.3745 131.703 56.2495 132.202 55.9995 132.619C55.7495 133.034 55.3873 133.352 54.9128 133.574C54.4412 133.795 53.8702 133.906 53.1998 133.906H50.8944V132.423H52.9015C53.2537 132.423 53.5463 132.375 53.7793 132.278C54.0123 132.182 54.1855 132.037 54.2992 131.844C54.4157 131.651 54.4739 131.411 54.4739 131.124C54.4739 130.834 54.4157 130.589 54.2992 130.391C54.1855 130.192 54.0108 130.041 53.775 129.939C53.5421 129.834 53.248 129.781 52.8929 129.781H51.6486V137H49.8034ZM54.5165 133.028L56.6855 137H54.6486L52.5265 133.028H54.5165ZM58.6784 137V128.273H64.5591V129.794H60.5236V131.874H64.2566V133.395H60.5236V135.479H64.5762V137H58.6784ZM72.813 131.094C72.7534 130.886 72.6696 130.703 72.5616 130.544C72.4537 130.382 72.3216 130.246 72.1653 130.135C72.0119 130.021 71.8358 129.935 71.6369 129.875C71.4409 129.815 71.2235 129.786 70.9849 129.786C70.5389 129.786 70.1468 129.896 69.8088 130.118C69.4735 130.339 69.2122 130.662 69.0247 131.085C68.8372 131.506 68.7434 132.02 68.7434 132.628C68.7434 133.236 68.8358 133.753 69.0204 134.179C69.2051 134.605 69.4664 134.93 69.8045 135.155C70.1426 135.376 70.5417 135.487 71.002 135.487C71.4196 135.487 71.7761 135.413 72.0716 135.266C72.3699 135.115 72.5971 134.903 72.7534 134.631C72.9125 134.358 72.992 134.036 72.992 133.663L73.367 133.719H71.117V132.33H74.769V133.429C74.769 134.196 74.6071 134.855 74.2832 135.406C73.9593 135.955 73.5133 136.378 72.9451 136.676C72.377 136.972 71.7264 137.119 70.9934 137.119C70.1752 137.119 69.4565 136.939 68.8372 136.578C68.2179 136.214 67.7349 135.699 67.3883 135.031C67.0446 134.361 66.8727 133.565 66.8727 132.645C66.8727 131.937 66.975 131.307 67.1795 130.753C67.3869 130.196 67.6767 129.724 68.0488 129.338C68.421 128.952 68.8542 128.658 69.3485 128.456C69.8429 128.254 70.3784 128.153 70.9551 128.153C71.4494 128.153 71.9096 128.226 72.3358 128.371C72.7619 128.513 73.1397 128.714 73.4693 128.976C73.8017 129.237 74.073 129.548 74.2832 129.909C74.4934 130.267 74.6284 130.662 74.688 131.094H72.813ZM79.0002 128.273V137H77.155V128.273H79.0002ZM86.2527 130.783C86.2186 130.439 86.0723 130.172 85.8137 129.982C85.5552 129.791 85.2044 129.696 84.7612 129.696C84.46 129.696 84.2058 129.739 83.9984 129.824C83.791 129.906 83.6319 130.021 83.5211 130.169C83.4132 130.317 83.3592 130.484 83.3592 130.672C83.3535 130.828 83.3862 130.964 83.4572 131.081C83.5311 131.197 83.6319 131.298 83.7598 131.384C83.8876 131.466 84.0353 131.538 84.2029 131.601C84.3706 131.661 84.5495 131.712 84.7399 131.754L85.524 131.942C85.9047 132.027 86.2541 132.141 86.5723 132.283C86.8904 132.425 87.166 132.599 87.399 132.807C87.6319 133.014 87.8123 133.259 87.9402 133.54C88.0708 133.821 88.1376 134.143 88.1404 134.507C88.1376 135.041 88.0012 135.504 87.7314 135.896C87.4643 136.286 87.0779 136.588 86.5723 136.804C86.0694 137.017 85.4629 137.124 84.7527 137.124C84.0481 137.124 83.4345 137.016 82.9118 136.8C82.3919 136.584 81.9856 136.264 81.693 135.841C81.4032 135.415 81.2512 134.888 81.237 134.26H83.0225C83.0424 134.553 83.1262 134.797 83.274 134.993C83.4245 135.186 83.6248 135.332 83.8748 135.432C84.1277 135.528 84.4132 135.577 84.7314 135.577C85.0439 135.577 85.3152 135.531 85.5453 135.44C85.7782 135.349 85.9586 135.223 86.0865 135.061C86.2143 134.899 86.2782 134.713 86.2782 134.503C86.2782 134.307 86.22 134.142 86.1035 134.009C85.9899 133.875 85.8223 133.761 85.6007 133.668C85.3819 133.574 85.1135 133.489 84.7953 133.412L83.845 133.173C83.1092 132.994 82.5282 132.714 82.1021 132.334C81.676 131.953 81.4643 131.44 81.4672 130.795C81.4643 130.267 81.6049 129.805 81.889 129.411C82.176 129.016 82.5694 128.707 83.0694 128.486C83.5694 128.264 84.1376 128.153 84.774 128.153C85.4217 128.153 85.987 128.264 86.47 128.486C86.9558 128.707 87.3336 129.016 87.6035 129.411C87.8734 129.805 88.0126 130.263 88.0211 130.783H86.2527ZM90.0492 129.794V128.273H97.2168V129.794H94.5449V137H92.7211V129.794H90.0492ZM99.3972 137V128.273H105.278V129.794H101.242V131.874H104.975V133.395H101.242V135.479H105.295V137H99.3972ZM107.745 137V128.273H111.188C111.847 128.273 112.41 128.391 112.876 128.626C113.344 128.859 113.701 129.19 113.945 129.619C114.192 130.045 114.316 130.547 114.316 131.124C114.316 131.703 114.191 132.202 113.941 132.619C113.691 133.034 113.329 133.352 112.854 133.574C112.383 133.795 111.812 133.906 111.141 133.906H108.836V132.423H110.843C111.195 132.423 111.488 132.375 111.721 132.278C111.954 132.182 112.127 132.037 112.241 131.844C112.357 131.651 112.415 131.411 112.415 131.124C112.415 130.834 112.357 130.589 112.241 130.391C112.127 130.192 111.952 130.041 111.716 129.939C111.483 129.834 111.189 129.781 110.834 129.781H109.59V137H107.745ZM112.458 133.028L114.627 137H112.59L110.468 133.028H112.458ZM127.697 128.273V137H126.103L122.306 131.507H122.242V137H120.397V128.273H122.017L125.784 133.761H125.86V128.273H127.697ZM138.241 132.636C138.241 133.588 138.061 134.398 137.7 135.065C137.342 135.733 136.854 136.243 136.234 136.595C135.618 136.945 134.925 137.119 134.155 137.119C133.379 137.119 132.683 136.943 132.067 136.591C131.45 136.239 130.963 135.729 130.605 135.061C130.247 134.393 130.068 133.585 130.068 132.636C130.068 131.685 130.247 130.875 130.605 130.207C130.963 129.54 131.45 129.031 132.067 128.682C132.683 128.33 133.379 128.153 134.155 128.153C134.925 128.153 135.618 128.33 136.234 128.682C136.854 129.031 137.342 129.54 137.7 130.207C138.061 130.875 138.241 131.685 138.241 132.636ZM136.371 132.636C136.371 132.02 136.278 131.5 136.094 131.077C135.912 130.653 135.655 130.332 135.322 130.114C134.99 129.895 134.601 129.786 134.155 129.786C133.709 129.786 133.319 129.895 132.987 130.114C132.655 130.332 132.396 130.653 132.211 131.077C132.03 131.5 131.939 132.02 131.939 132.636C131.939 133.253 132.03 133.773 132.211 134.196C132.396 134.619 132.655 134.94 132.987 135.159C133.319 135.378 133.709 135.487 134.155 135.487C134.601 135.487 134.99 135.378 135.322 135.159C135.655 134.94 135.912 134.619 136.094 134.196C136.278 133.773 136.371 133.253 136.371 132.636ZM142.244 137L139.747 128.273H141.763L143.208 134.337H143.28L144.874 128.273H146.6L148.189 134.349H148.266L149.71 128.273H151.726L149.229 137H147.431L145.769 131.294H145.7L144.043 137H142.244Z" fill="white"/>
<path d="M68.3665 93.2727H69.679V99.4602C69.679 100.02 69.5682 100.499 69.3466 100.896C69.1278 101.294 68.8196 101.598 68.4219 101.808C68.0241 102.016 67.5582 102.119 67.0241 102.119C66.5327 102.119 66.0909 102.03 65.6989 101.851C65.3097 101.672 65.0014 101.412 64.7741 101.071C64.5497 100.727 64.4375 100.31 64.4375 99.8182H65.7457C65.7457 100.06 65.8011 100.268 65.9119 100.445C66.0256 100.621 66.1804 100.759 66.3764 100.858C66.5753 100.955 66.8026 101.003 67.0582 101.003C67.3366 101.003 67.5724 100.945 67.7656 100.828C67.9616 100.709 68.1108 100.534 68.2131 100.304C68.3153 100.074 68.3665 99.7926 68.3665 99.4602V93.2727ZM78.2077 93.2727H79.5288V99.0128C79.5288 99.6236 79.3853 100.165 79.0984 100.636C78.8114 101.105 78.408 101.474 77.8881 101.744C77.3683 102.011 76.7589 102.145 76.06 102.145C75.364 102.145 74.756 102.011 74.2362 101.744C73.7163 101.474 73.3129 101.105 73.0259 100.636C72.739 100.165 72.5955 99.6236 72.5955 99.0128V93.2727H73.9123V98.9062C73.9123 99.3011 73.9989 99.652 74.1722 99.9588C74.3484 100.266 74.5969 100.507 74.918 100.683C75.239 100.857 75.6197 100.943 76.06 100.943C76.5032 100.943 76.8853 100.857 77.2063 100.683C77.5302 100.507 77.7773 100.266 77.9478 99.9588C78.1211 99.652 78.2077 99.3011 78.2077 98.9062V93.2727ZM89.4872 93.2727V102H88.277L83.8409 95.5994H83.7599V102H82.4432V93.2727H83.6619L88.1023 99.6818H88.1832V93.2727H89.4872ZM92.408 102V93.2727H97.8796V94.4062H93.7248V97.0653H97.5941V98.1946H93.7248V100.866H97.9308V102H92.408ZM104.695 102V101.045L107.648 97.9858C107.963 97.6534 108.223 97.3622 108.428 97.1122C108.635 96.8594 108.79 96.6193 108.892 96.392C108.995 96.1648 109.046 95.9233 109.046 95.6676C109.046 95.3778 108.978 95.1278 108.841 94.9176C108.705 94.7045 108.519 94.5412 108.283 94.4276C108.047 94.3111 107.782 94.2528 107.486 94.2528C107.174 94.2528 106.901 94.3168 106.668 94.4446C106.435 94.5724 106.256 94.7528 106.131 94.9858C106.006 95.2187 105.944 95.4915 105.944 95.804H104.686C104.686 95.2727 104.809 94.8082 105.053 94.4105C105.297 94.0128 105.632 93.7045 106.059 93.4858C106.485 93.2642 106.969 93.1534 107.512 93.1534C108.06 93.1534 108.543 93.2628 108.961 93.4815C109.381 93.6974 109.709 93.9929 109.945 94.3679C110.181 94.7401 110.299 95.1605 110.299 95.6293C110.299 95.9531 110.238 96.2699 110.115 96.5795C109.996 96.8892 109.787 97.2344 109.489 97.6151C109.191 97.9929 108.776 98.4517 108.245 98.9915L106.51 100.807V100.871H110.439V102H104.695ZM116.093 102.145C115.419 102.142 114.844 101.964 114.367 101.612C113.89 101.26 113.525 100.747 113.272 100.074C113.019 99.4006 112.892 98.5895 112.892 97.6406C112.892 96.6946 113.019 95.8864 113.272 95.2159C113.527 94.5455 113.894 94.0341 114.371 93.6818C114.851 93.3295 115.425 93.1534 116.093 93.1534C116.76 93.1534 117.333 93.331 117.81 93.6861C118.287 94.0384 118.652 94.5497 118.905 95.2202C119.161 95.8878 119.289 96.6946 119.289 97.6406C119.289 98.5923 119.162 99.4048 118.909 100.078C118.657 100.749 118.292 101.261 117.814 101.616C117.337 101.969 116.763 102.145 116.093 102.145ZM116.093 101.007C116.684 101.007 117.145 100.719 117.478 100.142C117.813 99.5653 117.98 98.7315 117.98 97.6406C117.98 96.9162 117.904 96.304 117.75 95.804C117.6 95.3011 117.382 94.9205 117.098 94.6619C116.817 94.4006 116.482 94.2699 116.093 94.2699C115.505 94.2699 115.043 94.5597 114.708 95.1392C114.373 95.7187 114.203 96.5526 114.201 97.6406C114.201 98.3679 114.276 98.983 114.426 99.4858C114.58 99.9858 114.797 100.365 115.078 100.624C115.36 100.879 115.698 101.007 116.093 101.007ZM121.8 102V101.045L124.754 97.9858C125.069 97.6534 125.329 97.3622 125.533 97.1122C125.741 96.8594 125.896 96.6193 125.998 96.392C126.1 96.1648 126.151 95.9233 126.151 95.6676C126.151 95.3778 126.083 95.1278 125.947 94.9176C125.81 94.7045 125.624 94.5412 125.388 94.4276C125.153 94.3111 124.887 94.2528 124.592 94.2528C124.279 94.2528 124.006 94.3168 123.773 94.4446C123.54 94.5724 123.362 94.7528 123.237 94.9858C123.112 95.2187 123.049 95.4915 123.049 95.804H121.792C121.792 95.2727 121.914 94.8082 122.158 94.4105C122.403 94.0128 122.738 93.7045 123.164 93.4858C123.59 93.2642 124.075 93.1534 124.617 93.1534C125.165 93.1534 125.648 93.2628 126.066 93.4815C126.487 93.6974 126.815 93.9929 127.05 94.3679C127.286 94.7401 127.404 95.1605 127.404 95.6293C127.404 95.9531 127.343 96.2699 127.221 96.5795C127.102 96.8892 126.893 97.2344 126.594 97.6151C126.296 97.9929 125.881 98.4517 125.35 98.9915L123.616 100.807V100.871H127.545V102H121.8ZM129.789 100.295V99.2301L133.56 93.2727H134.4V94.8409H133.867L131.17 99.1108V99.179H136.339V100.295H129.789ZM133.927 102V99.9716L133.935 99.4858V93.2727H135.184V102H133.927Z" fill="white"/>
<path d="M58.8198 77V75.6157L59.9478 75.3887V67.9546L58.8198 67.7275V66.3359H63.4048V67.7275L62.2842 67.9546V75.3887L63.4048 75.6157V77H58.8198ZM70.627 77.1538C69.8018 77.1538 69.0596 77.0684 68.4004 76.8975C67.7412 76.7266 67.0894 76.4189 66.4448 75.9746V73.3013H68.2539L68.481 74.7734C68.6665 74.9541 68.9546 75.103 69.3452 75.2202C69.7358 75.3374 70.1631 75.396 70.627 75.396C70.9834 75.396 71.2837 75.3496 71.5278 75.2568C71.772 75.1592 71.9575 75.0225 72.0845 74.8467C72.2114 74.666 72.2749 74.4536 72.2749 74.2095C72.2749 73.9751 72.2163 73.7676 72.0991 73.5869C71.9868 73.4014 71.7988 73.2305 71.5352 73.0742C71.2715 72.918 70.915 72.7642 70.4658 72.6128C69.5869 72.3442 68.8618 72.061 68.2905 71.7632C67.7241 71.4604 67.2993 71.104 67.0161 70.6938C66.7378 70.2788 66.5986 69.771 66.5986 69.1704C66.5986 68.5894 66.7622 68.0791 67.0894 67.6396C67.4214 67.1953 67.8755 66.8462 68.4517 66.5923C69.0278 66.3384 69.6919 66.2065 70.4438 66.1968C71.2886 66.1772 72.0356 66.2676 72.6851 66.4678C73.3345 66.668 73.9009 66.9561 74.3843 67.332V69.8149H72.6411L72.3481 68.3721C72.1724 68.2695 71.9282 68.1792 71.6157 68.1011C71.3081 68.0229 70.9663 67.9839 70.5903 67.9839C70.2681 67.9839 69.9824 68.0303 69.7334 68.123C69.4893 68.2109 69.2939 68.3452 69.1475 68.5259C69.0059 68.7017 68.9351 68.9189 68.9351 69.1777C68.9351 69.3877 68.9961 69.5757 69.1182 69.7417C69.2402 69.9077 69.4502 70.0688 69.748 70.2251C70.0459 70.3765 70.4585 70.5449 70.9858 70.7305C72.1772 71.0723 73.0806 71.5117 73.6958 72.0488C74.3159 72.5859 74.626 73.3013 74.626 74.1948C74.626 74.8149 74.4575 75.3472 74.1206 75.7915C73.7886 76.231 73.3223 76.5679 72.7217 76.8022C72.1211 77.0366 71.4229 77.1538 70.627 77.1538ZM77.3511 77V75.6157L78.479 75.3887V67.9546L77.3511 67.7275V66.3359H85.979V69.3608H84.1992L84.126 68.1377H80.8228V70.855H84.4995V72.6494H80.8228V75.3887L81.9434 75.6157V77H77.3511ZM94.3003 77V75.6157L95.4282 75.3887V67.9546L94.3003 67.7275V66.3359H95.4282H99.4272C100.262 66.3359 100.982 66.4824 101.588 66.7754C102.198 67.0635 102.667 67.4688 102.994 67.9912C103.321 68.5088 103.485 69.1143 103.485 69.8076C103.485 70.4961 103.321 71.0991 102.994 71.6167C102.667 72.1343 102.198 72.5371 101.588 72.8252C100.982 73.1133 100.262 73.2573 99.4272 73.2573H97.772V75.3887L98.8926 75.6157V77H94.3003ZM97.772 71.4556H99.4272C99.9937 71.4556 100.421 71.3018 100.709 70.9941C100.997 70.6865 101.141 70.2959 101.141 69.8223C101.141 69.3291 100.997 68.9238 100.709 68.6064C100.421 68.2891 99.9937 68.1304 99.4272 68.1304H97.772V71.4556ZM111.447 77.1538C110.568 77.1538 109.796 77.0073 109.132 76.7144C108.473 76.4214 107.963 75.9941 107.602 75.4326C107.24 74.8662 107.06 74.1777 107.06 73.3672V67.9546L105.939 67.7275V66.3359H110.524V67.7275L109.403 67.9546V73.3672C109.403 73.8164 109.484 74.1899 109.645 74.4878C109.806 74.7856 110.038 75.0078 110.341 75.1543C110.648 75.3008 111.015 75.374 111.439 75.374C111.879 75.374 112.252 75.3008 112.56 75.1543C112.868 75.0078 113.1 74.7856 113.256 74.4878C113.417 74.1899 113.498 73.8164 113.498 73.3672V67.9546L112.384 67.7275V66.3359H116.969V67.7275L115.841 67.9546V73.3672C115.841 74.168 115.656 74.8516 115.285 75.418C114.918 75.9844 114.406 76.4165 113.747 76.7144C113.092 77.0073 112.326 77.1538 111.447 77.1538ZM119.526 77V75.6157L120.639 75.3887V67.9546L119.526 67.7275V66.3359H120.639H123.027L127.495 73.4624L127.539 73.4551V67.9546L126.154 67.7275V66.3359H129.626H130.747V67.7275L129.626 67.9546V77H127.333L122.771 69.9834H122.727V75.3887L124.118 75.6157V77H119.526ZM133.303 77V75.6157L134.431 75.3887V67.9546L133.303 67.7275V66.3359H141.697V69.3096H139.917L139.836 68.1377H136.775V70.584H140.283V72.3931H136.775V75.1982H139.99L140.071 73.9824H141.836V77H133.303Z" fill="white"/>
<defs>
<linearGradient id="paint0_linear_35_9" x1="100" y1="195" x2="100" y2="5" gradientUnits="userSpaceOnUse">
<stop stop-color="#FF9900"/>
<stop offset="1" stop-color="#E13636"/>
</linearGradient>
</defs>
</svg>
