<svg width="200" height="200" viewBox="0 0 200 200" fill="none" xmlns="http://www.w3.org/2000/svg">
<circle cx="100" cy="100" r="100" fill="white"/>
<circle cx="100" cy="100" r="95" fill="url(#paint0_linear_35_32)"/>
<path d="M49.8034 137V128.273H53.2466C53.9057 128.273 54.4682 128.391 54.9341 128.626C55.4029 128.859 55.7594 129.19 56.0037 129.619C56.2509 130.045 56.3745 130.547 56.3745 131.124C56.3745 131.703 56.2495 132.202 55.9995 132.619C55.7495 133.034 55.3873 133.352 54.9128 133.574C54.4412 133.795 53.8702 133.906 53.1998 133.906H50.8944V132.423H52.9015C53.2537 132.423 53.5463 132.375 53.7793 132.278C54.0123 132.182 54.1855 132.037 54.2992 131.844C54.4157 131.651 54.4739 131.411 54.4739 131.124C54.4739 130.834 54.4157 130.589 54.2992 130.391C54.1855 130.192 54.0108 130.041 53.775 129.939C53.5421 129.834 53.248 129.781 52.8929 129.781H51.6486V137H49.8034ZM54.5165 133.028L56.6855 137H54.6486L52.5265 133.028H54.5165ZM58.6784 137V128.273H64.5591V129.794H60.5236V131.874H64.2566V133.395H60.5236V135.479H64.5762V137H58.6784ZM72.813 131.094C72.7534 130.886 72.6696 130.703 72.5616 130.544C72.4537 130.382 72.3216 130.246 72.1653 130.135C72.0119 130.021 71.8358 129.935 71.6369 129.875C71.4409 129.815 71.2235 129.786 70.9849 129.786C70.5389 129.786 70.1468 129.896 69.8088 130.118C69.4735 130.339 69.2122 130.662 69.0247 131.085C68.8372 131.506 68.7434 132.02 68.7434 132.628C68.7434 133.236 68.8358 133.753 69.0204 134.179C69.2051 134.605 69.4664 134.93 69.8045 135.155C70.1426 135.376 70.5417 135.487 71.002 135.487C71.4196 135.487 71.7761 135.413 72.0716 135.266C72.3699 135.115 72.5971 134.903 72.7534 134.631C72.9125 134.358 72.992 134.036 72.992 133.663L73.367 133.719H71.117V132.33H74.769V133.429C74.769 134.196 74.6071 134.855 74.2832 135.406C73.9593 135.955 73.5133 136.378 72.9451 136.676C72.377 136.972 71.7264 137.119 70.9934 137.119C70.1752 137.119 69.4565 136.939 68.8372 136.578C68.2179 136.214 67.7349 135.699 67.3883 135.031C67.0446 134.361 66.8727 133.565 66.8727 132.645C66.8727 131.937 66.975 131.307 67.1795 130.753C67.3869 130.196 67.6767 129.724 68.0488 129.338C68.421 128.952 68.8542 128.658 69.3485 128.456C69.8429 128.254 70.3784 128.153 70.9551 128.153C71.4494 128.153 71.9096 128.226 72.3358 128.371C72.7619 128.513 73.1397 128.714 73.4693 128.976C73.8017 129.237 74.073 129.548 74.2832 129.909C74.4934 130.267 74.6284 130.662 74.688 131.094H72.813ZM79.0002 128.273V137H77.155V128.273H79.0002ZM86.2527 130.783C86.2186 130.439 86.0723 130.172 85.8137 129.982C85.5552 129.791 85.2044 129.696 84.7612 129.696C84.46 129.696 84.2058 129.739 83.9984 129.824C83.791 129.906 83.6319 130.021 83.5211 130.169C83.4132 130.317 83.3592 130.484 83.3592 130.672C83.3535 130.828 83.3862 130.964 83.4572 131.081C83.5311 131.197 83.6319 131.298 83.7598 131.384C83.8876 131.466 84.0353 131.538 84.2029 131.601C84.3706 131.661 84.5495 131.712 84.7399 131.754L85.524 131.942C85.9047 132.027 86.2541 132.141 86.5723 132.283C86.8904 132.425 87.166 132.599 87.399 132.807C87.6319 133.014 87.8123 133.259 87.9402 133.54C88.0708 133.821 88.1376 134.143 88.1404 134.507C88.1376 135.041 88.0012 135.504 87.7314 135.896C87.4643 136.286 87.0779 136.588 86.5723 136.804C86.0694 137.017 85.4629 137.124 84.7527 137.124C84.0481 137.124 83.4345 137.016 82.9118 136.8C82.3919 136.584 81.9856 136.264 81.693 135.841C81.4032 135.415 81.2512 134.888 81.237 134.26H83.0225C83.0424 134.553 83.1262 134.797 83.274 134.993C83.4245 135.186 83.6248 135.332 83.8748 135.432C84.1277 135.528 84.4132 135.577 84.7314 135.577C85.0439 135.577 85.3152 135.531 85.5453 135.44C85.7782 135.349 85.9586 135.223 86.0865 135.061C86.2143 134.899 86.2782 134.713 86.2782 134.503C86.2782 134.307 86.22 134.142 86.1035 134.009C85.9899 133.875 85.8223 133.761 85.6007 133.668C85.3819 133.574 85.1135 133.489 84.7953 133.412L83.845 133.173C83.1092 132.994 82.5282 132.714 82.1021 132.334C81.676 131.953 81.4643 131.44 81.4672 130.795C81.4643 130.267 81.6049 129.805 81.889 129.411C82.176 129.016 82.5694 128.707 83.0694 128.486C83.5694 128.264 84.1376 128.153 84.774 128.153C85.4217 128.153 85.987 128.264 86.47 128.486C86.9558 128.707 87.3336 129.016 87.6035 129.411C87.8734 129.805 88.0126 130.263 88.0211 130.783H86.2527ZM90.0492 129.794V128.273H97.2168V129.794H94.5449V137H92.7211V129.794H90.0492ZM99.3972 137V128.273H105.278V129.794H101.242V131.874H104.975V133.395H101.242V135.479H105.295V137H99.3972ZM107.745 137V128.273H111.188C111.847 128.273 112.41 128.391 112.876 128.626C113.344 128.859 113.701 129.19 113.945 129.619C114.192 130.045 114.316 130.547 114.316 131.124C114.316 131.703 114.191 132.202 113.941 132.619C113.691 133.034 113.329 133.352 112.854 133.574C112.383 133.795 111.812 133.906 111.141 133.906H108.836V132.423H110.843C111.195 132.423 111.488 132.375 111.721 132.278C111.954 132.182 112.127 132.037 112.241 131.844C112.357 131.651 112.415 131.411 112.415 131.124C112.415 130.834 112.357 130.589 112.241 130.391C112.127 130.192 111.952 130.041 111.716 129.939C111.483 129.834 111.189 129.781 110.834 129.781H109.59V137H107.745ZM112.458 133.028L114.627 137H112.59L110.468 133.028H112.458ZM127.697 128.273V137H126.103L122.306 131.507H122.242V137H120.397V128.273H122.017L125.784 133.761H125.86V128.273H127.697ZM138.241 132.636C138.241 133.588 138.061 134.398 137.7 135.065C137.342 135.733 136.854 136.243 136.234 136.595C135.618 136.945 134.925 137.119 134.155 137.119C133.379 137.119 132.683 136.943 132.067 136.591C131.45 136.239 130.963 135.729 130.605 135.061C130.247 134.393 130.068 133.585 130.068 132.636C130.068 131.685 130.247 130.875 130.605 130.207C130.963 129.54 131.45 129.031 132.067 128.682C132.683 128.33 133.379 128.153 134.155 128.153C134.925 128.153 135.618 128.33 136.234 128.682C136.854 129.031 137.342 129.54 137.7 130.207C138.061 130.875 138.241 131.685 138.241 132.636ZM136.371 132.636C136.371 132.02 136.278 131.5 136.094 131.077C135.912 130.653 135.655 130.332 135.322 130.114C134.99 129.895 134.601 129.786 134.155 129.786C133.709 129.786 133.319 129.895 132.987 130.114C132.655 130.332 132.396 130.653 132.211 131.077C132.03 131.5 131.939 132.02 131.939 132.636C131.939 133.253 132.03 133.773 132.211 134.196C132.396 134.619 132.655 134.94 132.987 135.159C133.319 135.378 133.709 135.487 134.155 135.487C134.601 135.487 134.99 135.378 135.322 135.159C135.655 134.94 135.912 134.619 136.094 134.196C136.278 133.773 136.371 133.253 136.371 132.636ZM142.244 137L139.747 128.273H141.763L143.208 134.337H143.28L144.874 128.273H146.6L148.189 134.349H148.266L149.71 128.273H151.726L149.229 137H147.431L145.769 131.294H145.7L144.043 137H142.244Z" fill="black"/>
<path d="M68.7923 93.2727H70.1048V99.4602C70.1048 100.02 69.994 100.499 69.7724 100.896C69.5536 101.294 69.2454 101.598 68.8477 101.808C68.4499 102.016 67.984 102.119 67.4499 102.119C66.9585 102.119 66.5167 102.03 66.1246 101.851C65.7354 101.672 65.4272 101.412 65.1999 101.071C64.9755 100.727 64.8633 100.31 64.8633 99.8182H66.1715C66.1715 100.06 66.2269 100.268 66.3377 100.445C66.4513 100.621 66.6062 100.759 66.8022 100.858C67.0011 100.955 67.2283 101.003 67.484 101.003C67.7624 101.003 67.9982 100.945 68.1914 100.828C68.3874 100.709 68.5366 100.534 68.6388 100.304C68.7411 100.074 68.7923 99.7926 68.7923 99.4602V93.2727ZM78.6335 93.2727H79.9545V99.0128C79.9545 99.6236 79.8111 100.165 79.5241 100.636C79.2372 101.105 78.8338 101.474 78.3139 101.744C77.794 102.011 77.1847 102.145 76.4858 102.145C75.7898 102.145 75.1818 102.011 74.6619 101.744C74.142 101.474 73.7386 101.105 73.4517 100.636C73.1648 100.165 73.0213 99.6236 73.0213 99.0128V93.2727H74.3381V98.9062C74.3381 99.3011 74.4247 99.652 74.598 99.9588C74.7741 100.266 75.0227 100.507 75.3438 100.683C75.6648 100.857 76.0455 100.943 76.4858 100.943C76.929 100.943 77.3111 100.857 77.6321 100.683C77.956 100.507 78.2031 100.266 78.3736 99.9588C78.5469 99.652 78.6335 99.3011 78.6335 98.9062V93.2727ZM82.869 102V93.2727H84.1857V100.866H88.1403V102H82.869ZM89.3246 93.2727H90.8203L93.1001 97.2401H93.1939L95.4737 93.2727H96.9695L93.8033 98.5739V102H92.4908V98.5739L89.3246 93.2727ZM103.269 102V101.045L106.222 97.9858C106.538 97.6534 106.798 97.3622 107.002 97.1122C107.21 96.8594 107.364 96.6193 107.467 96.392C107.569 96.1648 107.62 95.9233 107.62 95.6676C107.62 95.3778 107.552 95.1278 107.415 94.9176C107.279 94.7045 107.093 94.5412 106.857 94.4276C106.621 94.3111 106.356 94.2528 106.06 94.2528C105.748 94.2528 105.475 94.3168 105.242 94.4446C105.009 94.5724 104.83 94.7528 104.705 94.9858C104.58 95.2187 104.518 95.4915 104.518 95.804H103.261C103.261 95.2727 103.383 94.8082 103.627 94.4105C103.871 94.0128 104.207 93.7045 104.633 93.4858C105.059 93.2642 105.543 93.1534 106.086 93.1534C106.634 93.1534 107.117 93.2628 107.535 93.4815C107.955 93.6974 108.283 93.9929 108.519 94.3679C108.755 94.7401 108.873 95.1605 108.873 95.6293C108.873 95.9531 108.812 96.2699 108.69 96.5795C108.57 96.8892 108.362 97.2344 108.063 97.6151C107.765 97.9929 107.35 98.4517 106.819 98.9915L105.085 100.807V100.871H109.013V102H103.269ZM114.667 102.145C113.994 102.142 113.418 101.964 112.941 101.612C112.464 101.26 112.099 100.747 111.846 100.074C111.593 99.4006 111.467 98.5895 111.467 97.6406C111.467 96.6946 111.593 95.8864 111.846 95.2159C112.102 94.5455 112.468 94.0341 112.945 93.6818C113.425 93.3295 113.999 93.1534 114.667 93.1534C115.335 93.1534 115.907 93.331 116.384 93.6861C116.862 94.0384 117.227 94.5497 117.479 95.2202C117.735 95.8878 117.863 96.6946 117.863 97.6406C117.863 98.5923 117.737 99.4048 117.484 100.078C117.231 100.749 116.866 101.261 116.388 101.616C115.911 101.969 115.337 102.145 114.667 102.145ZM114.667 101.007C115.258 101.007 115.719 100.719 116.052 100.142C116.387 99.5653 116.555 98.7315 116.555 97.6406C116.555 96.9162 116.478 96.304 116.325 95.804C116.174 95.3011 115.957 94.9205 115.673 94.6619C115.391 94.4006 115.056 94.2699 114.667 94.2699C114.079 94.2699 113.617 94.5597 113.282 95.1392C112.947 95.7187 112.778 96.5526 112.775 97.6406C112.775 98.3679 112.85 98.983 113.001 99.4858C113.154 99.9858 113.371 100.365 113.653 100.624C113.934 100.879 114.272 101.007 114.667 101.007ZM120.375 102V101.045L123.328 97.9858C123.643 97.6534 123.903 97.3622 124.108 97.1122C124.315 96.8594 124.47 96.6193 124.572 96.392C124.674 96.1648 124.725 95.9233 124.725 95.6676C124.725 95.3778 124.657 95.1278 124.521 94.9176C124.385 94.7045 124.199 94.5412 123.963 94.4276C123.727 94.3111 123.461 94.2528 123.166 94.2528C122.853 94.2528 122.581 94.3168 122.348 94.4446C122.115 94.5724 121.936 94.7528 121.811 94.9858C121.686 95.2187 121.623 95.4915 121.623 95.804H120.366C120.366 95.2727 120.488 94.8082 120.733 94.4105C120.977 94.0128 121.312 93.7045 121.738 93.4858C122.164 93.2642 122.649 93.1534 123.191 93.1534C123.74 93.1534 124.223 93.2628 124.64 93.4815C125.061 93.6974 125.389 93.9929 125.625 94.3679C125.86 94.7401 125.978 95.1605 125.978 95.6293C125.978 95.9531 125.917 96.2699 125.795 96.5795C125.676 96.8892 125.467 97.2344 125.169 97.6151C124.87 97.9929 124.456 98.4517 123.924 98.9915L122.19 100.807V100.871H126.119V102H120.375ZM128.363 100.295V99.2301L132.135 93.2727H132.974V94.8409H132.441L129.744 99.1108V99.179H134.913V100.295H128.363ZM132.501 102V99.9716L132.51 99.4858V93.2727H133.758V102H132.501Z" fill="black"/>
<path d="M26.5645 77V75.6157L27.6924 75.3887V67.9546L26.5645 67.7275V66.3359H31.1494V67.7275L30.0288 67.9546V75.3887L31.1494 75.6157V77H26.5645ZM38.3716 77.1538C37.5464 77.1538 36.8042 77.0684 36.145 76.8975C35.4858 76.7266 34.834 76.4189 34.1895 75.9746V73.3013H35.9985L36.2256 74.7734C36.4111 74.9541 36.6992 75.103 37.0898 75.2202C37.4805 75.3374 37.9077 75.396 38.3716 75.396C38.728 75.396 39.0283 75.3496 39.2725 75.2568C39.5166 75.1592 39.7021 75.0225 39.8291 74.8467C39.9561 74.666 40.0195 74.4536 40.0195 74.2095C40.0195 73.9751 39.9609 73.7676 39.8438 73.5869C39.7314 73.4014 39.5435 73.2305 39.2798 73.0742C39.0161 72.918 38.6597 72.7642 38.2104 72.6128C37.3315 72.3442 36.6064 72.061 36.0352 71.7632C35.4688 71.4604 35.0439 71.104 34.7607 70.6938C34.4824 70.2788 34.3433 69.771 34.3433 69.1704C34.3433 68.5894 34.5068 68.0791 34.834 67.6396C35.166 67.1953 35.6201 66.8462 36.1963 66.5923C36.7725 66.3384 37.4365 66.2065 38.1885 66.1968C39.0332 66.1772 39.7803 66.2676 40.4297 66.4678C41.0791 66.668 41.6455 66.9561 42.1289 67.332V69.8149H40.3857L40.0928 68.3721C39.917 68.2695 39.6729 68.1792 39.3604 68.1011C39.0527 68.0229 38.7109 67.9839 38.335 67.9839C38.0127 67.9839 37.7271 68.0303 37.478 68.123C37.2339 68.2109 37.0386 68.3452 36.8921 68.5259C36.7505 68.7017 36.6797 68.9189 36.6797 69.1777C36.6797 69.3877 36.7407 69.5757 36.8628 69.7417C36.9849 69.9077 37.1948 70.0688 37.4927 70.2251C37.7905 70.3765 38.2031 70.5449 38.7305 70.7305C39.9219 71.0723 40.8252 71.5117 41.4404 72.0488C42.0605 72.5859 42.3706 73.3013 42.3706 74.1948C42.3706 74.8149 42.2021 75.3472 41.8652 75.7915C41.5332 76.231 41.0669 76.5679 40.4663 76.8022C39.8657 77.0366 39.1675 77.1538 38.3716 77.1538ZM45.0957 77V75.6157L46.2236 75.3887V67.9546L45.0957 67.7275V66.3359H53.7236V69.3608H51.9438L51.8706 68.1377H48.5674V70.855H52.2441V72.6494H48.5674V75.3887L49.688 75.6157V77H45.0957ZM62.0449 77V75.6157L63.1729 75.3887V67.9546L62.0449 67.7275V66.3359H66.6372V67.7275L65.5166 67.9546V70.8477H69.6401V67.9546L68.5195 67.7275V66.3359H69.6401H71.9766H73.1045V67.7275L71.9766 67.9546V75.3887L73.1045 75.6157V77H68.5195V75.6157L69.6401 75.3887V72.6567H65.5166V75.3887L66.6372 75.6157V77H62.0449ZM78.7886 77V75.6157L79.9092 75.3887V73.4111L76.7817 67.8813L75.7124 67.7275V66.3359H80.1436V67.7275L79.3672 67.8521L80.9932 71.0308L81.1616 71.3823H81.2129L81.3887 71.0454L83.2344 67.8521L82.0918 67.7275V66.3359H86.4277V67.7275L85.3438 67.8813L82.2456 73.228V75.3887L83.3735 75.6157V77H78.7886ZM89.0137 77V75.6157L90.1489 75.3594V67.9912L89.0137 67.7275V66.3359H90.1489H93.8477C94.8047 66.3359 95.6494 66.5605 96.3818 67.0098C97.1143 67.4541 97.688 68.0718 98.103 68.8628C98.5181 69.6489 98.7256 70.5547 98.7256 71.5801V71.7632C98.7256 72.7837 98.5205 73.6895 98.1104 74.4805C97.7002 75.2666 97.1289 75.8843 96.3965 76.3335C95.6641 76.7778 94.8193 77 93.8623 77H89.0137ZM92.4927 75.2202H93.7378C94.3091 75.2202 94.7876 75.0737 95.1733 74.7808C95.564 74.4878 95.8594 74.0825 96.0596 73.5649C96.2646 73.0425 96.3672 72.4419 96.3672 71.7632V71.5728C96.3672 70.8892 96.2646 70.2886 96.0596 69.771C95.8594 69.2534 95.564 68.8506 95.1733 68.5625C94.7876 68.2695 94.3091 68.123 93.7378 68.123H92.4927V75.2202ZM101.619 77V75.6157L102.747 75.3887V67.9546L101.619 67.7275V66.3359H110.013V69.3096H108.233L108.152 68.1377H105.091V70.584H108.599V72.3931H105.091V75.1982H108.306L108.387 73.9824H110.152V77H101.619ZM113.199 77V75.6157L114.327 75.3887V67.9546L113.199 67.7275V66.3286H118.348C119.178 66.3286 119.894 66.4604 120.494 66.7241C121.1 66.9829 121.563 67.3564 121.886 67.8447C122.213 68.3281 122.376 68.9043 122.376 69.5732C122.376 70.1982 122.213 70.7695 121.886 71.2871C121.563 71.7998 121.114 72.2075 120.538 72.5103C119.967 72.813 119.31 72.9644 118.568 72.9644L116.671 72.9497V75.3887L117.792 75.6157V77H113.199ZM120.011 77L118.385 72.6055L120.465 71.9976L121.893 75.3887L122.853 75.6157V77H120.011ZM116.671 71.1479H118.341C118.902 71.1479 119.327 71.0259 119.615 70.7817C119.903 70.5327 120.047 70.1738 120.047 69.7051C120.047 69.2266 119.901 68.8457 119.608 68.5625C119.32 68.2744 118.9 68.1304 118.348 68.1304H116.671V71.1479ZM125.453 77V75.6157L126.215 75.5059L129.503 66.3359H131.972L135.253 75.5059L136.007 75.6157V77H132.213V75.6157L132.931 75.4839L132.528 74.1655H128.932L128.544 75.4839L129.262 75.6157V77H125.453ZM129.459 72.481H132.001L130.858 69.0239L130.749 68.6797H130.705L130.587 69.0532L129.459 72.481ZM138.601 77V75.6157L139.729 75.3887V67.9546L138.601 67.7275V66.3359H139.729H143.383C144.682 66.3359 145.693 66.5825 146.416 67.0757C147.143 67.564 147.507 68.2939 147.507 69.2656C147.507 69.7637 147.38 70.2104 147.126 70.606C146.877 70.9966 146.503 71.292 146.005 71.4922C146.435 71.585 146.787 71.7461 147.06 71.9756C147.338 72.2051 147.543 72.4834 147.675 72.8105C147.812 73.1328 147.88 73.4844 147.88 73.8652C147.88 74.8955 147.539 75.6768 146.855 76.209C146.171 76.7363 145.19 77 143.911 77H138.601ZM142.072 75.2129H143.911C144.448 75.2129 144.855 75.1006 145.134 74.876C145.412 74.6465 145.551 74.3096 145.551 73.8652C145.551 73.5332 145.498 73.2573 145.39 73.0376C145.288 72.813 145.126 72.6445 144.907 72.5322C144.687 72.4199 144.401 72.3638 144.05 72.3638H142.072V75.2129ZM142.072 70.7817H143.369C143.959 70.7817 144.406 70.6743 144.709 70.4595C145.012 70.2446 145.163 69.9248 145.163 69.5C145.163 69.0264 145.014 68.6797 144.716 68.46C144.423 68.2402 143.979 68.1304 143.383 68.1304H142.072V70.7817ZM150.386 77V75.6157L151.147 75.5059L154.436 66.3359H156.904L160.186 75.5059L160.94 75.6157V77H157.146V75.6157L157.864 75.4839L157.461 74.1655H153.865L153.477 75.4839L154.194 75.6157V77H150.386ZM154.392 72.481H156.934L155.791 69.0239L155.681 68.6797H155.637L155.52 69.0532L154.392 72.481ZM163.533 77V75.6157L164.668 75.3594V67.9912L163.533 67.7275V66.3359H164.668H168.367C169.324 66.3359 170.169 66.5605 170.901 67.0098C171.634 67.4541 172.208 68.0718 172.623 68.8628C173.038 69.6489 173.245 70.5547 173.245 71.5801V71.7632C173.245 72.7837 173.04 73.6895 172.63 74.4805C172.22 75.2666 171.648 75.8843 170.916 76.3335C170.184 76.7778 169.339 77 168.382 77H163.533ZM167.012 75.2202H168.257C168.829 75.2202 169.307 75.0737 169.693 74.7808C170.083 74.4878 170.379 74.0825 170.579 73.5649C170.784 73.0425 170.887 72.4419 170.887 71.7632V71.5728C170.887 70.8892 170.784 70.2886 170.579 69.771C170.379 69.2534 170.083 68.8506 169.693 68.5625C169.307 68.2695 168.829 68.123 168.257 68.123H167.012V75.2202Z" fill="black"/>
<defs>
<linearGradient id="paint0_linear_35_32" x1="100" y1="5" x2="100" y2="195" gradientUnits="userSpaceOnUse">
<stop stop-color="#3CD500"/>
<stop offset="1" stop-color="#FFF720"/>
</linearGradient>
</defs>
</svg>
