<svg width="160" height="160" viewBox="0 0 160 160" fill="none" xmlns="http://www.w3.org/2000/svg">
<rect width="160" height="160" fill="url(#paint0_linear_40_98)"/>
<g clip-path="url(#clip0_40_98)">
<path d="M100.124 48.6949C98.3826 47.0559 96.1538 46.2688 93.9076 46.2688C91.379 46.2688 88.8254 47.2657 86.9215 49.1722L86.1044 49.9892L85.2874 49.1697C83.3835 47.2657 80.8299 46.2688 78.3013 46.2688C76.055 46.2688 73.8263 47.0559 72.0848 48.6949C68.2544 52.3004 68.1869 58.3321 71.8799 62.025L86.1044 76.2496L100.329 62.025C104.022 58.3321 103.954 52.3004 100.124 48.6949Z" fill="white"/>
<path d="M114.086 83.493C111.9 82.0113 109.324 82.4311 107.043 83.7479C104.762 85.0646 91.664 96.2634 91.664 96.2634L78.7712 96.2659C78.1715 96.2659 77.5219 95.5913 77.5219 94.9941C77.5219 94.292 78.134 93.7448 78.7712 93.7448H86.6593C89.4202 93.7448 92.511 91.9458 92.511 88.7476C92.511 85.3495 89.4202 83.7504 86.6593 83.7504C81.8694 83.7504 80.9374 83.7704 80.9374 83.7704C79.0185 83.7704 77.0721 83.6554 75.5729 82.8534C73.5741 81.8289 71.2703 81.2493 68.8117 81.2493C64.684 81.2493 60.9886 82.8958 58.455 85.4919L45 98.7395L59.9916 113.731L64.9888 108.734H90.2922C92.8108 108.734 95.242 107.809 97.1234 106.138L114.256 86.9186C115.303 85.9891 115.243 84.2801 114.086 83.493Z" fill="white"/>
</g>
<defs>
<linearGradient id="paint0_linear_40_98" x1="80" y1="0" x2="80" y2="160" gradientUnits="userSpaceOnUse">
<stop stop-color="#7EB709"/>
<stop offset="1" stop-color="#059D36"/>
</linearGradient>
<clipPath id="clip0_40_98">
<rect width="70" height="70" fill="white" transform="translate(45 45)"/>
</clipPath>
</defs>
</svg>
