<svg width="177" height="177" viewBox="0 0 177 177" fill="none" xmlns="http://www.w3.org/2000/svg">
<circle cx="88.5" cy="88.5" r="88.5" fill="white"/>
<circle cx="88.5" cy="88.5" r="83.5" fill="url(#paint0_linear_39_118)"/>
<path d="M66.614 127V118.273H70.0572C70.7163 118.273 71.2788 118.391 71.7447 118.626C72.2134 118.859 72.57 119.19 72.8143 119.619C73.0614 120.045 73.185 120.547 73.185 121.124C73.185 121.703 73.06 122.202 72.81 122.619C72.56 123.034 72.1978 123.352 71.7234 123.574C71.2518 123.795 70.6808 123.906 70.0103 123.906H67.7049V122.423H69.712C70.0643 122.423 70.3569 122.375 70.5898 122.278C70.8228 122.182 70.9961 122.037 71.1097 121.844C71.2262 121.651 71.2844 121.411 71.2844 121.124C71.2844 120.834 71.2262 120.589 71.1097 120.391C70.9961 120.192 70.8214 120.041 70.5856 119.939C70.3526 119.834 70.0586 119.781 69.7035 119.781H68.4592V127H66.614ZM71.3271 123.028L73.4961 127H71.4592L69.337 123.028H71.3271ZM80.8796 118.273H82.7248V123.94C82.7248 124.577 82.5728 125.134 82.2688 125.611C81.9677 126.088 81.5458 126.46 81.0032 126.727C80.4606 126.991 79.8285 127.124 79.1069 127.124C78.3825 127.124 77.7489 126.991 77.2063 126.727C76.6637 126.46 76.2418 126.088 75.9407 125.611C75.6396 125.134 75.489 124.577 75.489 123.94V118.273H77.3342V123.783C77.3342 124.115 77.4066 124.411 77.5515 124.669C77.6992 124.928 77.9066 125.131 78.1737 125.278C78.4407 125.426 78.7518 125.5 79.1069 125.5C79.4648 125.5 79.7759 125.426 80.0401 125.278C80.3072 125.131 80.5131 124.928 80.658 124.669C80.8058 124.411 80.8796 124.115 80.8796 123.783V118.273ZM85.2429 127V118.273H88.6861C89.3452 118.273 89.9077 118.391 90.3736 118.626C90.8423 118.859 91.1989 119.19 91.4432 119.619C91.6903 120.045 91.8139 120.547 91.8139 121.124C91.8139 121.703 91.6889 122.202 91.4389 122.619C91.1889 123.034 90.8267 123.352 90.3523 123.574C89.8807 123.795 89.3097 123.906 88.6392 123.906H86.3338V122.423H88.3409C88.6932 122.423 88.9858 122.375 89.2188 122.278C89.4517 122.182 89.625 122.037 89.7386 121.844C89.8551 121.651 89.9134 121.411 89.9134 121.124C89.9134 120.834 89.8551 120.589 89.7386 120.391C89.625 120.192 89.4503 120.041 89.2145 119.939C88.9815 119.834 88.6875 119.781 88.3324 119.781H87.0881V127H85.2429ZM89.956 123.028L92.125 127H90.0881L87.9659 123.028H89.956ZM95.6222 127H93.6449L96.6577 118.273H99.0355L102.044 127H100.067L97.8807 120.267H97.8125L95.6222 127ZM95.4986 123.57H100.169V125.01H95.4986V123.57ZM104.094 127V118.273H105.94V125.479H109.681V127H104.094ZM48.9924 136.273V145H47.1472V136.273H48.9924ZM58.8102 136.273V145H57.2164L53.4196 139.507H53.3556V145H51.5105V136.273H53.1298L56.8968 141.761H56.9735V136.273H58.8102ZM68.6344 136.273V145H67.0407L63.2438 139.507H63.1799V145H61.3347V136.273H62.954L66.7211 141.761H66.7978V136.273H68.6344ZM79.1788 140.636C79.1788 141.588 78.9984 142.398 78.6376 143.065C78.2797 143.733 77.791 144.243 77.1717 144.595C76.5552 144.945 75.862 145.119 75.0922 145.119C74.3166 145.119 73.6206 144.943 73.0041 144.591C72.3876 144.239 71.9004 143.729 71.5424 143.061C71.1845 142.393 71.0055 141.585 71.0055 140.636C71.0055 139.685 71.1845 138.875 71.5424 138.207C71.9004 137.54 72.3876 137.031 73.0041 136.682C73.6206 136.33 74.3166 136.153 75.0922 136.153C75.862 136.153 76.5552 136.33 77.1717 136.682C77.791 137.031 78.2797 137.54 78.6376 138.207C78.9984 138.875 79.1788 139.685 79.1788 140.636ZM77.3081 140.636C77.3081 140.02 77.2157 139.5 77.0311 139.077C76.8493 138.653 76.5922 138.332 76.2598 138.114C75.9274 137.895 75.5382 137.786 75.0922 137.786C74.6461 137.786 74.2569 137.895 73.9245 138.114C73.5922 138.332 73.3336 138.653 73.149 139.077C72.9672 139.5 72.8762 140.02 72.8762 140.636C72.8762 141.253 72.9672 141.773 73.149 142.196C73.3336 142.619 73.5922 142.94 73.9245 143.159C74.2569 143.378 74.6461 143.487 75.0922 143.487C75.5382 143.487 75.9274 143.378 76.2598 143.159C76.5922 142.94 76.8493 142.619 77.0311 142.196C77.2157 141.773 77.3081 141.253 77.3081 140.636ZM82.6301 136.273L84.7395 142.903H84.8205L86.9341 136.273H88.9796L85.9711 145H83.5932L80.5804 136.273H82.6301ZM91.3741 145H89.3968L92.4096 136.273H94.7875L97.796 145H95.8187L93.6326 138.267H93.5645L91.3741 145ZM91.2505 141.57H95.921V143.01H91.2505V141.57ZM98.4476 137.794V136.273H105.615V137.794H102.943V145H101.119V137.794H98.4476ZM109.641 136.273V145H107.796V136.273H109.641ZM120.179 140.636C120.179 141.588 119.998 142.398 119.638 143.065C119.28 143.733 118.791 144.243 118.172 144.595C117.555 144.945 116.862 145.119 116.092 145.119C115.317 145.119 114.621 144.943 114.004 144.591C113.388 144.239 112.9 143.729 112.542 143.061C112.184 142.393 112.006 141.585 112.006 140.636C112.006 139.685 112.184 138.875 112.542 138.207C112.9 137.54 113.388 137.031 114.004 136.682C114.621 136.33 115.317 136.153 116.092 136.153C116.862 136.153 117.555 136.33 118.172 136.682C118.791 137.031 119.28 137.54 119.638 138.207C119.998 138.875 120.179 139.685 120.179 140.636ZM118.308 140.636C118.308 140.02 118.216 139.5 118.031 139.077C117.849 138.653 117.592 138.332 117.26 138.114C116.927 137.895 116.538 137.786 116.092 137.786C115.646 137.786 115.257 137.895 114.925 138.114C114.592 138.332 114.334 138.653 114.149 139.077C113.967 139.5 113.876 140.02 113.876 140.636C113.876 141.253 113.967 141.773 114.149 142.196C114.334 142.619 114.592 142.94 114.925 143.159C115.257 143.378 115.646 143.487 116.092 143.487C116.538 143.487 116.927 143.378 117.26 143.159C117.592 142.94 117.849 142.619 118.031 142.196C118.216 141.773 118.308 141.253 118.308 140.636ZM129.845 136.273V145H128.252L124.455 139.507H124.391V145H122.546V136.273H124.165L127.932 141.761H128.009V136.273H129.845Z" fill="white"/>
<circle cx="89" cy="66" r="35" fill="white" fill-opacity="0.1"/>
<circle cx="89" cy="66" r="34.5" stroke="white" stroke-opacity="0.4"/>
<path fill-rule="evenodd" clip-rule="evenodd" d="M89.0186 45.3531C88.9718 45.3534 88.9251 45.3561 88.8787 45.3612C88.5383 45.4 88.2246 45.5642 87.9988 45.8218C87.773 46.0795 87.6513 46.412 87.6575 46.7545V49.5088C87.6535 49.6922 87.6861 49.8746 87.7535 50.0453C87.8208 50.2159 87.9216 50.3714 88.0499 50.5026C88.1782 50.6337 88.3314 50.7379 88.5005 50.8091C88.6696 50.8802 88.8512 50.9169 89.0347 50.9169C89.2182 50.9169 89.3998 50.8802 89.5689 50.8091C89.738 50.7379 89.8912 50.6337 90.0195 50.5026C90.1478 50.3714 90.2486 50.2159 90.3159 50.0453C90.3833 49.8746 90.4159 49.6922 90.4119 49.5088V46.7545C90.4151 46.5703 90.3813 46.3872 90.3125 46.2163C90.2438 46.0453 90.1414 45.8899 90.0115 45.7592C89.8816 45.6286 89.7267 45.5253 89.5562 45.4555C89.3856 45.3858 89.2028 45.351 89.0186 45.3531ZM75.3868 51.007C75.3391 51.0073 75.2916 51.0099 75.2442 51.0151C74.9844 51.0433 74.7379 51.1447 74.5337 51.3077C74.3294 51.4707 74.1756 51.6884 74.0905 51.9355C74.0053 52.1826 73.9922 52.4488 74.0526 52.703C74.1131 52.9573 74.2446 53.1891 74.4319 53.3713L76.3739 55.3241C76.5011 55.4567 76.6535 55.5626 76.8222 55.6356C76.9908 55.7085 77.1723 55.7471 77.3561 55.7489C77.5398 55.7508 77.7221 55.7159 77.8922 55.6464C78.0623 55.5769 78.2168 55.4741 78.3467 55.3441C78.4765 55.214 78.5791 55.0594 78.6484 54.8892C78.7177 54.719 78.7523 54.5367 78.7501 54.3529C78.748 54.1692 78.7093 53.9877 78.6361 53.8192C78.5629 53.6506 78.4568 53.4984 78.324 53.3713L76.3739 51.432C76.2463 51.2986 76.0931 51.1923 75.9235 51.1193C75.7539 51.0463 75.5714 51.0081 75.3868 51.007ZM102.642 51.0151C102.285 51.0265 101.947 51.1759 101.698 51.432L99.7454 53.374C99.6128 53.5012 99.5069 53.6536 99.4339 53.8223C99.361 53.9909 99.3224 54.1725 99.3206 54.3562C99.3187 54.54 99.3536 54.7222 99.4231 54.8923C99.4926 55.0624 99.5954 55.2169 99.7254 55.3468C99.8555 55.4766 100.01 55.5792 100.18 55.6485C100.35 55.7178 100.533 55.7524 100.717 55.7503C100.9 55.7482 101.082 55.7094 101.25 55.6362C101.419 55.563 101.571 55.4569 101.698 55.3241L103.637 53.374C103.834 53.1806 103.968 52.9325 104.022 52.662C104.076 52.3914 104.048 52.1109 103.941 51.8567C103.833 51.6025 103.652 51.3864 103.421 51.2363C103.189 51.0863 102.918 51.0092 102.642 51.0151ZM89.0347 53.6403C82.2057 53.6403 76.6402 59.2059 76.6402 66.0348C76.6402 70.2998 78.8587 74.0044 82.1489 76.2318V79.8065C82.149 80.567 82.7655 81.1836 83.526 81.1836H94.5434C95.3039 81.1836 95.9204 80.567 95.9205 79.8065V76.2318C99.2107 74.0044 101.429 70.2998 101.429 66.0348C101.429 59.2059 95.8637 53.6403 89.0347 53.6403ZM89.0293 59.1463C89.3949 59.1463 89.7455 59.2915 90.0041 59.5501C90.2626 59.8086 90.4078 60.1592 90.4078 60.5248C90.4078 60.8904 90.2626 61.241 90.0041 61.4996C89.7455 61.7581 89.3949 61.9033 89.0293 61.9033C86.7312 61.9033 84.9032 63.7421 84.9032 66.0402C84.9032 66.4058 84.758 66.7564 84.4994 67.0149C84.2409 67.2735 83.8903 67.4187 83.5247 67.4187C83.1591 67.4187 82.8085 67.2735 82.5499 67.0149C82.2914 66.7564 82.1462 66.4058 82.1462 66.0402C82.1462 62.2536 85.2427 59.1463 89.0293 59.1463ZM69.7544 64.6576C69.5709 64.6535 69.3885 64.6861 69.2178 64.7535C69.0471 64.8208 68.8916 64.9216 68.7604 65.0499C68.6292 65.1782 68.525 65.3314 68.4538 65.5005C68.3826 65.6697 68.3459 65.8513 68.3459 66.0348C68.3459 66.2183 68.3826 66.4 68.4538 66.5691C68.525 66.7382 68.6292 66.8914 68.7604 67.0197C68.8916 67.148 69.0471 67.2488 69.2178 67.3162C69.3885 67.3835 69.5709 67.4161 69.7544 67.412H72.5114C72.6949 67.4161 72.8773 67.3835 73.048 67.3162C73.2187 67.2488 73.3742 67.148 73.5054 67.0197C73.6366 66.8914 73.7408 66.7382 73.812 66.5691C73.8832 66.4 73.9198 66.2183 73.9198 66.0348C73.9198 65.8513 73.8832 65.6697 73.812 65.5005C73.7408 65.3314 73.6366 65.1782 73.5054 65.0499C73.3742 64.9216 73.2187 64.8208 73.048 64.7535C72.8773 64.6861 72.6949 64.6535 72.5114 64.6576H69.7544ZM105.561 64.6576C105.377 64.6535 105.195 64.6861 105.024 64.7535C104.853 64.8208 104.698 64.9216 104.567 65.0499C104.436 65.1782 104.331 65.3314 104.26 65.5005C104.189 65.6697 104.152 65.8513 104.152 66.0348C104.152 66.2183 104.189 66.4 104.26 66.5691C104.331 66.7382 104.436 66.8914 104.567 67.0197C104.698 67.148 104.853 67.2488 105.024 67.3162C105.195 67.3835 105.377 67.4161 105.561 67.412H108.315C108.498 67.4161 108.681 67.3835 108.852 67.3162C109.022 67.2488 109.178 67.148 109.309 67.0197C109.44 66.8914 109.544 66.7382 109.616 66.5691C109.687 66.4 109.723 66.2183 109.723 66.0348C109.723 65.8513 109.687 65.6697 109.616 65.5005C109.544 65.3314 109.44 65.1782 109.309 65.0499C109.178 64.9216 109.022 64.8208 108.852 64.7535C108.681 64.6861 108.498 64.6535 108.315 64.6576H105.561ZM77.3369 76.3259C77.3306 76.3267 77.3243 76.3276 77.318 76.3286C76.9612 76.3399 76.6227 76.4894 76.3739 76.7455L74.4319 78.6956C74.2878 78.8191 74.1707 78.971 74.088 79.1419C74.0054 79.3127 73.959 79.4989 73.9516 79.6885C73.9443 79.8782 73.9763 80.0673 74.0455 80.244C74.1148 80.4208 74.2198 80.5813 74.354 80.7155C74.4882 80.8497 74.6487 80.9547 74.8255 81.024C75.0022 81.0932 75.1913 81.1252 75.381 81.1179C75.5706 81.1105 75.7568 81.0641 75.9276 80.9815C76.0985 80.8988 76.2504 80.7818 76.3739 80.6376L78.324 78.6956C78.524 78.5033 78.6613 78.255 78.7178 77.9834C78.7743 77.7117 78.7474 77.4293 78.6407 77.1732C78.5341 76.917 78.3525 76.6991 78.1198 76.5479C77.8872 76.3967 77.6143 76.3193 77.3369 76.3259ZM100.711 76.3286C100.436 76.327 100.167 76.4078 99.9382 76.5606C99.7095 76.7133 99.5318 76.931 99.4279 77.1856C99.3241 77.4402 99.2988 77.7201 99.3554 77.9892C99.4119 78.2583 99.5478 78.5043 99.7454 78.6956L101.698 80.6376C101.821 80.7835 101.973 80.9022 102.144 80.9862C102.316 81.0703 102.503 81.1178 102.693 81.1259C102.884 81.1339 103.074 81.1022 103.252 81.0329C103.429 80.9635 103.591 80.858 103.726 80.723C103.861 80.588 103.966 80.4264 104.035 80.2486C104.104 80.0708 104.135 79.8805 104.127 79.6899C104.119 79.4993 104.071 79.3125 103.987 79.1413C103.902 78.9702 103.784 78.8184 103.637 78.6956L101.698 76.7455C101.57 76.6136 101.416 76.5087 101.247 76.4371C101.077 76.3655 100.895 76.3286 100.711 76.3286ZM86.1486 83.9406C86.1468 83.9415 86.145 83.9424 86.1432 83.9433C85.7837 83.97 85.4488 84.1363 85.2104 84.4067C84.972 84.6772 84.8489 85.0302 84.8676 85.3902C84.8862 85.7503 85.0451 86.0887 85.3101 86.3331C85.5752 86.5774 85.9254 86.7083 86.2857 86.6977H91.7836C91.9671 86.7018 92.1495 86.6692 92.3202 86.6019C92.4909 86.5345 92.6464 86.4337 92.7776 86.3054C92.9088 86.1771 93.0131 86.0239 93.0842 85.8548C93.1554 85.6857 93.1921 85.504 93.1921 85.3205C93.1921 85.137 93.1554 84.9554 93.0842 84.7862C93.0131 84.6171 92.9088 84.4639 92.7776 84.3356C92.6464 84.2073 92.4909 84.1065 92.3202 84.0392C92.1495 83.9718 91.9671 83.9392 91.7836 83.9433H86.2857C86.2401 83.9402 86.1943 83.9393 86.1486 83.9406Z" fill="white"/>
<defs>
<linearGradient id="paint0_linear_39_118" x1="89" y1="5" x2="89" y2="184" gradientUnits="userSpaceOnUse">
<stop stop-color="#FF5CAA"/>
<stop offset="1" stop-color="#D2306B"/>
</linearGradient>
</defs>
</svg>
