<svg width="177" height="177" viewBox="0 0 177 177" fill="none" xmlns="http://www.w3.org/2000/svg">
<circle cx="88.5" cy="88.5" r="88.5" fill="white"/>
<circle cx="88.5" cy="88.5" r="83.5" fill="url(#paint0_linear_39_104)"/>
<path d="M66.614 127V118.273H70.0572C70.7163 118.273 71.2788 118.391 71.7447 118.626C72.2134 118.859 72.57 119.19 72.8143 119.619C73.0614 120.045 73.185 120.547 73.185 121.124C73.185 121.703 73.06 122.202 72.81 122.619C72.56 123.034 72.1978 123.352 71.7234 123.574C71.2518 123.795 70.6808 123.906 70.0103 123.906H67.7049V122.423H69.712C70.0643 122.423 70.3569 122.375 70.5898 122.278C70.8228 122.182 70.9961 122.037 71.1097 121.844C71.2262 121.651 71.2844 121.411 71.2844 121.124C71.2844 120.834 71.2262 120.589 71.1097 120.391C70.9961 120.192 70.8214 120.041 70.5856 119.939C70.3526 119.834 70.0586 119.781 69.7035 119.781H68.4592V127H66.614ZM71.3271 123.028L73.4961 127H71.4592L69.337 123.028H71.3271ZM80.8796 118.273H82.7248V123.94C82.7248 124.577 82.5728 125.134 82.2688 125.611C81.9677 126.088 81.5458 126.46 81.0032 126.727C80.4606 126.991 79.8285 127.124 79.1069 127.124C78.3825 127.124 77.7489 126.991 77.2063 126.727C76.6637 126.46 76.2418 126.088 75.9407 125.611C75.6396 125.134 75.489 124.577 75.489 123.94V118.273H77.3342V123.783C77.3342 124.115 77.4066 124.411 77.5515 124.669C77.6992 124.928 77.9066 125.131 78.1737 125.278C78.4407 125.426 78.7518 125.5 79.1069 125.5C79.4648 125.5 79.7759 125.426 80.0401 125.278C80.3072 125.131 80.5131 124.928 80.658 124.669C80.8058 124.411 80.8796 124.115 80.8796 123.783V118.273ZM85.2429 127V118.273H88.6861C89.3452 118.273 89.9077 118.391 90.3736 118.626C90.8423 118.859 91.1989 119.19 91.4432 119.619C91.6903 120.045 91.8139 120.547 91.8139 121.124C91.8139 121.703 91.6889 122.202 91.4389 122.619C91.1889 123.034 90.8267 123.352 90.3523 123.574C89.8807 123.795 89.3097 123.906 88.6392 123.906H86.3338V122.423H88.3409C88.6932 122.423 88.9858 122.375 89.2188 122.278C89.4517 122.182 89.625 122.037 89.7386 121.844C89.8551 121.651 89.9134 121.411 89.9134 121.124C89.9134 120.834 89.8551 120.589 89.7386 120.391C89.625 120.192 89.4503 120.041 89.2145 119.939C88.9815 119.834 88.6875 119.781 88.3324 119.781H87.0881V127H85.2429ZM89.956 123.028L92.125 127H90.0881L87.9659 123.028H89.956ZM95.6222 127H93.6449L96.6577 118.273H99.0355L102.044 127H100.067L97.8807 120.267H97.8125L95.6222 127ZM95.4986 123.57H100.169V125.01H95.4986V123.57ZM104.094 127V118.273H105.94V125.479H109.681V127H104.094ZM44.2468 145V136.273H46.092V139.874H49.8377V136.273H51.6786V145H49.8377V141.395H46.092V145H44.2468ZM54.1999 145V136.273H60.0806V137.794H56.0451V139.874H59.7781V141.395H56.0451V143.479H60.0977V145H54.1999ZM64.0518 145H62.0746L65.0874 136.273H67.4652L70.4737 145H68.4964L66.3104 138.267H66.2422L64.0518 145ZM63.9283 141.57H68.5987V143.01H63.9283V141.57ZM72.5241 145V136.273H74.3693V143.479H78.1108V145H72.5241ZM78.9105 137.794V136.273H86.0781V137.794H83.4062V145H81.5824V137.794H78.9105ZM88.2585 145V136.273H90.1037V139.874H93.8494V136.273H95.6903V145H93.8494V141.395H90.1037V145H88.2585ZM105.912 139.328H104.045C104.011 139.087 103.942 138.872 103.837 138.685C103.732 138.494 103.597 138.332 103.432 138.199C103.267 138.065 103.077 137.963 102.861 137.892C102.648 137.821 102.416 137.786 102.166 137.786C101.714 137.786 101.321 137.898 100.986 138.122C100.651 138.344 100.391 138.668 100.206 139.094C100.021 139.517 99.929 140.031 99.929 140.636C99.929 141.259 100.021 141.781 100.206 142.205C100.393 142.628 100.655 142.947 100.99 143.163C101.325 143.379 101.713 143.487 102.153 143.487C102.401 143.487 102.629 143.455 102.839 143.389C103.053 143.324 103.241 143.229 103.406 143.104C103.571 142.976 103.707 142.821 103.815 142.639C103.926 142.457 104.003 142.25 104.045 142.017L105.912 142.026C105.864 142.426 105.743 142.812 105.55 143.185C105.359 143.554 105.102 143.885 104.778 144.178C104.457 144.467 104.074 144.697 103.628 144.868C103.185 145.036 102.683 145.119 102.124 145.119C101.345 145.119 100.649 144.943 100.036 144.591C99.4247 144.239 98.9418 143.729 98.5866 143.061C98.2344 142.393 98.0582 141.585 98.0582 140.636C98.0582 139.685 98.2372 138.875 98.5952 138.207C98.9531 137.54 99.4389 137.031 100.053 136.682C100.666 136.33 101.357 136.153 102.124 136.153C102.629 136.153 103.098 136.224 103.53 136.366C103.964 136.509 104.349 136.716 104.685 136.989C105.02 137.259 105.293 137.589 105.503 137.982C105.716 138.374 105.852 138.822 105.912 139.328ZM109.575 145H107.598L110.611 136.273H112.989L115.997 145H114.02L111.834 138.267H111.766L109.575 145ZM109.452 141.57H114.122V143.01H109.452V141.57ZM118.048 145V136.273H121.491C122.15 136.273 122.712 136.391 123.178 136.626C123.647 136.859 124.004 137.19 124.248 137.619C124.495 138.045 124.619 138.547 124.619 139.124C124.619 139.703 124.494 140.202 124.244 140.619C123.994 141.034 123.631 141.352 123.157 141.574C122.685 141.795 122.114 141.906 121.444 141.906H119.138V140.423H121.146C121.498 140.423 121.79 140.375 122.023 140.278C122.256 140.182 122.43 140.037 122.543 139.844C122.66 139.651 122.718 139.411 122.718 139.124C122.718 138.834 122.66 138.589 122.543 138.391C122.43 138.192 122.255 138.041 122.019 137.939C121.786 137.834 121.492 137.781 121.137 137.781H119.893V145H118.048ZM122.761 141.028L124.93 145H122.893L120.771 141.028H122.761ZM126.923 145V136.273H132.803V137.794H128.768V139.874H132.501V141.395H128.768V143.479H132.82V145H126.923Z" fill="white"/>
<circle cx="89" cy="66" r="35" fill="white" fill-opacity="0.1"/>
<circle cx="89" cy="66" r="34.5" stroke="white" stroke-opacity="0.4"/>
<g clip-path="url(#clip0_39_104)">
<path d="M101.65 46.3225C100.555 45.2922 99.154 44.7975 97.742 44.7975C96.1526 44.7975 94.5475 45.4241 93.3508 46.6225L92.8372 47.136L92.3236 46.6209C91.1269 45.4241 89.5218 44.7975 87.9324 44.7975C86.5205 44.7975 85.1195 45.2922 84.0248 46.3225C81.6172 48.5888 81.5748 52.3801 83.8961 54.7014L92.8372 63.6425L101.778 54.7014C104.1 52.3801 104.057 48.5888 101.65 46.3225Z" fill="white"/>
<path d="M110.426 68.1956C109.052 67.2643 107.432 67.5281 105.998 68.3558C104.564 69.1835 96.3316 76.2227 96.3316 76.2227L88.2276 76.2243C87.8506 76.2243 87.4423 75.8002 87.4423 75.4249C87.4423 74.9836 87.8271 74.6396 88.2276 74.6396H93.1858C94.9213 74.6396 96.864 73.5088 96.864 71.4985C96.864 69.3626 94.9213 68.3574 93.1858 68.3574C90.1751 68.3574 89.5893 68.37 89.5893 68.37C88.3831 68.37 87.1596 68.2977 86.2173 67.7936C84.9608 67.1496 83.5128 66.7853 81.9674 66.7853C79.3728 66.7853 77.05 67.8203 75.4574 69.4521L67 77.7791L76.4233 87.2025L79.5644 84.0614H95.4694C97.0525 84.0614 98.5807 83.4802 99.7633 82.4295L110.533 70.3489C111.191 69.7646 111.153 68.6904 110.426 68.1956Z" fill="white"/>
</g>
<defs>
<linearGradient id="paint0_linear_39_104" x1="89" y1="5" x2="89" y2="184" gradientUnits="userSpaceOnUse">
<stop stop-color="#029C36"/>
<stop offset="1" stop-color="#8AB904"/>
</linearGradient>
<clipPath id="clip0_39_104">
<rect width="44" height="44" fill="white" transform="translate(67 44)"/>
</clipPath>
</defs>
</svg>
