<svg width="160" height="160" viewBox="0 0 160 160" fill="none" xmlns="http://www.w3.org/2000/svg">
<rect width="160" height="160" fill="url(#paint0_linear_40_98)"/>
<path fill-rule="evenodd" clip-rule="evenodd" d="M80.0294 47.1526C79.955 47.1531 79.8807 47.1574 79.8068 47.1655C79.2653 47.2272 78.7663 47.4884 78.4071 47.8983C78.0478 48.3081 77.8542 48.8372 77.8641 49.3821V53.764C77.8576 54.0558 77.9095 54.3459 78.0167 54.6174C78.1239 54.8889 78.2842 55.1362 78.4883 55.3449C78.6924 55.5536 78.9361 55.7194 79.2052 55.8326C79.4742 55.9458 79.7631 56.0041 80.055 56.0041C80.3469 56.0041 80.6359 55.9458 80.9049 55.8326C81.1739 55.7194 81.4176 55.5536 81.6217 55.3449C81.8258 55.1362 81.9862 54.8889 82.0934 54.6174C82.2006 54.3459 82.2524 54.0558 82.246 53.764V49.3821C82.2511 49.089 82.1974 48.7978 82.088 48.5258C81.9786 48.2539 81.8157 48.0066 81.609 47.7987C81.4023 47.5908 81.156 47.4265 80.8847 47.3156C80.6133 47.2046 80.3225 47.1492 80.0294 47.1526ZM58.3424 56.1475C58.2667 56.1478 58.191 56.1521 58.1156 56.1603C57.7023 56.2051 57.3102 56.3666 56.9852 56.6258C56.6602 56.8851 56.4156 57.2315 56.2801 57.6246C56.1446 58.0176 56.1237 58.4411 56.2199 58.8456C56.3161 59.2501 56.5254 59.6189 56.8233 59.9089L59.9129 63.0156C60.1152 63.2266 60.3577 63.395 60.626 63.5111C60.8943 63.6271 61.1831 63.6884 61.4754 63.6914C61.7678 63.6943 62.0577 63.6389 62.3284 63.5283C62.599 63.4177 62.8448 63.2541 63.0513 63.0473C63.2579 62.8404 63.4211 62.5944 63.5313 62.3236C63.6416 62.0529 63.6966 61.7628 63.6933 61.4705C63.6899 61.1782 63.6282 60.8895 63.5118 60.6213C63.3954 60.3532 63.2266 60.1109 63.0153 59.9089L59.9129 56.8236C59.7098 56.6114 59.4661 56.4422 59.1963 56.326C58.9265 56.2099 58.6361 56.1492 58.3424 56.1475ZM101.703 56.1603C101.136 56.1784 100.597 56.4162 100.201 56.8236L97.0948 59.9132C96.8838 60.1155 96.7153 60.358 96.5992 60.6263C96.4832 60.8946 96.4219 61.1834 96.4189 61.4757C96.416 61.768 96.4714 62.058 96.582 62.3286C96.6926 62.5993 96.8562 62.8451 97.063 63.0516C97.2699 63.2582 97.5159 63.4214 97.7867 63.5316C98.0574 63.6419 98.3475 63.6969 98.6398 63.6935C98.9321 63.6902 99.2209 63.6285 99.489 63.5121C99.7572 63.3956 99.9994 63.2268 100.201 63.0156L103.287 59.9132C103.6 59.6054 103.813 59.2107 103.899 58.7803C103.985 58.3499 103.94 57.9036 103.769 57.4992C103.599 57.0948 103.31 56.751 102.942 56.5123C102.574 56.2736 102.142 56.1509 101.703 56.1603ZM80.055 60.3368C69.1908 60.3368 60.3366 69.1911 60.3365 80.0553C60.3365 86.8405 63.8659 92.7341 69.1003 96.2777V101.965C69.1004 103.175 70.0813 104.156 71.2912 104.156H88.8188C90.0288 104.156 91.0096 103.175 91.0098 101.965V96.2777C96.2442 92.7341 99.7735 86.8405 99.7735 80.0553C99.7735 69.1911 90.9193 60.3368 80.055 60.3368ZM80.0465 69.0963C80.6281 69.0963 81.1859 69.3274 81.5972 69.7386C82.0085 70.1499 82.2396 70.7077 82.2396 71.2894C82.2396 71.871 82.0085 72.4288 81.5972 72.8401C81.1859 73.2514 80.6281 73.4825 80.0465 73.4825C76.3904 73.4825 73.4822 76.4078 73.4822 80.0639C73.4822 80.6455 73.2511 81.2033 72.8399 81.6146C72.4286 82.0259 71.8708 82.2569 71.2891 82.2569C70.7075 82.2569 70.1496 82.0259 69.7384 81.6146C69.3271 81.2033 69.096 80.6455 69.096 80.0639C69.096 74.0397 74.0223 69.0963 80.0465 69.0963ZM49.3818 77.8644C49.0899 77.8578 48.7997 77.9096 48.5282 78.0168C48.2566 78.124 48.0092 78.2843 47.8005 78.4884C47.5917 78.6925 47.4259 78.9362 47.3127 79.2053C47.1994 79.4744 47.1411 79.7634 47.1411 80.0553C47.1411 80.3472 47.1994 80.6362 47.3127 80.9053C47.4259 81.1744 47.5917 81.4181 47.8005 81.6222C48.0092 81.8263 48.2566 81.9867 48.5282 82.0938C48.7997 82.201 49.0899 82.2528 49.3818 82.2462H53.768C54.0598 82.2528 54.3501 82.201 54.6216 82.0938C54.8932 81.9867 55.1406 81.8263 55.3493 81.6222C55.558 81.4181 55.7239 81.1744 55.8371 80.9053C55.9503 80.6362 56.0087 80.3472 56.0087 80.0553C56.0087 79.7634 55.9503 79.4744 55.8371 79.2053C55.7239 78.9362 55.558 78.6925 55.3493 78.4884C55.1406 78.2843 54.8932 78.124 54.6216 78.0168C54.3501 77.9096 54.0598 77.8578 53.768 77.8644H49.3818ZM106.346 77.8644C106.055 77.8578 105.764 77.9096 105.493 78.0168C105.221 78.124 104.974 78.2843 104.765 78.4884C104.556 78.6925 104.39 78.9362 104.277 79.2053C104.164 79.4744 104.106 79.7634 104.106 80.0553C104.106 80.3472 104.164 80.6362 104.277 80.9053C104.39 81.1744 104.556 81.4181 104.765 81.6222C104.974 81.8263 105.221 81.9867 105.493 82.0938C105.764 82.201 106.055 82.2528 106.346 82.2462H110.728C111.02 82.2528 111.31 82.201 111.582 82.0938C111.853 81.9867 112.101 81.8263 112.31 81.6222C112.518 81.4181 112.684 81.1744 112.797 80.9053C112.911 80.6362 112.969 80.3472 112.969 80.0553C112.969 79.7634 112.911 79.4744 112.797 79.2053C112.684 78.9362 112.518 78.6925 112.31 78.4884C112.101 78.2843 111.853 78.124 111.582 78.0168C111.31 77.9096 111.02 77.8578 110.728 77.8644H106.346ZM61.4448 96.4275C61.4348 96.4288 61.4249 96.4303 61.4149 96.4318C60.8472 96.4498 60.3087 96.6876 59.9129 97.095L56.8233 100.197C56.594 100.394 56.4077 100.636 56.2763 100.907C56.1448 101.179 56.0709 101.475 56.0593 101.777C56.0476 102.079 56.0985 102.38 56.2087 102.661C56.3188 102.942 56.4859 103.197 56.6994 103.411C56.9129 103.624 57.1683 103.792 57.4494 103.902C57.7306 104.012 58.0315 104.063 58.3332 104.051C58.635 104.039 58.931 103.966 59.2029 103.834C59.4747 103.703 59.7164 103.516 59.9129 103.287L63.0153 100.197C63.3335 99.8915 63.5518 99.4965 63.6418 99.0644C63.7317 98.6322 63.689 98.1829 63.5192 97.7754C63.3495 97.3679 63.0606 97.0212 62.6904 96.7807C62.3203 96.5402 61.8861 96.4171 61.4448 96.4275ZM98.631 96.4318C98.1935 96.4293 97.7653 96.5578 97.4015 96.8008C97.0377 97.0438 96.755 97.3901 96.5897 97.7952C96.4245 98.2003 96.3843 98.6456 96.4743 99.0737C96.5643 99.5018 96.7804 99.8932 97.0948 100.197L100.201 103.287C100.397 103.519 100.639 103.708 100.911 103.842C101.184 103.975 101.481 104.051 101.784 104.064C102.088 104.077 102.39 104.026 102.673 103.916C102.956 103.806 103.213 103.638 103.427 103.423C103.642 103.208 103.809 102.951 103.919 102.668C104.029 102.385 104.079 102.083 104.066 101.779C104.053 101.476 103.976 101.179 103.842 100.907C103.708 100.634 103.519 100.393 103.287 100.197L100.201 97.095C99.9973 96.8851 99.7531 96.7183 99.4834 96.6044C99.2136 96.4905 98.9238 96.4318 98.631 96.4318ZM75.4635 108.542C75.4606 108.543 75.4577 108.545 75.4549 108.546C74.8829 108.589 74.3502 108.853 73.9709 109.283C73.5916 109.714 73.3959 110.275 73.4255 110.848C73.4552 111.421 73.7079 111.959 74.1296 112.348C74.5513 112.737 75.1084 112.945 75.6817 112.928H84.4284C84.7202 112.935 85.0104 112.883 85.282 112.776C85.5535 112.668 85.801 112.508 86.0097 112.304C86.2184 112.1 86.3843 111.856 86.4975 111.587C86.6107 111.318 86.669 111.029 86.669 110.737C86.669 110.445 86.6107 110.156 86.4975 109.887C86.3843 109.618 86.2184 109.374 86.0097 109.17C85.801 108.966 85.5535 108.806 85.282 108.699C85.0104 108.591 84.7202 108.54 84.4284 108.546H75.6817C75.6091 108.541 75.5362 108.54 75.4635 108.542Z" fill="white"/>
<defs>
<linearGradient id="paint0_linear_40_98" x1="80" y1="0" x2="80" y2="160" gradientUnits="userSpaceOnUse">
<stop stop-color="#D73470"/>
<stop offset="1" stop-color="#FF5CAA"/>
</linearGradient>
</defs>
</svg>
