<svg width="100" height="100" viewBox="0 0 100 100" fill="none" xmlns="http://www.w3.org/2000/svg">
<circle cx="50" cy="50" r="50" fill="white"/>
<g clip-path="url(#clip0_44_74)">
<path d="M58.1467 51.6406C57.3844 55.3803 53.9613 58.2031 50.0002 58.2031C46.0391 58.2031 42.7253 55.3803 41.9631 51.6406H38.6816C39.4863 57.1914 44.2301 61.4844 50.0002 61.4844C55.7703 61.4844 60.6235 57.1914 61.4281 51.6406H58.1467Z" fill="#FF900A"/>
<path d="M64.7092 51.6406C63.8809 59.0032 57.5805 64.7656 50 64.7656C42.4195 64.7656 36.2285 59.0032 35.4002 51.6406H22V53.2812C22 53.9878 22.4535 54.6158 23.1232 54.8385L29.8736 57.0416C30.1572 57.8459 30.4568 58.5781 30.7772 59.2541L27.6626 65.5122C27.3485 66.1434 27.4735 66.9045 27.9718 67.4028L32.5972 72.0282C33.0987 72.5297 33.8581 72.6483 34.4878 72.3374L40.7459 69.2228C41.422 69.5432 42.1542 69.8428 42.9584 70.1264L45.1615 76.8768C45.3842 77.5465 46.0122 78 46.7188 78H53.3906C54.0972 78 54.7252 77.5465 54.9479 76.8768L57.1509 70.1264C57.9553 69.8428 58.6874 69.5432 59.3635 69.2228L65.6216 72.3374C66.2513 72.6498 67.0123 72.5297 67.5121 72.0282L72.1376 67.4028C72.6359 66.9045 72.7608 66.1434 72.4468 65.5122L69.3321 59.2541C69.6526 58.578 69.9522 57.8458 70.2358 57.0416L76.8768 54.8385C77.5465 54.6158 78 53.9878 78 53.2812V51.6406H64.7092Z" fill="#FF900A"/>
<path d="M45.3804 51.6406C46.0599 53.5462 47.8639 54.9219 50 54.9219C52.1361 54.9219 54.0495 53.5462 54.7291 51.6406H45.3804Z" fill="#FF900A"/>
<path d="M50 22C46.3807 22 43.4375 24.9432 43.4375 28.5625C43.4375 32.1818 46.3807 35.125 50 35.125C53.6193 35.125 56.6719 32.1818 56.6719 28.5625C56.6719 24.9432 53.6193 22 50 22Z" fill="#FF900A"/>
<path d="M66.5156 22C62.8963 22 59.9531 24.9432 59.9531 28.5625C59.9531 32.1818 62.8963 35.125 66.5156 35.125C70.135 35.125 73.0781 32.1818 73.0781 28.5625C73.0781 24.9432 70.135 22 66.5156 22Z" fill="#FF900A"/>
<path d="M33.5938 22C29.9744 22 27.0312 24.9432 27.0312 28.5625C27.0312 32.1818 29.9744 35.125 33.5938 35.125C37.2131 35.125 40.1562 32.1818 40.1562 28.5625C40.1562 24.9432 37.2131 22 33.5938 22Z" fill="#FF900A"/>
<path d="M72.1117 36.6434C70.5204 37.7491 68.5959 38.4062 66.5155 38.4062C64.4437 38.4062 62.5253 37.7561 60.9377 36.6589C60.2181 37.072 59.5266 37.5365 58.9004 38.0966C62.091 40.4816 64.3061 44.2065 64.7747 48.3594H77.9999V46.7187C77.9999 42.4287 75.6067 38.6149 72.1117 36.6434Z" fill="#FF900A"/>
<path d="M49.9998 38.4062C44.2239 38.4062 39.4302 42.8015 38.6323 48.3594H61.4765C60.6787 42.8015 55.7757 38.4062 49.9998 38.4062Z" fill="#FF900A"/>
<path d="M39.1715 36.6589C37.584 37.7561 35.6655 38.4062 33.5938 38.4062C31.5133 38.4062 29.5889 37.7491 27.9976 36.6434C24.5026 38.6149 22 42.4287 22 46.7187V48.3594H35.3346C35.8031 44.2065 38.0183 40.4816 41.2089 38.0966C40.5826 37.5365 39.8911 37.072 39.1715 36.6589Z" fill="#FF900A"/>
</g>
<defs>
<clipPath id="clip0_44_74">
<rect width="56" height="56" fill="white" transform="translate(22 22)"/>
</clipPath>
</defs>
</svg>
