<svg version="1.2" xmlns="http://www.w3.org/2000/svg" viewBox="0 0 1500 1000" width="1500" height="1000"><defs><clipPath clipPathUnits="userSpaceOnUse" id="cp1"><path d="m1500 1000h-1500v-1000h1500z"/></clipPath></defs><style>.a{fill:#bf4905}.b{fill:#eaa30a}.c{fill:#5e03b0}.d{fill:#e9e5d9}.e{fill:#f9fbfc}.f{fill:#0a335b}.g{fill:#fbd15b}</style><g clip-path="url(#cp1)"><path class="a" d="m916.7 166.6c-46 0-83.3-37.3-83.3-83.3 0-46 37.3-83.3 83.3-83.3 46.1 0 83.4 37.3 83.4 83.3 0 46-37.3 83.3-83.4 83.3z"/><path class="b" d="m916.7 120.5c-20.5 0-37.2-16.6-37.2-37.2 0-20.5 16.7-37.2 37.2-37.2 20.6 0 37.3 16.7 37.3 37.2 0 20.6-16.7 37.2-37.3 37.2z"/><path class="c" d="m1166.7 166.6h-166.6v-166.6h166.6z"/><path class="d" d="m833.4 166.6h-166.6c0-92 74.6-166.6 166.6-166.6z"/><path class="a" d="m1166.7 166.6v-166.6h166.7c0 92-74.7 166.6-166.7 166.6z"/><path class="d" d="m1500 166.6c-92 0-166.6-74.6-166.6-166.6h166.6z"/><path class="a" d="m833.4 333.3c-92 0-166.6-74.6-166.6-166.7h166.6z"/><path class="b" d="m833.4 261.4c-52.3 0-94.7-42.4-94.7-94.8h94.7z"/><path class="c" d="m1000.1 333.3h-166.7v-166.7h166.7z"/><path class="d" d="m952.4 285.6h-71.3v-71.3h71.3z"/><path class="d" d="m1166.7 333.3h-166.6v-166.7h166.6z"/><path class="a" d="m1166.7 333.3h-166.6c0-92 74.6-166.7 166.6-166.7z"/><path class="a" d="m1500 333.3h-166.6c0-92 74.6-166.7 166.6-166.7z"/><path class="b" d="m1333.4 333.3h-166.7v-166.7c92 0 166.7 74.7 166.7 166.7z"/><path class="b" d="m1000.1 499.9h-166.7v-166.6h166.7z"/><path class="e" d="m1166.7 499.9h-166.6v-166.6h166.6z"/><path class="c" d="m750.1 499.9c-46 0-83.3-37.3-83.3-83.3 0-46 37.3-83.3 83.3-83.3 46 0 83.3 37.3 83.3 83.3 0 46-37.3 83.3-83.3 83.3z"/><path class="a" d="m750.1 453.8c-20.5 0-37.2-16.7-37.2-37.2 0-20.5 16.7-37.2 37.2-37.2 20.5 0 37.2 16.7 37.2 37.2 0 20.5-16.7 37.2-37.2 37.2z"/><path class="e" d="m1333.4 499.9h-166.7v-166.6h166.7z"/><path class="c" d="m1166.7 499.9c-92 0-166.6-74.6-166.6-166.6h166.6z"/><path class="a" d="m1166.7 499.9v-166.6h166.7c0 92-74.7 166.6-166.7 166.6z"/><path class="e" d="m1166.7 333.3h-82.5c0-45.6 36.9-82.5 82.5-82.5z"/><path class="a" d="m1249.2 333.3h-82.5v-82.5c45.6 0 82.5 36.9 82.5 82.5z"/><path class="b" d="m1166.7 415.8c-45.6 0-82.5-36.9-82.5-82.5h82.5z"/><path class="c" d="m1166.7 415.8v-82.5h82.5c0 45.6-36.9 82.5-82.5 82.5z"/><path class="c" d="m1500 499.9h-166.6v-166.6c92 0 166.6 74.6 166.6 166.6z"/><path class="d" d="m833.4 666.6c-92 0-166.6-74.6-166.6-166.7h166.6z"/><path class="f" d="m1000.1 666.6h-166.7v-166.7h166.7z"/><path class="c" d="m1000.1 666.6h-166.7l166.7-166.7z"/><path class="a" d="m1166.7 666.6h-166.6v-166.7c92 0 166.6 74.6 166.6 166.7z"/><path class="b" d="m1500 666.6h-166.6v-166.7c92 0 166.6 74.6 166.6 166.7z"/><path class="f" d="m1333.4 666.6h-166.7c0-92.1 74.6-166.7 166.7-166.7z"/><path class="c" d="m1333.4 666.6h-166.7c0-92.1 74.6-166.7 166.7-166.7z"/><path class="d" d="m1438 666.6h-104.6v-104.7c57.8 0 104.6 46.9 104.6 104.7z"/><path class="a" d="m1333.4 666.6h-104.7c0-57.8 46.9-104.7 104.7-104.7z"/><path class="a" d="m833.4 833.2c-92 0-166.6 74.6-166.6 166.7h166.6z"/><path class="b" d="m833.4 833.2v166.7h166.7c0-92.1-74.6-166.7-166.7-166.7z"/><path class="d" d="m833.4 903.6c-53.2 0-96.3 43.1-96.3 96.3h96.3z"/><path class="e" d="m833.4 903.6v96.3h96.3c0-53.2-43.1-96.3-96.3-96.3z"/><path class="c" d="m1000.1 833.2c0 92.1 74.6 166.7 166.6 166.7 0-92.1-74.6-166.7-166.6-166.7z"/><path class="c" d="m1500 833.2h-166.6v166.7h166.6z"/><path class="a" d="m1333.4 833.2c-92.1 0-166.7 74.6-166.7 166.7h166.7z"/><path class="a" d="m833.4 666.6c0 92 74.6 166.6 166.7 166.6 0-92-74.6-166.6-166.7-166.6z"/><path class="b" d="m1166.7 666.6c-92 0-166.6 74.6-166.6 166.6 92 0 166.6-74.6 166.6-166.6z"/><path class="e" d="m1333.4 666.6h-166.7v166.6h166.7z"/><path class="b" d="m1291.7 666.6c-23 0-41.7 18.6-41.7 41.6 0 23 18.7 41.7 41.7 41.7 23 0 41.7-18.7 41.7-41.7 0-23-18.7-41.6-41.7-41.6z"/><path class="e" d="m1291.7 698.4c-5.4 0-9.9 4.4-9.9 9.8 0 5.5 4.5 9.9 9.9 9.9 5.4 0 9.9-4.4 9.9-9.9 0-5.4-4.5-9.8-9.9-9.8z"/><path class="d" d="m1208.4 666.6c-23 0-41.7 18.6-41.7 41.6 0 23 18.7 41.7 41.7 41.7 23 0 41.6-18.7 41.6-41.7 0-23-18.6-41.6-41.6-41.6z"/><path class="f" d="m1208.4 698.4c-5.5 0-9.9 4.4-9.9 9.8 0 5.5 4.4 9.9 9.9 9.9 5.4 0 9.8-4.4 9.8-9.9 0-5.4-4.4-9.8-9.8-9.8z"/><path class="c" d="m1291.7 749.9c-23 0-41.7 18.6-41.7 41.7 0 23 18.7 41.6 41.7 41.6 23 0 41.7-18.6 41.7-41.6 0-23.1-18.7-41.7-41.7-41.7z"/><path class="b" d="m1291.7 781.7c-5.4 0-9.9 4.4-9.9 9.9 0 5.4 4.5 9.8 9.9 9.8 5.4 0 9.9-4.4 9.9-9.8 0-5.5-4.5-9.9-9.9-9.9z"/><path class="a" d="m1208.4 749.9c-23 0-41.7 18.6-41.7 41.7 0 23 18.7 41.6 41.7 41.6 23 0 41.6-18.6 41.6-41.6 0-23.1-18.6-41.7-41.6-41.7z"/><path class="d" d="m1208.4 781.7c-5.5 0-9.9 4.4-9.9 9.9 0 5.4 4.4 9.8 9.9 9.8 5.4 0 9.8-4.4 9.8-9.8 0-5.5-4.4-9.9-9.8-9.9z"/><path class="a" d="m1500 666.6h-166.6v166.6h166.6z"/><path class="c" d="m1452.2 714.4h-71v71h71z"/><path class="g" d="m1356.3 893.1c2.1 0 4.2-0.9 5.7-2.4 1.5-1.5 2.3-3.6 2.3-5.7 0-2.1-0.8-4.2-2.3-5.7-1.5-1.5-3.6-2.4-5.7-2.4-2.2 0-4.2 0.9-5.7 2.4-1.5 1.5-2.4 3.6-2.4 5.7 0 2.1 0.9 4.2 2.4 5.7 1.5 1.5 3.5 2.4 5.7 2.4z"/><path class="g" d="m1439.5 893.1c4.5 0 8.1-3.6 8.1-8.1 0-4.4-3.6-8.1-8.1-8.1-4.5 0-8.1 3.7-8.1 8.1 0 4.5 3.6 8.1 8.1 8.1z"/><path class="g" d="m1397.9 893.1c4.5 0 8.1-3.6 8.1-8.1 0-4.4-3.6-8.1-8.1-8.1-4.5 0-8.1 3.7-8.1 8.1 0 4.5 3.6 8.1 8.1 8.1z"/><path class="g" d="m1481.1 893.1c2.2 0 4.2-0.9 5.7-2.4 1.5-1.5 2.4-3.6 2.4-5.7 0-2.1-0.9-4.2-2.4-5.7-1.5-1.5-3.5-2.4-5.7-2.4-2.1 0-4.2 0.9-5.7 2.4-1.5 1.5-2.3 3.6-2.3 5.7 0 2.1 0.8 4.2 2.3 5.7 1.5 1.5 3.6 2.4 5.7 2.4z"/><path class="g" d="m1356.3 859.9c2.1 0 4.2-0.8 5.7-2.3 1.5-1.5 2.3-3.6 2.3-5.7 0-2.2-0.8-4.3-2.3-5.8-1.5-1.5-3.6-2.3-5.7-2.3-2.2 0-4.2 0.8-5.7 2.3-1.5 1.5-2.4 3.6-2.4 5.8 0 2.1 0.9 4.2 2.4 5.7 1.5 1.5 3.5 2.3 5.7 2.3z"/><path class="g" d="m1439.5 859.9c4.5 0 8.1-3.6 8.1-8 0-4.5-3.6-8.1-8.1-8.1-4.5 0-8.1 3.6-8.1 8.1 0 4.4 3.6 8 8.1 8z"/><path class="g" d="m1397.9 859.9c4.5 0 8.1-3.6 8.1-8 0-4.5-3.6-8.1-8.1-8.1-4.5 0-8.1 3.6-8.1 8.1 0 4.4 3.6 8 8.1 8z"/><path class="g" d="m1481.1 859.9c2.2 0 4.2-0.8 5.7-2.3 1.5-1.5 2.4-3.6 2.4-5.7 0-2.2-0.9-4.3-2.4-5.8-1.5-1.5-3.5-2.3-5.7-2.3-2.1 0-4.2 0.8-5.7 2.3-1.5 1.5-2.3 3.6-2.3 5.8 0 2.1 0.8 4.2 2.3 5.7 1.5 1.5 3.6 2.3 5.7 2.3z"/><path class="g" d="m1356.3 926.2c2.1 0 4.2-0.8 5.7-2.3 1.5-1.5 2.3-3.6 2.3-5.7 0-2.2-0.8-4.2-2.3-5.7-1.5-1.5-3.6-2.4-5.7-2.4-2.2 0-4.2 0.9-5.7 2.4-1.5 1.5-2.4 3.5-2.4 5.7 0 2.1 0.9 4.2 2.4 5.7 1.5 1.5 3.5 2.3 5.7 2.3z"/><path class="g" d="m1439.5 926.2c4.5 0 8.1-3.6 8.1-8 0-4.5-3.6-8.1-8.1-8.1-4.5 0-8.1 3.6-8.1 8.1 0 4.4 3.6 8 8.1 8z"/><path class="g" d="m1397.9 926.2c4.5 0 8.1-3.6 8.1-8 0-4.5-3.6-8.1-8.1-8.1-4.5 0-8.1 3.6-8.1 8.1 0 4.4 3.6 8 8.1 8z"/><path class="g" d="m1481.1 926.2c2.2 0 4.2-0.8 5.7-2.3 1.5-1.5 2.4-3.6 2.4-5.7 0-2.2-0.9-4.2-2.4-5.7-1.5-1.5-3.5-2.4-5.7-2.4-2.1 0-4.2 0.9-5.7 2.4-1.5 1.5-2.3 3.5-2.3 5.7 0 2.1 0.8 4.2 2.3 5.7 1.5 1.5 3.6 2.3 5.7 2.3z"/><path class="g" d="m1356.3 959.4c2.1 0 4.2-0.9 5.7-2.4 1.5-1.5 2.3-3.5 2.3-5.7 0-2.1-0.8-4.2-2.3-5.7-1.5-1.5-3.6-2.3-5.7-2.3-2.2 0-4.2 0.8-5.7 2.3-1.5 1.5-2.4 3.6-2.4 5.7 0 2.2 0.9 4.2 2.4 5.7 1.5 1.5 3.5 2.4 5.7 2.4z"/><path class="g" d="m1439.5 959.4c4.5 0 8.1-3.6 8.1-8.1 0-4.4-3.6-8-8.1-8-4.5 0-8.1 3.6-8.1 8 0 4.5 3.6 8.1 8.1 8.1z"/><path class="g" d="m1397.9 959.4c4.5 0 8.1-3.6 8.1-8.1 0-4.4-3.6-8-8.1-8-4.5 0-8.1 3.6-8.1 8 0 4.5 3.6 8.1 8.1 8.1z"/><path class="g" d="m1481.1 959.4c2.2 0 4.2-0.9 5.7-2.4 1.5-1.5 2.4-3.5 2.4-5.7 0-2.1-0.9-4.2-2.4-5.7-1.5-1.5-3.5-2.3-5.7-2.3-2.1 0-4.2 0.8-5.7 2.3-1.5 1.5-2.3 3.6-2.3 5.7 0 2.2 0.8 4.2 2.3 5.7 1.5 1.5 3.6 2.4 5.7 2.4z"/><path class="g" d="m1356.3 992.6c2.1 0 4.2-0.9 5.7-2.4 1.5-1.5 2.3-3.6 2.3-5.7 0-2.1-0.8-4.2-2.3-5.7-1.5-1.5-3.6-2.4-5.7-2.4-2.2 0-4.2 0.9-5.7 2.4-1.5 1.5-2.4 3.6-2.4 5.7 0 2.1 0.9 4.2 2.4 5.7 1.5 1.5 3.5 2.4 5.7 2.4z"/><path class="g" d="m1439.5 992.6c4.5 0 8.1-3.7 8.1-8.1 0-4.5-3.6-8.1-8.1-8.1-4.5 0-8.1 3.6-8.1 8.1 0 4.4 3.6 8.1 8.1 8.1z"/><path class="g" d="m1397.9 992.6c4.5 0 8.1-3.7 8.1-8.1 0-4.5-3.6-8.1-8.1-8.1-4.5 0-8.1 3.6-8.1 8.1 0 4.4 3.6 8.1 8.1 8.1z"/><path class="g" d="m1481.1 992.6c2.2 0 4.2-0.9 5.7-2.4 1.5-1.5 2.4-3.6 2.4-5.7 0-2.1-0.9-4.2-2.4-5.7-1.5-1.5-3.5-2.4-5.7-2.4-2.1 0-4.2 0.9-5.7 2.4-1.5 1.5-2.3 3.6-2.3 5.7 0 2.1 0.8 4.2 2.3 5.7 1.5 1.5 3.6 2.4 5.7 2.4z"/><path class="e" d="m854.2 393.3c2.1 0 4.2-0.9 5.7-2.4 1.5-1.5 2.4-3.6 2.4-5.7 0-2.1-0.9-4.2-2.4-5.7-1.5-1.5-3.6-2.4-5.7-2.4-2.1 0-4.2 0.9-5.7 2.4-1.5 1.5-2.4 3.6-2.4 5.7 0 2.1 0.9 4.2 2.4 5.7 1.5 1.5 3.6 2.4 5.7 2.4z"/><path class="e" d="m937.4 393.3h0.1c4.4 0 8-3.6 8-8.1 0-4.4-3.6-8.1-8-8.1h-0.1c-4.4 0-8 3.7-8 8.1 0 4.5 3.6 8.1 8 8.1z"/><path class="e" d="m895.8 393.3c4.5 0 8.1-3.6 8.1-8.1 0-4.4-3.6-8.1-8.1-8.1-4.4 0-8.1 3.7-8.1 8.1 0 4.5 3.7 8.1 8.1 8.1z"/><path class="e" d="m979.1 393.3c2.1 0 4.2-0.9 5.7-2.4 1.5-1.5 2.3-3.6 2.3-5.7 0-2.1-0.8-4.2-2.3-5.7-1.5-1.5-3.6-2.4-5.7-2.4-2.2 0-4.2 0.9-5.7 2.4-1.5 1.5-2.4 3.6-2.4 5.7 0 2.1 0.9 4.2 2.4 5.7 1.5 1.5 3.5 2.4 5.7 2.4z"/><path class="e" d="m854.2 360.1c2.1 0 4.2-0.8 5.7-2.3 1.5-1.5 2.4-3.6 2.4-5.7 0-2.2-0.9-4.3-2.4-5.8-1.5-1.5-3.6-2.3-5.7-2.3-2.1 0-4.2 0.8-5.7 2.3-1.5 1.5-2.4 3.6-2.4 5.8 0 2.1 0.9 4.2 2.4 5.7 1.5 1.5 3.6 2.3 5.7 2.3z"/><path class="e" d="m937.4 360.1h0.1c4.4 0 8-3.6 8-8 0-4.5-3.6-8.1-8-8.1h-0.1c-4.4 0-8 3.6-8 8.1 0 4.4 3.6 8 8 8z"/><path class="e" d="m895.8 360.1c4.5 0 8.1-3.6 8.1-8 0-4.5-3.6-8.1-8.1-8.1-4.4 0-8.1 3.6-8.1 8.1 0 4.4 3.7 8 8.1 8z"/><path class="e" d="m979.1 360.1c2.1 0 4.2-0.8 5.7-2.3 1.5-1.5 2.3-3.6 2.3-5.7 0-2.2-0.8-4.3-2.3-5.8-1.5-1.5-3.6-2.3-5.7-2.3-2.2 0-4.2 0.8-5.7 2.3-1.5 1.5-2.4 3.6-2.4 5.8 0 2.1 0.9 4.2 2.4 5.7 1.5 1.5 3.5 2.3 5.7 2.3z"/><path class="e" d="m854.2 426.4c2.1 0 4.2-0.8 5.7-2.3 1.5-1.5 2.4-3.6 2.4-5.7 0-2.2-0.9-4.2-2.4-5.7-1.5-1.5-3.6-2.4-5.7-2.4-2.1 0-4.2 0.9-5.7 2.4-1.5 1.5-2.4 3.5-2.4 5.7 0 2.1 0.9 4.2 2.4 5.7 1.5 1.5 3.6 2.3 5.7 2.3z"/><path class="e" d="m937.4 426.4h0.1c4.4 0 8-3.6 8-8 0-4.5-3.6-8.1-8-8.1h-0.1c-4.4 0-8 3.6-8 8.1 0 4.4 3.6 8 8 8z"/><path class="e" d="m895.8 426.4c4.5 0 8.1-3.6 8.1-8 0-4.5-3.6-8.1-8.1-8.1-4.4 0-8.1 3.6-8.1 8.1 0 4.4 3.7 8 8.1 8z"/><path class="e" d="m979.1 426.4c2.1 0 4.2-0.8 5.7-2.3 1.5-1.5 2.3-3.6 2.3-5.7 0-2.2-0.8-4.2-2.3-5.7-1.5-1.5-3.6-2.4-5.7-2.4-2.2 0-4.2 0.9-5.7 2.4-1.5 1.5-2.4 3.5-2.4 5.7 0 2.1 0.9 4.2 2.4 5.7 1.5 1.5 3.5 2.3 5.7 2.3z"/><path class="e" d="m854.2 459.6c2.1 0 4.2-0.9 5.7-2.4 1.5-1.5 2.4-3.5 2.4-5.7 0-2.1-0.9-4.2-2.4-5.7-1.5-1.5-3.6-2.3-5.7-2.3-2.1 0-4.2 0.8-5.7 2.3-1.5 1.5-2.4 3.6-2.4 5.7 0 2.2 0.9 4.2 2.4 5.7 1.5 1.5 3.6 2.4 5.7 2.4z"/><path class="e" d="m937.4 459.6h0.1c4.4 0 8-3.6 8-8.1 0-4.4-3.6-8-8-8h-0.1c-4.4 0-8 3.6-8 8 0 4.5 3.6 8.1 8 8.1z"/><path class="e" d="m895.8 459.6c4.5 0 8.1-3.6 8.1-8.1 0-4.4-3.6-8-8.1-8-4.4 0-8.1 3.6-8.1 8 0 4.5 3.7 8.1 8.1 8.1z"/><path class="e" d="m979.1 459.6c2.1 0 4.2-0.9 5.7-2.4 1.5-1.5 2.3-3.5 2.3-5.7 0-2.1-0.8-4.2-2.3-5.7-1.5-1.5-3.6-2.3-5.7-2.3-2.2 0-4.2 0.8-5.7 2.3-1.5 1.5-2.4 3.6-2.4 5.7 0 2.2 0.9 4.2 2.4 5.7 1.5 1.5 3.5 2.4 5.7 2.4z"/><path class="e" d="m854.2 492.8c2.1 0 4.2-0.9 5.7-2.4 1.5-1.5 2.4-3.6 2.4-5.7 0-2.1-0.9-4.2-2.4-5.7-1.5-1.5-3.6-2.4-5.7-2.4-2.1 0-4.2 0.9-5.7 2.4-1.5 1.5-2.4 3.6-2.4 5.7 0 2.1 0.9 4.2 2.4 5.7 1.5 1.5 3.6 2.4 5.7 2.4z"/><path class="e" d="m937.4 492.8h0.1c4.4 0 8-3.7 8-8.1 0-4.5-3.6-8.1-8-8.1h-0.1c-4.4 0-8 3.6-8 8.1 0 4.4 3.6 8.1 8 8.1z"/><path class="e" d="m895.8 492.8c4.5 0 8.1-3.7 8.1-8.1 0-4.5-3.6-8.1-8.1-8.1-4.4 0-8.1 3.6-8.1 8.1 0 4.4 3.7 8.1 8.1 8.1z"/><path class="e" d="m979.1 492.8c2.1 0 4.2-0.9 5.7-2.4 1.5-1.5 2.3-3.6 2.3-5.7 0-2.1-0.8-4.2-2.3-5.7-1.5-1.5-3.6-2.4-5.7-2.4-2.2 0-4.2 0.9-5.7 2.4-1.5 1.5-2.4 3.6-2.4 5.7 0 2.1 0.9 4.2 2.4 5.7 1.5 1.5 3.5 2.4 5.7 2.4z"/></g></svg>