<svg width="44" height="44" viewBox="0 0 44 44" fill="none" xmlns="http://www.w3.org/2000/svg">
<circle cx="22" cy="22" r="22" fill="#FFEDE2"/>
<g clip-path="url(#clip0_17_1453)">
<path d="M25.7408 12.5791L23.189 10.4356C22.8433 10.1452 22.4215 10 21.9998 10C21.5781 10 21.1563 10.1452 20.8106 10.4356L18.2588 12.5791H25.7408Z" fill="#F35D06"/>
<path d="M12.1562 19.4166L21.7114 26.8816C21.8165 26.9637 21.9264 26.9809 22 26.9809C22.0736 26.9809 22.1835 26.9637 22.2886 26.8816L31.8438 19.4166V14.9228C31.8438 14.405 31.424 13.9853 30.9062 13.9853H13.0938C12.576 13.9853 12.1562 14.405 12.1562 14.9228V19.4166ZM27.8359 20.5469C27.8359 20.9352 27.5211 21.25 27.1328 21.25H16.8672C16.4789 21.25 16.1641 20.9352 16.1641 20.5469C16.1641 20.1586 16.4789 19.8437 16.8672 19.8437H27.1328C27.5211 19.8437 27.8359 20.1586 27.8359 20.5469ZM23.5234 17.0312C23.9117 17.0312 24.2266 17.3461 24.2266 17.7344C24.2266 18.1227 23.9117 18.4375 23.5234 18.4375H16.8672C16.4789 18.4375 16.1641 18.1227 16.1641 17.7344C16.1641 17.3461 16.4789 17.0312 16.8672 17.0312H23.5234Z" fill="#F35D06"/>
<path d="M32.1249 34C32.3172 34 32.5028 33.9709 32.6775 33.9171L23.8496 27.588C23.8182 27.5655 23.7898 27.5404 23.7633 27.5139L23.1542 27.9897C22.815 28.2547 22.4074 28.3872 21.9998 28.3872C21.5922 28.3872 21.1847 28.2547 20.8455 27.9897L20.2364 27.5139C20.2099 27.5404 20.1815 27.5655 20.1501 27.588L11.3223 33.9171C11.497 33.9709 11.6825 34 11.8749 34H32.1249Z" fill="#F35D06"/>
<path d="M34 19.5166L24.9102 26.618L33.791 32.985C33.9242 32.7273 34 32.4351 34 32.125V19.5166Z" fill="#F35D06"/>
<path d="M19.0898 26.618L10 19.5166V32.125C10 32.4351 10.0758 32.7273 10.209 32.985L19.0898 26.618Z" fill="#F35D06"/>
</g>
<defs>
<clipPath id="clip0_17_1453">
<rect width="24" height="24" fill="white" transform="translate(10 10)"/>
</clipPath>
</defs>
</svg>
