<svg xmlns="http://www.w3.org/2000/svg" version="1.1" xmlns:xlink="http://www.w3.org/1999/xlink" width="512" height="512" x="0" y="0" viewBox="0 0 512 512" style="enable-background:new 0 0 512 512" xml:space="preserve" class=""><g><circle cx="105.876" cy="375.792" r="43.938" transform="rotate(-22.48 105.973 375.467)" fill="#ffffff" opacity="1" data-original="#000000" class=""></circle><circle cx="406.124" cy="375.792" r="43.938" transform="rotate(-31.72 405.905 375.606)" fill="#ffffff" opacity="1" data-original="#000000" class=""></circle><path d="M406.124 419.73c-39.231 0-71.033 31.803-71.033 71.033l-.001.001c.627-22.488-8.274-43.564-23.17-58.344-14.31-14.31-34.08-23.16-55.92-23.16-43.68 0-79.09 35.41-79.09 79.09v2.414l-.001-.001c0-39.23-31.803-71.033-71.033-71.033-39.231 0-71.033 31.803-71.033 71.033V497c0 8.284 6.716 15 15 15h412.314c8.284 0 15-6.716 15-15v-6.237c0-39.23-31.803-71.033-71.033-71.033z" fill="#ffffff" opacity="1" data-original="#000000" class=""></path><circle cx="256" cy="360.34" r="48.92" transform="rotate(-9.25 256.053 360.892)" fill="#ffffff" opacity="1" data-original="#000000" class=""></circle><path d="M310.18 54.18C310.18 24.26 285.93 0 256 0s-54.18 24.26-54.18 54.18c0 29.94 24.25 54.2 54.18 54.2s54.18-24.26 54.18-54.2zM317.95 134.04c-16.4-16.27-37.93-25.58-61.95-25.66-17.47 0-33.76 5.12-47.43 13.94-17.39 11.21-30.54 28.41-36.57 48.68h167.99c-4.2-14.15-11.88-26.79-22.04-36.96zM410.47 142.41l34.61-34.6c5.85-5.86 5.85-15.36 0-21.22-5.86-5.85-15.36-5.85-21.22 0l-39 39a15.027 15.027 0 0 0-4.39 10.61V171h30zM101.53 142.41V171h30v-34.8c0-3.98-1.58-7.79-4.39-10.61l-39-39c-5.86-5.85-15.36-5.85-21.22 0-5.85 5.86-5.85 15.36 0 21.22zM442 243v-27c0-8.28-6.72-15-15-15H85c-8.28 0-15 6.72-15 15v27c0 8.28 6.72 15 15 15h15.024a13.49 13.49 0 0 0 .036 2.35l3.76 41.53c.68-.02 1.37-.03 2.06-.03 34.01 0 62.72 23.08 71.3 54.39 2.14-41.62 36.67-74.82 78.82-74.82s76.68 33.2 78.82 74.82c8.58-31.31 37.29-54.39 71.3-54.39.69 0 1.38.01 2.06.03l3.76-41.53a13.49 13.49 0 0 0 .036-2.35H427c8.28 0 15-6.72 15-15z" fill="#ffffff" opacity="1" data-original="#000000" class=""></path></g></svg>