<svg xmlns="http://www.w3.org/2000/svg" version="1.1" xmlns:xlink="http://www.w3.org/1999/xlink" width="512" height="512" x="0" y="0" viewBox="0 0 510.319 510.319" style="enable-background:new 0 0 512 512" xml:space="preserve" class=""><g><path d="M425.432 316.141a180.854 180.854 0 0 0 11.076-44.91l23.255-4.953c34.485-7.345 56.486-41.254 49.142-75.739l-7.807-36.656-30.049 6.4c-18.955 4.037-34.123 16.109-42.735 31.883a184.873 184.873 0 0 0-20.736-43.097l6.964-8.785C438.073 110.6 433.085 67.46 403.4 43.928l-31.553-25.013-20.505 25.866c-23.531 29.685-18.543 72.825 11.141 96.356l.757.6c28.274 28.331 44.467 67.826 44.467 108.64 0 84-68.339 152.338-152.338 152.338s-152.338-68.339-152.338-152.338c0-41.992 17.11-82.078 47.103-110.803a68.773 68.773 0 0 0 3.558-3.31c.058-.052.114-.106.172-.159l-.008-.009c24.219-24.299 26.954-63.416 5.12-90.96L138.471 19.27l-31.553 25.013c-29.685 23.531-34.673 66.672-11.141 96.356l7.198 9.08a183.59 183.59 0 0 0-20.754 43.195c-8.573-15.967-23.839-28.205-42.952-32.276l-30.049-6.4-7.807 36.656c-7.345 34.485 14.657 68.394 49.142 75.739l23.728 5.053a180.848 180.848 0 0 0 11.306 45.194c-17.46-9.46-39.205-10.169-57.933.053l-25.594 13.97 17.039 31.219c16.03 29.37 52.835 40.185 82.205 24.154l20.945-11.432a183.504 183.504 0 0 0 44.634 34.914c-18.776 4.247-35.247 17.282-43.059 36.463l-11.064 27.167 33.139 13.497c31.177 12.697 66.743-2.283 79.441-33.46l8.933-21.935a183.415 183.415 0 0 0 21.093 1.227c7.044 0 13.992-.416 20.83-1.197l8.776 21.548c12.697 31.177 48.264 46.157 79.441 33.46l33.139-13.497-11.064-27.167c-7.708-18.927-23.849-31.867-42.315-36.287a183.547 183.547 0 0 0 44.389-34.817l20.447 11.16c29.37 16.03 66.175 5.216 82.205-24.155l17.039-31.219-25.593-13.968c-18.476-10.085-39.892-9.538-57.23-.437z" fill="#ffffff" opacity="1" data-original="#000000" class=""></path><path d="m201.532 269.611-6.522 65.744 60.51-26.522 60.511 26.519-6.526-65.744 43.92-49.354-64.543-14.11-33.367-57.022-33.363 57.024-64.542 14.113z" fill="#ffffff" opacity="1" data-original="#000000" class=""></path></g></svg>