<svg xmlns="http://www.w3.org/2000/svg" version="1.1" xmlns:xlink="http://www.w3.org/1999/xlink" width="512" height="512" x="0" y="0" viewBox="0 0 512.008 512.008" style="enable-background:new 0 0 512 512" xml:space="preserve" class=""><g><path d="M271.008 420.199V303.137h-30v117.061c-49.883 17.604-38.543 90.754 15.001 91.805 53.551-1.055 64.874-74.21 14.999-91.804zM384.541 353.47a46.829 46.829 0 0 0-20.978 4.943l-28.289-28.289v-26.987h-30v33.2c0 3.979 1.58 7.794 4.394 10.606l32.683 32.683c-15.77 30.507 7.693 68.57 42.191 68.11 62.439-2.366 62.427-91.905-.001-94.266zM479.875 99.604c0-34.849-28.352-63.2-63.2-63.2-83.728 3.177-83.706 123.235.001 126.4 34.848 0 63.199-28.351 63.199-63.2zM158.541 99.604c0-34.849-28.352-63.2-63.2-63.2-83.728 3.177-83.706 123.235.001 126.4 34.848 0 63.199-28.351 63.199-63.2zM416.675 162.804c-16.179 0-31.427 4.056-44.788 11.198 11.676 25.585 9.371 56.428 9.454 84.136a44.764 44.764 0 0 1-2.579 15h118.247c8.284 0 15-6.716 15-15-.001-52.567-42.768-95.334-95.334-95.334z" fill="#ffffff" opacity="1" data-original="#000000" class=""></path><path d="M130.675 258.137c.08-27.719-2.215-58.575 9.454-84.135C78.376 139.859-.959 187.215.009 258.139c-.001 8.283 6.715 14.999 14.999 14.999h118.247a44.791 44.791 0 0 1-2.58-15.001zM176.741 330.124l-28.289 28.289c-30.504-15.771-68.572 7.693-68.111 42.191 0 25.989 21.144 47.133 47.133 47.133 34.494.458 57.964-37.606 42.19-68.111l32.683-32.683a14.998 14.998 0 0 0 4.394-10.606v-33.2h-30zM175.675 273.137h160.666c8.284 0 15-6.716 15-15v-36.4c-4.791-126.294-185.891-126.268-190.666.002v36.399c0 8.284 6.716 14.999 15 14.999z" fill="#ffffff" opacity="1" data-original="#000000" class=""></path><path d="M319.208 63.204c0-34.849-28.352-63.2-63.2-63.2-83.728 3.177-83.706 123.235.001 126.4 34.848 0 63.199-28.351 63.199-63.2z" fill="#ffffff" opacity="1" data-original="#000000" class=""></path></g></svg>