<svg xmlns="http://www.w3.org/2000/svg" version="1.1" xmlns:xlink="http://www.w3.org/1999/xlink" width="512" height="512" x="0" y="0" viewBox="0 0 682.667 682.667" style="enable-background:new 0 0 512 512" xml:space="preserve" class=""><g><path d="M56.25 112.5c8.629 0 16.715-2.11 24.027-5.594l54.848 54.844c8.25-9.754 17.254-18.75 26.629-26.625l-54.848-54.848c3.485-7.312 5.594-15.398 5.594-24.027C112.5 25.234 87.266 0 56.25 0S0 25.234 0 56.25s25.234 56.25 56.25 56.25zM583.75 527.5c-8.629 0-16.715 2.11-24.027 5.594l-54.848-54.848c-8.25 9.754-17.254 18.75-26.629 26.629l54.856 54.848c-3.489 7.312-5.602 15.398-5.602 24.027 0 31.016 25.234 56.25 56.25 56.25S640 614.766 640 583.75s-25.234-56.25-56.25-56.25zM450.875 338.75c-2.25 61.5-16.125 124.125-42.375 167.25 64.125-30.375 110.25-93.379 117-167.25zM189.125 301.25c2.25-61.5 16.125-124.125 42.375-167.25-64.125 30.375-110.25 93.375-117 167.25zM525.5 301.25c-6.75-73.875-52.875-136.875-117-167.25 26.25 43.125 40.125 105.75 42.375 167.25zM114.5 338.75c6.75 73.871 52.875 136.875 117 167.25-26.25-43.125-40.125-105.75-42.375-167.25zM413.375 301.25C409.625 207.125 377 113.75 320 113.75s-89.625 93.375-93.375 187.5zM226.625 338.75c3.75 94.125 36.375 187.5 93.375 187.5s89.625-93.375 93.375-187.5zM504.875 161.75l54.848-54.844c7.312 3.485 15.398 5.594 24.027 5.594 31.016 0 56.25-25.234 56.25-56.25S614.766 0 583.75 0 527.5 25.234 527.5 56.25c0 8.629 2.11 16.715 5.594 24.027l-54.848 54.848c9.375 7.875 18.379 16.871 26.629 26.625zM135.125 478.246l-54.848 54.848c-7.312-3.485-15.398-5.594-24.027-5.594C25.234 527.5 0 552.734 0 583.75S25.234 640 56.25 640s56.25-25.234 56.25-56.25c0-8.629-2.113-16.715-5.602-24.027l54.856-54.848c-9.375-7.879-18.379-16.875-26.629-26.629zm0 0" fill="#ffffff" opacity="1" data-original="#000000" class=""></path></g></svg>