<svg xmlns="http://www.w3.org/2000/svg" version="1.1" xmlns:xlink="http://www.w3.org/1999/xlink" width="512" height="512" x="0" y="0" viewBox="0 0 512 512" style="enable-background:new 0 0 512 512" xml:space="preserve" class=""><g><path d="M138.988 91h112.023c16.042-35.954 44.252-65.027 44.488-65.5 4.5-4.2 5.7-10.5 3.3-16.2C296.4 3.6 291 0 285 0c-27 0-41.7 9.6-53.4 17.4C221.1 24.6 213 30 195 30s-26.1-5.4-36.6-12.6C146.7 9.6 132 0 105 0c-6 0-11.4 3.6-13.8 9.3s-1.2 12 3.3 16.2c.237.473 28.446 29.546 44.488 65.5zM301 467v30c0 8.284 6.716 15 15 15h181c8.284 0 15-6.716 15-15v-30c0-8.284-6.716-15-15-15H316c-8.284 0-15 6.716-15 15zM512 407v-30c0-8.284-6.716-15-15-15H316c-8.284 0-15 6.716-15 15v30c0 8.284 6.716 15 15 15h181c8.284 0 15-6.716 15-15z" fill="#ffffff" opacity="1" data-original="#000000" class=""></path><path d="M299.1 242.6c-29.4-28.8-53.4-53.2-58.2-91.6H255c8.4 0 15-6.6 15-15s-6.6-15-15-15H135c-8.4 0-15 6.6-15 15s6.6 15 15 15h14.1c-4.8 38.4-28.8 62.8-58.2 91.6C48.3 284.3 0 331.7 0 440c.6 39.6 34.5 72 75 72h197.76c-1.68-4.71-2.76-9.72-2.76-15V377c0-24.81 20.19-45 45-45h53.73c-18.15-38.9-45.07-65.3-69.63-89.4zM195 332c24.814 0 45 20.186 45 45 0 19.53-12.578 36.024-30 42.237V437c0 8.291-6.709 15-15 15s-15-6.709-15-15v-17.763c-17.422-6.212-30-22.707-30-42.237 0-8.291 6.709-15 15-15s15 6.709 15 15c0 8.276 6.724 15 15 15s15-6.724 15-15-6.724-15-15-15c-24.814 0-45-20.186-45-45 0-19.53 12.578-36.024 30-42.237V257c0-8.291 6.709-15 15-15s15 6.709 15 15v17.763c17.422 6.212 30 22.707 30 42.237 0 8.291-6.709 15-15 15s-15-6.709-15-15c0-8.276-6.724-15-15-15s-15 6.724-15 15 6.724 15 15 15z" fill="#ffffff" opacity="1" data-original="#000000" class=""></path></g></svg>