<svg xmlns="http://www.w3.org/2000/svg" id="Layer_1" data-name="Layer 1" viewBox="0 0 200 200"><defs><style>.cls-1{fill:#fff;}.cls-2{fill:#020403;}.cls-3{fill:#fefefe;}.cls-4{fill:#fdfdfd;}.cls-5{fill:#fcfcfc;}.cls-6{fill:#f8f8f8;}.cls-7{fill:#f9f9f9;}.cls-8{fill:#fafafa;}.cls-9{fill:#f7f7f7;}.cls-10{fill:#464847;}.cls-11{fill:#ff742f;}.cls-12{fill:#a9a9a9;}.cls-13{fill:#121413;}</style></defs><title>ISFwwHyderabad</title><rect class="cls-1" width="200" height="200"></rect><path class="cls-2" d="M58.23,150.67c0,.45.26.65.67.71a4.34,4.34,0,0,0,.51,0h80.8a1.59,1.59,0,0,0,1-.25,1.22,1.22,0,0,0,.4-1.56,1.28,1.28,0,0,0-1.36-.76h-6.85c-.43,0-.72,0-.71-.59,0-4.52,0-9,0-13.55v-4.08c0-3.39,0-6.77,0-10.16a1,1,0,0,1,.25-.76,35.4,35.4,0,0,0,2.17-2.87,2.14,2.14,0,0,0,.65-1.41c0-3.36,0-6.72,0-10.08a1.4,1.4,0,0,0-1.48-1.47c-.76,0-1.52,0-2.28,0-.55,0-.73-.13-.72-.71a38.91,38.91,0,0,0,0-4.32,6.31,6.31,0,0,1,1.29-4.45,4.75,4.75,0,0,0,1.34-2.51q.06-1.91,0-3.81a1.27,1.27,0,0,0-1.37-1.38,3.86,3.86,0,0,0-.76,0c-.42,0-.61-.09-.6-.56q0-6,0-12a.69.69,0,0,1,.51-.77c.64-.15.76-.63.77-1.13,0-1.61,0-3.22,0-4.83,0-.53-.19-1-.77-1.17s-.52-.4-.52-.79c0-1.3-.05-2.6,0-3.9a6.3,6.3,0,0,0-1.64-4.84A4.38,4.38,0,0,1,128.37,53a1.61,1.61,0,0,0-.69-1.62,1.18,1.18,0,0,0-1.19,0,1.56,1.56,0,0,0-.74,1.66,4.44,4.44,0,0,1-1.07,3.52,6.56,6.56,0,0,0-1.58,4.83c.08,1.24,0,2.48,0,3.73,0,.49.08,1-.57,1.19a.89.89,0,0,0-.49.91c0,1.72,0,3.44,0,5.17,0,.41.13.77.53.85s.54.47.53.89,0,.73,0,1.1q0,5.34,0,10.68c0,.34.15.71-.48.75-2.2.12-2.28.23-2.28,2.44a2.94,2.94,0,0,0,0,.42c.14.83-.21,1-1,1q-20.31,0-40.61,0c-1.9,0-1.9,0-1.9-1.88,0-1.69-.29-2-1.94-2-.61,0-.84-.14-.84-.8,0-3.87,0-7.74,0-11.61,0-.46.08-.77.54-.9a1,1,0,0,0,.75-1.1v-5a1,1,0,0,0-.72-1.11c-.51-.14-.56-.46-.56-.89,0-1.55,0-3.11,0-4.66a5.09,5.09,0,0,0-1.14-3.31c-1.12-1.34-2.1-2.75-1.7-4.66.12-.58-.26-.93-.67-1.25a1.28,1.28,0,0,0-1.2,0,1.65,1.65,0,0,0-.7,1.59c0,1,.27,2-.5,2.81-.37.4-.65.87-1,1.29a5.57,5.57,0,0,0-1.1,3.74c0,1.5,0,3,0,4.49,0,.34.06.69-.38.84a1.2,1.2,0,0,0-.77,1.28c0,1.55,0,3.11,0,4.66a1.13,1.13,0,0,0,.58,1.14c.53.22.59.58.58,1.07,0,3.7,0,7.4,0,11.1,0,1.21,0,1.21-1.21,1.25s-1.58.47-1.59,1.6c0,.71.06,1.42,0,2.12a5.51,5.51,0,0,0,1.27,3.9c.52.73,1.29,1.43,1.31,2.39.07,2.23,0,4.46,0,6.69,0,.38-.13.5-.49.49s-1,0-1.44,0c-2-.16-2.37.68-2.33,2.27.07,2.85,0,5.71,0,8.56a3.63,3.63,0,0,0,.64,2.21c.72,1.08,1.47,2.14,2.2,3.2a.79.79,0,0,1,.08.5q0,13.77,0,27.55c0,.58-.2.72-.73.71-1.56,0-3.11,0-4.67,0-.23,0-.8.1-.87.42Z"></path><path class="cls-3" d="M99.2,125.67l.3,0a10.69,10.69,0,0,1,1.23.46,21.19,21.19,0,0,1,6.84,3.88,6.44,6.44,0,0,1,2.26,5c-.07,4.3,0,8.59,0,12.89,0,.67-.12.92-.87.92q-10.24,0-20.51,0c-.72,0-.89-.23-.88-.92,0-4,.13-8,0-12a7.64,7.64,0,0,1,3.72-7.12,24,24,0,0,1,5.38-2.59c.39-.2.85-.22,1.23-.45l.3,0A1,1,0,0,1,99.2,125.67Z"></path><path class="cls-3" d="M98.59,96.93c7.8,0,15.6,0,23.39,0,.8,0,1,.23,1,1-.06,1.75,0,3.5,0,5.25,0,.48-.07.72-.63.7-1.27,0-2.55,0-3.82,0-.49,0-.64-.15-.61-.63s0-1.24,0-1.86a1.35,1.35,0,0,0-1.31-1.47c-.75,0-1.24.56-1.28,1.47q0,1,0,1.95c0,.41-.14.54-.53.54-1.19,0-2.38,0-3.56,0-.37,0-.5-.15-.49-.51,0-.68,0-1.36,0-2a1.29,1.29,0,1,0-2.57,0c0,.67,0,1.35,0,2,0,.37-.12.5-.49.5-1.19,0-2.37,0-3.56,0-.4,0-.55-.13-.53-.54,0-.68,0-1.36,0-2a1.29,1.29,0,1,0-2.57,0c0,.68,0,1.36,0,2,0,.46-.15.58-.59.57-1.15,0-2.31,0-3.47,0-.4,0-.55-.12-.53-.53,0-.65,0-1.3,0-2a1.35,1.35,0,0,0-1.27-1.48,1.38,1.38,0,0,0-1.32,1.52c0,.62,0,1.24,0,1.86,0,.43-.09.6-.55.58q-1.74,0-3.48,0c-.47,0-.57-.17-.55-.59,0-.65,0-1.3,0-2a1.33,1.33,0,0,0-1.33-1.41,1.31,1.31,0,0,0-1.25,1.4c0,.65,0,1.31,0,2,0,.42-.06.61-.54.6-1.16,0-2.32,0-3.47,0-.46,0-.59-.16-.57-.59q0-1,0-2a1.29,1.29,0,1,0-2.57,0c0,.65,0,1.3,0,2,0,.44-.11.6-.56.59-1.41,0-2.83,0-4.24,0-.35,0-.49-.09-.49-.47q0-3,0-6c0-.33.11-.46.44-.44s.45,0,.67,0Z"></path><path class="cls-4" d="M85,130.37c0,4.24,0,8.48,0,12.71,0,.62-.13.83-.79.82q-3.9-.06-7.79,0c-.7,0-.85-.23-.85-.89q0-11.06,0-22.11c0-1,.7-1.48,1.07-2.21a7,7,0,0,1,.41-.59,2.56,2.56,0,0,1,2.62-1.28,34,34,0,0,0,4.4,0c.72,0,1,.12,1,.91C85,122,85,126.16,85,130.37Z"></path><path class="cls-3" d="M112.45,143.67c0-.28,0-.56,0-.84,0-8.35,0-16.7,0-25,0-.81.24-1,1-1,1.77,0,3.55,0,5.32,0a1,1,0,0,1,1,.53c.47.8,1,1.55,1.54,2.32a2.72,2.72,0,0,1,.14,1.17c0,6.17,0,12.35,0,18.53a1.32,1.32,0,0,1-.91,1.48c-.93.36-1,.74-.39,1.53.26.36.76.74.56,1.15s-.81.18-1.23.18q-3.09,0-6.17,0A1.47,1.47,0,0,1,112.45,143.67Z"></path><path class="cls-3" d="M100,123.17c-1.74-.62-3.22.3-4.78.8a21.63,21.63,0,0,0-5.48,2.74A8.28,8.28,0,0,0,88,128.22c-.19.13-.33.07-.39-.12a1.73,1.73,0,0,1,0-.51c0-3.3,0-6.61,0-9.91,0-.65.18-.9.86-.9q10.25,0,20.51,0c.68,0,.86.26.86.9,0,3.31,0,6.61,0,9.91,0,.23.29.79-.4.64a18.41,18.41,0,0,0-5.41-3.52c-.88-.41-1.82-.72-2.72-1.08C100.85,123.42,100.39,123.43,100,123.17Z"></path><path class="cls-5" d="M92.85,110c-4.37,0-8.75,0-13.12,0a2.2,2.2,0,0,1-.92-.06c-.4-1-.1-2.14-.15-3.21,0-.18.19-.27.37-.28s.4,0,.6,0q19,0,38.09,0c.85,0,1.19.2,1.07,1.07a12.94,12.94,0,0,1-.12,2.41c-.23.17-.49.09-.74.09-4.74,0-9.48,0-14.22,0"></path><path class="cls-3" d="M67.16,143.81c0-.45,0-.9,0-1.35,0-6.85,0-13.7,0-20.56,0-.65.14-.85.82-.83,1.66.06,3.32,0,5,0A1.93,1.93,0,0,1,73,122c0,4.57,0,9.14,0,13.71a14.79,14.79,0,0,0,.16,3.11c.23,1-.23,2-.18,3,0,.64.28,1.46-.1,1.88s-1.28.16-1.94.16A20.64,20.64,0,0,1,67.16,143.81Z"></path><path class="cls-3" d="M70.12,114.27c-1.72,0-3.44,0-5.16,0-.55,0-.75-.15-.74-.72q0-3.16,0-6.35c0-.59.19-.78.79-.77q5.16,0,10.33,0c.56,0,.72.19.72.74q0,3.21,0,6.44c0,.53-.19.67-.69.66C73.62,114.26,71.87,114.27,70.12,114.27Z"></path><path class="cls-4" d="M127.24,114.27c-1.72,0-3.44,0-5.16,0-.55,0-.73-.15-.73-.72,0-2.14,0-4.29,0-6.43,0-.52.17-.69.68-.69,3.5,0,7,0,10.49,0,.53,0,.69.19.69.7,0,2.14,0,4.28,0,6.43,0,.57-.19.72-.73.71C130.74,114.25,129,114.27,127.24,114.27Z"></path><path class="cls-6" d="M121.63,94.33H76.56c-.26,0-.77.22-.77-.2a1,1,0,0,1,.84-1,3.85,3.85,0,0,1,.59,0q21.39,0,42.78,0C120.94,93.09,121.22,93.57,121.63,94.33Z"></path><path class="cls-3" d="M125.68,86.48c0-4,0-8.07,0-12.1,0-.65.15-.87.83-.86,2.15,0,2.15,0,2.15,2.14q0,5,0,10c-.12,1-.13,1-1.22,1.15C126.81,86.87,126.19,87.06,125.68,86.48Z"></path><path class="cls-4" d="M66.45,89.15c-.3,0-.62.1-.62.43,0,.8-.27,1.64.27,2.38s.8,1.19,1.17,1.81a1,1,0,0,0,1,.57c1.18,0,2.37,0,3.55,0,.32,0,.68,0,.84-.28.84-1.43,2-2.88,1.57-4.75Z"></path><path class="cls-4" d="M131.27,91.62,129.79,94a.8.8,0,0,1-.8.34c-1.22,0-2.43,0-3.65,0a1,1,0,0,1-1-.62c-.37-.72-.82-1.39-1.24-2.08a4,4,0,0,1-.19-2c0-.44.35-.4.68-.4a32.79,32.79,0,0,0,4.65-.1,24.37,24.37,0,0,1,2.58.12c.36,0,.62.14.62.53A4.57,4.57,0,0,1,131.27,91.62Z"></path><path class="cls-5" d="M68.69,86.65c0-2.43,0-4.85,0-7.28,0-1.92,0-3.84,0-5.75A18.55,18.55,0,0,1,71,73.55c.49,0,.44.31.44.62V85.09a2.78,2.78,0,0,1,0,.5c-.09.36.4.74,0,1a1.92,1.92,0,0,1-1.44.26A7.3,7.3,0,0,1,68.69,86.65Z"></path><path class="cls-7" d="M78.9,114.18c-.54-.43-.18-.91-.19-1.37a3.09,3.09,0,0,1,1.33-.17h23.74a2.94,2.94,0,0,1,1.22.12c.66,1.12.35,1.48-1.29,1.48q-11.85,0-23.7,0A3.75,3.75,0,0,1,78.9,114.18Z"></path><path class="cls-4" d="M71.7,100.5c0,.9,0,1.81,0,2.71,0,.54-.17.69-.67.65-.84-.06-1.91.34-2.46-.15s-.13-1.54-.14-2.35c0-1.27,0-2.54,0-3.81,0-.48.15-.64.62-.62a19.62,19.62,0,0,0,2,0c.55,0,.66.2.64.7C71.67,98.58,71.7,99.54,71.7,100.5Z"></path><path class="cls-4" d="M128.74,100.52c0,.93,0,1.86,0,2.78,0,.37,0,.59-.49.56-.73,0-1.46,0-2.2,0-.37,0-.48-.11-.47-.48,0-2,0-3.94,0-5.92,0-.4.12-.58.53-.53h.08c.81,0,1.84-.32,2.38.14s.11,1.48.16,2.26C128.76,99.72,128.74,100.12,128.74,100.52Z"></path><path class="cls-8" d="M126.14,59c.3-.43.51-1.19,1-1.16s.78.75,1,1.23a3.85,3.85,0,0,1,.5,2c0,1.36-.06,2.72,0,4.07,0,.72-.25.88-.87.83s-1,0-1.44,0c-.28,0-.59,0-.69-.33.13-1.63,0-3.25,0-4.88A3.51,3.51,0,0,1,126.14,59Z"></path><path class="cls-4" d="M80.3,148.82c-1.35,0-2.71,0-4.06,0-.53,0-.67-.17-.67-.68,0-1.67,0-1.67,1.6-1.67,2.34,0,4.68,0,7,0,.59,0,.83.08.81.76-.05,1.59,0,1.59-1.58,1.59C82.39,148.83,81.34,148.82,80.3,148.82Z"></path><path class="cls-4" d="M116.91,148.82c-1.3,0-2.59,0-3.89,0-.45,0-.63-.06-.64-.58,0-1.76,0-1.76,1.73-1.76,2.25,0,4.51,0,6.76,0,.61,0,.74.17.73.75,0,1.6,0,1.6-1.56,1.6Z"></path><path class="cls-4" d="M68.64,62.74c0-.71.06-1.42,0-2.12A3.93,3.93,0,0,1,69.76,58c.09-.12.21-.25.44,0a4.69,4.69,0,0,1,1.28,3.63c-.09,1.23,0,2.48,0,3.72,0,.49-.1.69-.65.7-2.18,0-2.18.06-2.18-2.11Z"></path><path class="cls-3" d="M121.59,142.65c-.08.43.26,1-.12,1.26s-.86,0-1.3,0h-7c-.23,0-.58.2-.7-.22h8.15c-.13-.61-.58-.9-.87-1.3-.55-.77-.5-1.45.39-1.63,1.35-.27,1.13-1.13,1.11-2q-.09-4,0-8c0-3.7,0-7.39.08-11.09.43.29.33.74.33,1.16q0,9.6,0,19.2"></path><path class="cls-9" d="M122.57,116.85h8.73c.15,0,.36-.09.43.14s-.08.25-.15.37a2.12,2.12,0,0,1-2.22,1.2,22.88,22.88,0,0,0-4.3,0C123.69,118.72,123.12,118,122.57,116.85Z"></path><path class="cls-6" d="M74.74,116.85c-.65,1.08-1.22,1.88-2.66,1.72a44.44,44.44,0,0,0-4.9,0,2.17,2.17,0,0,1-1.58-1.38c0-.22.06-.3.27-.3Z"></path><path class="cls-4" d="M127.17,148.83c-.81,0-1.63,0-2.45,0-.42,0-.57-.13-.58-.58-.06-1.76-.08-1.76,1.68-1.76,1.23,0,2.47,0,3.71,0,.46,0,.65.13.64.62-.06,2.1.28,1.68-1.65,1.72Z"></path><path class="cls-3" d="M69.94,148.82c-.74,0-1.47,0-2.2,0-.55,0-.64-.18-.64-.67,0-1.68,0-1.68,1.64-1.68,1.21,0,2.42,0,3.63,0,.47,0,.63.13.64.62,0,1.72.06,1.72-1.64,1.72Z"></path><path class="cls-8" d="M127.23,68.66c.73,0,1.46,0,2.2,0,.35,0,.47.12.5.49.12,1.78.14,1.77-1.63,1.77-1,0-2,0-3,0-.53,0-.74-.11-.73-.7,0-1.56,0-1.56,1.51-1.56Z"></path><path class="cls-5" d="M70.15,68.67h1.1c1.61,0,1.78.22,1.53,1.86-.06.36-.23.39-.52.39H68.05c-.35,0-.53-.12-.54-.48v-.08c-.15-1.7-.15-1.7,1.55-1.7Z"></path><path class="cls-10" d="M109.37,128.23c.47,0,.35-.34.36-.6,0-3.36,0-6.72,0-10.08,0-.47-.16-.65-.64-.65H88.33c-.52,0-.68.18-.68.69,0,3.36,0,6.72,0,10.09,0,.22-.11.55.32.54-.07.16-.16.33-.36.27s-.17-.27-.17-.44v-3c0-2.49,0-5,0-7.46,0-.66.19-.87.86-.87q10.38,0,20.75,0c.59,0,.87.12.86.79,0,3.47,0,7,0,10.42,0,.23.13.55-.22.64S109.38,128.43,109.37,128.23Z"></path><path class="cls-8" d="M126.71,58.08a25.48,25.48,0,0,0-.93,6,4,4,0,0,1-.11,1.57c-.12-1.85-.06-3.7,0-5.55A3.4,3.4,0,0,1,126.71,58.08Z"></path><path class="cls-11" d="M79.07,131c0-.34,0-.68,0-1a1.33,1.33,0,0,1,1.26-1.23,1.31,1.31,0,0,1,1.3,1.18,12.4,12.4,0,0,1,0,2.28,1.16,1.16,0,0,1-1.22,1.13,1.15,1.15,0,0,1-1.31-1.08,9,9,0,0,1,0-1.27Z"></path><path class="cls-11" d="M81.65,139.18c0,.36,0,.73,0,1.1a1.29,1.29,0,0,1-2.57,0,17.94,17.94,0,0,1,0-2.2,1.23,1.23,0,0,1,1.28-1.19,1.27,1.27,0,0,1,1.28,1.21C81.68,138.44,81.65,138.81,81.65,139.18Z"></path><path class="cls-11" d="M79.85,125.21a1.42,1.42,0,0,1-.36-.21c-.53-.57-.64-3.19-.14-3.77a1.19,1.19,0,0,1,1.17-.51,1.21,1.21,0,0,1,1,.87,7.36,7.36,0,0,1,0,2.92.87.87,0,0,1-.66.7A1,1,0,0,1,79.85,125.21Z"></path><path class="cls-12" d="M79.85,125.21h1C80.54,125.69,80.19,125.68,79.85,125.21Z"></path><path class="cls-11" d="M118.25,131.08c0,.34,0,.68,0,1a1.24,1.24,0,0,1-1.29,1.26,1.18,1.18,0,0,1-1.3-1.27c0-.64,0-1.29,0-1.94a1.33,1.33,0,0,1,1.31-1.37,1.38,1.38,0,0,1,1.29,1.37C118.26,130.46,118.25,130.77,118.25,131.08Z"></path><path class="cls-11" d="M115.64,139.17c0-.34,0-.68,0-1a1.25,1.25,0,0,1,1.21-1.27,1.28,1.28,0,0,1,1.38,1.19,13.47,13.47,0,0,1,0,2.2,1.29,1.29,0,0,1-1.38,1.19,1.25,1.25,0,0,1-1.2-1.28C115.62,139.85,115.64,139.51,115.64,139.17Z"></path><path class="cls-11" d="M115.64,123c0-.31,0-.63,0-.94a1.3,1.3,0,0,1,2.59-.09,15.28,15.28,0,0,1,0,2,1.3,1.3,0,1,1-2.6-.07c0-.31,0-.62,0-.93Z"></path><path class="cls-7" d="M103.26,112.81l14.9,0c.18,0,.41-.07.5.18,0,1.15-.68,1.2-1.61,1.19-4.15,0-8.29,0-12.43,0C103.1,114.13,103.27,114.38,103.26,112.81Z"></path><path class="cls-13" d="M130.23,135.69c.07-.29-.24-.8.22-.83s.85.43,1,.91-.22.54-.58.38a3.14,3.14,0,0,1-.59-.46Z"></path><rect class="cls-3" x="67.1" y="121.07" width="6.11" height="22.94"></rect><rect class="cls-4" x="124.23" y="121.07" width="6.11" height="22.94"></rect><path class="cls-11" d="M95.43,57.38s4-3.44,4.34.47c0,0,5.08-7.58,10.79-2.38,0,0-2.6-9.1-10.83-6.33C99.73,49.14,94.55,50.34,95.43,57.38Z"></path></svg>